<?xml version="1.0" standalone="no"?>
<!DOCTYPE svg PUBLIC "-//W3C//DTD SVG 20010904//EN"
 "http://www.w3.org/TR/2001/REC-SVG-20010904/DTD/svg10.dtd">
<svg version="1.0" xmlns="http://www.w3.org/2000/svg"
 width="700.000000pt" height="700.000000pt" viewBox="0 0 700.000000 700.000000"
 preserveAspectRatio="xMidYMid meet">
<metadata>
Created by potrace 1.14, written by Peter Selinger 2001-2017
</metadata>
<g transform="translate(0.000000,700.000000) scale(0.100000,-0.100000)"
fill="#000000" stroke="none">
<path d="M3437 6904 c-1 -1 -47 -4 -102 -8 -55 -3 -113 -8 -130 -11 -53 -9
-89 -14 -130 -20 -62 -9 -292 -71 -375 -101 -170 -61 -344 -148 -505 -252 -71
-46 -132 -87 -135 -91 -3 -3 -25 -22 -50 -41 -142 -109 -322 -295 -436 -450
-133 -180 -235 -364 -311 -560 -54 -139 -115 -351 -129 -450 -2 -19 -7 -48 -9
-65 -5 -36 -14 -114 -20 -170 -7 -74 -8 -821 -1 -814 2 2 6 60 9 127 3 68 7
126 9 128 3 2 10 -33 18 -79 25 -158 153 -614 200 -712 5 -11 19 -45 30 -75
11 -30 25 -65 30 -77 6 -13 14 -33 20 -45 107 -254 276 -589 421 -836 27 -45
49 -87 49 -92 0 -6 5 -10 10 -10 6 0 10 -5 10 -11 0 -6 14 -30 30 -54 17 -24
34 -52 38 -62 12 -30 311 -482 420 -634 86 -121 195 -270 206 -283 6 -6 22
-27 36 -46 13 -19 28 -39 32 -45 5 -5 36 -46 70 -90 84 -108 211 -269 218
-275 3 -3 23 -27 45 -55 21 -27 42 -52 45 -55 3 -3 41 -48 85 -100 43 -52 81
-97 84 -100 3 -3 35 -39 71 -80 36 -41 81 -93 102 -115 20 -22 52 -58 71 -80
l36 -40 158 161 c87 88 194 200 238 249 44 49 85 93 90 99 27 29 206 238 245
286 25 30 47 57 50 60 4 3 61 75 127 160 436 559 783 1117 1031 1658 105 227
238 581 288 767 25 88 75 287 79 310 3 17 12 57 20 90 13 59 38 226 50 335 39
361 24 580 -59 885 -9 33 -19 69 -21 79 -5 22 -47 138 -77 211 -47 116 -180
364 -200 373 -5 2 -8 8 -8 13 0 8 -96 147 -110 159 -3 3 -13 16 -22 29 -28 40
-140 162 -218 235 -85 81 -152 148 -297 303 -128 135 -227 200 -384 252 -63
21 -80 25 -144 37 -16 3 -48 9 -70 14 -35 8 -80 13 -200 25 -16 2 -77 6 -134
10 -57 3 -118 8 -135 10 -69 9 -352 24 -359 19z"/>
</g>
</svg>
