<?xml version="1.0" encoding="utf-8"?>
<!-- Generator: Adobe Illustrator 26.3.1, SVG Export Plug-In . SVG Version: 6.00 Build 0)  -->
<svg version="1.1" id="Layer_1" xmlns="http://www.w3.org/2000/svg" xmlns:xlink="http://www.w3.org/1999/xlink" x="0px" y="0px"
	 viewBox="0 0 400 175" style="enable-background:new 0 0 400 175;" xml:space="preserve">
<style type="text/css">
	.st0{fill:#788691;}
	.st1{fill-rule:evenodd;clip-rule:evenodd;fill:#0855A1;}
	.st2{fill-rule:evenodd;clip-rule:evenodd;fill:#0B78BD;}
	.st3{fill-rule:evenodd;clip-rule:evenodd;fill:#FFFFFF;}
	.st4{fill-rule:evenodd;clip-rule:evenodd;fill:#105792;}
	.st5{fill-rule:evenodd;clip-rule:evenodd;fill:#0C6BAD;}
	.st6{fill-rule:evenodd;clip-rule:evenodd;fill:#EC3945;}
	.st7{fill-rule:evenodd;clip-rule:evenodd;fill:#153F6B;}
	.st8{fill-rule:evenodd;clip-rule:evenodd;fill:#CA3135;}
	.st9{fill-rule:evenodd;clip-rule:evenodd;fill:url(#SVGID_1_);}
	.st10{fill-rule:evenodd;clip-rule:evenodd;fill:#D67B32;}
	.st11{fill-rule:evenodd;clip-rule:evenodd;fill:#D57D33;}
	.st12{fill-rule:evenodd;clip-rule:evenodd;fill:#D77F34;}
	.st13{fill-rule:evenodd;clip-rule:evenodd;fill:#D78134;}
	.st14{fill-rule:evenodd;clip-rule:evenodd;fill:#D88335;}
	.st15{fill-rule:evenodd;clip-rule:evenodd;fill:#DA8736;}
	.st16{fill-rule:evenodd;clip-rule:evenodd;fill:#D98836;}
	.st17{fill-rule:evenodd;clip-rule:evenodd;fill:#D98C37;}
	.st18{fill-rule:evenodd;clip-rule:evenodd;fill:#D98C34;}
	.st19{fill-rule:evenodd;clip-rule:evenodd;fill:#DA8E36;}
	.st20{fill-rule:evenodd;clip-rule:evenodd;fill:#DB9035;}
	.st21{fill-rule:evenodd;clip-rule:evenodd;fill:#DB9234;}
	.st22{fill-rule:evenodd;clip-rule:evenodd;fill:#DC9633;}
	.st23{fill-rule:evenodd;clip-rule:evenodd;fill:#DC9630;}
	.st24{fill-rule:evenodd;clip-rule:evenodd;fill:#DD9A31;}
	.st25{fill-rule:evenodd;clip-rule:evenodd;fill:#DD9C32;}
	.st26{fill-rule:evenodd;clip-rule:evenodd;fill:#DE9E32;}
	.st27{fill-rule:evenodd;clip-rule:evenodd;fill:#E0A233;}
	.st28{fill-rule:evenodd;clip-rule:evenodd;fill:#E0A533;}
	.st29{fill-rule:evenodd;clip-rule:evenodd;fill:#E1A633;}
	.st30{fill-rule:evenodd;clip-rule:evenodd;fill:#E2A933;}
	.st31{fill-rule:evenodd;clip-rule:evenodd;fill:#E3AC33;}
	.st32{fill-rule:evenodd;clip-rule:evenodd;fill:#E4AF34;}
	.st33{fill-rule:evenodd;clip-rule:evenodd;fill:#E5B235;}
	.st34{fill-rule:evenodd;clip-rule:evenodd;fill:#E6B732;}
	.st35{fill-rule:evenodd;clip-rule:evenodd;fill:#E8B932;}
	.st36{fill-rule:evenodd;clip-rule:evenodd;fill:#E9BC33;}
	.st37{fill-rule:evenodd;clip-rule:evenodd;fill:#EABE32;}
	.st38{fill-rule:evenodd;clip-rule:evenodd;fill:#EAC032;}
	.st39{fill-rule:evenodd;clip-rule:evenodd;fill:#EBC134;}
	.st40{fill-rule:evenodd;clip-rule:evenodd;fill:#ECC434;}
	.st41{fill-rule:evenodd;clip-rule:evenodd;fill:#EEC734;}
	.st42{fill-rule:evenodd;clip-rule:evenodd;fill:#EEC835;}
	.st43{fill-rule:evenodd;clip-rule:evenodd;fill:#EFCA35;}
	.st44{fill-rule:evenodd;clip-rule:evenodd;fill:#F0CB36;}
	.st45{fill-rule:evenodd;clip-rule:evenodd;fill:#F1CE36;}
	.st46{fill-rule:evenodd;clip-rule:evenodd;fill:#F2CF37;}
	.st47{fill-rule:evenodd;clip-rule:evenodd;fill:#F2D238;}
	.st48{fill-rule:evenodd;clip-rule:evenodd;fill:#F3D338;}
	.st49{fill-rule:evenodd;clip-rule:evenodd;fill:#F3D439;}
	.st50{fill-rule:evenodd;clip-rule:evenodd;fill:#F4D839;}
	.st51{fill-rule:evenodd;clip-rule:evenodd;fill:#F3D539;}
	.st52{fill-rule:evenodd;clip-rule:evenodd;fill:#F3D53C;}
	.st53{fill-rule:evenodd;clip-rule:evenodd;fill:#F4D73C;}
	.st54{fill-rule:evenodd;clip-rule:evenodd;fill:#F4D73E;}
	.st55{fill-rule:evenodd;clip-rule:evenodd;fill:#F3D63E;}
	.st56{fill-rule:evenodd;clip-rule:evenodd;fill:#F3D541;}
	.st57{fill-rule:evenodd;clip-rule:evenodd;fill:#F3D544;}
	.st58{fill-rule:evenodd;clip-rule:evenodd;fill:#F3D849;}
	.st59{fill-rule:evenodd;clip-rule:evenodd;fill:#F2D74A;}
	.st60{fill-rule:evenodd;clip-rule:evenodd;fill:#F2D74D;}
	.st61{fill-rule:evenodd;clip-rule:evenodd;fill:#F2D84E;}
	.st62{fill-rule:evenodd;clip-rule:evenodd;fill:#F2D751;}
	.st63{fill-rule:evenodd;clip-rule:evenodd;fill:#F2D952;}
	.st64{fill-rule:evenodd;clip-rule:evenodd;fill:#F2D956;}
	.st65{fill-rule:evenodd;clip-rule:evenodd;fill:#F2D958;}
	.st66{fill-rule:evenodd;clip-rule:evenodd;fill:#F2D95A;}
	.st67{fill-rule:evenodd;clip-rule:evenodd;fill:#F1DC5C;}
	.st68{fill-rule:evenodd;clip-rule:evenodd;fill:#F1DC5D;}
	.st69{fill-rule:evenodd;clip-rule:evenodd;fill:#F2DC5E;}
	.st70{fill-rule:evenodd;clip-rule:evenodd;fill:#F1DB5F;}
	.st71{fill-rule:evenodd;clip-rule:evenodd;fill:#F2DC61;}
	.st72{fill-rule:evenodd;clip-rule:evenodd;fill:#F2DB66;}
	.st73{fill-rule:evenodd;clip-rule:evenodd;fill:#F2DB64;}
	.st74{fill-rule:evenodd;clip-rule:evenodd;fill:#F2DD66;}
	.st75{fill-rule:evenodd;clip-rule:evenodd;fill:#F2DC6A;}
	.st76{fill-rule:evenodd;clip-rule:evenodd;fill:#F2DC6D;}
	.st77{fill-rule:evenodd;clip-rule:evenodd;fill:#F1DC71;}
	.st78{fill-rule:evenodd;clip-rule:evenodd;fill:#F1DF71;}
	.st79{fill-rule:evenodd;clip-rule:evenodd;fill:#F2DE72;}
	.st80{fill-rule:evenodd;clip-rule:evenodd;fill:#F2DF74;}
	.st81{fill-rule:evenodd;clip-rule:evenodd;fill:#F2DE76;}
	.st82{fill-rule:evenodd;clip-rule:evenodd;fill:#F2DE79;}
	.st83{fill-rule:evenodd;clip-rule:evenodd;fill:#F2DE7A;}
	.st84{fill-rule:evenodd;clip-rule:evenodd;fill:#F1DE7D;}
	.st85{fill-rule:evenodd;clip-rule:evenodd;fill:#F1DD7E;}
	.st86{fill-rule:evenodd;clip-rule:evenodd;fill:#F2DF7D;}
	.st87{fill-rule:evenodd;clip-rule:evenodd;fill:#F2E07F;}
	.st88{fill-rule:evenodd;clip-rule:evenodd;fill:#F2E082;}
	.st89{fill-rule:evenodd;clip-rule:evenodd;fill:#F2E084;}
	.st90{fill-rule:evenodd;clip-rule:evenodd;fill:#F2E087;}
	.st91{fill-rule:evenodd;clip-rule:evenodd;fill:#F2E187;}
	.st92{fill-rule:evenodd;clip-rule:evenodd;fill:#F2E18A;}
	.st93{fill-rule:evenodd;clip-rule:evenodd;fill:#F2E28B;}
	.st94{fill-rule:evenodd;clip-rule:evenodd;fill:#F3E28B;}
	.st95{fill-rule:evenodd;clip-rule:evenodd;fill:#F3E18F;}
	.st96{fill-rule:evenodd;clip-rule:evenodd;fill:#F3E391;}
	.st97{fill-rule:evenodd;clip-rule:evenodd;fill:url(#SVGID_00000118358249267573174900000001549120520741768067_);}
	.st98{fill-rule:evenodd;clip-rule:evenodd;fill:url(#SVGID_00000076598185376042690440000011989118902027374489_);}
</style>
<g>
	<path class="st0" d="M160.6,92.7c-3.2,0-6,0.7-8.5,2l-0.1,0V81.3h-7.8v25.4c0,9.2,6.3,15.6,15.4,15.6c9.1,0,15.7-6.5,15.7-15.4
		C175.3,99,168.7,92.7,160.6,92.7z M152,102.8l1.4-0.9c1.5-1,4.2-2.1,6.3-2.1c4.8,0,7.8,3,7.8,7.6c0,4.5-3.3,7.7-7.9,7.7
		c-4.7,0-7.6-3.5-7.6-9.2V102.8z"/>
	<path class="st0" d="M199,110.9c-1.9,3.3-4.3,4.8-7.5,4.8c-4.1,0-7.2-2.5-7.8-6.1h22l0.1-1.2c0.3-4.6-1.1-8.9-4-11.9
		c-2.7-2.9-6.4-4.4-10.8-4.4c-8.9,0-15,6.4-15,15.5c0,8.6,6.4,14.9,15.2,14.9c6.2,0,11.2-2.9,14.2-8l0.7-1.2l-6.4-3.4L199,110.9z
		 M184.3,103.1c1.1-2.4,3.9-4.2,6.8-4.2c2.8,0,5.4,1.7,6.5,4.2H184.3z"/>
	<path class="st0" d="M226.4,93.2l-7.2,17.8l-7.2-17.8h-8.4l10.4,25.6c1.2,2.9,2.9,3.5,5.2,3.5c2.3,0,4-0.6,5.2-3.5l10.5-25.6H226.4
		z"/>
	<path class="st0" d="M255.6,110.9c-1.9,3.3-4.3,4.8-7.5,4.8c-4.1,0-7.2-2.5-7.8-6.1h22l0.1-1.2c0.3-4.6-1.1-8.9-3.9-11.9
		c-2.7-2.9-6.4-4.4-10.8-4.4c-8.9,0-15,6.4-15,15.5c0,8.6,6.4,14.9,15.2,14.9c6.2,0,11.2-2.9,14.2-8l0.7-1.2l-6.4-3.4L255.6,110.9z
		 M240.9,103.1c1.1-2.4,3.9-4.2,6.8-4.2c2.8,0,5.4,1.7,6.5,4.2H240.9z"/>
	<path class="st0" d="M280.5,92.7H278c-2.6,0-4.7,0.6-6.3,1.7v-1.2h-7.5v28.5h7.8v-13.4c0-7.5,3.5-8.5,6.5-8.5h2.1V92.7z"/>
	<path class="st0" d="M295.4,92.7c-9.6,0-16.3,6-16.3,14.5c0,8.6,6.7,15.1,15.6,15.1c4.2,0,6.5-1.3,8.6-2.7l0.1-0.1v2.2h8v-15.4
		C311.3,98,305.1,92.7,295.4,92.7z M303.3,109.9l-1.8,2.1c-1.3,1.4-3.4,3.1-6.3,3.1c-4.6,0-8.1-3.2-8.1-7.5c0-3.8,2.8-7.7,8.2-7.7
		c3.9,0,8.1,1.9,8.1,6V109.9z"/>
	<path class="st0" d="M328.4,92.7c-9.1,0-15.7,6.4-15.7,15.1c0,8.3,6.7,14.5,15.7,14.5c2,0,5-0.8,7.1-1.9l0.1,0
		c-0.2,5.6-5.3,6.5-8.3,6.5c-2.4,0-4.8-0.6-7.4-1.3l-1.3-0.3l-1.9,6.8l1.2,0.4c3.4,1.1,6.5,1.6,9.5,1.6c9.8,0,15.9-6,15.9-15.7
		v-11.5C343.4,99.9,337.8,92.7,328.4,92.7z M334.3,113.1c-1.8,1-3.8,1.9-5.9,1.9c-4.7,0-8-2.9-8-7c0-4,2-8.2,7.7-8.2
		c4.4,0,7.5,3.3,7.5,8v4.5L334.3,113.1z"/>
	<path class="st0" d="M367.1,110.9c-1.9,3.3-4.3,4.8-7.5,4.8c-4.1,0-7.2-2.5-7.8-6.1h22l0.1-1.2c0.3-4.6-1.1-8.9-3.9-11.9
		c-2.7-2.9-6.4-4.4-10.8-4.4c-8.9,0-15,6.4-15,15.5c0,8.6,6.4,14.9,15.2,14.9c6.2,0,11.2-2.9,14.2-8l0.7-1.2l-6.4-3.4L367.1,110.9z
		 M352.4,103.1c1.1-2.4,3.9-4.2,6.8-4.2c2.8,0,5.4,1.7,6.5,4.2H352.4z"/>
	<path class="st0" d="M387.7,103.5c-2-0.6-5-1.4-5.1-2.2c0.1-0.8,0.1-1,1.8-1h13.5v-7.2h-12.7c-6.5,0-10.3,3-10.3,8.3
		c0,6.2,6.5,8,11.2,9.3c2.4,0.7,5.4,1.5,5.4,2.5c0,0.6,0,1.2-1.8,1.2h-14.8v7.2h14.8c5.8,0,9.5-3.3,9.5-8.5
		C399.2,106.7,392.6,104.9,387.7,103.5z"/>
</g>
<path class="st1" d="M118.6,73.1c-5,0-10-0.2-14.9-0.6c0,7.8,0,11.9,0,11.9h24.9V72.9C125.2,73,121.9,73.1,118.6,73.1z"/>
<g>
	<path class="st2" d="M118.6,68.8c3.3,0,6.6-0.1,9.9-0.2v-13c0-9,7.7-14.3,19.4-14.3h6.7V24.7h-7.1c-16.2,0-43.9,7.6-43.9,28.1
		c0,5.9,0,11.1,0,15.4C108.5,68.6,113.5,68.8,118.6,68.8z"/>
	<path class="st2" d="M181.9,59.8c-0.7-1.5-1.1-3.1-1.1-4.8c0-8.1,8.5-14,21.9-14h25.3V25.5h-26c-28.4,0-45.4,11.4-45.4,29.5
		c0,3.7,0.7,7,2,10.1C166.3,63.7,174,61.9,181.9,59.8z"/>
	<path class="st1" d="M184.7,63.4c-8,2.3-16,4.1-23.9,5.6c6.7,9.7,21.1,15.4,41.1,15.4h26V68.9h-25.3
		C194.7,68.9,188.4,66.8,184.7,63.4z"/>
	<path class="st2" d="M259.9,41.5l10.7-1c4-0.3,7.9-0.5,11.8-0.6V25.5h-22.4V1h-22.3v43.7C245.2,43.4,252.6,42.3,259.9,41.5z"/>
	<path class="st1" d="M259.9,62.4V45.8c-7.3,0.8-14.8,1.9-22.3,3.3v13.7c0,13.1,6.6,21.6,28.2,21.6h16.6V68.9h-13.3
		C264.3,68.9,259.9,66.7,259.9,62.4z"/>
	<path class="st2" d="M306.4,18.8c6.7,0,11.8-3,11.8-8.3c0-5.3-5.1-8.3-11.8-8.3c-6.7,0-11.8,3-11.8,8.3
		C294.6,15.8,299.7,18.8,306.4,18.8z"/>
	<path class="st2" d="M318.1,40.8V25.5h-23.4v14.3C302.7,39.8,310.5,40.2,318.1,40.8z"/>
	<path class="st1" d="M294.7,44v40.4h23.4V45.2C310.5,44.5,302.7,44.1,294.7,44z"/>
	<path class="st1" d="M350.7,55c0-1.7,0.4-3.3,1.1-4.8c-7.6-1.6-15.5-2.9-23.8-3.9c-1,2.7-1.5,5.6-1.5,8.7c0,18.1,17,29.5,45.4,29.5
		h26V68.9h-25.3C359.2,68.9,350.7,63.1,350.7,55z"/>
	<path class="st2" d="M354.7,46.4c3.8-3.3,10-5.4,17.9-5.4h25.3V25.5h-26c-20.9,0-35.6,6.2-41.9,16.7
		C338.6,43.3,346.9,44.7,354.7,46.4z"/>
	<path class="st2" d="M30.3,45.5c4.1-3.6,10.4-6,17.3-6c13.6,0,22.1,4.6,22.1,11.7v11.1c8.1,2.2,16.3,3.9,24.8,5V50.5
		C94.5,35.2,76.3,24,48,24c-13.8,0-26.3,3.6-34.9,9.8C18.7,38.1,24.4,42,30.3,45.5z"/>
	<path class="st1" d="M25.6,55c0-2.2,0.7-4.3,1.8-6.1c-6.1-3.7-12-7.8-17.8-12.3c-5.5,5.1-8.8,11.6-8.8,19c0,15.4,17,29.4,46,29.4
		c5,0,11.2-0.6,16.8-1.5V67.4c-4.7,1.1-9.8,1.8-15.2,1.8C35.8,69.2,25.6,62.9,25.6,55z"/>
	<path class="st1" d="M69.7,66.8v17.7h24.8V71.7C86,70.6,77.8,69,69.7,66.8z"/>
</g>
<g>
	<path class="st3" d="M217.9,139.8c7.7,7.7,7.7,20.3,0,28c-7.7,7.7-20.3,7.7-28,0c-7.7-7.7-7.7-20.3,0-28
		C197.6,132.1,210.1,132.1,217.9,139.8z"/>
	<path class="st4" d="M218.1,139.6c-3.8-3.8-8.9-5.9-14.2-5.9c-5.4,0-10.4,2.1-14.2,5.9c-7.8,7.8-7.8,20.6,0,28.5
		c3.8,3.8,8.9,5.9,14.2,5.9c5.4,0,10.4-2.1,14.2-5.9C225.9,160.2,225.9,147.4,218.1,139.6z M203.8,173.3c-5.2,0-10.1-2-13.8-5.7
		c-7.6-7.6-7.6-20,0-27.6c3.7-3.7,8.6-5.7,13.8-5.7c5.2,0,10.1,2,13.8,5.7c7.6,7.6,7.6,20,0,27.6C213.9,171.3,209,173.3,203.8,173.3
		z"/>
	<path class="st5" d="M219.4,143.7c0.4,1.2,0.6,2.5,0.6,3.8c0,4.3-2.1,8.1-5.3,10.5c-5.6,4.1-13.8,4.1-25,7.7
		c3.4,4.1,8.5,6.7,14.2,6.7c10.2,0,18.5-8.3,18.5-18.5C222.4,150.1,221.3,146.6,219.4,143.7z"/>
	<path class="st6" d="M215,139c-3.1-2.3-6.9-3.7-11.1-3.7c-10.2,0-18.5,8.3-18.5,18.5c0,4.1,1.3,7.9,3.6,11
		C201.4,161.2,211.2,151.4,215,139z"/>
	<path class="st7" d="M265.9,152.6C265.9,152.6,265.9,152.7,265.9,152.6c-0.4,0.2-0.8,0.3-1.4,0.3c-0.9,0-1.9-0.1-3-0.3
		c-1.3-0.2-2.8-0.4-4.2-0.4c-0.3,0-0.5,0-0.8,0c-1.2,0.1-2.6,0.3-3.8,0.7c0.4-3.9,4.1-5.3,6.5-5.3
		C264.5,147.7,265.7,151.8,265.9,152.6z M290.9,150c0,1,0.5,1.9,1.3,2.7c0.8,0.7,2,1.3,3.6,1.8c1.3,0.4,2.2,0.9,2.8,1.3
		c0.5,0.5,0.8,1,0.8,1.6c0,1.5-1.5,2.4-3.9,2.4c-1.7,0-3.2-0.6-3.9-1l-0.4-0.2l-0.2,0.4l-0.8,1.6l0.4,0.2c1.4,0.7,3.1,1.1,4.8,1.1
		c1.9,0,3.5-0.4,4.7-1.3c1.2-0.8,1.9-2,1.9-3.4v0c0-1.2-0.5-2.2-1.4-3c-0.8-0.7-2-1.3-3.6-1.8c-1.4-0.5-2.2-0.8-2.7-1.2
		c-0.6-0.4-0.8-0.8-0.8-1.4c0-1.1,1-2.1,3.1-2.1c1.7,0,2.8,0.5,3.4,0.8l0.4,0.2l1.2-1.9l-0.4-0.2c-1.1-0.6-2.7-1-4.2-1
		c-1.8,0-3.3,0.4-4.4,1.3C291.5,147.7,290.9,148.8,290.9,150z M279.6,161.8c5.1,0,9.2-3.7,9.2-8.1c0-4.6-4.1-8.1-9.2-8.1
		c-4.5,0-9,2.9-9,9.2l0,12l2.5,0c0,0,0-7,0-7.8C274.5,160.8,276.9,161.8,279.6,161.8z M272.9,153.8c0-3,2.5-6.1,6.6-6.1
		c3.8,0,6.7,2.6,6.7,6.1c0,3-2.3,6-6.6,6C275.4,159.7,272.9,156.7,272.9,153.8z M305.1,161.5h2.5l0-15.5l-2.5,0L305.1,161.5z
		 M308,142.6c0-1-0.8-1.7-1.7-1.7c-1,0-1.8,0.8-1.8,1.7c0,1,0.8,1.8,1.8,1.8C307.2,144.3,308,143.6,308,142.6z M232.5,159
		c1.5,1.7,3.9,2.8,6.6,2.8c5.1,0,9.2-3.7,9.2-8.1c0-4.6-4.1-8.1-9.2-8.1c-4.5,0-9,2.9-9,9.2l0,12l2.6,0
		C232.5,166.8,232.5,159.8,232.5,159z M232.4,153.8c0-3,2.5-6.1,6.6-6.1c3.8,0,6.7,2.6,6.7,6.1c0,3-2.3,6-6.6,6
		C234.9,159.7,232.4,156.7,232.4,153.8z M250.1,153.7c0,1.4,0.4,2.7,1.2,4.1c1.5,2.5,4.6,4.1,8.1,4.1c3.3,0,6.5-1.6,8-4.1l0.5-0.9
		h-2.8c-1.1,1.6-3.5,2.8-5.7,2.8c-3,0-5.5-1.7-6.4-4.3c1.9-0.8,3.7-0.9,4.9-0.9c0.7,0,1.6,0.1,2.6,0.2c1.2,0.2,2.6,0.4,4,0.4
		c1.1,0,2.2-0.1,3.3-0.5c0.7-0.3,0.9-0.6,0.8-1.5c-0.3-1.8-1.8-7.6-9.2-7.6C254.8,145.6,250.1,148.4,250.1,153.7z"/>
</g>
<g>
	<path class="st8" d="M390.2,143c0.1,0,0.2,0,0.2-0.2c0-0.2-0.2-0.2-0.3-0.2h-0.2v0.4H390.2z M390.2,144.7c-0.8,0-1.5-0.6-1.5-1.5
		c0-1,0.7-1.5,1.5-1.5c0.8,0,1.5,0.6,1.5,1.5C391.7,144.1,391,144.7,390.2,144.7z M390.2,142c-0.6,0-1.1,0.5-1.1,1.2
		c0,0.7,0.5,1.2,1.1,1.2v0c0.6,0,1.1-0.5,1.1-1.2C391.3,142.4,390.8,142,390.2,142z M389.9,143.9h-0.3v-1.6h0.6
		c0.4,0,0.7,0.1,0.7,0.5c0,0.3-0.2,0.4-0.4,0.4l0.4,0.7h-0.4l-0.4-0.7h-0.2V143.9z"/>
	<linearGradient id="SVGID_1_" gradientUnits="userSpaceOnUse" x1="317.6613" y1="154.7692" x2="387.8758" y2="154.7692">
		<stop  offset="0" style="stop-color:#6A1111"/>
		<stop  offset="0.297" style="stop-color:#8A181B"/>
		<stop  offset="0.5394" style="stop-color:#6A1111"/>
		<stop  offset="1" style="stop-color:#761214"/>
	</linearGradient>
	<path class="st9" d="M386.7,142.5c-0.3-1-4.8-3.1-12-3.1c-7.2,0-14.7,2-19.8,3.2c-5.7,1.4-12.6,3.3-19.9,3.3
		c-7.7,0-12.7-2.3-12.1-3.4c-2.5,3.8-4,7.7-4.8,11.8c-0.8,4.6-0.5,8.8,0.7,12.8c0.3,1,4.8,3.1,12,3.1c7.2,0,14.7-2,19.8-3.2
		c5.6-1.3,12.6-3.3,19.9-3.3c7.7,0,12.7,2.3,12.1,3.4c2.5-3.8,4-7.7,4.8-11.8C388.3,150.7,387.9,146.4,386.7,142.5"/>
	<g>
		<path class="st10" d="M366,153.8c7.5,0,13.5-6.1,13.5-13.5c0-7.5-6.1-13.5-13.5-13.5c-7.5,0-13.5,6.1-13.5,13.5
			C352.5,147.7,358.6,153.8,366,153.8z"/>
		<path class="st10" d="M366.1,153.7c7.5,0,13.5-6,13.5-13.5c0-7.5-6.1-13.5-13.5-13.5c-7.5,0-13.5,6-13.5,13.5
			C352.5,147.7,358.6,153.7,366.1,153.7z"/>
		<path class="st11" d="M366.1,153.7c7.5,0,13.5-6,13.5-13.5c0-7.5-6.1-13.5-13.5-13.5c-7.5,0-13.5,6-13.5,13.5
			C352.6,147.6,358.6,153.7,366.1,153.7z"/>
		<path class="st11" d="M366.1,153.6c7.4,0,13.5-6,13.4-13.4c0-7.5-6.1-13.5-13.5-13.5c-7.4,0-13.5,6-13.4,13.4
			C352.6,147.6,358.7,153.6,366.1,153.6z"/>
		<path class="st12" d="M366.2,153.6c7.4,0,13.4-6,13.4-13.4c0-7.4-6.1-13.5-13.5-13.5c-7.4,0-13.4,6-13.4,13.4
			C352.7,147.5,358.7,153.6,366.2,153.6z"/>
		<path class="st12" d="M366.2,153.6c7.4,0,13.4-6,13.4-13.4c0-7.4-6.1-13.5-13.5-13.5c-7.4,0-13.4,6-13.4,13.4
			C352.7,147.5,358.8,153.5,366.2,153.6z"/>
		<path class="st12" d="M366.2,153.5c7.4,0,13.4-5.9,13.4-13.3c0-7.4-6.1-13.4-13.5-13.5c-7.4,0-13.4,5.9-13.3,13.3
			C352.8,147.5,358.8,153.5,366.2,153.5z"/>
		<path class="st13" d="M366.2,153.5c7.4,0,13.3-5.9,13.3-13.3c0-7.4-6-13.4-13.5-13.5c-7.4,0-13.3,5.9-13.3,13.3
			C352.8,147.4,358.9,153.4,366.2,153.5z"/>
		<path class="st13" d="M366.3,153.4c7.4,0,13.3-5.9,13.3-13.3c0-7.4-6-13.4-13.4-13.4c-7.4,0-13.3,5.9-13.3,13.3
			C352.9,147.4,358.9,153.4,366.3,153.4z"/>
		<path class="st14" d="M366.3,153.4c7.4,0.1,13.3-5.9,13.3-13.2c0-7.4-6-13.4-13.4-13.4c-7.4,0-13.3,5.9-13.2,13.3
			C352.9,147.3,358.9,153.3,366.3,153.4z"/>
		<path class="st14" d="M366.3,153.3c7.4,0,13.3-5.8,13.2-13.2c0-7.4-6-13.4-13.4-13.4c-7.4,0-13.3,5.9-13.2,13.2
			C353,147.3,359,153.3,366.3,153.3z"/>
		<path class="st14" d="M366.4,153.3c7.3,0.1,13.2-5.8,13.2-13.2c0-7.4-6-13.4-13.4-13.4c-7.4,0-13.2,5.8-13.2,13.2
			C353,147.2,359,153.2,366.4,153.3z"/>
		<path class="st14" d="M366.4,153.3c7.3,0.1,13.2-5.8,13.2-13.2c0-7.4-6-13.4-13.4-13.4c-7.3,0-13.2,5.8-13.2,13.2
			C353.1,147.2,359.1,153.2,366.4,153.3z"/>
		<path class="st14" d="M366.4,153.2c7.3,0.1,13.2-5.8,13.1-13.1c-0.1-7.3-6-13.3-13.4-13.4c-7.3,0-13.2,5.8-13.1,13.1
			C353.1,147.2,359.1,153.1,366.4,153.2z"/>
		<path class="st14" d="M366.5,153.2c7.3,0.1,13.2-5.8,13.1-13.1c-0.1-7.3-6-13.3-13.4-13.4c-7.3-0.1-13.2,5.8-13.1,13.1
			C353.2,147.1,359.2,153.1,366.5,153.2z"/>
		<path class="st15" d="M366.5,153.1c7.3,0.1,13.1-5.7,13.1-13.1c-0.1-7.3-6-13.3-13.4-13.4c-7.3-0.1-13.1,5.8-13.1,13.1
			C353.2,147.1,359.2,153.1,366.5,153.1z"/>
		<path class="st15" d="M366.5,153.1c7.3,0.1,13.1-5.7,13-13c-0.1-7.3-6-13.3-13.4-13.4c-7.3-0.1-13.1,5.7-13,13
			C353.3,147,359.2,153,366.5,153.1z"/>
		<path class="st16" d="M366.6,153c7.3,0.1,13.1-5.7,13-13c-0.1-7.3-6-13.3-13.3-13.3c-7.3-0.1-13.1,5.7-13,13
			C353.3,147,359.3,153,366.6,153z"/>
		<path class="st16" d="M366.6,153c7.3,0.1,13-5.7,13-13c-0.1-7.3-6-13.3-13.3-13.3c-7.3-0.1-13.1,5.7-13,13
			C353.4,146.9,359.3,152.9,366.6,153z"/>
		<path class="st16" d="M366.6,153c7.3,0.1,13-5.7,12.9-12.9c-0.1-7.3-6-13.2-13.3-13.3c-7.3-0.1-13,5.7-12.9,12.9
			C353.4,146.9,359.4,152.9,366.6,153z"/>
		<path class="st16" d="M366.6,152.9c7.2,0.1,13-5.6,12.9-12.9c-0.1-7.3-6-13.2-13.3-13.3c-7.3-0.1-13,5.7-12.9,12.9
			C353.5,146.9,359.4,152.8,366.6,152.9z"/>
		<path class="st16" d="M366.7,152.9c7.2,0.1,13-5.6,12.9-12.9c-0.1-7.3-6-13.2-13.3-13.3c-7.3-0.1-13,5.6-12.9,12.9
			C353.5,146.8,359.4,152.8,366.7,152.9z"/>
		<path class="st17" d="M366.7,152.8c7.2,0.1,12.9-5.6,12.8-12.8c-0.1-7.3-6-13.2-13.3-13.3c-7.2-0.1-13,5.6-12.8,12.8
			C353.5,146.8,359.5,152.7,366.7,152.8z"/>
		<path class="st17" d="M366.7,152.8c7.2,0.1,12.9-5.6,12.8-12.8c-0.1-7.2-6-13.2-13.3-13.3c-7.2-0.1-12.9,5.6-12.8,12.8
			C353.6,146.7,359.5,152.7,366.7,152.8z"/>
		<path class="st17" d="M366.8,152.7c7.2,0.1,12.9-5.6,12.8-12.8c-0.1-7.2-6-13.2-13.3-13.3c-7.2-0.1-12.9,5.6-12.8,12.8
			C353.6,146.7,359.6,152.6,366.8,152.7z"/>
		<path class="st18" d="M366.8,152.7c7.2,0.1,12.8-5.5,12.8-12.7c-0.1-7.2-6-13.1-13.2-13.2c-7.2-0.1-12.9,5.6-12.8,12.7
			C353.7,146.6,359.6,152.6,366.8,152.7z"/>
		<path class="st18" d="M366.8,152.7c7.2,0.1,12.8-5.5,12.7-12.7c-0.1-7.2-6-13.1-13.2-13.2c-7.2-0.1-12.9,5.5-12.7,12.7
			C353.7,146.6,359.7,152.5,366.8,152.7z"/>
		<path class="st18" d="M366.9,152.6c7.2,0.1,12.8-5.5,12.7-12.7c-0.1-7.2-6-13.1-13.2-13.2c-7.2-0.1-12.8,5.5-12.7,12.7
			C353.8,146.6,359.7,152.5,366.9,152.6z"/>
		<path class="st19" d="M366.9,152.6c7.2,0.1,12.8-5.5,12.7-12.6c-0.1-7.2-6-13.1-13.2-13.2c-7.2-0.1-12.8,5.5-12.7,12.7
			C353.8,146.5,359.7,152.4,366.9,152.6z"/>
		<path class="st19" d="M366.9,152.5c7.1,0.1,12.7-5.5,12.6-12.6c-0.1-7.2-6-13.1-13.2-13.2c-7.2-0.1-12.8,5.5-12.6,12.6
			C353.9,146.5,359.8,152.4,366.9,152.5z"/>
		<path class="st20" d="M367,152.5c7.1,0.2,12.7-5.4,12.6-12.6c-0.1-7.2-6-13.1-13.2-13.2c-7.2-0.1-12.7,5.5-12.6,12.6
			C353.9,146.4,359.8,152.3,367,152.5z"/>
		<path class="st20" d="M367,152.5c7.1,0.2,12.7-5.4,12.6-12.6c-0.1-7.2-6-13.1-13.2-13.2c-7.2-0.1-12.7,5.4-12.6,12.6
			C354,146.4,359.9,152.3,367,152.5z"/>
		<path class="st20" d="M367,152.4c7.1,0.2,12.6-5.4,12.5-12.5c-0.1-7.2-6-13-13.2-13.2c-7.1-0.1-12.7,5.4-12.5,12.5
			C354,146.3,359.9,152.2,367,152.4z"/>
		<path class="st21" d="M367.1,152.4c7.1,0.2,12.6-5.4,12.5-12.5c-0.1-7.1-6-13-13.2-13.2c-7.1-0.1-12.7,5.4-12.5,12.5
			C354.1,146.3,360,152.2,367.1,152.4z"/>
		<path class="st21" d="M367.1,152.3c7.1,0.2,12.6-5.3,12.5-12.5c-0.1-7.1-6-13-13.1-13.1c-7.1-0.1-12.6,5.4-12.5,12.5
			C354.1,146.3,360,152.1,367.1,152.3z"/>
		<path class="st21" d="M367.1,152.3c7.1,0.2,12.6-5.3,12.4-12.4c-0.1-7.1-6-13-13.1-13.1c-7.1-0.1-12.6,5.4-12.4,12.4
			C354.2,146.2,360.1,152.1,367.1,152.3z"/>
		<path class="st22" d="M367.1,152.2c7.1,0.2,12.5-5.3,12.4-12.4c-0.1-7.1-6-13-13.1-13.1c-7.1-0.1-12.6,5.3-12.4,12.4
			C354.2,146.2,360.1,152,367.1,152.2z"/>
		<path class="st22" d="M367.2,152.2c7,0.2,12.5-5.3,12.4-12.4c-0.2-7.1-6-13-13.1-13.1c-7.1-0.2-12.6,5.3-12.4,12.4
			C354.3,146.1,360.1,152,367.2,152.2z"/>
		<path class="st23" d="M367.2,152.1c7,0.2,12.5-5.3,12.3-12.3c-0.1-7.1-6-12.9-13.1-13.1c-7.1-0.2-12.5,5.3-12.3,12.3
			C354.3,146.1,360.2,151.9,367.2,152.1z"/>
		<path class="st23" d="M367.2,152.1c7,0.2,12.5-5.2,12.3-12.3c-0.2-7.1-6-12.9-13.1-13.1c-7.1-0.2-12.5,5.3-12.3,12.3
			C354.4,146,360.2,151.9,367.2,152.1z"/>
		<path class="st23" d="M367.3,152.1c7,0.2,12.4-5.2,12.3-12.3c-0.2-7.1-6-12.9-13.1-13.1c-7.1-0.2-12.5,5.3-12.3,12.3
			C354.4,146,360.3,151.8,367.3,152.1z"/>
		<path class="st24" d="M367.3,152c7,0.2,12.4-5.2,12.2-12.2c-0.2-7.1-6-12.9-13.1-13.1c-7.1-0.2-12.5,5.2-12.2,12.2
			C354.5,146,360.3,151.8,367.3,152z"/>
		<path class="st24" d="M367.3,152c7,0.2,12.4-5.2,12.2-12.2c-0.2-7.1-6-12.9-13.1-13c-7-0.2-12.4,5.2-12.2,12.2
			C354.5,145.9,360.3,151.8,367.3,152z"/>
		<path class="st25" d="M367.4,151.9c7,0.2,12.3-5.2,12.2-12.2c-0.2-7-6-12.9-13-13c-7-0.2-12.4,5.2-12.2,12.2
			C354.6,145.9,360.4,151.7,367.4,151.9z"/>
		<path class="st25" d="M367.4,151.9c7,0.2,12.3-5.1,12.2-12.1c-0.2-7-6-12.8-13-13c-7-0.2-12.4,5.2-12.1,12.1
			C354.6,145.8,360.4,151.7,367.4,151.9z"/>
		<path class="st25" d="M367.4,151.8c6.9,0.3,12.3-5.1,12.1-12.1c-0.2-7-6-12.8-13-13c-7-0.2-12.4,5.2-12.1,12.1
			C354.7,145.8,360.5,151.6,367.4,151.8z"/>
		<path class="st26" d="M367.5,151.8c6.9,0.2,12.3-5.1,12.1-12.1c-0.2-7-6-12.8-13-13c-7-0.2-12.3,5.2-12.1,12.1
			C354.7,145.7,360.5,151.6,367.5,151.8z"/>
		<path class="st26" d="M367.5,151.8c6.9,0.3,12.2-5.1,12.1-12c-0.2-7-6-12.8-13-13c-7-0.2-12.3,5.1-12.1,12.1
			C354.8,145.7,360.6,151.5,367.5,151.8z"/>
		<path class="st27" d="M367.5,151.7c6.9,0.3,12.2-5.1,12-12c-0.2-7-6-12.8-13-13c-7-0.2-12.3,5.1-12,12
			C354.8,145.7,360.6,151.5,367.5,151.7z"/>
		<path class="st27" d="M367.5,151.7c6.9,0.3,12.2-5,12-12c-0.2-7-6-12.8-13-13c-7-0.2-12.2,5.1-12,12
			C354.8,145.6,360.6,151.4,367.5,151.7z"/>
		<path class="st27" d="M367.6,151.6c6.9,0.3,12.1-5,12-12c-0.2-7-6-12.8-13-12.9c-7-0.2-12.2,5.1-12,12
			C354.9,145.6,360.7,151.4,367.6,151.6z"/>
		<path class="st28" d="M367.6,151.6c6.9,0.3,12.1-5,11.9-11.9c-0.2-7-6-12.7-12.9-12.9c-6.9-0.2-12.2,5-11.9,11.9
			C354.9,145.5,360.7,151.3,367.6,151.6z"/>
		<path class="st28" d="M367.6,151.5c6.9,0.3,12.1-5,11.9-11.9c-0.2-7-6-12.7-12.9-12.9c-6.9-0.2-12.2,5-11.9,11.9
			C355,145.5,360.8,151.3,367.6,151.5z"/>
		<path class="st28" d="M367.7,151.5c6.8,0.3,12.1-4.9,11.9-11.9c-0.2-6.9-6-12.7-12.9-12.9c-6.9-0.2-12.1,5-11.9,11.9
			C355,145.4,360.8,151.2,367.7,151.5z"/>
		<path class="st29" d="M367.7,151.5c6.8,0.3,12-4.9,11.8-11.8c-0.2-6.9-6-12.7-12.9-12.9c-6.9-0.2-12.1,5-11.8,11.8
			C355.1,145.4,360.9,151.2,367.7,151.5z"/>
		<path class="st29" d="M367.7,151.4c6.8,0.3,12-4.9,11.8-11.8c-0.2-6.9-6-12.7-12.9-12.9c-6.9-0.2-12.1,5-11.8,11.8
			C355.1,145.4,360.9,151.1,367.7,151.4z"/>
		<path class="st30" d="M367.8,151.4c6.8,0.3,12-4.9,11.8-11.8c-0.2-6.9-6-12.7-12.9-12.9c-6.9-0.2-12.1,4.9-11.8,11.8
			C355.2,145.3,360.9,151.1,367.8,151.4z"/>
		<path class="st30" d="M367.8,151.3c6.8,0.3,12-4.8,11.7-11.7c-0.2-6.9-6-12.6-12.9-12.9c-6.9-0.2-12,4.9-11.7,11.7
			C355.2,145.3,361,151,367.8,151.3z"/>
		<path class="st30" d="M367.8,151.3c6.8,0.3,11.9-4.8,11.7-11.7c-0.2-6.9-6-12.6-12.9-12.9c-6.9-0.2-12,4.9-11.7,11.7
			C355.3,145.2,361,151,367.8,151.3z"/>
		<path class="st31" d="M367.9,151.2c6.8,0.3,11.9-4.8,11.7-11.7c-0.2-6.9-6-12.6-12.8-12.8c-6.9-0.2-12,4.9-11.7,11.7
			C355.3,145.2,361.1,150.9,367.9,151.2z"/>
		<path class="st31" d="M367.9,151.2c6.8,0.3,11.9-4.8,11.6-11.6c-0.2-6.9-6-12.6-12.8-12.8c-6.9-0.2-12,4.9-11.6,11.6
			C355.4,145.1,361.1,150.9,367.9,151.2z"/>
		<path class="st31" d="M367.9,151.2c6.8,0.3,11.8-4.8,11.6-11.6c-0.2-6.9-6-12.6-12.8-12.8c-6.8-0.2-11.9,4.8-11.6,11.6
			C355.4,145.1,361.2,150.8,367.9,151.2z"/>
		<path class="st32" d="M368,151.1c6.7,0.3,11.8-4.7,11.6-11.6c-0.3-6.8-6-12.6-12.8-12.8c-6.8-0.2-11.9,4.8-11.6,11.6
			C355.5,145,361.2,150.8,368,151.1z"/>
		<path class="st32" d="M368,151.1c6.7,0.3,11.8-4.7,11.5-11.5c-0.3-6.8-6-12.5-12.8-12.8c-6.8-0.3-11.9,4.8-11.5,11.5
			C355.5,145,361.3,150.7,368,151.1z"/>
		<path class="st33" d="M368,151c6.7,0.3,11.8-4.7,11.5-11.5c-0.2-6.8-5.9-12.5-12.8-12.8c-6.8-0.3-11.9,4.8-11.5,11.5
			C355.6,145,361.3,150.7,368,151z"/>
		<path class="st33" d="M368,151c6.7,0.3,11.7-4.7,11.5-11.5c-0.3-6.8-5.9-12.5-12.8-12.8c-6.8-0.3-11.8,4.8-11.5,11.5
			C355.6,144.9,361.3,150.6,368,151z"/>
		<path class="st33" d="M368.1,150.9c6.7,0.3,11.7-4.7,11.4-11.4c-0.3-6.8-5.9-12.5-12.8-12.8c-6.8-0.3-11.8,4.7-11.5,11.4
			C355.7,144.9,361.4,150.6,368.1,150.9z"/>
		<path class="st33" d="M368.1,150.9c6.7,0.4,11.7-4.6,11.4-11.4c-0.3-6.8-5.9-12.5-12.7-12.8c-6.8-0.3-11.8,4.7-11.4,11.4
			C355.7,144.8,361.4,150.6,368.1,150.9z"/>
		<path class="st33" d="M368.1,150.9c6.7,0.4,11.7-4.6,11.4-11.4c-0.3-6.8-5.9-12.5-12.7-12.7c-6.8-0.3-11.7,4.7-11.4,11.4
			C355.8,144.8,361.5,150.5,368.1,150.9z"/>
		<path class="st34" d="M368.2,150.8c6.7,0.4,11.6-4.6,11.3-11.4c-0.3-6.8-5.9-12.5-12.7-12.7c-6.8-0.3-11.7,4.7-11.4,11.4
			C355.8,144.8,361.5,150.4,368.2,150.8z"/>
		<path class="st34" d="M355.5,138.1c0.4,6.7,6.1,12.3,12.7,12.7c6.6,0.4,11.6-4.6,11.3-11.3c-0.3-6.8-5.9-12.4-12.7-12.7
			C360.1,126.5,355.1,131.4,355.5,138.1z"/>
		<path class="st34" d="M355.6,138c0.4,6.6,6.1,12.3,12.7,12.7c6.6,0.4,11.5-4.5,11.3-11.3c-0.3-6.7-5.9-12.4-12.7-12.7
			C360.1,126.5,355.2,131.4,355.6,138z"/>
		<path class="st35" d="M355.7,138c0.4,6.6,6,12.2,12.6,12.6c6.6,0.4,11.5-4.5,11.2-11.2c-0.3-6.7-5.9-12.3-12.6-12.6
			C360.2,126.5,355.3,131.4,355.7,138z"/>
		<path class="st35" d="M355.8,137.9c0.4,6.6,6,12.2,12.6,12.6c6.6,0.4,11.4-4.5,11.1-11.1c-0.3-6.7-5.9-12.3-12.6-12.6
			C360.2,126.5,355.4,131.4,355.8,137.9z"/>
		<path class="st36" d="M355.8,137.9c0.4,6.5,6,12.1,12.5,12.5c6.5,0.4,11.4-4.5,11.1-11.1c-0.3-6.6-5.9-12.2-12.5-12.5
			C360.3,126.5,355.5,131.3,355.8,137.9z"/>
		<path class="st36" d="M355.9,137.8c0.4,6.5,6,12.1,12.5,12.5c6.5,0.4,11.3-4.4,11-11c-0.3-6.6-5.9-12.2-12.5-12.5
			C360.4,126.5,355.5,131.3,355.9,137.8z"/>
		<path class="st36" d="M356,137.8c0.4,6.5,6,12,12.4,12.4c6.5,0.4,11.3-4.4,11-11c-0.3-6.6-5.9-12.1-12.4-12.4
			C360.4,126.5,355.6,131.3,356,137.8z"/>
		<path class="st36" d="M356.1,137.7c0.4,6.4,5.9,12,12.4,12.4c6.4,0.4,11.2-4.4,10.9-10.9c-0.3-6.5-5.8-12.1-12.4-12.4
			C360.5,126.5,355.7,131.3,356.1,137.7z"/>
		<path class="st36" d="M356.2,137.7c0.4,6.4,5.9,11.9,12.3,12.3c6.4,0.4,11.2-4.4,10.9-10.9c-0.3-6.5-5.8-12-12.3-12.3
			C360.6,126.5,355.8,131.3,356.2,137.7z"/>
		<path class="st36" d="M356.3,137.7c0.4,6.4,5.9,11.9,12.3,12.3c6.4,0.4,11.1-4.3,10.8-10.8c-0.3-6.5-5.8-12-12.3-12.3
			C360.6,126.5,355.9,131.3,356.3,137.7z"/>
		<path class="st37" d="M356.4,137.6c0.4,6.4,5.9,11.8,12.2,12.2c6.4,0.4,11.1-4.3,10.7-10.7c-0.3-6.5-5.8-11.9-12.3-12.2
			C360.7,126.6,356,131.3,356.4,137.6z"/>
		<path class="st37" d="M356.5,137.6c0.4,6.3,5.9,11.8,12.2,12.2c6.3,0.4,11-4.3,10.7-10.7c-0.3-6.4-5.8-11.9-12.2-12.2
			C360.8,126.6,356.1,131.2,356.5,137.6z"/>
		<path class="st38" d="M356.6,137.5c0.4,6.3,5.9,11.7,12.1,12.2c6.3,0.4,10.9-4.2,10.6-10.6c-0.3-6.4-5.8-11.8-12.1-12.2
			C360.8,126.6,356.2,131.2,356.6,137.5z"/>
		<path class="st38" d="M356.7,137.5c0.4,6.3,5.8,11.7,12.1,12.1c6.3,0.4,10.9-4.2,10.6-10.6c-0.3-6.4-5.7-11.8-12.1-12.1
			C360.9,126.6,356.2,131.2,356.7,137.5z"/>
		<path class="st38" d="M356.8,137.4c0.4,6.2,5.8,11.6,12.1,12.1c6.2,0.4,10.8-4.2,10.5-10.5c-0.4-6.3-5.7-11.7-12.1-12.1
			C360.9,126.6,356.3,131.2,356.8,137.4z"/>
		<path class="st39" d="M356.8,137.4c0.4,6.2,5.8,11.6,12,12c6.2,0.4,10.8-4.2,10.4-10.4c-0.4-6.3-5.7-11.6-12-12
			C361,126.6,356.4,131.2,356.8,137.4z"/>
		<path class="st39" d="M356.9,137.4c0.4,6.2,5.8,11.5,12,12c6.2,0.4,10.7-4.1,10.4-10.4c-0.4-6.3-5.7-11.6-12-12
			C361.1,126.6,356.5,131.2,356.9,137.4z"/>
		<path class="st40" d="M357,137.3c0.4,6.1,5.8,11.5,11.9,11.9c6.2,0.4,10.7-4.1,10.3-10.3c-0.4-6.2-5.7-11.5-11.9-11.9
			C361.1,126.6,356.6,131.2,357,137.3z"/>
		<path class="st40" d="M357.1,137.3c0.4,6.1,5.8,11.4,11.9,11.9c6.1,0.4,10.6-4.1,10.3-10.3c-0.4-6.2-5.7-11.5-11.9-11.9
			C361.2,126.6,356.7,131.2,357.1,137.3z"/>
		<path class="st40" d="M357.2,137.2c0.4,6.1,5.7,11.4,11.8,11.8c6.1,0.4,10.6-4.1,10.2-10.2c-0.4-6.2-5.7-11.4-11.8-11.8
			C361.3,126.6,356.8,131.1,357.2,137.2z"/>
		<path class="st40" d="M357.3,137.2c0.4,6.1,5.7,11.3,11.8,11.8c6.1,0.4,10.5-4,10.1-10.1c-0.4-6.1-5.6-11.4-11.8-11.8
			C361.3,126.7,356.9,131.1,357.3,137.2z"/>
		<path class="st40" d="M357.4,137.1c0.4,6,5.7,11.3,11.7,11.7c6,0.4,10.5-4,10.1-10.1c-0.4-6.1-5.6-11.3-11.7-11.7
			C361.4,126.7,356.9,131.1,357.4,137.1z"/>
		<path class="st40" d="M357.5,137.1c0.4,6,5.7,11.2,11.7,11.7c6,0.5,10.4-4,10-10c-0.4-6.1-5.6-11.3-11.7-11.7
			C361.5,126.7,357,131.1,357.5,137.1z"/>
		<path class="st41" d="M357.6,137.1c0.5,6,5.7,11.2,11.6,11.6c6,0.5,10.4-4,10-10c-0.4-6-5.6-11.2-11.6-11.6
			C361.5,126.7,357.1,131.1,357.6,137.1z"/>
		<path class="st41" d="M357.7,137c0.5,5.9,5.6,11.1,11.6,11.6c5.9,0.5,10.3-3.9,9.9-9.9c-0.4-6-5.6-11.2-11.6-11.6
			C361.6,126.7,357.2,131.1,357.7,137z"/>
		<path class="st42" d="M357.8,137c0.5,5.9,5.6,11.1,11.5,11.5c5.9,0.5,10.3-3.9,9.8-9.8c-0.4-6-5.6-11.1-11.5-11.5
			C361.6,126.7,357.3,131.1,357.8,137z"/>
		<path class="st42" d="M357.8,136.9c0.5,5.9,5.6,11,11.5,11.5c5.9,0.5,10.2-3.9,9.8-9.8c-0.4-5.9-5.5-11.1-11.5-11.5
			C361.7,126.7,357.4,131,357.8,136.9z"/>
		<path class="st42" d="M357.9,136.9c0.5,5.9,5.6,11,11.4,11.4c5.9,0.5,10.2-3.8,9.7-9.7c-0.4-5.9-5.5-11-11.4-11.5
			C361.8,126.7,357.5,131,357.9,136.9z"/>
		<path class="st43" d="M358,136.8c0.5,5.8,5.6,10.9,11.4,11.4c5.8,0.5,10.1-3.8,9.7-9.7c-0.4-5.9-5.5-11-11.4-11.4
			C361.8,126.7,357.6,131,358,136.8z"/>
		<path class="st43" d="M358.1,136.8c0.5,5.8,5.6,10.9,11.3,11.3c5.8,0.5,10-3.8,9.6-9.6c-0.4-5.8-5.5-10.9-11.3-11.3
			C361.9,126.7,357.6,131,358.1,136.8z"/>
		<path class="st43" d="M358.2,136.7c0.5,5.8,5.5,10.8,11.3,11.3c5.8,0.5,10-3.8,9.6-9.6c-0.4-5.8-5.5-10.9-11.3-11.3
			C362,126.8,357.7,131,358.2,136.7z"/>
		<path class="st44" d="M358.3,136.7c0.5,5.7,5.5,10.8,11.3,11.3c5.7,0.5,9.9-3.7,9.5-9.5c-0.4-5.8-5.5-10.8-11.3-11.3
			C362,126.8,357.8,131,358.3,136.7z"/>
		<path class="st44" d="M358.4,136.7c0.5,5.7,5.5,10.7,11.2,11.2c5.7,0.5,9.9-3.7,9.4-9.4c-0.5-5.7-5.5-10.8-11.2-11.2
			C362.1,126.8,357.9,131,358.4,136.7z"/>
		<path class="st45" d="M358.5,136.6c0.5,5.7,5.5,10.7,11.2,11.2c5.7,0.5,9.8-3.7,9.4-9.4c-0.5-5.7-5.5-10.7-11.2-11.2
			C362.2,126.8,358,130.9,358.5,136.6z"/>
		<path class="st45" d="M358.6,136.6c0.5,5.6,5.5,10.6,11.1,11.1c5.6,0.5,9.8-3.6,9.3-9.3c-0.5-5.7-5.4-10.6-11.1-11.1
			C362.2,126.8,358.1,130.9,358.6,136.6z"/>
		<path class="st45" d="M358.7,136.5c0.5,5.6,5.5,10.6,11.1,11.1c5.6,0.5,9.7-3.6,9.3-9.3c-0.5-5.6-5.4-10.6-11.1-11.1
			C362.3,126.8,358.2,130.9,358.7,136.5z"/>
		<path class="st46" d="M358.8,136.5c0.5,5.6,5.4,10.5,11,11c5.6,0.5,9.7-3.6,9.2-9.2c-0.5-5.6-5.4-10.5-11-11
			C362.3,126.8,358.3,130.9,358.8,136.5z"/>
		<path class="st46" d="M358.9,136.4c0.5,5.6,5.4,10.5,11,11c5.6,0.5,9.6-3.6,9.1-9.1c-0.5-5.6-5.4-10.5-11-11
			C362.4,126.8,358.3,130.9,358.9,136.4z"/>
		<path class="st47" d="M358.9,136.4c0.5,5.5,5.4,10.4,10.9,10.9c5.5,0.5,9.6-3.5,9.1-9.1c-0.5-5.5-5.4-10.4-10.9-10.9
			C362.5,126.8,358.4,130.9,358.9,136.4z"/>
		<path class="st47" d="M359,136.4c0.5,5.5,5.4,10.4,10.9,10.9c5.5,0.5,9.5-3.5,9-9c-0.5-5.5-5.4-10.4-10.9-10.9
			C362.5,126.8,358.5,130.9,359,136.4z"/>
		<path class="st47" d="M359.1,136.3c0.5,5.5,5.4,10.3,10.8,10.8c5.5,0.5,9.5-3.5,9-9c-0.5-5.5-5.3-10.3-10.8-10.8
			C362.6,126.9,358.6,130.8,359.1,136.3z"/>
		<path class="st48" d="M359.2,136.3c0.5,5.4,5.3,10.3,10.8,10.8c5.4,0.5,9.4-3.5,8.9-8.9c-0.5-5.4-5.3-10.3-10.8-10.8
			C362.7,126.9,358.7,130.8,359.2,136.3z"/>
		<path class="st48" d="M359.3,136.2c0.5,5.4,5.3,10.2,10.7,10.7c5.4,0.5,9.4-3.4,8.8-8.8c-0.5-5.4-5.3-10.2-10.7-10.7
			C362.7,126.9,358.8,130.8,359.3,136.2z"/>
		<path class="st48" d="M359.4,136.2c0.5,5.4,5.3,10.2,10.7,10.7c5.4,0.5,9.3-3.4,8.8-8.8c-0.5-5.4-5.3-10.2-10.7-10.7
			C362.8,126.9,358.9,130.8,359.4,136.2z"/>
		<path class="st49" d="M359.5,136.1c0.5,5.4,5.3,10.1,10.6,10.6c5.4,0.5,9.3-3.4,8.7-8.7c-0.5-5.4-5.3-10.1-10.6-10.6
			C362.9,126.9,359,130.8,359.5,136.1z"/>
		<path class="st49" d="M359.6,136.1c0.5,5.3,5.3,10.1,10.6,10.6c5.3,0.5,9.2-3.3,8.7-8.7c-0.5-5.3-5.3-10.1-10.6-10.6
			C362.9,126.9,359,130.8,359.6,136.1z"/>
		<path class="st50" d="M359.7,136.1c0.5,5.3,5.3,10,10.5,10.5c5.3,0.5,9.1-3.3,8.6-8.6c-0.5-5.3-5.3-10-10.5-10.6
			C363,126.9,359.1,130.8,359.7,136.1z"/>
		<path class="st50" d="M359.8,136c0.5,5.3,5.2,10,10.5,10.5c5.3,0.5,9.1-3.3,8.6-8.6c-0.5-5.3-5.2-10-10.5-10.5
			C363,126.9,359.2,130.7,359.8,136z"/>
		<path class="st50" d="M359.8,136c0.5,5.2,5.2,9.9,10.4,10.4c5.2,0.5,9-3.3,8.5-8.5c-0.5-5.2-5.2-9.9-10.4-10.4
			C363.1,127,359.3,130.8,359.8,136z"/>
		<path class="st50" d="M359.9,136c0.5,5.2,5.2,9.8,10.4,10.4c5.2,0.5,9-3.3,8.4-8.5c-0.5-5.2-5.2-9.8-10.4-10.4
			C363.1,127,359.4,130.8,359.9,136z"/>
		<path class="st50" d="M360,136c0.5,5.2,5.1,9.8,10.3,10.3c5.2,0.5,8.9-3.2,8.4-8.4c-0.5-5.2-5.1-9.8-10.3-10.3
			C363.2,127.1,359.4,130.8,360,136z"/>
		<path class="st51" d="M360,136c0.5,5.1,5.1,9.7,10.2,10.2c5.1,0.5,8.9-3.2,8.3-8.3c-0.5-5.1-5.1-9.7-10.2-10.3
			C363.2,127.1,359.5,130.9,360,136z"/>
		<path class="st51" d="M360.1,136c0.5,5.1,5.1,9.7,10.2,10.2c5.1,0.5,8.8-3.2,8.3-8.3c-0.5-5.1-5.1-9.7-10.2-10.2
			C363.3,127.2,359.6,130.9,360.1,136z"/>
		<path class="st51" d="M360.2,136c0.5,5.1,5.1,9.6,10.1,10.1c5.1,0.5,8.8-3.2,8.2-8.2c-0.5-5.1-5-9.6-10.1-10.1
			C363.3,127.2,359.6,130.9,360.2,136z"/>
		<path class="st52" d="M360.2,136c0.5,5,5,9.5,10.1,10.1c5,0.5,8.7-3.2,8.2-8.2c-0.5-5-5-9.5-10.1-10.1
			C363.4,127.3,359.7,130.9,360.2,136z"/>
		<path class="st53" d="M360.3,136c0.5,5,5,9.5,10,10c5,0.5,8.7-3.1,8.1-8.1c-0.5-5-5-9.5-10-10C363.4,127.3,359.8,131,360.3,136z"
			/>
		<path class="st53" d="M360.4,136c0.5,5,5,9.4,9.9,9.9c5,0.5,8.6-3.1,8.1-8.1c-0.5-5-5-9.4-9.9-9.9
			C363.5,127.4,359.8,131,360.4,136z"/>
		<path class="st53" d="M360.4,136c0.5,4.9,4.9,9.4,9.9,9.9c4.9,0.5,8.5-3.1,8-8c-0.5-4.9-4.9-9.4-9.9-9.9
			C363.5,127.4,359.9,131,360.4,136z"/>
		<path class="st53" d="M360.5,136c0.5,4.9,4.9,9.3,9.8,9.8c4.9,0.5,8.5-3.1,8-8c-0.5-4.9-4.9-9.3-9.8-9.8
			C363.6,127.5,360,131.1,360.5,136z"/>
		<path class="st54" d="M360.6,136c0.5,4.9,4.9,9.2,9.7,9.8c4.9,0.5,8.4-3.1,7.9-7.9c-0.5-4.9-4.9-9.2-9.7-9.7
			C363.6,127.5,360.1,131.1,360.6,136z"/>
		<path class="st54" d="M360.6,136c0.5,4.9,4.8,9.2,9.7,9.7c4.8,0.5,8.4-3,7.9-7.9c-0.5-4.8-4.8-9.2-9.7-9.7
			C363.7,127.6,360.1,131.1,360.6,136z"/>
		<path class="st55" d="M360.7,136c0.5,4.8,4.8,9.1,9.6,9.6c4.8,0.5,8.3-3,7.8-7.8c-0.5-4.8-4.8-9.1-9.6-9.6
			C363.7,127.6,360.2,131.1,360.7,136z"/>
		<path class="st55" d="M360.8,136c0.5,4.8,4.8,9.1,9.6,9.6c4.8,0.5,8.3-3,7.8-7.8c-0.5-4.8-4.8-9.1-9.6-9.6
			C363.7,127.7,360.3,131.2,360.8,136z"/>
		<path class="st55" d="M360.8,135.9c0.5,4.8,4.7,9,9.5,9.5c4.8,0.5,8.2-3,7.7-7.7c-0.5-4.8-4.7-9-9.5-9.5
			C363.8,127.7,360.3,131.2,360.8,135.9z"/>
		<path class="st55" d="M360.9,135.9c0.5,4.7,4.7,8.9,9.4,9.4c4.7,0.5,8.2-3,7.7-7.7c-0.5-4.7-4.7-9-9.4-9.4
			C363.8,127.8,360.4,131.2,360.9,135.9z"/>
		<path class="st55" d="M361,135.9c0.5,4.7,4.7,8.9,9.4,9.4c4.7,0.5,8.1-2.9,7.6-7.6c-0.5-4.7-4.7-8.9-9.4-9.4
			C363.9,127.8,360.5,131.2,361,135.9z"/>
		<path class="st55" d="M361,135.9c0.5,4.7,4.6,8.8,9.3,9.3c4.7,0.5,8-2.9,7.6-7.6c-0.5-4.7-4.6-8.8-9.3-9.3
			C363.9,127.9,360.5,131.3,361,135.9z"/>
		<path class="st56" d="M361.1,135.9c0.5,4.6,4.6,8.8,9.2,9.2c4.6,0.5,8-2.9,7.5-7.5c-0.5-4.6-4.6-8.8-9.2-9.2
			C364,127.9,360.6,131.3,361.1,135.9z"/>
		<path class="st56" d="M361.2,135.9c0.5,4.6,4.6,8.7,9.2,9.2c4.6,0.5,7.9-2.9,7.5-7.5c-0.5-4.6-4.6-8.7-9.2-9.2
			C364,128,360.7,131.3,361.2,135.9z"/>
		<path class="st57" d="M361.2,135.9c0.5,4.6,4.6,8.7,9.1,9.1c4.6,0.5,7.9-2.9,7.4-7.4c-0.5-4.6-4.6-8.6-9.1-9.1
			C364.1,128,360.8,131.4,361.2,135.9z"/>
		<path class="st57" d="M361.3,135.9c0.5,4.5,4.5,8.6,9.1,9.1c4.5,0.5,7.8-2.8,7.4-7.4c-0.5-4.5-4.5-8.6-9.1-9.1
			C364.1,128.1,360.8,131.4,361.3,135.9z"/>
		<path class="st57" d="M361.4,135.9c0.5,4.5,4.5,8.5,9,9c4.5,0.5,7.8-2.8,7.3-7.3c-0.5-4.5-4.5-8.5-9-9
			C364.2,128.1,360.9,131.4,361.4,135.9z"/>
		<path class="st58" d="M361.4,135.9c0.5,4.5,4.5,8.5,8.9,8.9c4.5,0.5,7.7-2.8,7.3-7.3c-0.5-4.5-4.5-8.5-8.9-8.9
			C364.2,128.2,361,131.4,361.4,135.9z"/>
		<path class="st58" d="M361.5,135.9c0.5,4.4,4.4,8.4,8.9,8.9c4.4,0.5,7.7-2.8,7.2-7.2c-0.5-4.4-4.4-8.4-8.9-8.9
			C364.3,128.2,361,131.5,361.5,135.9z"/>
		<path class="st58" d="M361.6,135.9c0.4,4.4,4.4,8.4,8.8,8.8c4.4,0.4,7.6-2.8,7.2-7.2c-0.5-4.4-4.4-8.4-8.8-8.8
			C364.3,128.3,361.1,131.5,361.6,135.9z"/>
		<path class="st58" d="M361.6,135.9c0.4,4.4,4.4,8.3,8.7,8.7c4.4,0.5,7.6-2.7,7.1-7.1c-0.5-4.4-4.4-8.3-8.7-8.7
			C364.3,128.3,361.2,131.5,361.6,135.9z"/>
		<path class="st58" d="M361.7,135.9c0.5,4.4,4.3,8.2,8.7,8.7c4.3,0.4,7.5-2.7,7.1-7.1c-0.4-4.3-4.3-8.2-8.7-8.7
			C364.4,128.4,361.2,131.6,361.7,135.9z"/>
		<path class="st59" d="M361.7,135.9c0.4,4.3,4.3,8.2,8.6,8.6c4.3,0.4,7.4-2.7,7-7c-0.4-4.3-4.3-8.2-8.6-8.6
			C364.4,128.4,361.3,131.6,361.7,135.9z"/>
		<path class="st59" d="M361.8,135.9c0.4,4.3,4.3,8.1,8.6,8.6c4.3,0.4,7.4-2.7,7-7c-0.4-4.3-4.3-8.1-8.6-8.6
			C364.5,128.5,361.4,131.6,361.8,135.9z"/>
		<path class="st60" d="M361.9,135.9c0.4,4.3,4.2,8.1,8.5,8.5c4.2,0.4,7.3-2.7,6.9-6.9c-0.4-4.3-4.2-8.1-8.5-8.5
			C364.5,128.5,361.4,131.6,361.9,135.9z"/>
		<path class="st60" d="M361.9,135.9c0.4,4.2,4.2,8,8.4,8.4c4.2,0.4,7.3-2.6,6.9-6.9c-0.4-4.2-4.2-8-8.4-8.4
			C364.6,128.6,361.5,131.7,361.9,135.9z"/>
		<path class="st60" d="M362,135.9c0.4,4.2,4.2,7.9,8.4,8.4c4.2,0.4,7.2-2.6,6.8-6.8c-0.4-4.2-4.2-7.9-8.4-8.4
			C364.6,128.6,361.6,131.7,362,135.9z"/>
		<path class="st60" d="M362.1,135.9c0.4,4.2,4.1,7.9,8.3,8.3c4.2,0.4,7.2-2.6,6.7-6.8c-0.4-4.2-4.1-7.9-8.3-8.3
			C364.7,128.7,361.6,131.7,362.1,135.9z"/>
		<path class="st60" d="M362.2,135.9c0.4,4.1,4.1,7.8,8.2,8.2c4.1,0.4,7.1-2.6,6.7-6.7c-0.4-4.1-4.1-7.8-8.2-8.2
			C364.7,128.7,361.7,131.8,362.2,135.9z"/>
		<path class="st60" d="M362.2,135.9c0.4,4.1,4.1,7.8,8.2,8.2c4.1,0.4,7.1-2.6,6.7-6.7c-0.4-4.1-4.1-7.8-8.2-8.2
			C364.8,128.8,361.8,131.8,362.2,135.9z"/>
		<path class="st61" d="M362.3,135.9c0.4,4.1,4.1,7.7,8.1,8.1c4.1,0.4,7-2.5,6.6-6.6c-0.4-4.1-4.1-7.7-8.1-8.1
			C364.8,128.8,361.9,131.8,362.3,135.9z"/>
		<path class="st61" d="M362.3,135.9c0.4,4,4,7.6,8.1,8.1c4,0.4,7-2.5,6.5-6.5c-0.4-4-4-7.6-8.1-8.1
			C364.9,128.9,361.9,131.8,362.3,135.9z"/>
		<path class="st62" d="M362.4,135.9c0.4,4,4,7.6,8,8c4,0.4,6.9-2.5,6.5-6.5c-0.4-4-4-7.6-8-8C364.9,128.9,362,131.9,362.4,135.9z"
			/>
		<path class="st63" d="M362.5,135.9c0.4,4,4,7.5,7.9,7.9c4,0.4,6.9-2.5,6.4-6.4c-0.4-4-4-7.5-7.9-7.9
			C365,129,362.1,131.9,362.5,135.9z"/>
		<path class="st63" d="M362.6,135.9c0.4,3.9,3.9,7.5,7.9,7.9c3.9,0.4,6.8-2.5,6.4-6.4c-0.4-3.9-3.9-7.5-7.9-7.9
			C365,129.1,362.1,131.9,362.6,135.9z"/>
		<path class="st63" d="M362.6,135.8c0.4,3.9,3.9,7.4,7.8,7.8c3.9,0.4,6.7-2.4,6.3-6.3c-0.4-3.9-3.9-7.4-7.8-7.8
			C365.1,129.1,362.2,131.9,362.6,135.8z"/>
		<path class="st63" d="M362.7,135.8c0.4,3.9,3.9,7.3,7.7,7.7c3.9,0.4,6.7-2.4,6.3-6.3c-0.4-3.9-3.9-7.3-7.7-7.7
			C365.1,129.2,362.3,132,362.7,135.8z"/>
		<path class="st64" d="M362.7,135.8c0.4,3.8,3.8,7.3,7.7,7.7c3.8,0.4,6.6-2.4,6.2-6.2c-0.4-3.8-3.8-7.3-7.7-7.7
			C365.1,129.2,362.3,132,362.7,135.8z"/>
		<path class="st64" d="M362.8,135.8c0.4,3.8,3.8,7.2,7.6,7.6c3.8,0.4,6.6-2.4,6.2-6.2c-0.4-3.8-3.8-7.2-7.6-7.6
			C365.2,129.3,362.4,132,362.8,135.8z"/>
		<path class="st64" d="M362.9,135.8c0.4,3.8,3.8,7.2,7.6,7.5c3.8,0.4,6.5-2.4,6.1-6.1c-0.4-3.8-3.8-7.2-7.6-7.6
			C365.2,129.3,362.5,132.1,362.9,135.8z"/>
		<path class="st65" d="M363,135.8c0.4,3.7,3.7,7.1,7.5,7.5c3.7,0.4,6.5-2.3,6.1-6.1c-0.4-3.7-3.7-7.1-7.5-7.5
			C365.3,129.4,362.6,132.1,363,135.8z"/>
		<path class="st65" d="M363,135.8c0.4,3.7,3.7,7,7.4,7.4c3.7,0.4,6.4-2.3,6-6c-0.4-3.7-3.7-7-7.4-7.4
			C365.3,129.4,362.6,132.1,363,135.8z"/>
		<path class="st65" d="M363.1,135.8c0.4,3.7,3.7,7,7.4,7.4c3.7,0.4,6.4-2.3,6-6c-0.4-3.7-3.7-7-7.4-7.4
			C365.4,129.5,362.7,132.1,363.1,135.8z"/>
		<path class="st65" d="M363.1,135.8c0.4,3.7,3.6,6.9,7.3,7.3c3.7,0.4,6.3-2.3,5.9-5.9c-0.4-3.7-3.6-6.9-7.3-7.3
			C365.4,129.5,362.8,132.2,363.1,135.8z"/>
		<path class="st65" d="M363.2,135.8c0.4,3.6,3.6,6.9,7.2,7.2c3.6,0.4,6.3-2.3,5.9-5.9c-0.4-3.6-3.6-6.9-7.2-7.2
			C365.5,129.6,362.8,132.2,363.2,135.8z"/>
		<path class="st66" d="M363.3,135.8c0.4,3.6,3.6,6.8,7.2,7.2c3.6,0.4,6.2-2.2,5.8-5.8c-0.4-3.6-3.6-6.8-7.2-7.2
			C365.5,129.6,362.9,132.2,363.3,135.8z"/>
		<path class="st66" d="M363.3,135.8c0.4,3.6,3.6,6.7,7.1,7.1c3.6,0.4,6.1-2.2,5.8-5.8c-0.4-3.6-3.6-6.7-7.1-7.1
			C365.6,129.7,363,132.2,363.3,135.8z"/>
		<path class="st66" d="M363.4,135.8c0.4,3.5,3.5,6.7,7,7c3.5,0.4,6.1-2.2,5.7-5.7c-0.4-3.5-3.5-6.7-7-7.1
			C365.6,129.7,363,132.3,363.4,135.8z"/>
		<path class="st66" d="M363.5,135.8c0.4,3.5,3.5,6.6,7,7c3.5,0.4,6-2.2,5.7-5.7c-0.4-3.5-3.5-6.6-7-7
			C365.7,129.8,363.1,132.3,363.5,135.8z"/>
		<path class="st67" d="M363.5,135.8c0.4,3.5,3.5,6.6,6.9,6.9c3.5,0.4,6-2.2,5.6-5.6c-0.4-3.5-3.5-6.6-6.9-6.9
			C365.7,129.8,363.2,132.3,363.5,135.8z"/>
		<path class="st68" d="M363.6,135.8c0.4,3.4,3.4,6.5,6.9,6.9c3.4,0.4,5.9-2.1,5.6-5.6c-0.4-3.4-3.4-6.5-6.9-6.9
			C365.8,129.9,363.3,132.4,363.6,135.8z"/>
		<path class="st68" d="M363.7,135.8c0.3,3.4,3.4,6.4,6.8,6.8c3.4,0.4,5.9-2.1,5.5-5.5c-0.4-3.4-3.4-6.4-6.8-6.8
			C365.8,129.9,363.3,132.4,363.7,135.8z"/>
		<path class="st68" d="M363.7,135.8c0.4,3.4,3.4,6.4,6.7,6.7c3.4,0.4,5.8-2.1,5.5-5.5c-0.3-3.4-3.4-6.4-6.7-6.7
			C365.8,130,363.4,132.4,363.7,135.8z"/>
		<path class="st68" d="M363.8,135.8c0.3,3.3,3.3,6.3,6.7,6.7c3.3,0.3,5.8-2.1,5.4-5.4c-0.3-3.3-3.3-6.3-6.7-6.7
			C365.9,130,363.5,132.4,363.8,135.8z"/>
		<path class="st68" d="M363.9,135.8c0.3,3.3,3.3,6.3,6.6,6.6c3.3,0.3,5.7-2.1,5.4-5.4c-0.3-3.3-3.3-6.3-6.6-6.6
			C365.9,130.1,363.5,132.5,363.9,135.8z"/>
		<path class="st69" d="M363.9,135.8c0.3,3.3,3.3,6.2,6.5,6.6c3.3,0.3,5.7-2,5.3-5.3c-0.3-3.3-3.3-6.2-6.6-6.6
			C366,130.1,363.6,132.5,363.9,135.8z"/>
		<path class="st69" d="M364,135.8c0.3,3.2,3.2,6.1,6.5,6.5c3.2,0.3,5.6-2,5.3-5.3c-0.3-3.2-3.2-6.1-6.5-6.5
			C366,130.2,363.7,132.5,364,135.8z"/>
		<path class="st69" d="M364.1,135.8c0.3,3.2,3.2,6.1,6.4,6.4c3.2,0.3,5.5-2,5.2-5.2c-0.3-3.2-3.2-6.1-6.4-6.4
			C366.1,130.2,363.7,132.6,364.1,135.8z"/>
		<path class="st70" d="M364.1,135.8c0.3,3.2,3.2,6,6.4,6.4c3.2,0.3,5.5-2,5.2-5.2c-0.3-3.2-3.2-6-6.4-6.4
			C366.1,130.3,363.8,132.6,364.1,135.8z"/>
		<path class="st70" d="M364.2,135.8c0.3,3.2,3.1,6,6.3,6.3c3.1,0.3,5.4-2,5.1-5.1c-0.3-3.2-3.1-6-6.3-6.3
			C366.2,130.3,363.9,132.6,364.2,135.8z"/>
		<path class="st71" d="M364.3,135.8c0.3,3.1,3.1,5.9,6.2,6.2c3.1,0.3,5.4-1.9,5.1-5.1c-0.3-3.1-3.1-5.9-6.2-6.2
			C366.2,130.4,364,132.6,364.3,135.8z"/>
		<path class="st71" d="M364.3,135.8c0.3,3.1,3.1,5.9,6.2,6.2c3.1,0.3,5.3-1.9,5-5c-0.3-3.1-3.1-5.8-6.2-6.2
			C366.3,130.4,364,132.7,364.3,135.8z"/>
		<path class="st71" d="M364.4,135.7c0.3,3.1,3.1,5.8,6.1,6.1c3.1,0.3,5.3-1.9,5-5c-0.3-3.1-3.1-5.8-6.1-6.1
			C366.3,130.5,364.1,132.7,364.4,135.7z"/>
		<path class="st72" d="M364.5,135.7c0.3,3,3,5.7,6,6c3,0.3,5.2-1.9,4.9-4.9c-0.3-3-3-5.7-6.1-6
			C366.4,130.5,364.2,132.7,364.5,135.7z"/>
		<path class="st73" d="M364.5,135.7c0.3,3,3,5.7,6,6c3,0.3,5.2-1.9,4.8-4.8c-0.3-3-3-5.7-6-6C366.4,130.6,364.2,132.7,364.5,135.7z
			"/>
		<path class="st74" d="M364.6,135.7c0.3,3,3,5.6,5.9,5.9c2.9,0.3,5.1-1.8,4.8-4.8c-0.3-3-3-5.6-5.9-5.9
			C366.4,130.6,364.3,132.8,364.6,135.7z"/>
		<path class="st74" d="M364.7,135.7c0.3,2.9,2.9,5.5,5.9,5.9c2.9,0.3,5.1-1.8,4.7-4.7c-0.3-2.9-2.9-5.6-5.9-5.9
			C366.5,130.7,364.4,132.8,364.7,135.7z"/>
		<path class="st74" d="M364.7,135.7c0.3,2.9,2.9,5.5,5.8,5.8c2.9,0.3,5-1.8,4.7-4.7c-0.3-2.9-2.9-5.5-5.8-5.8
			C366.5,130.7,364.4,132.8,364.7,135.7z"/>
		<path class="st75" d="M364.8,135.7c0.3,2.9,2.9,5.4,5.7,5.7c2.9,0.3,4.9-1.8,4.6-4.6c-0.3-2.9-2.9-5.4-5.7-5.7
			C366.6,130.8,364.5,132.9,364.8,135.7z"/>
		<path class="st75" d="M364.9,135.7c0.3,2.8,2.8,5.4,5.7,5.7c2.8,0.3,4.9-1.8,4.6-4.6c-0.3-2.8-2.8-5.4-5.7-5.7
			C366.6,130.8,364.6,132.9,364.9,135.7z"/>
		<path class="st75" d="M364.9,135.7c0.3,2.8,2.8,5.3,5.6,5.6c2.8,0.3,4.8-1.7,4.5-4.5c-0.3-2.8-2.8-5.3-5.6-5.6
			C366.7,130.9,364.6,132.9,364.9,135.7z"/>
		<path class="st75" d="M365,135.7c0.3,2.8,2.8,5.3,5.5,5.5c2.8,0.3,4.8-1.7,4.5-4.5c-0.3-2.8-2.8-5.3-5.5-5.5
			C366.7,130.9,364.7,132.9,365,135.7z"/>
		<path class="st75" d="M365.1,135.7c0.3,2.7,2.7,5.2,5.5,5.5c2.7,0.3,4.7-1.7,4.4-4.4c-0.3-2.7-2.7-5.2-5.5-5.5
			C366.8,131,364.8,133,365.1,135.7z"/>
		<path class="st76" d="M365.1,135.7c0.3,2.7,2.7,5.1,5.4,5.4c2.7,0.3,4.7-1.7,4.4-4.4c-0.3-2.7-2.7-5.1-5.4-5.4
			C366.8,131,364.9,133,365.1,135.7z"/>
		<path class="st76" d="M365.2,135.7c0.3,2.7,2.7,5.1,5.4,5.4c2.7,0.3,4.6-1.7,4.3-4.3c-0.3-2.7-2.7-5.1-5.4-5.4
			C366.9,131.1,364.9,133,365.2,135.7z"/>
		<path class="st76" d="M365.3,135.7c0.3,2.6,2.6,5,5.3,5.3c2.6,0.3,4.6-1.6,4.3-4.3c-0.3-2.6-2.7-5-5.3-5.3
			C366.9,131.1,365,133,365.3,135.7z"/>
		<path class="st76" d="M365.3,135.7c0.3,2.6,2.6,5,5.2,5.2c2.6,0.3,4.5-1.6,4.2-4.2c-0.3-2.6-2.6-5-5.2-5.2
			C367,131.2,365.1,133.1,365.3,135.7z"/>
		<path class="st76" d="M365.4,135.7c0.3,2.6,2.6,4.9,5.2,5.2c2.6,0.3,4.5-1.6,4.2-4.2c-0.3-2.6-2.6-4.9-5.2-5.2
			C367,131.2,365.1,133.1,365.4,135.7z"/>
		<path class="st77" d="M365.5,135.7c0.3,2.6,2.6,4.8,5.1,5.1c2.6,0.3,4.4-1.6,4.1-4.1c-0.3-2.5-2.6-4.8-5.1-5.1
			C367.1,131.3,365.2,133.1,365.5,135.7z"/>
		<path class="st77" d="M365.5,135.7c0.3,2.5,2.5,4.8,5,5c2.5,0.3,4.4-1.6,4.1-4.1c-0.3-2.5-2.5-4.8-5-5
			C367.1,131.3,365.3,133.2,365.5,135.7z"/>
		<path class="st78" d="M365.6,135.7c0.3,2.5,2.5,4.7,5,5c2.5,0.3,4.3-1.5,4-4c-0.3-2.5-2.5-4.7-5-5
			C367.1,131.4,365.3,133.2,365.6,135.7z"/>
		<path class="st79" d="M365.7,135.7c0.3,2.5,2.5,4.7,4.9,4.9c2.4,0.3,4.2-1.5,4-4c-0.3-2.5-2.5-4.7-4.9-4.9
			C367.2,131.4,365.4,133.2,365.7,135.7z"/>
		<path class="st79" d="M365.7,135.7c0.3,2.4,2.4,4.6,4.9,4.9c2.4,0.3,4.2-1.5,3.9-3.9c-0.3-2.4-2.4-4.6-4.9-4.9
			C367.2,131.5,365.5,133.2,365.7,135.7z"/>
		<path class="st80" d="M365.8,135.7c0.3,2.4,2.4,4.5,4.8,4.8c2.4,0.3,4.1-1.5,3.9-3.9c-0.3-2.4-2.4-4.5-4.8-4.8
			C367.3,131.5,365.5,133.3,365.8,135.7z"/>
		<path class="st80" d="M365.9,135.7c0.3,2.4,2.4,4.5,4.7,4.7c2.4,0.2,4.1-1.5,3.8-3.8c-0.2-2.4-2.4-4.5-4.7-4.7
			C367.3,131.6,365.6,133.3,365.9,135.7z"/>
		<path class="st80" d="M365.9,135.7c0.3,2.3,2.3,4.4,4.7,4.7c2.3,0.3,4-1.4,3.8-3.8c-0.2-2.3-2.3-4.4-4.7-4.7
			C367.4,131.6,365.7,133.3,365.9,135.7z"/>
		<path class="st81" d="M366,135.7c0.3,2.3,2.3,4.4,4.6,4.6c2.3,0.2,4-1.4,3.7-3.7c-0.2-2.3-2.3-4.4-4.6-4.6
			C367.4,131.7,365.8,133.4,366,135.7z"/>
		<path class="st81" d="M366.1,135.7c0.2,2.3,2.3,4.3,4.5,4.5c2.3,0.2,3.9-1.4,3.7-3.7c-0.2-2.3-2.3-4.3-4.5-4.5
			C367.5,131.7,365.8,133.4,366.1,135.7z"/>
		<path class="st82" d="M366.1,135.7c0.2,2.2,2.2,4.2,4.5,4.5c2.2,0.2,3.9-1.4,3.6-3.6c-0.2-2.2-2.2-4.2-4.5-4.5
			C367.5,131.8,365.9,133.4,366.1,135.7z"/>
		<path class="st82" d="M366.2,135.6c0.2,2.2,2.2,4.2,4.4,4.4c2.2,0.2,3.8-1.4,3.6-3.6c-0.2-2.2-2.2-4.2-4.4-4.4
			C367.6,131.8,366,133.4,366.2,135.6z"/>
		<path class="st82" d="M366.3,135.6c0.2,2.2,2.2,4.1,4.4,4.3c2.2,0.2,3.7-1.3,3.5-3.5c-0.2-2.2-2.2-4.1-4.4-4.4
			C367.6,131.9,366,133.5,366.3,135.6z"/>
		<path class="st83" d="M366.3,135.6c0.2,2.1,2.1,4.1,4.3,4.3c2.1,0.2,3.7-1.3,3.5-3.5c-0.2-2.1-2.2-4.1-4.3-4.3
			C367.7,131.9,366.1,133.5,366.3,135.6z"/>
		<path class="st83" d="M366.4,135.6c0.2,2.1,2.1,4,4.2,4.2c2.1,0.2,3.6-1.3,3.4-3.4c-0.2-2.1-2.1-4-4.2-4.2
			C367.7,132,366.2,133.5,366.4,135.6z"/>
		<path class="st84" d="M366.5,135.6c0.2,2.1,2.1,3.9,4.2,4.2c2.1,0.2,3.6-1.3,3.4-3.4c-0.2-2.1-2.1-3.9-4.2-4.2
			C367.8,132,366.3,133.6,366.5,135.6z"/>
		<path class="st84" d="M366.5,135.6c0.2,2,2.1,3.9,4.1,4.1c2,0.2,3.5-1.3,3.3-3.3c-0.2-2-2.1-3.9-4.1-4.1
			C367.8,132.1,366.3,133.6,366.5,135.6z"/>
		<path class="st84" d="M366.6,135.6c0.2,2,2,3.8,4,4c2,0.2,3.5-1.2,3.3-3.3c-0.2-2-2-3.8-4-4C367.8,132.1,366.4,133.6,366.6,135.6z
			"/>
		<path class="st85" d="M366.7,135.6c0.2,2,2,3.8,4,4c2,0.2,3.4-1.2,3.2-3.2c-0.2-2-2-3.8-4-4C367.9,132.2,366.5,133.6,366.7,135.6z
			"/>
		<path class="st86" d="M366.7,135.6c0.2,1.9,2,3.7,3.9,3.9c2,0.2,3.4-1.2,3.2-3.2c-0.2-1.9-2-3.7-3.9-3.9
			C367.9,132.3,366.5,133.7,366.7,135.6z"/>
		<path class="st87" d="M366.8,135.6c0.2,1.9,1.9,3.6,3.9,3.9c1.9,0.2,3.3-1.2,3.1-3.1c-0.2-1.9-1.9-3.6-3.8-3.8
			C368,132.3,366.6,133.7,366.8,135.6z"/>
		<path class="st87" d="M366.9,135.6c0.2,1.9,1.9,3.6,3.8,3.8c1.9,0.2,3.3-1.2,3.1-3c-0.2-1.9-1.9-3.6-3.8-3.8
			C368,132.4,366.7,133.7,366.9,135.6z"/>
		<path class="st87" d="M366.9,135.6c0.2,1.9,1.9,3.5,3.7,3.7c1.9,0.2,3.2-1.1,3-3c-0.2-1.9-1.9-3.5-3.7-3.7
			C368.1,132.4,366.7,133.7,366.9,135.6z"/>
		<path class="st88" d="M367,135.6c0.2,1.8,1.8,3.5,3.7,3.7c1.8,0.2,3.1-1.1,3-2.9c-0.2-1.8-1.8-3.5-3.7-3.7
			C368.1,132.5,366.8,133.8,367,135.6z"/>
		<path class="st88" d="M367.1,135.6c0.2,1.8,1.8,3.4,3.6,3.6c1.8,0.2,3.1-1.1,2.9-2.9c-0.2-1.8-1.8-3.4-3.6-3.6
			C368.2,132.5,366.9,133.8,367.1,135.6z"/>
		<path class="st89" d="M367.1,135.6c0.2,1.8,1.8,3.3,3.5,3.5c1.8,0.2,3-1.1,2.8-2.8c-0.2-1.8-1.8-3.3-3.5-3.5
			C368.2,132.6,366.9,133.8,367.1,135.6z"/>
		<path class="st89" d="M367.2,135.6c0.2,1.7,1.7,3.3,3.5,3.5c1.7,0.2,3-1.1,2.8-2.8c-0.2-1.7-1.7-3.3-3.5-3.5
			C368.3,132.6,367,133.9,367.2,135.6z"/>
		<path class="st89" d="M367.3,135.6c0.2,1.7,1.7,3.2,3.4,3.4c1.7,0.2,2.9-1,2.8-2.7c-0.2-1.7-1.7-3.2-3.4-3.4
			C368.3,132.7,367.1,133.9,367.3,135.6z"/>
		<path class="st90" d="M367.3,135.6c0.2,1.7,1.7,3.2,3.3,3.3c1.7,0.2,2.9-1,2.7-2.7c-0.2-1.7-1.7-3.2-3.3-3.3
			C368.4,132.7,367.2,133.9,367.3,135.6z"/>
		<path class="st90" d="M367.4,135.6c0.2,1.6,1.7,3.1,3.3,3.3c1.6,0.2,2.8-1,2.6-2.6c-0.2-1.6-1.7-3.1-3.3-3.3
			C368.4,132.8,367.2,133.9,367.4,135.6z"/>
		<path class="st90" d="M367.5,135.6c0.2,1.6,1.6,3,3.2,3.2c1.6,0.2,2.8-1,2.6-2.6c-0.2-1.6-1.6-3-3.2-3.2
			C368.5,132.8,367.3,134,367.5,135.6z"/>
		<path class="st91" d="M367.5,135.6c0.2,1.6,1.6,3,3.2,3.2c1.6,0.2,2.7-1,2.5-2.5c-0.2-1.6-1.6-3-3.2-3.2
			C368.5,132.9,367.4,134,367.5,135.6z"/>
		<path class="st91" d="M367.6,135.6c0.2,1.5,1.6,2.9,3.1,3.1c1.5,0.2,2.7-0.9,2.5-2.5c-0.2-1.5-1.6-2.9-3.1-3.1
			C368.5,132.9,367.4,134,367.6,135.6z"/>
		<path class="st92" d="M367.7,135.6c0.2,1.5,1.5,2.9,3,3c1.5,0.2,2.6-0.9,2.4-2.4c-0.2-1.5-1.5-2.9-3-3
			C368.6,133,367.5,134.1,367.7,135.6z"/>
		<path class="st92" d="M367.7,135.6c0.2,1.5,1.5,2.8,3,3c1.5,0.2,2.6-0.9,2.4-2.4c-0.2-1.5-1.5-2.8-3-3
			C368.6,133,367.6,134.1,367.7,135.6z"/>
		<path class="st93" d="M367.8,135.6c0.2,1.4,1.5,2.7,2.9,2.9c1.5,0.2,2.5-0.9,2.3-2.3c-0.2-1.5-1.5-2.8-2.9-2.9
			C368.7,133.1,367.6,134.1,367.8,135.6z"/>
		<path class="st93" d="M367.9,135.6c0.2,1.4,1.4,2.7,2.8,2.8c1.4,0.2,2.4-0.9,2.3-2.3c-0.2-1.4-1.4-2.7-2.8-2.8
			C368.7,133.1,367.7,134.1,367.9,135.6z"/>
		<path class="st93" d="M367.9,135.5c0.2,1.4,1.4,2.6,2.8,2.8c1.4,0.2,2.4-0.8,2.2-2.2c-0.2-1.4-1.4-2.6-2.8-2.8
			C368.8,133.2,367.8,134.2,367.9,135.5z"/>
		<path class="st94" d="M368,135.5c0.2,1.4,1.4,2.6,2.7,2.7c1.4,0.1,2.3-0.8,2.2-2.2c-0.1-1.4-1.4-2.6-2.7-2.7
			C368.8,133.2,367.8,134.2,368,135.5z"/>
		<path class="st94" d="M368.1,135.5c0.1,1.3,1.3,2.5,2.7,2.7c1.3,0.1,2.3-0.8,2.1-2.1c-0.1-1.3-1.3-2.5-2.7-2.7
			C368.9,133.3,367.9,134.2,368.1,135.5z"/>
		<path class="st94" d="M368.1,135.5c0.1,1.3,1.3,2.5,2.6,2.6c1.3,0.1,2.2-0.8,2.1-2.1c-0.1-1.3-1.3-2.4-2.6-2.6
			C368.9,133.3,368,134.2,368.1,135.5z"/>
		<path class="st95" d="M368.2,135.5c0.1,1.3,1.3,2.4,2.5,2.5c1.3,0.1,2.2-0.8,2-2c-0.1-1.3-1.3-2.4-2.5-2.5
			C369,133.4,368.1,134.3,368.2,135.5z"/>
		<path class="st95" d="M368.3,135.5c0.1,1.2,1.2,2.3,2.5,2.5c1.2,0.1,2.1-0.7,2-2c-0.1-1.2-1.2-2.3-2.5-2.5
			C369,133.4,368.1,134.3,368.3,135.5z"/>
		<path class="st95" d="M368.3,135.5c0.1,1.2,1.2,2.3,2.4,2.4c1.2,0.1,2.1-0.7,1.9-1.9c-0.1-1.2-1.2-2.3-2.4-2.4
			C369.1,133.5,368.2,134.3,368.3,135.5z"/>
		<path class="st95" d="M368.4,135.5c0.1,1.2,1.2,2.2,2.3,2.3c1.2,0.1,2-0.7,1.9-1.9c-0.1-1.2-1.2-2.2-2.3-2.3
			C369.1,133.5,368.3,134.4,368.4,135.5z"/>
		<path class="st95" d="M368.5,135.5c0.1,1.1,1.2,2.2,2.3,2.3c1.1,0.1,1.9-0.7,1.8-1.8c-0.1-1.1-1.1-2.2-2.3-2.3
			C369.2,133.6,368.3,134.4,368.5,135.5z"/>
		<path class="st96" d="M368.5,135.5c0.1,1.1,1.1,2.1,2.2,2.2c1.1,0.1,1.9-0.7,1.8-1.8c-0.1-1.1-1.1-2.1-2.2-2.2
			C369.2,133.6,368.4,134.4,368.5,135.5z"/>
	</g>
	<g>
		
			<linearGradient id="SVGID_00000156586494619674699260000000333119174513507233_" gradientUnits="userSpaceOnUse" x1="354.8737" y1="142.5847" x2="354.921" y2="142.5847">
			<stop  offset="0" style="stop-color:#D92129"/>
			<stop  offset="7.817636e-02" style="stop-color:#D12128"/>
			<stop  offset="0.1888" style="stop-color:#BE1F26"/>
			<stop  offset="0.3182" style="stop-color:#A11C20"/>
			<stop  offset="0.4182" style="stop-color:#87171A"/>
			<stop  offset="1" style="stop-color:#EA2331"/>
		</linearGradient>
		<path style="fill-rule:evenodd;clip-rule:evenodd;fill:url(#SVGID_00000156586494619674699260000000333119174513507233_);" d="
			M354.9,142.6C354.9,142.6,354.9,142.6,354.9,142.6C354.9,142.6,354.9,142.6,354.9,142.6L354.9,142.6z"/>
		
			<linearGradient id="SVGID_00000136394306634138984330000002929537461396632472_" gradientUnits="userSpaceOnUse" x1="317.6613" y1="154.7692" x2="387.8758" y2="154.7692">
			<stop  offset="0" style="stop-color:#D92129"/>
			<stop  offset="7.817636e-02" style="stop-color:#D12128"/>
			<stop  offset="0.1888" style="stop-color:#BE1F26"/>
			<stop  offset="0.3182" style="stop-color:#A11C20"/>
			<stop  offset="0.4182" style="stop-color:#87171A"/>
			<stop  offset="1" style="stop-color:#EA2331"/>
		</linearGradient>
		<path style="fill-rule:evenodd;clip-rule:evenodd;fill:url(#SVGID_00000136394306634138984330000002929537461396632472_);" d="
			M379.6,140c4.1,0.6,6.7,2,6.8,2.7c0.1,0.2-0.1,0.5-0.4,0.7c0.2-0.2,0.4-0.3,0.5-0.4c-0.9,1.2-6.2,2.9-13.1,3
			c-7.3,0-13.6-1.9-18.8-3.3c-4.7-1.2-11.5-3.2-18.8-3.2c-7.2,0-12.4,2.1-13,3.1c-2.5,3.8-4,7.7-4.8,11.8c-0.8,4.6-0.5,8.8,0.7,12.8
			c-0.2-1.1,5.5-3.4,13.2-3.4c7.3,0,13.6,1.9,18.8,3.3c4.7,1.2,11.5,3.2,18.8,3.2c7.2,0,12.4-2.1,13-3.1c2.5-3.8,4-7.7,4.8-11.8
			c0.8-4.6,0.5-8.8-0.7-12.8c-0.2-0.7-2.9-2.1-7.1-2.8L379.6,140z M386.7,142.7c0,0-0.1,0.1-0.1,0.1
			C386.6,142.8,386.6,142.7,386.7,142.7z"/>
	</g>
	<g>
		<path class="st3" d="M332.1,143.8l-0.7,2.2c-0.1-0.1-0.3-0.1-0.5-0.2c-1.2-0.1-3.5,0.4-3.6,0.7c-0.3,0.6-0.6,2.1-0.7,2.5
			c0.7-0.3,2.3-0.6,3.2-0.6l-0.5,1.9c-1.1,0-3,0.5-3,0.8c-0.1,0.4-0.2,1.2-0.4,2.2c-0.2,1.6-0.4,2.8,0,3.1c-0.6,0.3-2.3,0.7-2.7,0.3
			c-0.3-0.4,0.7-9.3,2.3-12C325.8,144.4,330,143.5,332.1,143.8z"/>
		<path class="st3" d="M361.1,158.4c0,0.1,0.2,0.2,0.5,0.3c0.8,0.2,1.5,0.2,2.4,0.2c0.2,0,0.4-0.1,0.5-0.2c0,0-0.5,2.2-1,2.3
			c-0.4,0.1-3.1-0.3-4.5-0.7c-0.5-0.1-0.7-0.3-0.7-0.4c0.1-1.7,1.4-6.4,2-9.5c0.3-1.6,0.2-2-0.3-2.5c0.8-0.3,2.7-0.2,2.9,0.2
			c0.2,0.5,0.1,1.4-0.3,3C362.2,153,361.2,157.3,361.1,158.4z"/>
		<path class="st3" d="M333.6,146.6c0.4,0.1,0.4,0.7,0.3,1.5c0.9-1.2,2.7-1.4,3.2-1.1l-0.6,2.2c-1-0.7-2.2,0-2.6,0.9
			c-0.6,1.4-1.4,5.6-0.6,5.9c0,0-2.4,0.4-2.6-0.1c-0.3-0.7,0.7-4.7,0.9-5.7c0.2-1,0-2-0.3-2.4C331.3,147.7,333.2,146.5,333.6,146.6z
			"/>
		<path class="st3" d="M353.5,149.5c-3.1-0.2-5.2,2.4-5.3,5.8c-0.1,2.1,0.9,3.3,2.9,3.4c3.5,0.2,5.3-2.8,5.4-5.9
			C356.6,150.8,355.5,149.6,353.5,149.5z M353.1,151.3c0.7,0.1,1.1,0.4,1,1.4c-0.1,1.7-1,4.4-2.5,4.3c-0.7-0.1-1.1-0.5-1.1-1.3
			C350.6,154.3,351.5,151.1,353.1,151.3z"/>
		<path class="st3" d="M380,151.7c0.1,0.6,0.2,1.9-0.1,3.6c-0.5,2.4-1.2,3.5-1.2,3.5s-0.7-5.5-1.8-6.9c-0.3-0.4-2.4,0.9-2.4,0.9
			c0.4,0.2,0.6,0.9,1.3,2.8c0.6,1.7,1.1,4.3,1.2,5.3c0,0.4-0.9,1.6-1.4,2c-0.4,0.4-1,0.5-1.5,0.3c0,0.3,0.4,1.2,1,1.7
			c1,0.8,1.7,0,2.4-0.8c1.6-1.8,3.2-4.5,4.1-7.2c0.5-1.4,0.7-2.9,0.7-4.1c0-0.6,0-1.3-0.2-1.7C382.2,151,380,151.7,380,151.7z"/>
		<path class="st3" d="M341,147.2c0.7,0.9-2.4,8.5-1.3,9.3c0,0-2.2,0.1-2.6-0.4c-0.6-0.7,1.9-7.5,1.4-8.3
			C338.5,147.9,340.8,146.9,341,147.2z"/>
		<path class="st3" d="M370.8,154c-0.2-0.1-0.4-0.1-0.6-0.1c-0.6,0-1,0.1-1.6,0.9c-0.6,0.9-0.9,2.4-0.8,3.6c0.1,0.8,0.4,1.1,0.9,1.1
			c0.7-0.1,1.4-0.9,1.6-1.5C370.3,158,371,154.1,370.8,154z M373.9,160.6c-0.5,0.5-1.2,0.8-1.8,1c-0.3,0.1-0.7,0.1-1,0
			c-0.3-0.2-0.5-0.9-0.6-1.4c-0.4,0.9-1.4,1.3-2.1,1.4c-1.6,0.1-2.7-0.8-2.9-2.6c-0.1-2.1,0.4-3.8,1.3-5c0.9-1.1,1.8-1.6,3.3-1.8
			c0.3,0,0.8-0.1,1.2,0c0.8,0,1.6,0.1,1.9,0.3c0.1,0-0.6,6-0.4,7.1C373,160,373.1,160.3,373.9,160.6z"/>
		<path class="st3" d="M348.4,148.6l-1.8-0.3c0.2-0.7,0.3-1.7,0.3-2.1c0-0.4,0-0.8-0.2-0.8c-0.3-0.1-2.3,0.6-2.2,0.7
			c0.1,0.3-0.1,1.2-0.2,1.8c-0.3,0-0.8-0.1-1-0.1c-0.1,0.2-0.9,1.7-0.9,1.7c0.4,0,1.2,0.1,1.5,0.2c-0.1,0.5-1.4,5.4-1.4,6.1
			c0,0.9,0.4,1.7,1.8,1.5c1-0.1,1.6-0.5,2.1-0.9c-0.6-0.1-1.6-0.3-1.3-1.7c0.1-0.4,0.7-3,1.1-4.7l1.6,0.3L348.4,148.6z"/>
	</g>
</g>
</svg>
