<?xml version="1.0" encoding="UTF-8"?>
<svg id="Layer_1" data-name="Layer 1" xmlns="http://www.w3.org/2000/svg" xmlns:xlink="http://www.w3.org/1999/xlink" version="1.1" viewBox="0 0 575 150">
  <defs>
    <style>
      .cls-1 {
        clip-path: url(#clippath);
      }

      .cls-2 {
        fill: none;
      }

      .cls-2, .cls-3 {
        stroke-width: 0px;
      }

      .cls-3 {
        fill: #fff;
      }
    </style>
    <clipPath id="clippath">
      <rect class="cls-2" x="1.7" y="3.5" width="571.6" height="142.9"/>
    </clipPath>
  </defs>
  <g id="Group_817" data-name="Group 817">
    <g class="cls-1">
      <g id="Group_414" data-name="Group 414">
        <path id="Path_1015" data-name="Path 1015" class="cls-3" d="M163.1,59.9h-54.5v-9.7h8.5c3.4,0,4.4-2,2.4-4.9l-1.6-2.3h-40.7l-1.7,2.3c-2.1,2.9-.9,4.9,2.5,4.9h8.7v9.7h-40.9v-9.7h2.1c5.5,0,8.1-1,11.4-5.3l20.3-26.8c2-2.7,1.1-4.9-2.2-4.9h-5.5V3.5h47.4l30.3,41.4c3.1,4.2,6,5.3,11.4,5.3h2.1v9.7ZM97.6,15.1l-13.4,18.4h26.8l-13.4-18.4Z"/>
        <path id="Path_1016" data-name="Path 1016" class="cls-3" d="M175.2,59.9v-9.7h8.9c3.9,0,5.2-.9,5.2-5.4v-26.2c0-4.5-1.3-5.4-5.2-5.4h-8.9V3.5h55.4v9.7h-8.9c-3.9,0-5.2.9-5.2,5.4v31.6h26.1c11.2,0,14.3-6.2,15.1-17.2h12.9v26.9h-95.2Z"/>
        <path id="Path_1017" data-name="Path 1017" class="cls-3" d="M399.6,59.9h-54.5v-9.7h8.5c3.4,0,4.4-2,2.4-4.9l-1.6-2.3h-40.7l-1.7,2.3c-2.1,2.9-.9,4.9,2.5,4.9h8.7v9.7h-40.9v-9.7h2.1c5.5,0,8.1-1,11.4-5.3l20.3-26.8c2-2.7,1.1-4.9-2.2-4.9h-5.5V3.5h47.4l30.3,41.4c3.1,4.2,6,5.3,11.4,5.3h2.1v9.7ZM334.1,15.1l-13.4,18.4h26.8l-13.4-18.4Z"/>
        <path id="Path_1018" data-name="Path 1018" class="cls-3" d="M521.3,13.1c-3.9,0-5.2,1-5.2,5.4v41.4h-30l-45.2-41.1v26.1c0,4.5,1.3,5.4,5.2,5.4h8.9v9.7h-43.5v-9.7h8.9c3.9,0,5.2-.9,5.2-5.4v-26.2c0-4.5-1.3-5.4-5.2-5.4h-8.9V3.5h49.4l40,36.4v-21.4c0-4.4-1.3-5.4-5.2-5.4h-8.9V3.5h43.2v9.6h-8.6Z"/>
        <path id="Path_1019" data-name="Path 1019" class="cls-3" d="M60.6,87.8c32.1,0,52.5,7.2,52.5,27.8s-20.4,28.6-52.5,28.6H1.7v-9.7h8.9c3.9,0,5.2-.9,5.2-5.4v-26.2c0-4.5-1.2-5.4-5.2-5.4H1.7v-9.7h58.9ZM57.8,97.5h-14.9v37h14.9c17.5,0,25.9-4.8,25.9-18.9s-8.5-18.1-25.9-18.1"/>
        <path id="Path_1020" data-name="Path 1020" class="cls-3" d="M126.1,116c0-21.9,22.1-30.4,54.4-30.4s54.4,8.5,54.4,30.4-22.1,30.4-54.4,30.4-54.4-8.5-54.4-30.4M180.5,136.8c17.5,0,25.1-7.1,25.1-20.8s-7.3-20.8-25.1-20.8-25.1,7.1-25.1,20.8,7.6,20.8,25.1,20.8"/>
        <path id="Path_1021" data-name="Path 1021" class="cls-3" d="M310.8,129.1c0,4.5,1.2,5.4,5.2,5.4h9v9.7h-55.4v-9.7h8.9c3.9,0,5.2-.9,5.2-5.4v-3.5l-26.8-24.2c-3.8-3.5-6.8-4-11.8-4h-1.9v-9.7h55.3v9.7h-6.9c-2.9,0-3.7,2-1.5,4l14.8,12.9,14.5-12.9c2.2-1.9,1.4-4-1.4-4h-6.9v-9.7h39.4v9.7h-1.9c-5,0-7.7.6-11.5,4l-26.2,23.3v4.3Z"/>
        <path id="Path_1022" data-name="Path 1022" class="cls-3" d="M362.6,144.2v-9.7h8.9c3.9,0,5.2-.9,5.2-5.4v-26.2c0-4.5-1.3-5.4-5.2-5.4h-8.9v-9.7h55.4v9.7h-8.9c-3.9,0-5.2.9-5.2,5.4v31.6h26.1c11.2,0,14.3-6.2,15.1-17.2h12.9v26.9h-95.2Z"/>
        <path id="Path_1023" data-name="Path 1023" class="cls-3" d="M527.6,110.8c6.3,0,7.9-1.8,7.9-6.8v-1.2h11.6v25.6h-11.6v-1.2c0-4.8-1.5-6.8-7.9-6.8h-15.3v14.1h36c9.1,0,11.4-4.8,12.2-13.4h12.9v23h-102.2v-9.7h8.9c3.9,0,5.2-.9,5.2-5.4v-26.2c0-4.5-1.3-5.4-5.2-5.4h-8.9v-9.7h101.4v22.1h-12.9c-.8-8.3-3.1-12.4-12.2-12.4h-35.2v13.3h15.3Z"/>
      </g>
    </g>
  </g>
</svg>