<?xml version="1.0" encoding="UTF-8"?>
<svg id="Layer_1" data-name="Layer 1" xmlns="http://www.w3.org/2000/svg" version="1.1" viewBox="0 0 140 86">
  <defs>
    <style>
      .cls-1 {
        fill: #014b3b;
        stroke-width: 0px;
      }
    </style>
  </defs>
  <g>
    <path class="cls-1" d="M53.2,52.7c-.8,0-1.3,0-2.5.2h.8l1.7-.2Z"/>
    <path class="cls-1" d="M10.7,62c-.9.3-1.7.6-2.6.9,1.3-.5,1.3-.3,2.2-.7l.3-.2h0Z"/>
    <path class="cls-1" d="M79.8,51.5c-.3,0-.7,0-1-.2-.5,0,0,0,1,.2Z"/>
    <path class="cls-1" d="M139.5,65.5l-1.2-.7-2.7-2.5-1.8-.9c-1.8-1-.2-.4-.6-.7-1.9-1-3.8-1.6-3.9-1.6l.4.2c.3.2-.5,0-1.4-.6-1-.4-2.2-1-3-1.3-1.7-.8-2.2-1.1-2.4-1.3.4.2.7.2.9.3-1.5-.6-2.3-.8-2.6-.8s0,.3.3.6c.5.4,1.2.8,1.8,1.3-4.8-2-9.8-3.7-14.8-5.2,1.3.2,2.1.3,2.5.2.5,0,.4-.3-.3-.7-2.8-.9-5.3-1.7-8-2.4-2.6-.7-5.3-1.4-8.3-1.9-2.7-.7-5.5-1.1-8.3-1.4-1.1,0-2.1-.2-3.2-.3h0c-.2-.2-.4-.5-.5-.8-.2-.2-.4-.4-.6-.7s-.3-.6-.5-.9v-.2c.4,0,.8,0,1.3.2,2.6.2,4.8.5,7.1.9,2.3.4,4.6.9,7.5,1.4-.2-.2,1.4.2,2.3.4-1.2-.2,1.1.5,2.2.8,1.4.3,1.6,0,3.7.7l-1.4-.6c-.4,0-1.3-.3-2.3-.6-1-.2-2.1-.4-2.8-.6-.4-.2-2.3-.6-3.9-.9-1.6-.3-3-.5-2.7-.6l.9.2c1.7.4,2.9.6,4.2.7,1.2.2,2.4.3,4,.7,1.3.4,2.1.6,2.8.9l2.2.8c2,.6,2.6.7,3.6,1,1.8.5,2.6.9,3.6,1.3.6.2-.3,0,.3,0,.8.3,1.7.7,2.3.9.2,0-.6-.4-1.6-.8-1-.4-2.4-.9-3.4-1.2.5,0,.6,0,1.4.4.6.2.5.2.6.2l1.2.4s-.2-.2,1.4.3l.9.5c1.6.6,2.8,1,3.1,1.1.3,0-.4-.3-2.4-1.1h-.4c-1.3-.6-2.6-1.1-3.9-1.6-.3-.2.2,0,.7,0,.2,0,.5,0,.7.2,1.8.6,3.6,1.3,5.4,2-1.9-1-3.8-1.9-5.7-2.7.5.2,1,.4,1.6.5,1.1.4,2.2.8,2.9,1.1l1.3.6c-1.6-.8-3.3-1.7-5.4-2.6.3.2-.3,0-.8-.3-.5-.2-.9-.4,0,0,.3,0,.6.3,1,.4.7.4,1.5.7,2.2,1.1-1-.4-2.5-1.1-4-1.8-1.5-.6-2.9-1.2-3.6-1.3-1.1-.5-1.8-.8-2.4-1.1s-1.1-.5-1.7-.8c-1.8-.6-3.7-1.3-5.6-1.8-1.9-.6-3.6-1-5.1-1.3-1.8-.4-2.8-.7-3.6-.9-.7-.2-1.1-.4-1.6-.5-.8,0-2-.3-3-.5s-1.9-.3-2.2-.3-.4,0-.6,0c0,0-.9,0-.7,0,.5-.3.7-.5.8-.7v-.2c.2,0,.4-.3.6-.4,0-.2.2-.3.3-.5.2-.2.5-.4,1-.7.5,0,1.1-.4,1.6-.7.6-.3,1.2-.6,1.8-.8.2-.2.3-.3.5-.5,0,0,.2,0,.4,0,.3,0,.2-.2.2-.2h.6c.2,0,.4-.2.6-.2h0c.5,0,1.1-.3,1.4-.3-.2,0-.5.2-.7.4h-.3c-.5.3.6,0,.4,0,.7-.2,1.3-.4,1.9-.6h-.5c-.3,0-.9,0-1.4,0h-.2c.6-.2,1.2-.3,1.8-.5,0,0-.8.2-2.1.5h-.4c.4-.2.9-.4,1.3-.6h.2c.7,0,.9-.2.8-.3,0,0-.6,0-1.1.2l-.3.2c-.6.2-.5,0-.6,0h-.4c0,0,0,.2-.2.2h-.5c.7-.3,1.9-.6,1.7-.9-.2,0-.5.2-.8.3-.2,0,0,0,0,0-.3.2-.6.4-1.2.5,0,0,0,0,.3-.2h-.2c-.4,0-1.4.4-1.5.5h-.4c-.4,0-.6,0-.8,0,.3,0,.6-.2.9-.3h.4c0,0,.2-.2.2-.2h.3c.4-.2.7-.4,1-.5.2,0,.4-.2.6-.3h.3-.2c.8-.4,1.4-.7,1.7-1h0c.7-.2,1.5-.5,2.2-.7,1-.3,1.6-1.3,1.6-1.3v-.4h0v-.4h0c-.2,0-.3,0-.5.1,0,0-.6.2-1.2.3h0v-.4c0-.2-.4-.4-.4-.4h0v.2h0c-.2.1-.5.2-.8.4.5-.2.8-.3.8-.3h0v.2h0c-.7.2-1.5.4-2.2.6h0c.5-.3.9-.5,1.3-.7-.7.3-1.9.7-3.2,1.2h-.5.3,0c-.2,0-.4.1-.6.2h-.2c-.2.1-.4.2-.6.3q.2,0,0,.1c-.7.2-1.4.4-2.2.5h-2.3c-.6,0-1.6.3-.8.3h.2c-.7,0-1.3,0-2,.2-.4,0-.9.2-1.3.2h-.3s-.2-.1-.4-.2h-.5,0-1.4c0,0,0,0,0,.1v.2h-.7c-.3-.1-.5-.2-.6-.3-.2,0-.3-.1-.7-.2-.2-.1-.2-.2,0-.2h0c0,0-.4,0-.9-.2.3.1.2.1,0,0h0s-.2-.2-.6-.4c-.7-.3-1-.5-1.2-.5h-.2v.2h0c-.3-.2-.6-.4-.8-.7h-.2c-.5-.4-1-.7-1.4-1.1,0-.1-.2-.2-.3-.4-.3-.4-.6-.9-.9-1.4h0c0-.4-.3-.5-.4-.7-.3-.6-.6-1.2-.9-1.8,0-.2-.2-.3-.3-.5h0c0-.2,0-.4-.2-.8,0-.5-.2-.2-.4-.4h0c0-.3,0-.9-.2-1.6h0c0,.2.2.6.2.9s0,.3,0,0l-.4-1.3v-1.3c0,.3,0,.7.2,1v.4c0,.3,0,.2,0,0,0-.2,0-.5,0-.4,0-.5,0-.9,0-1.3v-1.1h0v.5c0,.3-.2.8-.3,1.3v.2c0-.7-.2-1.4-.2-2.1,0,0,0,1.1,0,2.6v.2c0-.5-.3-1-.4-1.5v-.2c0-.9,0-1.2-.2-1.1,0,.1,0,.7,0,1.4l.2.4c0,.7,0,.6,0,.7v.9c0,.3,0,.4,0,.6,0-.5-.3-1.1-.4-1.6s-.2-.8-.3-.8c0,.3,0,.7.2,1.1,0,.3,0-.1,0,.2,0,.4.3.8.5,1.6,0,.1-.2,0-.4-.4v.2c0,.2,0,.7.2,1.1,0,.4.3.8.3.9v.5c0,.3.2.4.3.3,0,.3,0,.5,0,.7,0,.3,0,.5,0,.8s.4.6.6.9l.2.2c.2.4.5.8.8,1.2.4.5.7.9,1.1,1.3h0c.4.6.9,1.1,1.3,1.2.6.7,1.5,1.2,2.4,1.6.9.4,1.8.7,2.6,1h1.2c.3,0,.7.3,1.2.3s.9,0,1.2.2h.6c.5.2,1.2.3,2,.4h2.5c.5,0,1-.3,1.5-.4h1.4c-.3.2-.6.4-.2.4-.3,0-.8.4-.8.3-1,.4-1.7.9-2.4,1.4-.7.5-1.4,1-2.2,1.6-.4.4-.6.7-.6.9h0c-.2.2-.4.5-.6.7v1c0,.2-.2.3-.3.2,0,0,0-.2,0-.3,0,0-.4.4,0,0,0,.2-.2.4-.2.5s0,.2.2,0c0,.3-.2.4-.3.5h0s0-.2-.3,0c-.2.6-.3,1.2-.4,1.9,0,.4,0,.9,0,1.3h0v.3c0,.3.2.9.4,1.3.2.2.5.6.8.9h0c.4.5.8,1,1.2,1.3.4.2,0-.3-.5-.8-.2-.3-.3-.5-.4-.6,0,0,0,0,.3.2.3.5.4.8.7,1.2,0,.2.3.4.6.6,0,0,0,0,.2.2,0,0,0,0,.2.2.2,0,.3.2.5.4h0c0,0,0,0-.2,0-.5-.5-1.3-.9-2-1.2-.5-.2-.9-.4-1.4-.6h-.2c-.2,0-.3,0-.5-.2h-1c-.2,0-.6-.3-1-.3s-.7,0-1-.2h-.5c-.4-.2-1.1-.3-1.8-.3s-1.4,0-2.1.2c-.4.2-.8.3-1.2.5h-1.3c-1,.6-1.8,1.2-2.5,1.7-.7.6-1.3,1.2-1.7,1.8v.2c-1,.7-2.1,1.5-3.2,2.5h-.6c0,0-.2,0-.3,0-.3.3-.5.6-.8.9l-.2.2h0c0,.3-.2.6,0,.9,0,.3,0,.5.3.7,0,.2.3.4.5.5,0,0,.2,0,.3.2h.7c0,0,.2-.2.3-.2,0,0-.2.2-.2.3h.9c.2-.2.3-.4.4-.5,0-.2.2-.3.3-.4.2-.3.4-.5.6-.8.4-.5.9-1,1.4-1.8.3-.2.5-.3.6-.4.2,0,.3,0,.6-.3.3-.2.5-.5.7-.6.2-.2.4-.3.6-.2.3-.2.6-.5.9-.7-.2,0,0,0,0,0h.4c.2-.2.3-.2.5-.3.3,0,.6-.2,1-.3.6-.2,1.2-.4,1.5-.3h.4s.2,0,.3-.2h1.2c2,0,4,.5,5.9.9h1c1.2,0,2,.3,2.9.4,0,0,0,0,.2,0h0c-.6,0-1.4-.2-2.1-.2s-.7,0-1,0c1.1.2,2.2.4,3.4.5h0c.4.4.8.9,1.4,1.3l1.5,1.5.6.3s0,.2.4.5c.2.3.2.2.3,0h0c0,0,0,.3.2.5,0,0,0,0,0,0,.2.2.4.5.6.7,0,0,.2.2.3.4,0,0,0-.2,0-.3,0-.2-.2-.3,0,0,0,0,0,.2.2.3s.4.6.7,1c0,0,0,0,0,.2,0-.2-.2-.4-.3-.5-.2-.2-.3-.4-.3-.5h0s.2.2.4.5c.2.2.3.4.3.5h0c0,0,0,.2,0,.2-.2-.3-.3-.6-.5-.9-.2-.3-.4-.5-.6-.7h0s.2,0,.2,0c0,.2.3.4.4.6.3.4.5.7.7,1l-.2-.3c-.3-.5-.6-1.3-.5-1.4l-.4-.3h0s0,0,0,0l-.3-.4h0c0,0-.2-.2-.2-.3,0,0,.2.2.3.3v-.2c.2.3.6.5.9.8h0c0-.2,0,0,0-.2-.3-.3-.6-.5-1-1.1,0,0,.2,0,.4.2v-.2c0-.2,0-.6-.4-.9-.2-.3-.5-.5-.5-.6,0,0,0-.2-.2-.3h0c-.2-.3-.3-.5-.4-.6,0-.2,0-.4-.3-.6,0,0-.3-.3-.5-.4h0c1,.6,2.3,1.5,3.2,1.8.2,0,.2.2,0,.2h.2c0,0,.3,0,.5,0h.7c0,0,.3-.2.4-.3,0-.2.5-.6.5-.8v-.2c1.4.2,3.1.5,4.9.7,2.7.4,5.6.9,7.4,1.5,1.9.4,4.2.9,6.5,1.5s4.4,1.1,6,1.5c2.6.8,3,1,5,1.7,3,1,2.3.5,3.2.7l-1.2-.5c1.7.5,2.3.6,4.6,1.3l1.8.9c1.4.4,7.1,2.4,8.9,3.2l-.4-.4c.4.2.7.3,1,.5h-.3ZM111.1,48.3h-.3c-.4,0-.8-.3-1.1-.4.5,0,1,.3,1.4.4ZM105.3,46.6c.6.2,1.8.6,3.1,1.1,1.5.5,3.2,1.1,3.9,1.4l1.3.4c.5.3-2.1-.7-.2,0-1.7-.5-3.7-1.2-5.6-1.8s-3.7-1.2-5-1.6c0,0-.4-.2-.7-.3,1,.2,2,.5,3,.8h.2ZM91.6,33.3c-.7.3.2,0,0,0h-.5q0,.2,0,.2h-.4c.3,0,.6-.2.9-.2h0ZM88.4,33.8s.2,0,.3,0h-.4,0ZM90.3,30.1h.9c0-.1.4-.1.4-.1,0-.1.3-.2.3-.2h-.3l-1,.2c.5-.1,1.1-.3,1.6-.4h-.3,0c-.2,0-.3.2-.5.3h-.3.3c-.3.2-.7.3-1,.5h0v-.2h0-.3ZM65.7,20.9v.4c0-.3,0-.6,0-.8.2.9,0-.3,0,0v.4h0ZM65.9,24.5h0v-.2.2ZM75.4,31h-1.4c-.3-.2-.7-.3-1.2-.6,0,0-.2-.1-.3-.2,0-.1,0,0,0,0,.2,0,.4.1.4.1.5.3.9.3,1.3.4h0c.3.1.6.2.9.4h.2ZM87.2,53.8v.3s0-.2,0-.3h0ZM85.9,52.1c-.2-.2-.4-.4-.6-.5h0c.4.1.7.4.9.6-.2,0-.4-.2-.3,0h0ZM86.3,52.2h0Z"/>
    <path class="cls-1" d="M8.7,62.3c1.2-.5,2.3-1.1,4.6-1.8,1.3-.4,2.1-.5,4.6-1.4l2.8-1.1c.9-.4,2-.7,3.6-1.2,2-.5,3.6-.7,5.1-1,1.6-.3,3.2-.6,5.3-1.1l1.2-.3c.4,0-1.4.5-3.4.9-2.1.4-4.4,1-4.9,1.3-.9.2-2.3.5-3.6.8-1.3.3-2.5.6-3,.8l-1.8.8c2.7-.8,3-.6,4.7-1,1.4-.4,4.3-1.3,2.8-1,1.2-.3,3.2-.8,2.9-.6,3.7-.8,6.7-1.5,9.6-2.1s5.8-1.1,9.1-1.4c3.4-.5,4.5-.8,4.5-.9-.2,0-2.6.3-1.5,0,1.2,0,3.3-.3,4.9-.4,1.7-.2,2.9-.2,2.5,0h-1c.2,0,1.6,0,.2.2,1.3,0,2.7-.3,1.5-.4,3.3,0,1.3,0,2,.2-.3.3-.6.6-.9,1h0c-.4.4,0,.3.4-.2h0c-.3.3-.3.5-.2.4,0,0,.4-.3.8-.7h0c0,0,.2-.2.3-.2,0,0,0,0,0-.2h0c0,0,0,0,0-.1,0-.2,0,0,0,0h0v-.2h0v-.3l.2-.2c0,0-.2.3-.3.4v.2h0c0-.1.3-.4.5-.8v.2h0c0,0,.3-.4.5-.7s.3-.5.3-.6c0,0,0-.2.2-.3h0q0,0,0,0c.2-.4.3-.5.4-.7,0-.2.2-.3.3-.5v-.3c1.3-2.5,1.4-5.4-2.5-7-.5-.3-1-.5-1.4-.7h-1c-.2,0-.6-.2-.9-.3-.3,0-.7-.2-.9-.2h-.5c-.2,0-.4,0-.6-.2l3.4-.6.2-.2h-.4.5c.2,0,.5-.3.8-.5s.5-.4.5-.5c-.4.3-.8.5-1.2.6s-.8.2-1.3.4c0,0,0,0,0,.2h0c-1.1.2-2.3.4-3.5.5-.6,0-1.2,0-1.8-.2h0c0,0,.2,0,.3-.2h.9c.5,0,.9,0,1.5.2.4,0,0-.2-.7-.3.3,0,.5-.2.3-.3h.4s0,.2.2.2c.8-.2,1.7-.4,2.5-.7h.4c.6-.2,1.3-.4,1.9-.8.3-.3.7-.6,1-.9.4-.2.8-.4,1.2-.6.7-.8,1.2-1.8,1.4-2.7.3-.9.3-1.8.2-2.6h0v-.4c.2-1.1,0-2.4,0-3.8,0-.2.2-.4.3-.5v-.4c0-.3,0-.5-.2-.8,0-.1,0-.2,0-.4v-.2s0-.1,0-.2,0-.3-.2-.4c0-.1-.2-.3-.3-.4,0,0-.2-.1-.3-.2h-.3s-.2,0-.2.1c0,0,.2.1.2.2h-.3s0,0-.2-.1c0,0-.2,0-.3-.1h-.2s0,0-.2.1v.3h0v.2c0,.1,0,.2,0,.3h0v.3h0s0-.1-.2-.1v.9c0,.2.2.3.2.5h0v.8c0,.2,0,.3,0,.5,0,.3,0,.5.2.7,0,.5,0,1.1,0,1.7,0,.7-.3.8-.4,1.3v1c0,.3,0,.5-.3.6,0,.4,0,.7-.2,1.1,0-.2,0,0,0,.2h0l-.6.6c-.2.2-.4.4-.6.7-.4.4-.9.8-1.5.8-.2.2-.5.3-.8.5-.3,0-.7.3-1,.4h-1.2,0-.4c-.4,0-.6,0-.7.2v.2c0,0,.2.2-.5.3h-1.3c-.3.2-.6.4-1.2.6h-2.3c-.2,0-.3.2-.5.2h-1.2c-.5,0-1.1-.2-1.8-.2s-1.3,0-1.9-.2c-.3,0-.5,0-.7,0h-.7c0,0-.3,0-.5-.2h0c-.2,0-.4,0-.6,0h0c-.5,0-1.1-.2-1.4-.4h1.1c.6,0-.5-.2-.3-.3-.4,0-.7,0-1-.2-.3,0-.6,0-.9,0,0,0,.3,0,.4.2.3.2.7.5,1.2.7h0c-.6,0-1.2-.2-1.9-.3,0,0,.8.2,2.1.5,0,0,.2,0,.3.2h-1.4v-.2c-.8,0-1.1,0-1,0,0,0,.5.3,1.1.4h.4c.6,0,.5.2.5.3h.6q.3,0,.5.2c-.7,0-1.9-.3-1.8,0h.8c.2,0,0,0,0,0h1.3-.3,0c.3.3,1.4.3,1.5.4,0,0,.2,0,.3,0h0c.8,0,.8.4,1.3.6.4,0,1.2,0,.8-.2.3,0,.9,0,.8.2h1.1-.3c-.9,0-1.7.3-2.3.5h0c-.7,0-1.2,0-1.2,0,0,0-1,.4-.3.6,0,0,.8,0,1.7,0h0c-2.2.6-4.1,1.1-6,1.7-2,.6-4,1.3-6.2,2.1-.5.3-.6.5-.2.6.3,0,.9,0,1.9-.2-3.9,1.2-7.7,2.7-11.4,4.3.5-.4,1.1-.7,1.4-1s.5-.5.2-.5-.8.2-2,.7c.1,0,.4,0,.7-.3-.1.2-.5.4-1.8,1-.6.3-1.6.7-2.3,1.1-.8.4-1.3.6-1.1.5l.3-.2s-1.5.5-3,1.3c-.3.2.9-.3-.5.5l-1.4.7-2,2,3.5-2.2c.4,0,.7-.3.9-.4-.8.4-1.5.8-2.3,1.2,1.2-.5,2.4-1,3.6-1.5-2.1,1-4.4,2.2-6,3l-.3.3c1.4-.6,5.8-2.3,6.9-2.7l1.4-.7c1.8-.7,2.3-.7,3.6-1.1l-.9.4c.7-.2.1.2,2.4-.7,1.5-.6,1.8-.7,3.9-1.4,1.2-.3,2.9-.8,4.7-1.3s3.6-1,5-1.3c1.4-.5,3.6-.9,5.8-1.3,2.1-.4,4.2-.7,5.3-1,2.4-.3,3.7-.5,4.8-.7,1-.2,1.8-.4,3.1-.5,1.9,0,.7,0-.8.3-1.4.2-3.1.4-2.1.4,2.4-.2,4.8-.4,7.3-.6h0c0,0,0,.4,0,.3.2.3.3.5.4.7,0,.2.2.5.3.7v.4c-1.6,0-2.4,0-2.8.2-.4,0-.3,0-.2.2.2,0,.5.2-2.4.4h-2.2c-.6,0-1.4,0-2.8.3-.8.2-1.6.4-2.6.7-1,.2-2.3.5-4.1.9-.4,0-1.6.2-2.9.4-1.3.2-2.8.5-3.8.7-.6.2-1.1.4-2.1.7-.9.3-2.3.6-4.6,1.2-1.9.4-4.1,1-6.5,1.8s-4.8,1.7-7.1,2.5c-.8.4-1.4.7-2.2,1.1-.8.4-1.7.8-3.1,1.4-.8.2-2.7,1-4.6,1.8-1.9.9-3.9,1.8-5.1,2.4.9-.5,1.9-1,2.8-1.5.4-.2.8-.4,1.2-.5,1-.5.5-.3-.2,0s-1.5.6-1.1.4c-2.7,1.2-4.9,2.4-6.9,3.6l1.7-.8c.9-.4,2.3-.9,3.7-1.5.7-.2,1.3-.5,2-.7-2.4,1.1-4.9,2.4-7.3,3.6,2.2-.9,4.5-1.8,6.7-2.7.3,0,.7-.2,1-.3.7-.2,1.3-.4.9-.2-1.7.7-3.4,1.4-5,2.1h-.5c-2.6,1.1-3.4,1.6-3.1,1.5.4,0,1.9-.6,3.9-1.4l1.2-.6c2.1-.8,1.8-.5,1.8-.5l1.6-.5c.1,0,0,0,.7-.3.9-.3,1.1-.3,1.7-.5-1.3.5-3,1.1-4.3,1.7-1.3.5-2.3,1-2.1,1,.8-.3,1.9-.8,2.9-1.2.8-.3-.3.2.4,0l.7-.3ZM63.9,22.7h0ZM55.8,37.9c0,0,.2,0,0,0h-.3c0,0,.4,0,.2.2h-.5c0,0,.2-.2.5-.3ZM42.1,37c.7,0-.3,0,0,0h.6c0,0,.2.2.3.3-.3,0-.6,0-.9-.2ZM45.1,38.1s-.2-.2,0-.3c0,0,.2,0,.3.2h-.2ZM46.5,40.4h0ZM61.3,52.1h0l.5-.5h0s-.2,0-.3.2l-.2.3ZM61.5,52h0ZM61.5,52h0c0,0,0,0,0,0h0ZM61.7,51.7h0ZM62.3,51.2h0ZM14.1,59.3c-.4.2-1,.4-1.5.6-.2,0-.3,0-.5,0,.7-.2,1.3-.5,2-.7ZM9.1,61.6c2.5-1-.9.3-.2,0l1.7-.6c1-.4,3.1-1.2,5-1.9,1.7-.6,3.3-1.2,4.1-1.5,1.3-.4,2.6-.7,3.8-1.1-.5.2-1,.4-1,.5-1.6.5-3.9,1.3-6.3,2.2s-5,1.8-7.1,2.5h0Z"/>
    <path class="cls-1" d="M62.8,51.3h0c0,0-.3.3-.4.5.2-.3.3-.2.4-.5Z"/>
    <path class="cls-1" d="M42.4,38h-.7c.4,0,.3,0,.6,0h.1Z"/>
    <path class="cls-1" d="M63.1,23.1h0c0,.1,0,0,0-.1h0Z"/>
    <path class="cls-1" d="M83.2,35.1c.4,0,.8-.2.7-.3-.6,0-1.1,0-1.6,0h-1.6c-.6,0,.5.3,1.4.4.2,0,.7,0,1.1-.2Z"/>
    <path class="cls-1" d="M89.9,59.1s0,.2,0,.2h0c0,0,0-.2-.2-.3h0Z"/>
    <path class="cls-1" d="M90.1,59.4h0s0,0,0-.2h0c0,0-.2-.3-.2-.4h0c.5,1,1.1,2.1.9,1.7,0-.2-.3-.5-.4-.8h0c0,0-.2-.3-.2-.3Z"/>
    <polygon class="cls-1" points="89.6 58.5 89.6 58.5 89.6 58.5 89.6 58.5"/>
    <path class="cls-1" d="M89.6,58.6h0c0,0,0,.2.2.3v-.2h0c0,0-.2,0-.2,0Z"/>
    <path class="cls-1" d="M90,59h0q0-.2-.2-.3c0,0,0,.2.2.4h0Z"/>
    <path class="cls-1" d="M89.6,58.6h0c0,0,0,0,0-.1h0Z"/>
    <path class="cls-1" d="M94.6,28.8h0c0-.1,0-.2,0,0Z"/>
    <path class="cls-1" d="M87.6,56.3h0q0,0,0,0Z"/>
    <path class="cls-1" d="M88.6,57.4h0c0,.2.6.6.9,1h0c-.2-.3-.6-.6-.8-.9h0Z"/>
    <path class="cls-1" d="M80.5,37.9h-.3c0,0-.2.3-.3.4.2-.2.4-.2.6-.5h0Z"/>
    <path class="cls-1" d="M90.2,59.5h0v.3l-.2-.3h0c.3.5.5.9.5.8s-.3-.9-.6-1.4h0c0,0,.3.6.3.6h0Z"/>
    <path class="cls-1" d="M73.7,46.1c.3,0,.2,0,0-.2-.3,0-.7,0-1.1-.2-.2,0-.6,0-1,.2-.4,0-.7.2-.6.3.5,0,.9-.2,1.4-.2h1.4,0Z"/>
    <path class="cls-1" d="M112.6,50c.8.3.7.2,1.7.5-.7-.2-1.3-.5-2-.7h.3v.2Z"/>
    <path class="cls-1" d="M90,58.9h0c0,0,0,0,0,0Z"/>
    <path class="cls-1" d="M88.8,56.8c0-.2-.3-.4,0,0,0-.2-.2-.3-.4-.4,0,0,0,0,.2.2,0,.2,0,0,.2.2Z"/>
    <path class="cls-1" d="M88.9,56.2c.2.2.3.4.5.7-.2-.3,0-.4-.4-.6h0Z"/>
    <path class="cls-1" d="M90.8,29.4c.3-.2.6-.4,1-.6.3,0,.5-.1.8-.2.2,0,.5-.1.9-.3,0,0,.2-.1.4-.2,0,0,.3-.1.4-.2h0v-.2l-.2-.2v-.3h-.4c-.3.1-.6.2-.8.4-.9.2-1,.3-1.7.4-.9.3-.6.4-.9.6h.4c-.2,0-.4.2-.6.3h-.4v.2h0v.5h0c.2-.1.5-.3.7-.4.3,0,.5,0,.8-.2l-.4.4Z"/>
    <path class="cls-1" d="M64.6,21h0c0-.2,0-.5-.2-.8v.8h.2Z"/>
    <path class="cls-1" d="M12,55.2c.2,0,.5-.2.7-.4l.2-.2-1,.6h.1Z"/>
    <path class="cls-1" d="M77.4,31.2s0,.1.6,0h.3c-.4-.2-.8-.2-1.2-.3.3,0,.3.1.4.2h-.1Z"/>
    <path class="cls-1" d="M62,51.7h0Z"/>
    <polygon class="cls-1" points="93.9 27.2 93.9 27.2 93.9 27.2 93.9 27.2"/>
    <path class="cls-1" d="M89.8,57.6c0,0-.2-.3-.3-.4.2.3.2.5.3.4Z"/>
    <path class="cls-1" d="M61.7,52.2c0,0,.2-.3.3-.4h0c-.2.3-.3.5-.2.5h0Z"/>
    <path class="cls-1" d="M62.4,51.4h0Z"/>
    <path class="cls-1" d="M89.4,54.1h.2-.2Z"/>
    <path class="cls-1" d="M89.4,57.1h0s.2.1.3.2c0,0,0,0,0-.2h-.1Z"/>
    <path class="cls-1" d="M88.1,53.3h0c-.2,0,0,0,0,0Z"/>
    <path class="cls-1" d="M88.4,53.7c0,0,.3,0,.5.2,0,0,.3,0,.5.2-.3-.2-1-.6-1.3-.8,0,0,.3.4.3.4Z"/>
    <path class="cls-1" d="M88.8,54.2c.8.4.7.2,1,.2l-.3-.3h0c-.3,0-1-.2-.7,0h0Z"/>
    <path class="cls-1" d="M92.5,78.5c-.3,0-.6-.2-.9-.2-2,0-3.5,1.6-3.6,3.8v.2l-.9.9c0,0-.3.3-.5,0-.2-.2-.2-.4,0-.6,0-.7.3-1.3.4-1.9,0-.5.2-1.1.3-1.6,0-.4-.2-.7-.5-.8-.4,0-.8,0-1.2.2.3.4.3.8.2,1.2,0,.5-.2.9-.3,1.4v.2c-.5.7-1.1,1.4-1.8,1.8,0,0-.3.2-.5.2s-.4,0-.4-.3v-.7c0-.9.3-1.7.5-2.6,0,0,0-.2.2-.2h.9c.3,0,.6-.4.5-.8h-1.4c.2-.7.5-1.3.7-1.9h-.7c-.5,0-.9.3-1.1.8,0,.2-.2.5-.2.7,0,.3-.2.4-.4.4-.3,0-.4,0-.5.3v.3q0,.3.2.3h.4c0,.3-.2.7-.2,1,0,.5-.2.9-.5,1.2-.4.5-.9,1-1.4,1.4,0,0-.3,0-.4,0,0,0-.2-.3-.2-.4,0-1.5.4-2.9,1-4.2-.6-.4-1.1-.4-1.5,0-.6-.4-1.3-.4-1.8,0-1.4.6-2.2,1.8-2.5,3.4,0,.4-.2.7-.4.9s-.2.2-.4.3c0,0-.2.2-.4.2-.3,0-.4,0-.4-.3v-.6c.3-1.6.6-3.2.9-4.7,0-.7.2-1.4.3-2.1,0-.5-.3-.8-.7-.7-.4,0-.8.2-1.2.3.3.4.3.8.3,1.1s0,.9,0,1.3c0,.3,0,.6,0,.9-.8-.4-1.6-.2-2.2,0-1.2.7-1.9,1.8-2.2,3.2,0,.3-.2.6-.4.8-.3.2-.5.5-.8.7s-.5,0-.5-.3v-.2c0-.7.3-1.4.3-2s.2-1.1.2-1.7-.4-.9-.9-.7c-.3,0-.5.2-.8.4-.7.5-1.2,1.1-1.7,1.8,0,.2-.3.4-.5.7v-.2c0-.6.2-1.3.3-1.9,0-.5-.2-.8-.7-.7-.4,0-.7.3-1.1.4,0,.2,0,.4.2.5.2.7,0,1.4,0,2.1h0c-.4.5-.7,1-1.1,1.4-.2.2-.4.4-.7.6-.2,0-.4,0-.4-.3v-.4c.2-.9.4-1.8.6-2.6,0-.3,0-.6.2-1,0-.4,0-.7-.5-.7s-.8,0-1.1.2v.8c0,1.5-.7,2.8-1.7,3.7-.2.2-.4.3-.6.4-.2,0-.4,0-.4-.3v-.3c0-.6.2-1.1.3-1.7,0-.7.2-1.4.3-2.1,0-.4-.2-.7-.5-.7s-.8,0-1.1.3c0,.3,0,.6,0,.8,0,.5,0,1-.2,1.4,0,.8-.3,1.5-.4,2.3,0,1,.5,1.6,1.4,1.4.5,0,1-.5,1.4-.8.2-.2.5-.5.7-.7,0,.3,0,.5,0,.8,0,.7.5.9,1.1.8.5,0,.9-.4,1.3-.8.3-.3.5-.5.9-.9,0,.5-.3,1-.4,1.6h.6c.6,0,.8,0,1-.7.3-1,.7-1.9,1.3-2.7.3-.5.6-.9,1.1-1.2h.3s0,.3,0,.4c0,.3,0,.6,0,.9,0,.7-.3,1.5-.4,2.2,0,.8.5,1.3,1.2,1.1.5,0,.8-.3,1.2-.6.2-.2.4-.4.6-.5.3,1,.9,1.4,1.8,1.1.4,0,.7-.4,1.1-.7.3-.2.5-.6.8-.9v.5c0,.9.7,1.3,1.5,1,.2,0,.4-.2.6-.3.3-.2.6-.5.9-.7v.2c.3.7.8,1.1,1.4.9.3,0,.7-.2,1-.4.4-.3.7-.7,1.1-1.1,0,.2,0,.5.2.7.2.5.5.8,1,.8s.6,0,.9-.3c.5-.3.9-.7,1.3-1.2,0,0,.2-.2.3-.4v.6c0,.9.6,1.3,1.4,1.3h.3c.7-.2,1.3-.8,1.8-1.3,0,0,0-.2.3-.3v.4c0,.8.5,1.3,1.2,1.3s.4,0,.6-.2c.6-.3,1.1-.7,1.5-1.2.4.8.8,1.2,1.4,1.3.5,0,.9,0,1.4,0,1.7-.5,2.8-2.6,2.5-4.5,0-.7-.4-1.2-1-1.4l-.2-.4ZM71.5,79.8c-.3,1.3-.8,2.5-1.6,3.4,0,0-.2,0-.2.2-.2,0-.4.2-.6,0-.2,0-.2-.4-.3-.7,0-1.2.3-2.4,1.2-3.3.3-.3.6-.5,1-.5s.7.3.6.8h0ZM78,79.7c-.3,1.3-.8,2.5-1.5,3.5l-.4.4c-.3.2-.6,0-.7-.4v-.2c0-1.3.4-2.5,1.2-3.4.3-.3.6-.5,1-.4.3,0,.5.3.4.6h0ZM91.2,83.4c-.2.3-.4.5-.8.5s-.6-.2-.7-.6c-.2-.5,0-1.1,0-1.6,0-.8.3-1.5.8-2.1,0,0,.3-.3.4-.3.4-.2.9,0,1,.5,0,.2,0,.5,0,.6,0,1.1-.2,2.2-.8,3Z"/>
    <path class="cls-1" d="M48.1,78.8c-.7.3-1.5,0-2.3.2,0-.8.7-2.9,1-3.7,0,0,0-.2.3-.2h2c.2,0,.5,0,.7,0,.6-.3.7-.8.8-1.4h0q0,0,0,0c-.3,0-.5.3-.8.3h-2.5c-1.1,0-2.2,0-3.2,0-.8,0-1.5.3-2.1.8-.7.5-1.2,1.3-1,2.4,0,.9,1,1.3,1.6.8h0c-.7-1-.5-2.1.4-2.5.4-.2.9-.3,1.4-.3h1.8,0c-.5.2-.8.6-.9,1.2,0,.6-.3,1.3-.4,1.9,0,.4-.3.6-.7.6-.6,0-.9.5-.8,1.1.4,0,.7,0,1.1,0v.2c0,.6-.2,1.3-.3,1.9s-.2,1.3,0,2c0,.8.6,1.4,1.3,1.4s.2,0,.2-.2c-.2-.4,0-.9,0-1.3.2-1.3.4-2.6.6-3.9,0-.2,0-.2.3-.2h1.6c.5,0,.9-.6.7-1.1l-.5.2Z"/>
    <path class="cls-1" d="M101.3,81.3s0,.2,0,.2c-.4.5-.9,1-1.3,1.5,0,0-.3.2-.5.3-.2,0-.3,0-.4-.3v-.3c0-.7.3-1.4.4-2.1,0-.6.2-1.2,0-1.7,0-.5-.4-.8-.8-.7-.3,0-.5.2-.8.4-.8.6-1.4,1.4-2,2.2v.2c0-.2,0-.3,0-.4,0-.6.2-1.2.2-1.7s-.2-.7-.6-.7-.8.2-1.2.5c.2.4.3.8.2,1.3,0,.6,0,1.2-.2,1.7-.2.9-.4,1.7-.6,2.6h.7c.5,0,.6,0,.8-.6.3-.9.6-1.8,1.1-2.5.3-.5.7-1.1,1.2-1.4h.4s0,.3,0,.4c0,.5-.2,1-.2,1.5s-.2,1.1-.2,1.6c0,.8.5,1.3,1.2,1.1.2,0,.4,0,.5-.2.8-.4,1.4-1,1.9-1.7.3-.4.3-.8.2-1.3h0Z"/>
    <path class="cls-1" d="M52.4,78.5c-.4-.2-.8,0-1.3,0-1.9.2-3.3,2.2-3,4.3,0,1,.7,1.7,1.6,1.8.6,0,1.1,0,1.6-.2,1.5-.8,2.2-2.2,2.2-3.7s-.4-1.9-1.2-2.1h.1ZM51.2,83.4c-.2.3-.5.5-.8.5s-.5-.2-.7-.5c-.2-.6,0-1.1,0-1.6,0-.8.3-1.5.8-2.1,0,0,.3-.3.4-.3.4-.2.9,0,1,.5,0,.2,0,.5,0,.6,0,1.1-.2,2.2-.8,3h0Z"/>
    <path class="cls-1" d="M86.9,75.5h-.3c-.4,0-.7.3-.8.7,0,.5,0,.9.5.9s.8,0,1.1-.3c.3-.2.4-.6.3-.9s-.4-.5-.8-.5h0Z"/>
    <path class="cls-1" d="M39,68.1l-.5-4.1v-.9c-.2-.8-.2-1.1-.2-1.7l-3.1.6v.8c-.6-.6-1.3-.8-2.1-.7-1.3.2-2.3,1.3-2.6,2.9-.2,1.3,0,2.9.4,4.1.6,1.9,1.9,2.8,3.3,2.5.5,0,1.1-.4,1.5-.8.3-.4.5-.8.8-1.7v1.8l3-.5c-.2-.5-.2-.7-.3-1.6v-.9l-.2.2ZM35.5,68.2c-.2.5-.5.9-.9.9s-.7-.2-.9-.7c-.2-.6-.3-1.5-.3-2.2,0-1.1.4-1.7,1-1.8.4,0,.8,0,1.1.4v.5c.2,1.8.2,2.2,0,2.9Z"/>
    <path class="cls-1" d="M27.1,70.9c-.8.2-1.4,0-1.7-.9.9-.3,1.8-.6,2.5-1.1,1.4-1,1.8-2.2,1.3-3.6-.6-1.4-1.9-2-3.7-1.5-3,.7-4.2,3.7-2.8,7.1.8,2,2.5,2.9,4.4,2.5,1.3-.3,2.6-1.1,3.8-2.4l-1.4-1.5c-.6.7-1.6,1.4-2.3,1.5h0ZM25.9,65.7c.3,0,.7,0,.8.5.3.7-.4,1.6-1.8,2.2-.2-1.5.2-2.5,1-2.7Z"/>
    <path class="cls-1" d="M65.5,61.9l-.5,2.3v.4c0,.2-.2.3-.2.7v-1l-.8-2.8c0,0,0-.4-.2-.7,0-.5-.2-.7-.2-.8v-.5h-3.3v.2c0,.2,0,.3.2.5,0,0,0,.2.3.7l.3.7,2.5,7.1-.2.6c-.3.9-.6,1.2-1.2,1.2s-1,0-1.4-.3l-.5,2c.7.3,1.6.5,2.5.5s1.7-.3,2.1-.8c.4-.4.6-.9,1.2-2.5l2.3-6.6.4-1,.4-1.2c.2-.6.3-.8.5-1.2h-3.3v.3c0,.3,0,.4-.3,1.6,0,.4-.2.7-.2.8l-.4-.2Z"/>
    <path class="cls-1" d="M43.7,70v-.2c0-.3-.2-1-.3-2.3l-.7-8.4v-.9c-.2-1-.2-1.1,0-1.7l-3.3.4h0c0,.5.2,1,.3,2.5l.7,8.4v2.5l3.3-.4h0Z"/>
    <path class="cls-1" d="M59.8,66.1v-3.8c0-.6,0-1-.2-1.3-.2-1.1-1.1-1.6-2.3-1.6s-2.1.7-2.9,2.1v-6l-3.3.2c0,.5,0,.8.2,1.7v.9l.2,8.4v.9c0,.8,0,1.1,0,1.6l3.3-.2c0-.7-.2-2.5-.2-3.8s.7-2.6,1.4-2.7c.3,0,.5.2.6.5v4.3c0,.8,0,1.2,0,1.6l3.3-.2c0-.5,0-.8,0-1.6v-.9h.2Z"/>
    <path class="cls-1" d="M21.9,71.7l-1.9-7.2c-.4-1.6-.5-1.9-.5-2.5l-3.3,1.1h0c.1.4.5,1.5.7,2.4l.6,2.1h-.2s-.3,0-.8.3l-.7.2-.7.2-.8.3h-.2l-.6-2c-.3-1.1-.5-2.1-.5-2.5l-3.3,1.1c.3.5.4.9.8,2.4l1.9,7.2.2.9.2.7c0,.3,0,.4.1.9l3.3-1.1h0c-.1-.4-.5-1.5-.7-2.4l-.8-2.9c.3,0,1.1-.4,1.6-.6.6-.2,1.3-.4,1.7-.5l.8,2.9c.3,1.1.5,2.1.5,2.5l3.3-1.1v-.2c-.1-.3-.5-1.3-.7-2.2Z"/>
    <path class="cls-1" d="M50.5,62v-2.1c-.4,0-.8,0-1.3.2h-1.2c0,0,0-2.8,0-2.8l-2.7.8-.2,2.4h-1.3c0,0,0,2.1,0,2.1h1.3c0,0,.3,4.2.3,4.2,0,.6,0,1.1.2,1.5.3,1.1,1.1,1.6,2.3,1.4,1.1,0,2.2-.6,3.3-1.6l-1-1.8c-.5.4-.9.6-1.2.7-.3,0-.4,0-.5-.4,0-.2,0-.5,0-.7l-.2-3.7h1.2c.4-.2.7-.2,1.2-.2h0Z"/>
    <path class="cls-1" d="M114.2,64.3c-1.1-.2-2.2,0-2.9.3-1.2.7-2.1,2.5-2.1,4.3s1.3,4.4,3.5,4.9c1.1.2,2.2,0,3-.4,1.2-.7,2-2.5,2.1-4.3,0-2.4-1.4-4.3-3.5-4.8h0ZM114.3,70.4c-.3,1-.8,1.4-1.4,1.2-.5,0-.9-.7-.9-1.6s.2-1.6.4-2.3c.3-.9.8-1.4,1.5-1.2.5,0,.9.7.8,1.6,0,.7-.2,1.6-.4,2.3Z"/>
    <path class="cls-1" d="M104.9,70l4.5-4.8.3-1.7-7-1.3-.4,2h1.1l.5.2,1.5.3-4.5,4.8-.3,1.7,7.4,1.4.4-2c-.4,0-.8,0-1.6-.2l-2-.4h0Z"/>
    <path class="cls-1" d="M127.6,71c0,.9.3,1.5,1.5,2.7,1,1,1.2,1.2,1.1,1.6,0,.5-.5.7-1.3.5s-1.6-.6-2.2-1.1l-1,2c.8.5,1.7.9,2.8,1.2,2.7.8,4.7,0,4.9-2.2,0-1-.3-1.7-1.7-3-.7-.7-.9-.9-.9-1.3s.4-.6,1-.4,1.2.5,1.9.9l.9-1.8c-.8-.5-1.5-.8-2.4-1.1-2.5-.8-4.4,0-4.6,2.1h0Z"/>
    <path class="cls-1" d="M126.9,70.5c0-.5.2-.9.2-1.3,0-1.1-.6-1.9-1.7-2.2-.6,0-1.1-.2-1.7,0s-1.1.5-1.9,1.1c0-.4.3-.7.4-1.1l.2-.6-2.9-.8h0c0,.6,0,.7-.3,1.6l-.2.8-1.1,4-.2.9c-.2.8-.3,1.1-.6,1.5l3.2.8c0-.8.5-2.4.9-3.7.5-1.4,1.4-2.3,2.1-2.1.2,0,.4.3.4.6s0,.4-.2.9l-.6,2.4-.2.9c-.2.8-.3,1.1-.6,1.5l3.2.8c0-.6,0-.8.3-1.6l.2-.9,1-3.7v.2Z"/>
    <polygon class="cls-1" points="102.4 57.9 99.4 57.4 98.9 60.3 101.9 60.7 102.4 57.9"/>
    <path class="cls-1" d="M90.4,64.3c-.2-2.4-1.8-4.1-4-4.3-1.1,0-2.2,0-2.9.7-1.1.9-1.8,2.7-1.7,4.6.2,2.5,1.8,4.2,4,4.4,1.1,0,2.2,0,3-.7,1.1-.9,1.7-2.7,1.6-4.6h0ZM87.1,66c-.2,1-.7,1.5-1.3,1.4-.6,0-1-.6-1-1.5s0-1.6.2-2.4c.2-1,.7-1.5,1.3-1.4.6,0,.9.6,1,1.5,0,.7,0,1.6-.2,2.3h0Z"/>
    <path class="cls-1" d="M93.8,68.5c.3-1.6.4-2.3.7-2.9.5-1,1.3-1.4,2.3-1.3h.2l.5-3c-.5,0-1,0-1.6.3-.5.3-.8.5-1.4,1.3h0v-1.2c0,0,0-.5,0-.5l-3-.4h0c0,.6,0,.7,0,1.7v.9c0,0-.8,4.1-.8,4.1v.9c-.3.8-.3,1.1-.5,1.6l3.3.4c0-.5,0-.8.2-1.7v-.2Z"/>
    <path class="cls-1" d="M71,65.9v1.7c0,.3,0,.4-.3.9l3.5.2v-2.6l.2-3h1.7c.6,0,1.4,0,1.7,0l-.2,3c0,1.2-.2,2.1-.3,2.5l3.5.2v-2.6l.6-7.5c0-1.6.2-1.9.3-2.5l-3.5-.2v2.6l-.2,2.1h-3.6l.2-2.1c0-1.2.2-2.1.4-2.5l-3.5-.2v2.5l-.6,7.5h0Z"/>
    <path class="cls-1" d="M97.5,68.2l-.2.9c-.2.8-.2,1.1-.4,1.6l3.3.5v-.2c0-.3,0-1,.3-2.3l.7-4.1.2-.9c.2-1,.2-1.1.4-1.6l-3.3-.5v.2c0,.4,0,.9-.3,2.3l-.7,4.1Z"/>
    <polygon class="cls-1" points="100.7 77.4 101.3 77.4 101.3 79 101.7 79 101.7 77.4 102.3 77.4 102.3 77 100.7 77 100.7 77.4"/>
    <polygon class="cls-1" points="103.5 78.4 103.1 77 102.5 77 102.5 79 102.9 79 102.9 77.4 103.3 79 103.7 79 104.1 77.4 104.1 79 104.4 79 104.4 77 103.9 77 103.5 78.4"/>
  </g>
  <path class="cls-1" d="M7.9,9.5V.8h2v8.7s-2,0-2,0Z"/>
  <path class="cls-1" d="M22.2.8v8.7h-1.7l-6.3-6.3v6.3h-1.9V.8h2.1l5.9,6V.8h1.9Z"/>
  <path class="cls-1" d="M37.5,6.8c0,1.7-1.6,2.9-4.7,2.9s-4-.6-5.3-1.8l1.1-1.4c1.1,1,2.5,1.4,4.2,1.4s2.7-.3,2.7-1.1-.9-.9-2.9-1.1c-2.5-.2-4.8-.8-4.8-2.6s1.9-2.8,4.6-2.8,3.6.5,4.7,1.3l-1.1,1.4c-1-.7-2.1-1-3.6-1s-2.6.2-2.6,1,1.2.8,3,1c2.8.2,4.7.8,4.7,2.7h0Z"/>
  <path class="cls-1" d="M48.8.8v4.6c0,2.6-1.7,4.4-4.9,4.4s-4.9-1.8-4.9-4.4V.8h2v4.5c0,1.7,1,2.8,2.9,2.8s2.9-1,2.9-2.8V.8h2Z"/>
  <path class="cls-1" d="M60.8,3.7c0,1.9-1.5,3-3.7,3h-4v2.8h-2V.8h6c2.2,0,3.7,1,3.7,3h0ZM58.8,3.7c0-1-.7-1.3-1.9-1.3h-3.8v2.6h3.8c1.1,0,1.9-.3,1.9-1.3Z"/>
  <path class="cls-1" d="M72,3.7c0,1.9-1.5,3-3.7,3h-4v2.8h-2V.8h6c2.2,0,3.7,1,3.7,3h0ZM70,3.7c0-1-.7-1.3-1.9-1.3h-3.8v2.6h3.8c1.1,0,1.9-.3,1.9-1.3Z"/>
  <path class="cls-1" d="M73.2,5.1c0-2.9,2.1-4.6,5.5-4.6s5.5,1.7,5.5,4.6-2.1,4.6-5.5,4.6-5.5-1.7-5.5-4.6ZM82.3,5.1c0-1.9-1.4-2.9-3.5-2.9s-3.5,1-3.5,2.9,1.3,2.9,3.5,2.9,3.5-1,3.5-2.9Z"/>
  <path class="cls-1" d="M93.8,9.5l-2.5-3h-3.2v3h-2V.8h6c2.1,0,3.7,1,3.7,2.9s-1,2.4-2.4,2.7l2.7,3.1h-2.4.1ZM92.1,4.9c1,0,1.8-.2,1.8-1.2s-.8-1.2-1.8-1.2h-3.9v2.4h3.9Z"/>
  <path class="cls-1" d="M106.7,2.5h-3.8v7h-2V2.5h-3.8V.8h9.6s0,1.7,0,1.7Z"/>
  <path class="cls-1" d="M111.2,5.1c0-2.9,2.1-4.6,5.5-4.6s5.5,1.7,5.5,4.6-2.1,4.6-5.5,4.6-5.5-1.7-5.5-4.6ZM120.2,5.1c0-1.9-1.4-2.9-3.5-2.9s-3.5,1-3.5,2.9,1.3,2.9,3.5,2.9,3.5-1,3.5-2.9Z"/>
  <path class="cls-1" d="M126.1,2.5v2h5.8v1.7h-5.8v3.3h-2V.8h8.8v1.7s-6.8,0-6.8,0Z"/>
</svg>