<?xml version="1.0" encoding="UTF-8"?>
<svg id="Layer_1" data-name="Layer 1" xmlns="http://www.w3.org/2000/svg" xmlns:xlink="http://www.w3.org/1999/xlink" version="1.1" viewBox="0 0 210 125">
  <defs>
    <style>
      .cls-1 {
        clip-path: url(#clippath);
      }

      .cls-2 {
        fill: none;
      }

      .cls-2, .cls-3 {
        stroke-width: 0px;
      }

      .cls-3 {
        fill: #fff;
      }
    </style>
    <clipPath id="clippath">
      <rect class="cls-2" x="5.5" y="1.1" width="200" height="122.3"/>
    </clipPath>
  </defs>
  <g class="cls-1">
    <g id="Group_418" data-name="Group 418">
      <path id="Path_1054" data-name="Path 1054" class="cls-3" d="M81.4,76.2c-1.2.1-1.8,0-3.6.2h1.2c0,0,2.4-.2,2.4-.2Z"/>
      <path id="Path_1055" data-name="Path 1055" class="cls-3" d="M20.2,89.5c-1.2.4-2.5.9-3.7,1.3,1.1-.3,2.2-.7,3.2-1.1l.5-.3Z"/>
      <path id="Path_1056" data-name="Path 1056" class="cls-3" d="M119.6,74.4c-.5,0-1-.2-1.4-.3-.7,0,.1.2,1.4.3"/>
      <path id="Path_1057" data-name="Path 1057" class="cls-3" d="M205.5,94.6l-1.8-1-3.8-3.6-2.6-1.3c-2.6-1.5-.3-.6-.9-1-1.8-1-3.6-1.7-5.6-2.3l.6.3c.4.3-.7-.2-2.1-.8s-3.2-1.4-4.3-1.9c-2.4-1.2-3.2-1.5-3.5-1.8.6.2,1,.4,1.3.4-1.2-.5-2.5-.9-3.8-1.1-.4,0-.1.4.5.9.7.5,1.7,1.2,2.6,1.8-6.9-2.8-14-5.3-21.2-7.4,1.2.3,2.4.4,3.6.3.6,0,.5-.4-.4-1-4-1.3-7.7-2.5-11.4-3.5s-7.6-1.9-11.9-2.7c-3.9-1-7.9-1.6-11.9-2-1.6-.2-3.1-.3-4.6-.5h0c-.3-.3-.6-.7-.7-1.2-.4-.3-.7-.7-.9-1.1-.3-.4-.5-.9-.7-1.3,0,0,0,0,.1-.2.6,0,1.2.2,1.9.2,3.4.2,6.9.7,10.3,1.3,3.3.6,6.7,1.3,10.8,2.1-.4-.2,2,.3,3.3.6-1.7-.2,1.6.7,3.2,1.1,1.8.2,3.6.6,5.3,1l-2-.8c-.6-.2-1.9-.5-3.4-.8s-3-.6-4.1-.8c-1.8-.6-3.7-1-5.6-1.3-2.3-.4-4.4-.8-3.9-.9l1.3.3c2.4.5,4.2.8,6,1.1s3.5.5,5.8,1c1.8.5,3,.9,4.1,1.3l3.1,1.2c2.9.9,3.7,1,5.2,1.4,1.8.5,3.5,1.1,5.2,1.8.9.3-.4-.2.5,0,1.1.4,2.4.9,3.3,1.2.2,0-.9-.5-2.4-1.1s-3.4-1.2-4.9-1.7c.7.1,1.3.3,1.9.5.9.3.7.3.8.3l1.8.6c0,0-.3-.4,2,.5l1.4.7c1.4.6,2.9,1.1,4.4,1.5.4,0-.5-.4-3.5-1.6h-.5c-1.9-.8-3.8-1.6-5.7-2.3-.5-.2.2,0,1,.2.3,0,.7.2,1,.3,2.6.9,5.2,1.8,7.8,2.8-2.7-1.4-5.5-2.7-8.3-3.9.7.2,1.5.5,2.3.8,1.6.6,3.2,1.2,4.2,1.5l1.9.8c-2.3-1.2-4.8-2.5-7.8-3.8.4.3-.5-.1-1.2-.4s-1.3-.5-.2,0c.5.2.9.4,1.4.6,1.1.5,2.1,1.1,3.2,1.6-1.4-.6-3.6-1.6-5.8-2.5-1.7-.7-3.4-1.4-5.2-1.9-1.6-.7-2.6-1.1-3.5-1.5s-1.5-.7-2.5-1.1c-2.5-.9-5.3-1.8-8-2.6-2.4-.7-4.9-1.4-7.3-1.9-2.6-.6-4.1-.9-5.2-1.2s-1.6-.5-2.4-.7c-1.2-.2-2.8-.5-4.3-.7-1.1-.2-2.1-.3-3.2-.4h-.8c0-.1-1.3-.1-1-.3.4-.3.8-.6,1.2-.9,0-.1,0-.2,0-.2.3-.2.6-.4.9-.5.1-.3.3-.5.5-.7.4-.4.9-.7,1.5-1,.8-.3,1.6-.6,2.4-1,.8-.4,1.7-.8,2.6-1.2.3-.2.5-.4.8-.7.2,0,.4-.1.6-.2.4-.1.3-.2.3-.3,0,0,0,0,.1,0,.3,0,.5,0,.8,0-.1,0,0,.1.2,0,.2,0,.5-.2.8-.4h0c.7-.2,1.4-.4,2.1-.5-.4.2-.7.3-1.1.5-.2,0-.3,0-.5,0-.7.4.8,0,.6.2,1.1-.3,1.9-.6,2.7-.8-.2,0-.5,0-.7,0-.5,0-1.2-.1-2-.2h0c0,0-.1,0-.2,0,.9-.3,1.7-.5,2.6-.7,0,0-1.2.3-3,.8-.2,0-.4,0-.6,0,.6-.3,1.2-.6,1.9-.9l.3.2c1-.3,1.3-.5,1.2-.6-.6,0-1.1,0-1.6.2l-.4.4c-.8.2-.8,0-.8-.1h-.6c0,.2,0,.2-.3.3-.2,0-.5.1-.7,0,1-.4,2.7-.9,2.4-1.2-.4.1-.8.3-1.1.4-.3,0,0-.1-.2,0-.5.4-1.1.6-1.7.8,0,0,.1-.2.4-.4,0,0,0,0-.3,0-.7.1-1.4.4-2.1.7-.2,0-.4,0-.5,0,0,0,0,0,0,0h0c-.4.1-.7.2-1.1.2.4-.1.9-.3,1.3-.4l.6-.2h.3c0-.1.4-.2.4-.2.5-.2,1-.4,1.5-.6.3-.1.6-.2.8-.4l.5-.2c0,0-.2,0-.3,0,.9-.4,1.7-.9,2.4-1.4,0,0,0,0,0-.1h0c1-.3,2.1-.7,3.2-1.1.9-.4,1.7-1.1,2.3-1.9,0-.2,0-.4-.1-.6h0s0,0,0,0c0,0,0,0,0-.1,0,0,0-.1,0-.2,0,0,0-.1,0-.2,0,0,0,0-.2,0,0,0,0,0-.1,0-.2,0-.5.1-.7.2-.2,0-.8.2-1.7.5,0,0,0,0,0-.1,0-.2,0-.3,0-.5,0-.2-.3-.4-.5-.5,0,0-.1,0-.2,0,0,0,0,0,0,0h-.2s0,0,0,0h0c0,0,0,0-.1,0h0c0,.2,0,.3.1.4h0c0,.1,0,.2,0,.2h0s0,0,0,0c0,0,0,0,0,0,0,0,0,0,0,0h0,0c-.4,0-.8.2-1.1.4.7-.2,1.2-.4,1.2-.4,0,0,0,0,0,0h0c0,.1,0,.1,0,.2,0,0,0,.2,0,.2h0c0,0,0,.1,0,.1-1,.3-2.1.6-3.2.9,0,0,0,0,0,0,.7-.4,1.4-.8,1.9-1-1.1.4-2.8,1-4.6,1.7,0,0-.2,0-.2,0-.2,0-.4,0-.4.1h.4c0,0-.1,0-.1,0-.3,0-.6.2-.8.2,0,0,0,0,0,0h-.2c0,0,0,0,0,0,0,0,0,0,0,0h0c0-.2,0-.2,0-.2-.3.2-.6.3-.8.4.3-.1.2,0-.2.2-1,.3-2.1.6-3.1.8-.5,0-1,.1-1.5,0-.2,0-.4,0-.6,0-.2,0-.4,0-.5-.1h-.7c-.9,0-2.3.4-1.1.4h.2c-1,0-1.9,0-2.9.3-.6.1-1.3.2-1.9.3-.1,0-.3-.1-.5-.1,0,0-.3-.2-.6-.3-.2,0-.5,0-.7,0,0,0,.1,0,.2.1-.3,0-.5,0-.8,0-.4,0-.8-.1-1.3,0-.2,0-.1.1,0,.2s0,.2,0,.2c-.4,0-.7,0-1.1,0-.4-.2-.7-.3-.9-.5-.3-.1-.6-.2-.9-.3-.4-.2-.2-.2-.2-.3,0,0,0,0-.2-.1s-.6-.1-1.3-.3c.5.2.3.2.1.1h0c0-.1-.3-.3-.9-.5-1-.4-1.4-.7-1.7-.8s-.3,0-.3.1,0,.3-.1.3c0,0-.1,0-.2,0-.4-.3-.8-.6-1.2-.9,0,0-.2,0-.3,0-.8-.6-1.4-1.1-2-1.6-.2-.2-.3-.3-.5-.5-.4-.6-.8-1.3-1.3-2,0,0,0,0,0-.1-.2-.3-.3-.6-.5-.8-.5-.8-.9-1.7-1.2-2.5-.2-.3-.3-.5-.5-.7,0,0,0,0,0-.2,0-.3-.1-.7-.3-1-.2-.8-.3-.2-.6-.6,0,0,0,0,0,0,0-.8,0-1.5-.2-2.2,0,0,0,0,0,0s0,0,0,0c0,.3.2.9.3,1.3s.2.5.2,0l-.5-1.8c0-.2,0-.3-.1-.5,0-.5,0-1,0-1.4,0,.5.2.9.3,1.4,0,.2,0,.4,0,.6.2.5.2.2.1,0s0-.7,0-.5c0-.7-.1-1.3-.2-1.8v-.8c0,0-.1-.7-.1-.7,0,0,0,.1,0,.2v.2s0,.4,0,.4c-.2.6-.4,1.2-.5,1.8,0,0,0,.2,0,.3-.1-1-.2-2-.3-3,0,1.3,0,2.5.2,3.8,0,0,0,.2,0,.2-.2-.7-.4-1.4-.6-2.2l.2-.2c-.2-1.3-.3-1.8-.4-1.6-.2.7-.2,1.4,0,2l.3.6c.1,1.1,0,.9-.2.9,0,.3,0,.5,0,.8,0,0,0,0,.2.4,0,.3,0,.6,0,.9-.2-.7-.4-1.5-.5-2.2s-.3-1.2-.5-1.1c0,.5.2,1,.3,1.5,0,.4-.1-.2,0,.2.3.7.5,1.5.7,2.3-.1.2-.3,0-.5-.5,0,0,0,0-.1.3,0,.5.1,1.1.3,1.6.2.6.4,1.1.4,1.2,0,.2,0,.5.1.7.2.4.3.5.4.5.1.3.2.7.2,1,0,.4,0,.8.2,1.2.2.4.5.9.8,1.2,0,0,.2.2.3.3.3.6.7,1.2,1.2,1.8.5.7,1,1.3,1.6,1.9,0,0,0,0,0,0,0,0,0,0,.1.2.5.7,1.1,1.3,1.9,1.6,1,1,2.2,1.8,3.4,2.3,1.3.6,2.6,1,3.8,1.5.3,0,.5,0,.8,0,.3,0,.7,0,1,0,.5.2,1.1.4,1.7.5.6.1,1.3.2,1.7.3.4,0,.4,0,.8-.1.9.3,1.9.5,2.9.5,1.2,0,2.4,0,3.5,0,.7-.2,1.5-.4,2.2-.6.7,0,1.4,0,2,0-.4.3-.8.6-.4.6-.5.2-1.2.6-1.2.4-1.2.5-2.4,1.2-3.5,2-1,.7-1.9,1.5-3.2,2.3-.4.4-.7.8-.9,1.3,0,0,0,0,0,0-.3.3-.6.7-.9,1,0,.2,0,.5,0,.7,0,.2,0,.5-.1.7-.2.3-.3.4-.4.2,0-.1.1-.3.2-.4,0,0-.5.6-.2,0-.1.2-.2.5-.2.8,0,.2,0,.3.3,0-.1.2-.3.5-.4.7,0,0-.1,0-.2,0,0,0-.1-.3-.4,0-.3.9-.5,1.8-.5,2.7,0,.6,0,1.2.2,1.8,0,0,0,0-.1,0,0,.2,0,.3,0,.5.1.7.3,1.3.6,1.9.2.3.7.9,1.1,1.4h0c.5.8,1.1,1.4,1.8,2,.6.3-.2-.5-.7-1.2-.2-.3-.4-.6-.5-.9,0-.2,0-.1.5.3.3.6.6,1.1,1,1.7.2.3.5.6.8.9,0,0,.2.2.3.2s.2.2.3.2c.2.2.5.3.8.5,0,0,0,.1.1.2,0,0-.2,0-.3,0-.9-.7-1.8-1.4-2.9-1.8-.7-.3-1.3-.5-2-.8h-.1c0-.1-.2-.1-.3-.2-.3,0-.5-.2-.7-.3-.2,0-.4,0-.6,0-.3,0-.6,0-.9,0-.4-.2-.9-.4-1.4-.5-.5-.1-1.1-.2-1.4-.3-.4,0-.4,0-.7.1-.8-.3-1.7-.5-2.5-.5-1,0-2,0-3,.2-.6.2-1.2.5-1.8.7l-1.9.2c-1.3.6-2.5,1.4-3.6,2.3-.9.8-1.8,1.6-2.5,2.6,0,0,0,.2-.1.2-1.6,1.1-3.1,2.3-4.6,3.6-.3,0-.6,0-.9,0-.2,0-.3.1-.5.2-.4.4-.8.8-1.1,1.3l-.3.3v.2c-.1,0-.1,0-.1,0h0s0,0,0,0h0s0,0,0,0c0,0,0,0,0,.1-.2.3-.3.8-.2,1.2,0,.4.2.7.4,1,.2.3.4.6.7.8.1.1.3.2.4.3.2,0,.3.1.5.1,0,0,.2,0,.3,0h.2c.1-.2.3-.2.4-.3-.2.2-.3.3-.3.4s.1,0,.3.1c0,0,.2,0,.3,0h.1s0,0,0,0h0c.2,0,.4,0,.6-.1.2-.3.4-.5.6-.7s.3-.4.5-.6c.3-.4.6-.8.9-1.2.7-.8,1.4-1.6,2-2.5.3-.2.6-.4.9-.6.3-.1.5-.2.8-.4.3-.3.7-.6,1-.9.2-.3.5-.4.9-.4.4-.4.9-.7,1.4-1-.3,0-.2,0,0-.2l.6-.2c.2,0,.5-.1.7-.2.5-.2.9-.3,1.4-.5.7-.3,1.4-.4,2.2-.4h.5c.2,0,.3-.2.5-.2.6,0,1.2,0,1.7,0,2.9.2,5.7.6,8.5,1.3.3,0,.7,0,1.5,0,1.7.2,2.9.4,4.1.6l.3.2h0c-.8,0-2-.2-3-.3-.5,0-1-.1-1.5-.2,1.6.3,3.2.6,4.8.8h0c.6.7,1.3,1.3,1.9,1.9.7.7,1.5,1.4,2.1,2.1.3.2.5.3.8.5.1.2.3.5.5.7.3.4.3.2.5.2,0,0,0,0,0,0,0,.2.2.5.3.7,0-.1,0-.2.2,0,.2.3.6.7.9,1,.1.2.3.3.4.5,0,0,0-.2-.2-.5-.1-.3-.2-.4,0-.1,0,.1.2.3.3.5.2.2.6.9,1,1.4,0,0,.1.2.2.3-.1-.3-.3-.5-.4-.7-.2-.2-.3-.4-.5-.7,0,0,0,0,0-.1h0c.1.2.3.4.5.8.2.2.3.4.5.7,0,0,0,.1,0,.2,0,0,.1.1.2.2-.2-.4-.5-.9-.8-1.4-.3-.4-.6-.8-.8-1,0,0,0,0,0,0,0,0,0,0,0,0,0,0,.2,0,.3.2.2.3.4.6.5.8.4.5.8,1.1,1.1,1.4l-.2-.4c-.4-.6-.7-1.3-.8-2l-.6-.4h0c0,.1,0,.2,0,.1l-.4-.6h0c0-.3-.3-.3-.3-.5.1.1.3.3.4.4,0,0,0-.2-.1-.3.3.4.9.7,1.3,1.1h0c-.2-.3.2,0,0-.3-.5-.4-1-1-1.4-1.5,0,0,.3,0,.5.3,0,0,0,0,0-.3-.1-.5-.3-.9-.5-1.3-.3-.4-.7-.7-.7-.8,0-.2-.2-.3-.3-.5,0,0,0,0-.1-.1-.3-.3-.5-.6-.6-.9-.1-.3-.2-.6-.4-.9-.2-.2-.4-.4-.7-.5h0c1.5,1,3,1.9,4.6,2.6.2.2.3.2.1.2,0,0,.2,0,.2,0,.2,0,.4.1.7.2.2,0,.4,0,.6,0,.2,0,.3,0,.4-.1.2-.1.4-.3.5-.5.3-.3.5-.7.7-1.1,0-.1,0-.2,0-.3,2,.3,4.5.7,7.1,1.1,3.6.5,7.2,1.2,10.7,2.1,2.7.5,6.1,1.3,9.4,2.1s6.4,1.6,8.7,2.2c3.8,1.2,4.4,1.4,7.2,2.4,4.3,1.4,3.3.8,4.5,1.1l-1.7-.7c2.4.7,3.3.8,6.6,1.9l2.5,1.2c2.1.6,10.2,3.5,12.8,4.6l-.6-.6,1.4.7M164.7,69.9h-.5c-.5-.3-1.1-.5-1.6-.6.7.2,1.4.4,2.1.6M156.2,67.4c.9.3,2.6.9,4.5,1.5,2.2.7,4.6,1.5,5.7,2l1.9.6c.8.4-3.1-1-.2,0-2.4-.7-5.3-1.7-8-2.6s-5.4-1.7-7.1-2.3c-.3-.2-.6-.4-1-.5,1.4.4,2.9.7,4.3,1.1M136.6,48.3c-1,.4.3-.1.1.2l-.7.2c0,0-.1,0-.2,0-.2,0-.4,0-.6-.1.4-.2.9-.3,1.3-.3M132,49c0,.1.3.2.4.2-.2,0-.3,0-.5,0l.2-.2ZM134.8,43.6h.6s.7-.3.7-.3h0,0l.6-.2h.4c0,0-.2,0-.4,0l-1.5.3c.8-.2,1.5-.4,2.3-.6h-.2c0,0-.2.2-.2.2,0,0,.1,0,.2,0-.2.1-.4.2-.7.4,0,0,0,0,0,0-.1,0-.3,0-.4,0h0c.1,0,.2,0,.4,0h0c-.5.3-1,.5-1.5.8h0c0,0,0-.2,0-.2h0c0-.1,0-.2,0-.2h0c0,0,0,0,0,0,0,0,0,0,0,0,0,0,.1,0,.2,0M99.3,30.5c0,.2,0,.4-.1.6,0-.4-.1-.8-.2-1.2.3,1.3,0-.5.2-.1,0,.2,0,.4.1.6,0,0,0,0,0,0M99.7,35.6h0c0-.2,0-.3,0-.3,0,.1,0,.2,0,.3M113.2,44.9c-.4,0-.8,0-1.2,0-.2,0-.5,0-.7,0-.5-.2-1-.5-1.7-.8l-.4-.2c-.1-.1,0-.1.2,0,.2,0,.6.2.6.2.6.3,1.2.5,1.9.5,0,0,0,0,0,0,.4.2.9.4,1.4.5h0M130.3,77.7c0,.1,0,.3,0,.4,0-.2,0-.3-.2-.4,0,0,.1,0,.2,0M128.3,75.3c-.3-.3-.5-.5-.8-.8,0-.1-.1-.2,0-.2,0,0,0,0,0,0,.5.3,1,.7,1.4,1.1-.3-.2-.5-.3-.4,0M128.9,75.4h0s0,0,0,0h0Z"/>
      <path id="Path_1058" data-name="Path 1058" class="cls-3" d="M17.3,90c2.1-1,4.3-1.8,6.6-2.5,1.9-.5,2.9-.7,6.6-2l4-1.6c1.3-.5,2.9-1.1,5.2-1.8,2.9-.7,5.1-1,7.4-1.4s4.6-.8,7.6-1.6l1.7-.4c.6.2-2,.7-4.9,1.3-2.4.4-4.8,1-7.1,1.8-1.3.3-3.3.7-5.2,1.2s-3.6.9-4.3,1.2l-2.6,1.1c3.9-1.2,4.3-.9,6.8-1.5,2-.6,6.2-1.9,4.1-1.5,1.7-.4,4.7-1.2,4.2-.9,5.3-1.2,9.6-2.2,13.8-3,4.3-.9,8.7-1.5,13.1-2,4.9-.7,6.4-1.1,6.5-1.3-.3-.2-3.8.4-2.2,0,1.8,0,4.7-.4,7.1-.6s4.2-.3,3.7,0h-1.5c.2.2,2.4.1.3.3,1.9-.1,3.9-.5,2.1-.5,4.7-.2,1.8.1,2.9.3-.4.5-.8.9-1.2,1.4,0,0,0,0-.1.1h0s0,0,0,0c-.6.6-.2.4.6-.3h0c-.4.5-.5.7-.4.6.4-.3.8-.6,1.1-1.1h0c.2-.2.3-.2.5-.3,0,0,.2-.2.2-.3,0,0,0,0,0,0h0c0,0,0,0-.1,0,0,0,0,0,0,0,0,0,0,0,.1,0h0s0,0,0,0c0,0,0,0,0,0h0s0,0,0,0h0c0,0,0,0,0,0,0,0,0,.1,0,.2,0,0,.1-.2.2-.3.2-.2,0,.2.2,0,0,0,0,0,0-.1,0,0,0-.1,0-.2,0,0,0-.1,0-.2h0s0,0,0,0h0s0,0,0,0c0,0,0,0,0,0v-.2c0,0,.1-.1.1-.1,0,0,.2-.2.3-.3-.1.2-.2.4-.4.6,0,0,0,.2,0,.2,0,0,0,.1,0,.2.2-.4.5-.9.7-1.3,0,.1,0,.2-.1.3,0,0,0,0,.2-.1.3-.3.5-.6.7-1,.2-.4.4-.8.4-.8.1-.1.2-.3.3-.4,0,0,0-.1,0-.2,0,0,0,.1,0,.2.1-.4.3-.7.5-1,.2-.2.3-.5.4-.7,0-.1,0-.3,0-.4,1.8-3.6,2-7.7-3.6-10.1-.7-.4-1.4-.7-2-1-.2,0-.4,0-.6,0-.3,0-.6,0-.8-.1-.4-.2-.8-.4-1.3-.5-.5-.1-1-.2-1.3-.3-.3,0-.3,0-.7,0-.3-.1-.6-.2-.9-.3l4.8-.9.2-.3h-.5c.2,0,.4,0,.7-.1.2-.2.7-.4,1.2-.7s.8-.6.7-.7c-.5.4-1.1.7-1.7.9-.6.2-1.2.3-1.8.6-.2.1-.2.2,0,.2h-.1c-1.5.3-3.2.5-5,.7-.8-.1-1.7-.2-2.5-.2,0,0,0,0,0,0,.2,0,.3-.1.4-.2.4,0,.8,0,1.1,0,0,0,.1,0,.2-.1.7,0,1.3.2,2.1.3.6,0-.2-.2-1-.4.4,0,.7-.3.5-.4.2,0,.4,0,.6,0,0,0,0,0,0,0,0,0,0,.2.3.3,1.2-.3,2.4-.6,3.6-1,.2,0,.4,0,.6-.1.9-.2,1.8-.6,2.7-1.1.5-.4,1-.8,1.4-1.3.6-.3,1.2-.6,1.7-.9,1-1.1,1.7-2.5,2.1-3.9.3-1.2.4-2.5.3-3.7,0,0,0,0,0-.1,0-.2,0-.4,0-.5.2-1.8.2-3.7,0-5.5.2-.2.3-.5.5-.7,0-.2,0-.4,0-.5,0-.4-.2-.7-.3-1.1,0-.2-.1-.4-.2-.5v-.3c-.1,0-.2-.2-.2-.3,0-.2-.2-.4-.3-.6-.1-.2-.3-.4-.5-.6-.1-.1-.3-.2-.5-.2-.2,0-.3,0-.5,0-.1,0-.2.1-.3.2.1,0,.2.2.3.3h0s-.4,0-.4,0c0,0,0,0,0,0,0,0,0,0,0-.1,0,0,0,0,.1-.1h0c0,0-.2-.1-.3-.2-.1,0-.3-.1-.4-.2,0,0-.2,0-.3,0,0,0-.2,0-.2.2,0,.1-.1.3,0,.4,0,0,0,.1,0,.2,0,0,0,.1,0,.2,0,.2,0,.3.2.4,0,0,0,0,0-.1,0,.1,0,.3.1.4h0s0,0,0,0h0s0,0,0,0c0,0,0,0,0,0,0,0,0,0,0,0h0,0s0,0,0,0h0c-.1-.1-.2-.2-.2-.2,0,0,0,.1-.1.2,0,.3,0,.7,0,1,.1.2.2.5.3.7h0c0,.2,0,.2,0,.2,0,0,0,.2,0,.2v.3c0,.1,0,.2,0,.4,0,.2.1.5.2.7.1.3.2.7.3,1.1,0,.7.1,1.5.2,2.5-.1.6-.4,1.3-.6,1.9,0,.1,0,.3,0,.4s0,.3,0,.4c0,.2,0,.4,0,.6,0,.4,0,.7-.4.8,0,.5-.2,1.1-.4,1.6.1-.2.2,0,0,.2,0,0,0,0,0,0-.3.2-.6.5-.9.8-.3.3-.6.6-.9.9-.5.6-1.3,1.1-2.2,1.2-.3.3-.7.5-1.2.7-.5.2-1,.4-1.5.6,0,0-.3-.1-.6-.1,0,0-.2-.1-.6-.1-.2,0-.4,0-.6.1,0,0,.1,0,.2,0-.2,0-.4,0-.6.1-.3,0-.7.1-1,.3-.1,0,0,.2,0,.2.1.1.3.3-.8.5-.4,0-.6-.1-.8-.1-.3,0-.7,0-1,.1-.5.4-1.1.7-1.7.9-.2,0-.4,0-.5,0-.5,0-1,0-1.5,0,0,0,0,0,0,0-.4,0-.8,0-1.1,0-.2.1-.5.3-.8.3-.6.1-1.2.1-1.8,0-.8-.2-1.7-.3-2.5-.3-.9,0-1.9-.1-2.8-.2-.4,0-.7.2-1,.2-.2,0-.4,0-.6,0-.4,0-.4,0-.4.1,0,0,0,0-.1,0-.2-.1-.4-.2-.7-.3.1,0,0,0-.2-.2-.2,0-.5,0-.8,0h-.1c-.7-.1-1.4-.3-2.1-.5.4,0,.8,0,1.2,0,.2,0,.3,0,.5.1.8,0-.8-.3-.4-.4-.5-.1-1-.2-1.5-.3s-.9-.1-1.3-.2c.2,0,.4.2.6.3.4.3,1,.7,1.7,1.1h0c0,0,0,.1.2.2-.9-.2-1.8-.4-2.7-.6-1.4-.3,1.1.3,2.9.7.2,0,.3.2.5.3h0c-.7,0-1.4,0-2.1,0l-.2-.3c-1.1-.2-1.4-.1-1.3,0,.5.3,1,.5,1.6.5h.5c.8,0,.7.2.7.4l.6.2c0,0,0-.1.3,0,.2,0,.5.1.7.2-1,0-2.8-.4-2.7,0,.4,0,.8.1,1.2.1.3,0-.2,0,.2.2.6,0,1.2,0,1.8.1-.1,0-.3.1-.5.1,0,0,0,.1.2.2.7.2,1.4.3,2.2.4.2,0,.3.1.5.2,0,0,0,0,.1,0h-.2c1.1.2,1.2.6,1.9.8.6,0,1.8,0,1.2-.3.5,0,1.3,0,1.2.3.6,0,1.1.1,1.6.1-.1,0-.3,0-.4,0-1.1.2-2.3.4-3.3.8,0,0-.1,0-.2,0-1,0-1.7.2-1.7.2,0,0-1.5.6-.4.8.1,0,1.1,0,2.5.2h0c0,.1,0,.1,0,.2-3.1.7-5.9,1.4-8.7,2.3-2.9.9-5.7,1.9-8.8,3-.7.5-.8.8-.3.8.9,0,1.9-.1,2.8-.3-5.6,1.8-11,3.9-16.4,6.3.7-.5,1.5-1.1,2-1.5.5-.4.7-.7.4-.7-1,.2-2,.5-2.9.9.2,0,.5-.2,1-.4-.8.6-1.7,1.1-2.7,1.5-.9.4-2.2,1-3.3,1.5s-1.9.9-1.6.7l.4-.2c-1.5.5-3,1.1-4.3,1.9-.5.3,1.3-.4-.7.8l-2,1.1-2.9,2.9,5.1-3.1c.5-.2.9-.4,1.3-.5-1.1.6-2.2,1.1-3.2,1.7,1.7-.7,3.4-1.4,5.1-2.1-3,1.5-6.3,3.2-8.6,4.3l-.5.4c2.1-.9,8.3-3.3,9.9-3.9l1.9-1c2.6-.9,3.3-1.1,5.1-1.6l-1.3.6c1.2-.1,2.4-.4,3.5-.9,2.2-.9,2.6-1,5.6-2,1.8-.4,4.2-1.2,6.7-1.9s5.1-1.4,7.2-1.8c2.7-.8,5.5-1.4,8.3-1.9,3.1-.5,6-1,7.6-1.5,3.4-.4,5.4-.7,6.9-1s2.6-.5,4.4-.8c2.7,0,.9.1-1.1.4s-4.4.6-3,.6c3.4-.3,7-.6,10.5-.8,0,0,.1.1.2.2,0,0,.2.4,0,.2.2.3.5.7.6,1,.2.3.3.7.4,1,0,.2,0,.3.1.5-1.3,0-2.7.1-4,.3-.5,0-.4.2-.3.2.3.2.7.3-3.5.6-1.5,0-2.3,0-3.2,0-1.4,0-2.7.2-4.1.4-1.2.3-2.3.6-3.7,1s-3.3.8-6,1.3c-1.4,0-2.8.3-4.1.6-1.9.3-4,.8-5.5,1-.9.3-1.6.6-3,1s-3.3.9-6.6,1.8c-3.2.7-6.3,1.6-9.4,2.6-3.4,1.1-7,2.4-10.2,3.6-1.2.5-2,1-3.1,1.5s-2.4,1.1-4.4,2c-2.2.7-4.4,1.6-6.6,2.6-2.8,1.2-5.6,2.6-7.4,3.4,1.3-.7,2.7-1.5,4-2.2.6-.3,1.2-.5,1.7-.8,1.4-.8.7-.5-.2,0s-2.1.9-1.5.6c-3.8,1.8-7,3.5-9.9,5.1l2.4-1.1c1.3-.5,3.3-1.3,5.4-2.1.9-.4,1.9-.7,2.8-1.1-3.5,1.6-7,3.4-10.5,5.2,3.2-1.3,6.4-2.6,9.7-3.8.4-.1,1-.3,1.5-.5,1-.3,1.9-.6,1.3-.3-2.4,1-4.8,2-7.2,3.1h-.7c-3.8,1.6-4.9,2.2-4.4,2.1,1.9-.6,3.8-1.3,5.6-2.1l1.7-.9c3-1.1,2.5-.7,2.6-.7l2.3-.8c.2,0,0,0,1.1-.5.8-.3,1.6-.5,2.5-.8-1.8.7-4.3,1.6-6.2,2.4s-3.3,1.4-3,1.5c1.1-.4,2.7-1.1,4.2-1.7,1.1-.4-.5.3.6-.1M96.8,33h0s0,0,0,0h0M85,54.9c.2,0,.2,0,.2.2h-.4c0,.2.6.2.3.2-.2,0-.3,0-.5,0,0,0-.2,0-.3,0,.2-.2.5-.3.7-.4M65.3,53.6c1,0-.4,0,0-.2h.7c0,.1.1.1.2.1.2.1.3.2.5.4-.4,0-.9-.2-1.3-.3M69.7,55.2c0-.1-.2-.3-.2-.4.1.1.3.2.5.3h-.3ZM71.7,58.5h0c0,0,0-.1,0-.1h0,0s0,0,0,0h-.1M92.9,75.3h-.1c.2-.2.4-.4.7-.7,0,0,0,0,0,.1,0,0,0,0,0,0h0c0,0,0,0,0,0h0c0,0,0,0,0,0-.1.1-.3.2-.4.4M93.2,75.1h0s0,0,0,0ZM93.3,75.1s0-.1,0-.2h0s-.2.2-.2.2ZM93.5,74.7s0,0,0,0c0,0,0,0,0-.1h0s0,0,0,0h0ZM94.4,74.1s0,0,0,0v-.2c0,0,0,0,0,0M25.1,85.7c-.6.2-1.5.6-2.2.8-.2,0-.5.1-.7.2,1-.3,1.9-.7,2.9-1M17.9,89c3.6-1.4-1.3.5-.3,0l2.4-.9c1.4-.6,4.4-1.7,7.2-2.7,2.5-.9,4.8-1.7,5.8-2.2,1.8-.5,3.7-1.1,5.5-1.6-.5.2-1,.4-1.4.7-2.3.8-5.6,1.9-9.1,3.2s-7.2,2.6-10.2,3.5"/>
      <path id="Path_1059" data-name="Path 1059" class="cls-3" d="M95.2,74.2v-.2c-.2.3-.4.6-.6.8.3-.4.4-.3.6-.7"/>
      <path id="Path_1060" data-name="Path 1060" class="cls-3" d="M65.8,55.1l-1.1-.2c.5,0,.5.3.9.3h.2Z"/>
      <path id="Path_1061" data-name="Path 1061" class="cls-3" d="M95.6,33.6s0,0,0,0c0,0,0,.1.1.2,0,0,0-.2,0-.2"/>
      <path id="Path_1062" data-name="Path 1062" class="cls-3" d="M124.5,50.9c.6-.1,1.1-.3,1.1-.4-.8.1-1.5.2-2.3.2-.7,0-1.5,0-2.4,0-.9.1.7.5,2,.6.3,0,1-.2,1.6-.3"/>
      <path id="Path_1063" data-name="Path 1063" class="cls-3" d="M134.2,85.3c0,.1.1.2.2.3,0,0,0,0,0,.1h0c0-.1-.2-.3-.3-.5h0Z"/>
      <path id="Path_1064" data-name="Path 1064" class="cls-3" d="M134.4,85.8s0,0,0,0c0,0-.1-.2-.2-.3h0c-.1-.2-.2-.4-.4-.6,0,0,0,0,0,0,.8,1.4,1.6,2.9,1.3,2.4-.2-.3-.4-.7-.6-1.1,0,0,0-.1,0-.2h0Z"/>
      <path id="Path_1065" data-name="Path 1065" class="cls-3" d="M133.6,84.5"/>
      <path id="Path_1066" data-name="Path 1066" class="cls-3" d="M133.7,84.6s0,0,0,0h0c0-.1,0-.2-.1-.2,0,.1.2.3.3.4,0,0,0-.2-.1-.3,0,0,0,0,.1.2"/>
      <path id="Path_1067" data-name="Path 1067" class="cls-3" d="M134.2,85.2v-.2c-.2,0-.2-.2-.3-.3,0,.2.2.3.3.5h0Z"/>
      <path id="Path_1068" data-name="Path 1068" class="cls-3" d="M133.7,84.6c0,0,0,.1,0,.2,0,0,0,0,0,0,0,0,0-.2-.1-.2"/>
      <path id="Path_1069" data-name="Path 1069" class="cls-3" d="M140.9,41.8h0c0-.2,0-.3,0,0"/>
      <path id="Path_1070" data-name="Path 1070" class="cls-3" d="M130.8,81.4c0,0,0,.1.1.2,0,0,0-.1-.1-.2"/>
      <path id="Path_1071" data-name="Path 1071" class="cls-3" d="M132.3,83s0,0,0,0c.4.5.8,1,1.3,1.4h0c-.3-.5-.8-1-1.1-1.4"/>
      <path id="Path_1072" data-name="Path 1072" class="cls-3" d="M120.6,54.9c-.1,0-.3,0-.4.1-.2.2-.3.4-.5.6.3-.3.5-.3.9-.7"/>
      <path id="Path_1073" data-name="Path 1073" class="cls-3" d="M134.6,85.9h.1c0,.2,0,.3.1.4l-.2-.4h-.2s0,0,0,0c.4.7.7,1.3.7,1.2-.2-.7-.5-1.4-.9-2.1v.2c0,0,.3.7.3.7Z"/>
      <path id="Path_1074" data-name="Path 1074" class="cls-3" d="M110.8,66.7c.4,0,.2-.2-.2-.3-.5-.1-1.1-.2-1.6-.2-.3,0-.9.2-1.4.4s-.9.3-.9.5c.6-.2,1.3-.3,2-.3.7,0,1.3,0,2.1,0"/>
      <path id="Path_1075" data-name="Path 1075" class="cls-3" d="M166.7,72.3c.8.3,1.7.6,2.5.8-1-.3-1.9-.7-2.9-1l.4.2Z"/>
      <path id="Path_1076" data-name="Path 1076" class="cls-3" d="M134.3,85.1h0c0,0,0-.1-.1-.2h0c0,.1,0,.1,0,.2"/>
      <path id="Path_1077" data-name="Path 1077" class="cls-3" d="M132.6,82.1c-.1-.2-.4-.6,0,0-.1-.2-.3-.4-.6-.6,0,.1.1.2.2.4.2.3.2.2.3.2"/>
      <path id="Path_1078" data-name="Path 1078" class="cls-3" d="M132.7,81.3c.2.3.5.6.7,1-.3-.5-.1-.6-.5-.9h-.2Z"/>
      <path id="Path_1079" data-name="Path 1079" class="cls-3" d="M135.5,42.7c.5-.3.9-.6,1.4-.9.4-.1.8-.2,1.1-.3.4-.1.9-.2,1.3-.4.2-.1.3-.2.5-.3.2,0,.4-.2.6-.2h0s-.1-.2-.1-.2l-.2-.3-.2-.4h0c0-.1,0-.1,0-.1h-.3c-.4.3-.8.4-1.2.7-1.2.3-1.4.4-2.4.5-1.4.5-.9.6-1.3.9h.6c-.4.1-.6.3-.8.4,0,0-.1,0-.2.1l-.4.2h0s0,0,0,0h0s0,0,0,0h0c0,0,0,.1-.1.2,0,0,0,0,0,0,0,0-.1.2-.1.3,0,.1,0,.3,0,.5,0,0,0,0,0,0,.3-.2.7-.4,1-.6.4,0,.8,0,1.1-.3"/>
      <path id="Path_1080" data-name="Path 1080" class="cls-3" d="M97.7,30.6v.2c0-.5,0-.9-.1-1.4.1.7-.1.7.1,1.2"/>
      <path id="Path_1081" data-name="Path 1081" class="cls-3" d="M22.1,79.8l1.1-.5.3-.3-1.4.8Z"/>
      <path id="Path_1082" data-name="Path 1082" class="cls-3" d="M116.2,45.2c0,0,.1.2.9.1l.4-.2c-.6,0-1.2,0-1.8-.2.5,0,.5.2.5.2"/>
      <path id="Path_1083" data-name="Path 1083" class="cls-3" d="M94,74.7h0s0,0,0,0h0"/>
      <path id="Path_1084" data-name="Path 1084" class="cls-3" d="M139.9,39.5"/>
      <path id="Path_1085" data-name="Path 1085" class="cls-3" d="M134,83.3c-.1-.2-.3-.4-.4-.6.2.4.3.7.4.6"/>
      <path id="Path_1086" data-name="Path 1086" class="cls-3" d="M93.6,75.5c.2-.2.3-.4.5-.6,0,0,0,0-.2,0-.3.4-.4.7-.3.7"/>
      <path id="Path_1087" data-name="Path 1087" class="cls-3" d="M94.5,74.3s0,0,0-.1h0c0,.2,0,.2,0,.1"/>
      <path id="Path_1088" data-name="Path 1088" class="cls-3" d="M133.4,78.2c0,0,.2.1.2.1,0,0,.1,0,.2,0,0,0-.2,0-.3,0h0"/>
      <path id="Path_1089" data-name="Path 1089" class="cls-3" d="M133.4,82.5c0,0-.1-.1-.2-.2.1.1.3.3.4.4,0,0-.1-.2-.2-.2"/>
      <path id="Path_1090" data-name="Path 1090" class="cls-3" d="M131.5,77.1h0c-.2-.2-.2-.1,0,0"/>
      <path id="Path_1091" data-name="Path 1091" class="cls-3" d="M132,77.6c.2,0,.4.1.7.2.2,0,.4.2.7.3-.4-.3-1.4-.8-1.9-1.1l.5.6Z"/>
      <path id="Path_1092" data-name="Path 1092" class="cls-3" d="M132.5,78.4c1.2.6,1,.2,1.4.3l-.4-.4c0,0,0,0,0,0-.5,0-1.5-.3-1,0"/>
      <path id="Path_1093" data-name="Path 1093" class="cls-3" d="M137.8,113.3c-.4-.2-.8-.2-1.3-.2-2.9,0-5,2.3-5.1,5.4,0,.1,0,.2-.1.4-.4.4-.9.9-1.3,1.2-.2.2-.5.4-.8.2s-.2-.6-.2-.9c.2-.9.4-1.9.6-2.8.2-.8.3-1.6.5-2.4.1-.5-.2-1-.7-1.1,0,0,0,0-.1,0-.6,0-1.2,0-1.7.3.3.5.4,1.2.3,1.8-.1.7-.3,1.3-.4,2,0,0,0,.2,0,.2-.7,1-1.6,1.9-2.6,2.6-.2.1-.4.2-.7.3-.3,0-.5,0-.6-.4,0-.3,0-.6,0-.9.2-1.3.4-2.5.7-3.8,0-.2.1-.3.3-.3.4,0,.9,0,1.3-.1.5-.1.8-.6.7-1.2h-2.1l1-2.8c-.3,0-.6,0-1,0-.7,0-1.3.5-1.5,1.2-.1.3-.2.7-.3,1,0,.4-.2.6-.6.5-.4,0-.6.1-.7.5,0,.1,0,.2-.1.4,0,.4,0,.4.3.5.2,0,.4,0,.6,0,0,.5-.2.9-.3,1.4,0,.6-.3,1.3-.7,1.7-.6.8-1.3,1.4-2.1,2-.2,0-.5.2-.6,0-.2-.2-.2-.4-.2-.6.2-2.1.6-4.2,1.4-6.1-.6-.6-1.6-.6-2.2,0-.8-.5-1.8-.6-2.7-.2-2,.9-3.3,2.8-3.6,4.9,0,.5-.3.9-.6,1.3-.2.2-.3.3-.5.5-.2.1-.3.2-.5.3-.4.2-.6,0-.6-.4,0-.3,0-.6,0-.8.4-2.3.9-4.5,1.3-6.8.2-1,.3-2.1.4-3.1,0-.7-.4-1.1-1-1-.6,0-1.1.3-1.7.4.3.5.5,1.1.4,1.7,0,.6-.1,1.3-.2,1.9,0,.4-.1.8-.2,1.2-1-.5-2.2-.4-3.1.2-1.7,1-2.9,2.7-3.2,4.7,0,.4-.2.8-.5,1.1-.3.3-.7.6-1.1.9-.4.2-.7,0-.7-.5,0,0,0-.2,0-.3.2-1,.4-2,.5-2.9.1-.8.2-1.6.2-2.5,0-.5-.3-1-.8-1.1-.1,0-.3,0-.4,0-.4.1-.8.3-1.1.5-.9.7-1.7,1.6-2.4,2.5-.2.3-.4.6-.7,1,0-.2,0-.2,0-.3.1-.9.3-1.9.4-2.8,0-.8-.3-1.1-.9-1-.5.2-1.1.3-1.6.6.1.3.2.5.3.7.2,1,.1,2-.1,3,0,0,0,0,0,0-.5.7-1.1,1.4-1.6,2-.3.3-.6.6-1,.8-.3.2-.6,0-.6-.4,0-.2,0-.4,0-.5.3-1.3.5-2.5.8-3.8,0-.5.2-.9.3-1.4,0-.6-.2-1-.7-1.1-.5,0-1.1,0-1.6.3,0,.4,0,.8,0,1.1-.1,2-1,4-2.5,5.4-.2.2-.5.4-.8.5-.3.1-.6,0-.6-.4,0-.1,0-.3,0-.4.1-.8.3-1.6.5-2.5.2-1,.3-2,.5-3,0-.6-.2-1-.8-1-.5,0-1.1.1-1.6.4,0,.4.1.8.1,1.2,0,.7-.2,1.4-.3,2.1-.2,1.1-.4,2.2-.5,3.3,0,1.4.7,2.3,2,2,.8-.2,1.4-.7,2-1.2.4-.3.7-.7,1.1-1,0,.4,0,.8.2,1.1.2,1,.8,1.4,1.6,1.1.7-.2,1.4-.6,1.9-1.2.4-.4.8-.8,1.2-1.2-.2.8-.4,1.5-.6,2.2h.8c.9.2,1.1,0,1.4-.8.4-1.4,1-2.7,1.8-3.9.4-.7.9-1.2,1.6-1.7.1,0,.3,0,.5,0,.1.2.2.3.2.5,0,.4-.1.8-.2,1.2-.2,1.1-.4,2.1-.5,3.2-.1.8.4,1.5,1.1,1.7.2,0,.4,0,.6,0,.6-.1,1.2-.4,1.7-.9.3-.2.6-.5.9-.8.5,1.5,1.3,2,2.6,1.5.6-.2,1.1-.6,1.5-1,.4-.4.8-.8,1.1-1.2,0,.3,0,.5,0,.7.2,1.4,1,1.9,2.1,1.5.3,0,.6-.2.8-.4.4-.3.8-.7,1.3-1v.3c.3.9,1.2,1.5,2.1,1.3,0,0,0,0,0,0,.5-.1,1-.3,1.4-.6.5-.5,1.1-1,1.5-1.5,0,.3.1.7.2,1,.1.7.7,1.2,1.4,1.1.5,0,.9-.2,1.3-.4.7-.4,1.4-1,1.8-1.7.1-.2.2-.3.4-.5,0,.3,0,.6,0,.9.1,1.3.9,1.9,2,1.8.2,0,.3,0,.5-.1,1-.4,1.9-1,2.6-1.9.1-.1.2-.2.4-.4v.6c0,1.2.7,1.9,1.7,1.8.3,0,.6-.1.9-.2.8-.4,1.6-1,2.2-1.7.6,1.2,1.1,1.7,2.1,1.9.7.1,1.4,0,2-.1,2.5-.8,4-3.7,3.6-6.5,0-.9-.6-1.7-1.5-2M107.7,115.2c-.3,1.8-1.2,3.5-2.4,4.9-.1.1-.2.2-.4.3-.2.2-.6.3-.9.1-.3-.2-.3-.6-.4-1,0-1.7.5-3.5,1.7-4.8.4-.4.9-.7,1.5-.7.5,0,.8.3.9.8,0,.1,0,.2,0,.3M117,115c-.4,1.8-1.1,3.5-2.2,5-.2.2-.4.4-.6.5-.5.3-.9,0-1-.6,0,0,0-.2,0-.3,0-1.8.6-3.6,1.8-4.9.3-.4.9-.7,1.4-.6.4,0,.7.4.6.7,0,0,0,.1,0,.2M136,120.3c-.2.4-.7.7-1.1.7-.5,0-.9-.3-1-.8-.2-.8-.2-1.6,0-2.3.1-1.1.5-2.2,1.2-3.1.2-.2.4-.4.6-.5.5-.3,1.1,0,1.4.4,0,0,0,.2,0,.3,0,.3.1.6.2.9,0,1.5-.4,3.1-1.2,4.4"/>
      <path id="Path_1094" data-name="Path 1094" class="cls-3" d="M74,113.7c-1.1.2-2.2.3-3.3.2.3-1.8.8-3.5,1.4-5.3,0-.2.2-.3.4-.2.9,0,1.9,0,2.8,0,.4,0,.7,0,1-.2.8-.4,1-1.2,1.2-2.1,0,0,0,0,0-.1h-.2c-.4.3-.7.4-1.1.5-1.2,0-2.4,0-3.6,0-1.5,0-3.1,0-4.6.2-1.1,0-2.2.5-3,1.1-1.1.7-1.7,2.1-1.5,3.4,0,.8.7,1.5,1.5,1.4.3,0,.6-.1.8-.3,0,0,0-.1-.1-.2-.8-.9-.8-2.3,0-3.1.2-.1.3-.3.5-.4.6-.3,1.3-.4,2-.4.9,0,1.8,0,2.7,0,0,0,0,0,0,0,0,0-.1,0-.2.1-.7.3-1.2,1-1.3,1.7-.2.9-.4,1.8-.6,2.8-.2.8-.2.8-1,.8-.7,0-1.2.6-1.2,1.2,0,.1,0,.3,0,.4l1.6-.2c0,.2,0,.2,0,.3-.2.9-.3,1.9-.5,2.8-.2.9-.3,1.9-.2,2.8,0,1,.8,1.9,1.8,2.1.2,0,.3,0,.2-.2-.2-.6-.2-1.2-.1-1.9.3-1.9.6-3.7.9-5.6,0-.3.2-.3.4-.3.8,0,1.5,0,2.3,0,.7-.1,1.2-.7,1.1-1.4,0,0,0-.1,0-.2"/>
      <path id="Path_1095" data-name="Path 1095" class="cls-3" d="M150.5,117.3c0,.1-.1.2-.2.3-.6.7-1.2,1.5-1.9,2.2-.2.2-.4.4-.7.5-.3.1-.5,0-.6-.4,0-.1,0-.2,0-.4.2-1,.4-2,.5-3,.1-.8.2-1.7.2-2.5,0-.5-.3-1-.8-1-.1,0-.3,0-.4,0-.4.1-.8.3-1.1.5-1.1.9-2.1,2-2.9,3.2,0,0,0,.1-.2.3,0-.3,0-.4.1-.6.1-.8.2-1.7.3-2.5,0-.7-.3-1-.8-1-.6,0-1.2.3-1.7.7.3.5.4,1.2.4,1.8,0,.8-.2,1.7-.3,2.5-.2,1.3-.5,2.5-.8,3.8.3,0,.7,0,1.1.1.7,0,.9,0,1.1-.8.4-1.3.9-2.5,1.6-3.6.4-.8,1-1.5,1.8-2,.2-.1.4-.1.5,0,.1.2.2.4.2.6,0,.7-.2,1.4-.4,2.1-.1.8-.3,1.5-.3,2.3-.1.8.4,1.5,1.2,1.6.2,0,.4,0,.5,0,.3,0,.5-.1.8-.3,1.1-.6,2-1.4,2.7-2.5.3-.5.4-1.2.3-1.8h-.1"/>
      <path id="Path_1096" data-name="Path 1096" class="cls-3" d="M80.1,113.3c-.6-.2-1.2-.2-1.8-.1-2.9.5-4.9,3.3-4.3,6.2,0,0,0,0,0,0,0,1.3,1.1,2.4,2.4,2.6.8.1,1.6,0,2.4-.3,2-1,3.2-3.1,3.1-5.3,0-1.8-.6-2.7-1.7-3.1M78.4,120.3c-.2.4-.7.7-1.2.7-.5,0-.9-.3-1-.8-.2-.8-.2-1.6,0-2.4.1-1.1.5-2.2,1.2-3.1.2-.2.4-.4.6-.5.5-.3,1.1,0,1.4.4,0,0,0,.2,0,.3,0,.3.1.6.2.9,0,1.5-.4,3.1-1.2,4.4"/>
      <path id="Path_1097" data-name="Path 1097" class="cls-3" d="M129.8,109c-.2,0-.3,0-.5,0-.5,0-1,.5-1.2,1-.2.5,0,1.1.5,1.3,0,0,.2,0,.2,0,.6.1,1.2,0,1.6-.5.4-.3.6-.8.4-1.3-.2-.4-.7-.7-1.2-.7"/>
      <path id="Path_1098" data-name="Path 1098" class="cls-3" d="M60.9,98.3l-.8-5.9-.2-1.2c-.1-.8-.2-1.6-.1-2.4l-4.4.8v1.2c-.7-.9-1.9-1.2-3.1-1-2,.4-3.5,2.2-3.7,4.2-.3,2-.1,4,.5,5.9.9,2.7,2.7,4,4.8,3.6.8-.2,1.5-.6,2.1-1.2.6-.7.9-1.5,1.1-2.4v.3c0,.4,0,.9,0,1.3v1c.1,0,4.3-.8,4.3-.8-.3-.7-.4-1.5-.5-2.3l-.2-1.3ZM55.8,98.4c-.2.6-.7,1.1-1.3,1.3-.5,0-1-.3-1.2-1-.3-1-.5-2.1-.4-3.2,0-1.5.5-2.4,1.4-2.5.6,0,1.2.1,1.6.5,0,.3,0,.5,0,.7.3,2.5.3,3.2,0,4.1"/>
      <path id="Path_1099" data-name="Path 1099" class="cls-3" d="M43.8,102.4c-1,.3-2.1-.2-2.4-1.2,0,0,0,0,0,0,1.3-.3,2.5-.9,3.6-1.6,2-1.5,2.6-3.1,1.8-5.1-.8-2.1-2.7-2.8-5.3-2.2-4.3,1-6,5.3-4,10.2,1.1,2.8,3.6,4.2,6.4,3.5,2.1-.6,4-1.8,5.4-3.5l-2.1-2.2c-.9,1-2,1.8-3.3,2.2M42.1,94.8c.5-.1,1,.2,1.2.7.4,1-.6,2.3-2.6,3.2-.2-2.2.3-3.6,1.4-3.9"/>
      <path id="Path_1100" data-name="Path 1100" class="cls-3" d="M99,89.4l-.8,3.3v.5c-.2.3-.2.5-.3.9,0-.5,0-.7-.1-.9,0-.2,0-.4-.1-.6l-1.1-4.1c0-.2-.1-.5-.2-1-.2-.8-.2-.9-.3-1.2v-.4c0,0-.1-.3-.1-.3h-4.8c0,.1,0,.2.1.3,0,.2.2.5.3.8,0,0,.1.4.4,1l.4,1,3.5,10.2-.3.9c-.4,1.3-.9,1.8-1.8,1.8-.7,0-1.4-.1-2-.4l-.8,2.9c1.1.5,2.3.7,3.6.7,1.1,0,2.2-.4,3-1.1.6-.6.9-1.3,1.7-3.7l3.3-9.5.5-1.5.6-1.7c.2-.6.4-1.2.7-1.8h-4.7c0,.2,0,.3,0,.4,0,.4,0,.6-.5,2.3-.1.6-.2,1-.3,1.1"/>
      <path id="Path_1101" data-name="Path 1101" class="cls-3" d="M67.7,101c0,0,0-.2,0-.2-.2-1.1-.4-2.2-.4-3.4l-1.1-12.1v-1.2c-.2-.8-.2-1.6-.1-2.4l-4.8.6v.2c.3,1.1.5,2.2.5,3.4l1.1,12.1c0,.5,0,.9.1,1.3,0,.8,0,1.6,0,2.4l4.7-.6Z"/>
      <path id="Path_1102" data-name="Path 1102" class="cls-3" d="M90.9,95.4v-5.5c0-.6-.2-1.3-.3-1.9-.3-1.5-1.7-2.5-3.2-2.3-1.8,0-3,1-4.1,3,0-.4,0-.8,0-1.2v-2s0-1.8,0-1.8v-1.2c0-.8,0-1.6.1-2.4l-4.7.3c.2.8.2,1.6.2,2.4,0,.6,0,1,0,1.2l.2,12.1c0,.5,0,.9,0,1.3,0,.8,0,1.6-.1,2.4l4.7-.3c-.2-1.8-.3-3.6-.2-5.4.1-2.2,1-3.8,2-3.8.4,0,.8.3.8.7,0,.4,0,.8,0,1.3v3.5c0,0,.1,1.3.1,1.3,0,.8,0,1.6-.1,2.4l4.8-.3c-.2-.8-.2-1.6-.2-2.4v-1.3Z"/>
      <path id="Path_1103" data-name="Path 1103" class="cls-3" d="M36.3,103.5l-2.7-10.4c-.4-1.2-.6-2.3-.8-3.6l-4.8,1.6v.2c.5,1.1.9,2.1,1.1,3.2l.8,3h-.3c0,0-.4.2-1.2.5l-.9.3-1,.3-1.2.4h-.3c0,0-.8-2.9-.8-2.9-.4-1.2-.6-2.4-.7-3.6l-4.8,1.6c.5,1.1.9,2.3,1.1,3.4l2.7,10.4.3,1.2.3,1.1c0,.4.2.8.2,1.3l4.8-1.6v-.2c-.5-1.1-.9-2.1-1.1-3.2l-1.1-4.2c.5-.2,1.5-.6,2.4-.8.9-.3,1.9-.6,2.4-.7l1.1,4.2c.3,1.2.6,2.4.7,3.6l4.8-1.6c0,0,0-.2-.1-.2-.4-1-.8-2.1-1-3.2"/>
      <path id="Path_1104" data-name="Path 1104" class="cls-3" d="M77.4,89.5l-.2-3c-.5.1-1.1.2-1.6.3l-1.7.2-.2-4.2-3.9,1.2-.3,3.4-1.9.2.2,2.8,1.9-.2.4,6.2c0,.7.1,1.5.3,2.2.4,1.5,1.9,2.4,3.4,2.1,1.8-.3,3.4-1,4.7-2.3l-1.5-2.7c-.5.5-1.1.8-1.7.9-.4,0-.7-.2-.7-.6,0,0,0,0,0,0,0-.2,0-.7-.1-1l-.3-5.3,1.7-.2c.6,0,1.1,0,1.7,0"/>
      <path id="Path_1105" data-name="Path 1105" class="cls-3" d="M169,92.8c-1.4-.4-2.9-.2-4.2.5-1.8,1-3,3.5-3.1,6.2-.1,3.6,1.9,6.3,5.1,7,1.5.4,3,.2,4.3-.5,1.7-1,2.9-3.5,3-6.2.2-3.2-1.9-6.1-5.1-6.9M169.2,101.6c-.5,1.4-1.2,2-2.1,1.8-.8-.2-1.3-1.1-1.2-2.3,0-1.1.3-2.3.6-3.4.4-1.3,1.2-2,2.1-1.8.8.2,1.2,1.1,1.2,2.3,0,1.1-.3,2.3-.6,3.3"/>
      <path id="Path_1106" data-name="Path 1106" class="cls-3" d="M155.7,101.1l6.5-6.9.5-2.4-10.1-1.8-.6,2.8c.3,0,.6,0,.9.1h.7c0,0,.7.2.7.2l2.2.4-6.4,6.8-.5,2.4,10.6,1.9.6-2.8c-.8,0-1.5-.2-2.3-.3l-2.9-.5Z"/>
      <path id="Path_1107" data-name="Path 1107" class="cls-3" d="M188.4,102.5c-.1,1.3.4,2.2,2.1,3.8,1.5,1.4,1.7,1.7,1.6,2.3,0,.7-.7,1-1.8.7-1.1-.3-2.2-.8-3.2-1.5l-1.5,2.8c1.2.8,2.6,1.4,4,1.8,3.9,1.1,6.7-.2,7-3.1.1-1.5-.4-2.4-2.5-4.3-1-.9-1.3-1.3-1.2-1.8,0-.6.6-.8,1.5-.6,1,.3,1.9.7,2.7,1.3l1.3-2.7c-1.1-.7-2.2-1.2-3.5-1.5-3.7-1.1-6.4.1-6.7,3"/>
      <path id="Path_1108" data-name="Path 1108" class="cls-3" d="M187.3,101.8c.2-.6.3-1.3.4-1.9.1-1.5-.9-2.9-2.4-3.1-.8-.2-1.6-.2-2.4,0-1,.3-1.9.9-2.7,1.7.2-.5.4-1,.5-1.6l.3-.9-4.2-1.1v.2c0,.7-.2,1.5-.4,2.2l-.3,1.2-1.5,5.7-.3,1.2c-.2.8-.5,1.5-.8,2.2l4.6,1.2c.3-1.8.7-3.6,1.3-5.3.7-2,1.9-3.3,3-3,.4.1.6.5.5.9,0,.4-.1.8-.3,1.2l-.9,3.4-.3,1.2c-.2.8-.5,1.5-.8,2.2l4.6,1.2c0-.8.2-1.6.5-2.3l.3-1.2,1.5-5.3Z"/>
      <path id="Path_1109" data-name="Path 1109" class="cls-3" d="M152.1,83.7l-4.4-.7-.7,4.1,4.4.7.7-4.1Z"/>
      <path id="Path_1110" data-name="Path 1110" class="cls-3" d="M134.8,92.8c-.1-3.2-2.6-5.9-5.8-6.2-1.5-.2-2.9.2-4.1,1-1.6,1.2-2.6,3.9-2.4,6.6.3,3.5,2.6,6,5.8,6.3,1.5.2,3-.2,4.3-1.1,1.6-1.2,2.5-3.9,2.3-6.6M130.1,95.3c-.3,1.4-1,2.1-1.9,2-.8,0-1.4-.9-1.5-2.1,0-1.2,0-2.3.3-3.4.3-1.4,1-2.1,1.9-2,.8,0,1.4.9,1.5,2.2,0,1.1,0,2.3-.3,3.4"/>
      <path id="Path_1111" data-name="Path 1111" class="cls-3" d="M139.7,98.9c.1-1.5.5-2.9,1.1-4.2.5-1.3,1.9-2.1,3.3-1.9.1,0,.2,0,.3,0l.7-4.3c-.8,0-1.6.1-2.3.5-.8.4-1.5,1-2.1,1.8,0,0,0-.1,0-.2,0,0,0-.2,0-.4v-.6c0,0,.2-.5.2-.5v-.7c.1,0-4.3-.6-4.3-.6v.2c0,.7,0,1.5-.2,2.2l-.2,1.2-.9,5.9-.2,1.3c-.1.8-.3,1.6-.6,2.3l4.7.6c0-.8,0-1.7.2-2.5"/>
      <path id="Path_1112" data-name="Path 1112" class="cls-3" d="M106.9,95.2v1.3c-.1,0-.2,1.1-.2,1.1,0,.4-.1.8-.3,1.2l5,.2v-.2c0-1.1,0-2.3,0-3.4l.3-4.3c.5,0,1.6,0,2.5,0,.9,0,2,.1,2.5.2l-.3,4.3c0,1.2-.2,2.4-.5,3.6l5,.2c0-.1,0-.2,0-.2,0-1.1,0-2.3,0-3.4l.8-10.8c0-1.2.2-2.4.4-3.6l-5-.2v.2c0,1.1,0,2.3,0,3.4l-.2,3.1h-.3s-.4,0-1.2,0h-1s-1,0-1,0h-1.2s-.3,0-.3,0l.2-3.1c0-1.2.2-2.4.5-3.6l-5-.2c.1,1.2,0,2.4,0,3.6l-.8,10.8Z"/>
      <path id="Path_1113" data-name="Path 1113" class="cls-3" d="M145,98.5l-.2,1.3c-.1.8-.3,1.6-.6,2.3l4.7.7c0-.1,0-.2,0-.2,0-1.1.2-2.2.5-3.4l1-5.8.2-1.2c0-.8.3-1.6.6-2.3l-4.8-.7c0,0,0,.2,0,.3,0,1.1-.2,2.3-.5,3.4l-1,5.8Z"/>
      <path id="Path_1114" data-name="Path 1114" class="cls-3" d="M149.7,111.6h.8v2.4h.6v-2.4h.8v-.5h-2.3v.5Z"/>
      <path id="Path_1115" data-name="Path 1115" class="cls-3" d="M153.7,113.1l-.5-1.9h-.9v2.8h.5v-2.2l.6,2.2h.6l.6-2.2v2.2h.5v-2.8h-.9l-.5,1.9Z"/>
      <rect id="Rectangle_212" data-name="Rectangle 212" class="cls-3" x="16.2" y="1.5" width="2.9" height="12.6"/>
      <path id="Path_1116" data-name="Path 1116" class="cls-3" d="M36.8,1.5v12.6h-2.5l-9-9.1v9.1h-2.8V1.5h3l8.5,8.6V1.5h2.8Z"/>
      <path id="Path_1117" data-name="Path 1117" class="cls-3" d="M58.8,10.2c0,2.5-2.3,4.2-6.8,4.2-2.8.1-5.5-.8-7.7-2.5l1.6-2c1.7,1.5,3.9,2.2,6.1,2.1,2.5,0,3.8-.5,3.8-1.5s-1.3-1.3-4.2-1.6c-3.6-.3-6.9-1.1-6.9-3.8s2.8-4.1,6.7-4.1c2.4-.1,4.7.6,6.7,1.9l-1.6,2c-1.5-1.1-3.3-1.6-5.1-1.5-1.7,0-3.8.3-3.8,1.4s1.8,1.2,4.3,1.4c4,.3,6.8,1.2,6.8,3.9"/>
      <path id="Path_1118" data-name="Path 1118" class="cls-3" d="M75,1.5v6.6c0,3.8-2.5,6.3-7,6.3s-7-2.5-7-6.3V1.5h2.9v6.4c0,2.5,1.5,4,4.2,4s4.2-1.5,4.2-4V1.5h2.9Z"/>
      <path id="Path_1119" data-name="Path 1119" class="cls-3" d="M92.3,5.7c0,2.8-2.2,4.3-5.4,4.3h-5.7v4.1h-2.9V1.5h8.6c3.2,0,5.4,1.5,5.4,4.2M89.3,5.7c0-1.4-1.1-1.9-2.7-1.9h-5.5v3.7h5.5c1.6,0,2.7-.4,2.7-1.9"/>
      <path id="Path_1120" data-name="Path 1120" class="cls-3" d="M108.4,5.7c0,2.8-2.2,4.3-5.4,4.3h-5.7v4.1h-2.9V1.5h8.6c3.2,0,5.4,1.5,5.4,4.2M105.5,5.7c0-1.4-1.1-1.9-2.7-1.9h-5.5v3.7h5.5c1.6,0,2.7-.4,2.7-1.9"/>
      <path id="Path_1121" data-name="Path 1121" class="cls-3" d="M110.1,7.7c0-4.2,3.1-6.7,8-6.7s8,2.5,8,6.7-3.1,6.7-8,6.7-8-2.5-8-6.7M123.2,7.7c0-2.7-2-4.2-5.1-4.2s-5.1,1.5-5.1,4.2,1.9,4.2,5.1,4.2,5.1-1.5,5.1-4.2"/>
      <path id="Path_1122" data-name="Path 1122" class="cls-3" d="M139.8,14l-3.6-4.3h-4.5v4.3h-2.9V1.5h8.7c3.1,0,5.4,1.4,5.4,4.1s-1.4,3.5-3.5,3.9l3.9,4.5h-3.4ZM137.3,7.4c1.5,0,2.6-.4,2.6-1.8s-1.1-1.8-2.6-1.8h-5.7v3.5h5.7Z"/>
      <path id="Path_1123" data-name="Path 1123" class="cls-3" d="M158.2,3.9h-5.5v10.1h-2.9V3.9h-5.5V1.5h13.8v2.5Z"/>
      <path id="Path_1124" data-name="Path 1124" class="cls-3" d="M164.7,7.7c0-4.2,3.1-6.7,8-6.7s8,2.5,8,6.7-3.1,6.7-8,6.7-8-2.5-8-6.7M177.8,7.7c0-2.7-2-4.2-5.1-4.2s-5.1,1.5-5.1,4.2,1.9,4.2,5.1,4.2,5.1-1.5,5.1-4.2"/>
      <path id="Path_1125" data-name="Path 1125" class="cls-3" d="M186.2,3.9v2.9h8.3v2.5h-8.3v4.7h-2.9V1.5h12.7v2.5h-9.8Z"/>
    </g>
  </g>
</svg>