<?xml version="1.0" encoding="UTF-8"?>
<svg id="Layer_1" data-name="Layer 1" xmlns="http://www.w3.org/2000/svg" version="1.1" viewBox="0 0 187 95">
  <defs>
    <style>
      .cls-1 {
        fill: #aa182c;
      }

      .cls-1, .cls-2 {
        stroke-width: 0px;
      }

      .cls-2 {
        fill: #231f20;
      }
    </style>
  </defs>
  <path class="cls-2" d="M41.1,43.7c-6.9,1.2-15.2,3.1-19.9,4.7-.9.3-.9.5-1.4,1.9-5.3,15.2-5.2,20-5.2,23.6,0,1.4,0,1.7-1.3,2.6-1.1.6-2.6,1.3-4.2,1.6-2.9.5-5.9-.3-6.6-4.5-.2-1.1-.2-2.3,0-3.8.4-4.1,3-12.8,4.7-15.8.5-1.1.8-1.6.7-1.9,0-.3-.5-.3-1.3-.2-1.7,0-3.8-.6-5.1-3.8.6.6,1.2.8,3.2.5,1.2-.2,2.9-.7,5.3-1.6,1-.5,1.3-.7,1.7-1.3,4.5-5.8,10.9-19.1,10.4-21.6,0-.3-.6-.6-.6-.8,0-.4.2-1.2.7-1.3.2,0,.3,0,.5,0,2.1,1.1,3.2,3.2,3.5,5.4.7,4.4-1,10.1-3,14-.1.3.5.8.8.7,9.3-2.8,14.5-3.7,22.6-6.1,1.3-.4,1.3-.5,1.4-1.1,6.1-15.4,15.1-30.7,24-32.3,1.4-.2,2.8,0,4.2.4,2,.6,3,2,3.2,3.1.1.7-.2,1.6-.8,1.7-.3,0-.6,0-1.1-.5-.5-.5-1.3-2.9-3.3-2.6-1.5.2-3.4,2.1-6.6,7.2-1.6,2.6-5.4,9-7.2,18.9,0,.4,0,.6,0,.8,0,.2,0,.3.2.4.3.2.8,0,1,0,1.8-.6,3.8-.2,5.7-.7,3-.8,7.9-2.1,12.8-1.9,3.6.1,7.1,1.2,7,1.7,0,.6-3.4.1-8.7,1.3-8.4,1.9-13.7,5.9-16.6,6.3-.3,0-1.7.2-2.8,1.2l-.4.4c-2.3,6.1-4.2,20.7-3.2,26.5.3,1.5.7,2.4,1.5,2.3.3,0,.6-.2.9-.5.4-.3,1.1-.6,1.6-.6.7-.1,1.3-.1,1.3.2,0,.4-.5,1-2,1.9-2.9,1.9-5.5,3-7.8,3.4-4.8.8-8.1-1.7-9.1-7.4-.8-4.9,0-12.3,3.2-22,0-.2.1-.4,0-.6,0-.3-.2-.4-.9-.3l-2.9.5Z"/>
  <path class="cls-2" d="M97.4,54.6c6.8-6.6,11.8-15.8,13.4-24.7,2.1-11.7-2.2-19.4-12.7-21.3-17.8-3.2-34.5,15.5-37.9,34.2-1.2,6.7-.5,11.9,2.3,15.6,1.1,1.2,3.4,3.6,7.2,5,4.3,1.6,8.1,1.1,9.7.8,4.4-.6,8.7-2.4,12.6-5.1,14.4,12.9,7,27.8,7,27.8,13.5-17.8,7.8-27.2-1.5-32.3ZM76.9,58.6c-5.9-.2-6.9-6.8-5.5-14.9,2.4-13,14.2-31.2,23-29.6,5.6,1,7,6.4,5.8,13.3-1.3,6.7-5.4,17.1-11.1,24-7.9-2.2-15.5-2.4-15.5-2.4,4.9,1.7,9,3.7,12.3,5.7-2.8,2.5-5.8,3.9-9,3.9Z"/>
  <path class="cls-1" d="M43.1,42.9c-6.9,1.2-15.2,3.1-19.9,4.7-.9.3-.9.5-1.4,1.9-5.3,15.2-5.2,20-5.2,23.6,0,1.4,0,1.7-1.3,2.6-1.1.6-2.6,1.3-4.2,1.6-2.9.5-5.9-.3-6.6-4.5-.2-1.1-.2-2.3,0-3.8.4-4.1,3-12.8,4.7-15.8.5-1.1.8-1.6.7-1.9,0-.3-.5-.3-1.3-.2-1.7,0-3.8-.6-5.1-3.8.6.6,1.2.8,3.2.5,1.2-.2,2.9-.7,5.3-1.6,1-.5,1.3-.7,1.7-1.3,4.5-5.8,10.9-19.1,10.4-21.6,0-.3-.6-.6-.6-.8,0-.4.2-1.2.7-1.3.2,0,.3,0,.5,0,2.1,1.1,3.2,3.2,3.5,5.4.7,4.4-1,10.1-3,14-.1.3.5.8.8.7,9.3-2.8,14.5-3.7,22.6-6.1,1.3-.4,1.3-.5,1.4-1.1,6.1-15.4,15.1-30.7,24-32.3,1.4-.2,2.8,0,4.2.4,2,.6,3,2,3.2,3.1.1.7-.2,1.6-.8,1.7-.3,0-.6,0-1.1-.5-.5-.5-1.3-2.9-3.3-2.6-1.5.2-3.4,2.1-6.6,7.2-1.6,2.6-5.4,9-7.2,18.9,0,.4,0,.6,0,.8,0,.2,0,.3.2.4.3.2.8,0,1,0,1.8-.6,3.8-.2,5.7-.7,3-.8,7.9-2.1,12.8-1.9,3.6.1,7.1,1.2,7,1.7,0,.6-3.4.1-8.7,1.3-8.5,1.8-13.7,5.8-16.6,6.2-.3,0-1.7.2-2.8,1.2-.1.1-.3.3-.4.4-2.3,6.1-4.2,20.7-3.2,26.5.3,1.5.7,2.4,1.5,2.3.3,0,.6-.2.9-.5.4-.3,1.1-.6,1.6-.6.7-.1,1.3-.1,1.3.2s-.5,1-2,1.9c-2.9,1.9-5.5,3-7.8,3.4-4.8.8-8.1-1.7-9.1-7.4-.8-4.9,0-12.3,3.2-22,0-.2.1-.4,0-.6,0-.3-.2-.4-.9-.3l-2.9.6Z"/>
  <g>
    <path class="cls-1" d="M44.4,74.1h11.8s.1,3.4.1,3.4h-6.9v3.5h6.5v3.3c0,0-6.3,0-6.3,0l.2,6.7h-5l-.6-17Z"/>
    <path class="cls-1" d="M58.3,74.1h5l.6,17h-5l-.6-17Z"/>
    <path class="cls-1" d="M66.3,74.1h5.1l2.6,5.4c.8,1.6,1.4,3,1.8,4.2h.3l-.2-2.9-.2-6.7h4.7l.6,17h-5l-2.6-5.4c-.8-1.6-1.4-3-1.8-4.2h-.3l.2,2.9.2,6.7h-4.7l-.6-17Z"/>
    <path class="cls-1" d="M83.3,74h12.1s.1,3.4.1,3.4h-7.1v3.2h6.8v3.3c0,0-6.6,0-6.6,0v3.7h7.3v3.5c.1,0-12,0-12,0l-.6-17.1Z"/>
  </g>
  <g>
    <path class="cls-1" d="M112.4,74.4h11.1v3.4c0,0-6.4,0-6.4,0v3.5h6.1v3.2c0,0-5.9,0-5.9,0v6.6c.1,0-4.5,0-4.5,0l-.4-16.8Z"/>
    <path class="cls-1" d="M131.8,74.1c2.4,0,4.4.8,5.8,2.3,1.4,1.5,2.2,3.6,2.2,6.3,0,2.6-.6,4.8-1.9,6.4-1.3,1.6-3.2,2.4-5.4,2.4s-4.1-.8-5.4-2.5c-1.3-1.6-2-3.7-2-6.1,0-1.7.2-3.2.8-4.6.6-1.3,1.4-2.4,2.6-3.1,1.1-.7,2.2-1.1,3.4-1.1ZM132.4,77.7c-.9,0-1.6.5-2.1,1.3-.5.9-.7,2.1-.6,3.7s.3,2.8.8,3.8c.5.9,1.2,1.3,2,1.3s1.5-.5,2-1.4.7-2.2.6-3.8c0-1.6-.3-2.9-.8-3.8-.6-.8-1.2-1.3-1.9-1.3Z"/>
    <path class="cls-1" d="M148,74.1c2.4,0,4.4.8,5.8,2.3,1.4,1.5,2.2,3.6,2.2,6.3,0,2.6-.6,4.8-1.9,6.4-1.3,1.6-3.2,2.4-5.4,2.4s-4.1-.8-5.4-2.5c-1.3-1.6-2-3.7-2-6.1,0-1.7.2-3.2.8-4.6.6-1.3,1.4-2.4,2.6-3.1,1.1-.7,2.2-1.1,3.4-1.1ZM148.6,77.7c-.9,0-1.6.5-2.1,1.3-.5.9-.7,2.1-.6,3.7s.3,2.8.8,3.8c.5.9,1.2,1.3,2,1.3s1.5-.5,2-1.4c.5-.9.7-2.2.6-3.8,0-1.6-.3-2.9-.8-3.8-.6-.8-1.2-1.3-1.9-1.3Z"/>
    <path class="cls-1" d="M157.9,74.4h5.8c1.8,0,3.2.4,4.4,1s2,1.7,2.6,3c.5,1.3.8,2.7.8,4.2,0,2.6-.6,4.7-1.9,6.2-1.3,1.6-3.4,2.3-6,2.3h-5.2l-.4-16.8ZM162.7,77.7l.2,10.2h.3c2.4,0,3.6-1.8,3.5-5.5,0-1.4-.3-2.6-.9-3.4-.6-.9-1.4-1.3-2.6-1.3h-.6Z"/>
    <path class="cls-1" d="M173.3,86.2c1.6,1.2,3,1.8,4.4,1.8s1.3-.2,1.8-.6c.5-.4.7-.8.7-1.4,0-.4-.2-.8-.6-1.2-.4-.3-1.1-.7-2-1.2-1.4-.6-2.5-1.3-3.2-1.9s-1.2-1.6-1.2-2.7c0-1.4.5-2.6,1.7-3.5s2.7-1.4,4.6-1.4,2.7.3,4.1.9v4c-1.2-1-2.4-1.5-3.6-1.5s-1.1.1-1.5.4c-.4.3-.6.6-.6,1.1s.2.7.6,1c.3.3,1,.6,1.9.9,1.5.6,2.6,1.2,3.4,1.9.8.7,1.2,1.7,1.3,3,0,1.6-.6,2.9-1.9,4-1.3,1.1-2.9,1.6-4.8,1.6s-3.1-.4-4.8-1.2v-4Z"/>
  </g>
  <path class="cls-1" d="M99.4,53.8c6.8-6.6,11.8-15.8,13.4-24.7,2.1-11.7-2.2-19.4-12.7-21.3-17.8-3.2-34.5,15.5-37.9,34.2-1.2,6.7-.5,11.9,2.3,15.6,1.1,1.2,3.4,3.6,7.2,5,4.3,1.6,8.1,1.1,9.7.8,4.4-.6,8.7-2.4,12.6-5.1,14.4,12.9,7,27.8,7,27.8,13.5-17.8,7.8-27.2-1.5-32.3ZM78.9,57.7c-5.9-.2-6.9-6.8-5.5-14.9,2.4-13,14.2-31.2,23-29.6,5.6,1,7,6.4,5.8,13.3-1.3,6.7-5.4,17.1-11.1,24-7.9-2.2-15.5-2.4-15.5-2.4,4.9,1.7,9,3.7,12.3,5.7-2.7,2.5-5.8,4-9,3.9Z"/>
</svg>