<?xml version="1.0" encoding="utf-8"?>
<!-- Generator: Adobe Illustrator 26.3.1, SVG Export Plug-In . SVG Version: 6.00 Build 0)  -->
<svg version="1.1" id="Layer_1" xmlns="http://www.w3.org/2000/svg" xmlns:xlink="http://www.w3.org/1999/xlink" x="0px" y="0px"
	 viewBox="0 0 400 200" style="enable-background:new 0 0 400 200;" xml:space="preserve">
<style type="text/css">
	.st0{fill:#231F20;}
	.st1{fill:#AA182C;}
</style>
<g id="XMLID_33_">
	<g>
		<path id="XMLID_00000151517797141888886100000007822692549968065690_" class="st0" d="M87.6,94.6c-14.9,2.5-32.8,6.6-42.8,10.2
			c-2,0.7-1.9,1.1-3,4c-11.4,32.8-11.2,43.1-11.1,50.8c0.1,3.1,0.2,3.7-2.9,5.6c-2.3,1.4-5.7,2.9-9.1,3.5
			c-6.2,1.1-12.7-0.6-14.2-9.7c-0.4-2.3-0.5-5-0.2-8.2c0.8-8.9,6.5-27.5,10.1-34.1c1.1-2.3,1.7-3.4,1.6-4.2
			c-0.1-0.6-1.1-0.6-2.8-0.5c-3.6,0.2-8.2-1.3-10.9-8.1c1.2,1.2,2.6,1.7,6.8,1c2.6-0.5,6.3-1.5,11.4-3.5c2.2-1,2.8-1.6,3.6-2.9
			c9.7-12.4,23.4-41.1,22.5-46.5c-0.1-0.6-1.2-1.2-1.3-1.7c-0.1-0.8,0.5-2.6,1.6-2.8c0.4-0.1,0.6,0.1,1,0.2
			c4.5,2.4,6.8,6.8,7.6,11.6c1.6,9.5-2.1,21.8-6.5,30.2c-0.3,0.6,1.1,1.8,1.8,1.6c20.1-6,31.2-8,48.7-13.2c2.8-0.9,2.7-1,3.1-2.3
			c13.1-33.1,32.6-66.2,51.8-69.5c3-0.5,6-0.2,9,0.8c4.3,1.4,6.4,4.4,6.8,6.6c0.3,1.5-0.4,3.4-1.7,3.6c-0.6,0.1-1.4-0.2-2.3-1
			c-1.1-1-2.8-6.3-7.2-5.6c-3.2,0.5-7.4,4.6-14.2,15.5c-3.5,5.7-11.6,19.5-15.5,40.7c-0.1,0.8-0.1,1.4-0.1,1.8
			c0.1,0.4,0.2,0.6,0.4,0.8c0.6,0.5,1.8,0.2,2.1,0.1c3.9-1.2,8.2-0.5,12.2-1.6c6.5-1.7,17.1-4.6,27.5-4.2c7.7,0.3,15.2,2.5,15.1,3.7
			c-0.1,1.2-7.4,0.3-18.8,2.7C149.5,74,138.2,82.7,132,83.5c-0.7,0.1-3.6,0.5-6.1,2.6c-0.3,0.3-0.6,0.6-0.9,0.9
			c-4.9,13.1-9,44.6-6.9,57.2c0.6,3.2,1.5,5.2,3.2,4.9c0.6-0.1,1.3-0.4,1.9-1.1c0.8-0.7,2.3-1.2,3.4-1.4c1.5-0.3,2.7-0.3,2.8,0.5
			c0.1,0.8-1,2.1-4.3,4.2c-6.3,4-11.9,6.5-16.8,7.4c-10.3,1.8-17.5-3.7-19.6-16c-1.8-10.6,0.1-26.5,7-47.4c0.1-0.4,0.3-0.8,0.2-1.2
			c-0.1-0.6-0.5-0.9-2-0.6L87.6,94.6z"/>
		<path id="XMLID_00000181808548691357998460000014577620797745907900_" class="st0" d="M208.9,118.1c14.6-14.3,25.4-34.1,28.9-53.3
			c4.6-25.2-4.7-41.8-27.3-46c-38.3-7-74.3,33.3-81.7,73.7c-2.6,14.4-1.1,25.7,4.9,33.7c2.3,2.6,7.4,7.7,15.5,10.7
			c9.3,3.5,17.4,2.4,20.9,1.7c9.5-1.2,18.7-5.1,27.1-10.9c31.1,27.8,15,59.9,15,59.9C241.3,149.3,229,128.9,208.9,118.1z
			 M164.8,126.6c-12.8-0.4-14.9-14.7-11.8-32.1c5.1-28,30.5-67.2,49.5-63.8c12,2.2,15.1,13.8,12.4,28.7c-2.7,14.5-11.7,36.8-24,51.7
			c-17.1-4.8-33.4-5.2-33.4-5.2c10.6,3.7,19.4,7.9,26.6,12.3C178.1,123.5,171.6,126.7,164.8,126.6z"/>
		<path id="XMLID_00000158727571467566697320000018004666557006690949_" class="st1" d="M92,92.8c-14.9,2.5-32.8,6.6-42.8,10.2
			c-2,0.7-1.9,1.1-3,4c-11.4,32.8-11.2,43.1-11.1,50.8c0.1,3.1,0.2,3.7-2.9,5.6c-2.3,1.4-5.7,2.9-9.1,3.5
			c-6.2,1.1-12.7-0.6-14.2-9.7c-0.4-2.3-0.5-5-0.2-8.2c0.8-8.9,6.5-27.5,10.1-34.1c1.1-2.3,1.7-3.4,1.6-4.2
			c-0.1-0.6-1.1-0.6-2.8-0.5c-3.6,0.2-8.2-1.3-10.9-8.1c1.2,1.2,2.6,1.7,6.8,1c2.6-0.5,6.3-1.5,11.4-3.5c2.2-1,2.8-1.6,3.6-2.9
			c9.7-12.4,23.4-41.1,22.5-46.5c-0.1-0.6-1.2-1.2-1.3-1.7c-0.1-0.8,0.5-2.6,1.6-2.8c0.4-0.1,0.6,0.1,1,0.2
			c4.5,2.4,6.8,6.8,7.6,11.6c1.6,9.5-2.1,21.8-6.5,30.2c-0.3,0.6,1.1,1.8,1.8,1.6c20.1-6,31.2-8,48.7-13.2c2.8-0.9,2.7-1,3.1-2.3
			c13.1-33.1,32.6-66.2,51.8-69.5c3-0.5,6-0.2,9,0.8c4.3,1.4,6.4,4.4,6.8,6.6c0.3,1.5-0.4,3.4-1.7,3.6c-0.6,0.1-1.4-0.2-2.3-1
			c-1.1-1-2.8-6.3-7.2-5.6c-3.2,0.5-7.4,4.6-14.2,15.5c-3.5,5.7-11.6,19.5-15.5,40.7c-0.1,0.8-0.1,1.4-0.1,1.8
			c0.1,0.4,0.2,0.6,0.4,0.8c0.6,0.5,1.8,0.2,2.1,0.1c3.9-1.2,8.2-0.5,12.2-1.6c6.5-1.7,17.1-4.6,27.5-4.2c7.7,0.3,15.2,2.5,15.1,3.7
			c-0.1,1.2-7.4,0.3-18.8,2.7c-18.3,3.8-29.5,12.5-35.7,13.3c-0.7,0.1-3.6,0.5-6.1,2.6c-0.3,0.3-0.6,0.6-0.9,0.9
			c-4.9,13.1-9,44.6-6.9,57.2c0.6,3.2,1.5,5.2,3.2,4.9c0.6-0.1,1.3-0.4,1.9-1.1c0.8-0.7,2.3-1.2,3.4-1.4c1.5-0.3,2.7-0.3,2.8,0.5
			c0.1,0.8-1,2.1-4.3,4.2c-6.3,4-11.9,6.5-16.8,7.4c-10.3,1.8-17.5-3.7-19.6-16c-1.8-10.6,0.1-26.5,7-47.4c0.1-0.4,0.3-0.8,0.2-1.2
			c-0.1-0.6-0.5-0.9-2-0.6L92,92.8z"/>
		<g id="XMLID_00000100340783782778799550000008087150977856603810_">
			<path id="XMLID_00000101060966492608568080000010864970960353137820_" class="st1" d="M94.7,160.1l25.5-0.1l0.3,7.4l-14.8,0
				l0.3,7.6l13.7,0l0.2,7.2l-13.7,0l0.5,14.5l-10.7,0L94.7,160.1z"/>
			<path id="XMLID_00000154399959166101985900000015332011337634166449_" class="st1" d="M124.8,160l10.8,0l1.3,36.7l-10.8,0
				L124.8,160z"/>
			<path id="XMLID_00000100381559334141925650000016326798874394850182_" class="st1" d="M142,160l10.9,0l5.6,11.6
				c1.7,3.5,3,6.4,3.9,9l0.6,0l-0.5-6.2L162,160l10.2,0l1.3,36.7l-10.8,0l-5.6-11.6c-1.7-3.5-3-6.4-3.9-9l-0.6,0l0.5,6.2l0.5,14.4
				l-10.2,0L142,160z"/>
			<path id="XMLID_00000150074454974689095170000001556907989496534176_" class="st1" d="M178.6,159.9l26.1-0.1l0.3,7.4l-15.4,0
				l0.2,6.8l14.4,0l0.2,7.2l-14.4,0l0.3,7.9l15.4,0l0.3,7.5l-26.1,0.1L178.6,159.9z"/>
		</g>
		<g id="XMLID_00000034777691551267898690000005586074110840417944_">
			<path id="XMLID_00000182504913927148090710000001873712507707879838_" class="st1" d="M241.3,160.6l24,0l0.2,7.3l-14,0l0.2,7.5
				l12.9,0l0.2,7l-12.9,0l0.3,14.3l-10,0L241.3,160.6z"/>
			<path id="XMLID_00000052073733329948441170000008172341610943776928_" class="st1" d="M283.1,160.1c5.2,0,9.4,1.7,12.4,5
				c3.1,3.3,4.7,7.8,4.8,13.5c0.1,5.7-1.3,10.3-4.2,13.7c-2.9,3.4-6.8,5.1-11.6,5.1c-5,0-8.9-1.8-11.7-5.3c-2.8-3.5-4.3-8-4.4-13.2
				c-0.1-3.7,0.5-6.9,1.8-9.9c1.3-2.9,3.1-5.1,5.5-6.6C278,160.8,280.5,160,283.1,160.1z M284.4,167.7c-2,0-3.5,1-4.6,2.9
				c-1,2-1.5,4.6-1.4,8c0.1,3.4,0.7,6.1,1.8,8.1c1.1,2,2.5,2.9,4.4,2.9c1.8,0,3.2-1,4.3-3s1.5-4.7,1.4-8.1c-0.1-3.5-0.7-6.2-1.8-8.1
				C287.3,168.6,285.9,167.7,284.4,167.7z"/>
			<path id="XMLID_00000079462731381304737840000001249308259398488468_" class="st1" d="M318,160.1c5.2,0,9.4,1.7,12.4,5
				c3.1,3.3,4.7,7.8,4.8,13.5c0.1,5.7-1.3,10.3-4.2,13.7c-2.9,3.4-6.8,5.1-11.6,5.1c-5,0-8.9-1.8-11.7-5.3c-2.8-3.5-4.3-8-4.4-13.2
				c-0.1-3.7,0.5-6.9,1.8-9.9c1.3-2.9,3.1-5.1,5.5-6.6C312.9,160.9,315.4,160.1,318,160.1z M319.3,167.7c-2,0-3.5,1-4.6,2.9
				c-1,2-1.5,4.6-1.4,8c0.1,3.4,0.7,6.1,1.8,8.1c1.1,2,2.5,2.9,4.4,2.9c1.8,0,3.2-1,4.3-3c1-2,1.5-4.7,1.4-8.1
				c-0.1-3.5-0.7-6.2-1.8-8.1C322.2,168.7,320.8,167.7,319.3,167.7z"/>
			<path id="XMLID_00000052101839390974046500000006656878780956675988_" class="st1" d="M339.4,160.7l12.6,0c3.8,0,6.9,0.8,9.4,2.2
				s4.4,3.6,5.5,6.4c1.1,2.7,1.7,5.8,1.8,9.1c0.1,5.6-1.3,10.1-4.2,13.4c-2.9,3.4-7.3,5-13,5l-11.2,0L339.4,160.7z M349.6,167.8
				l0.5,22l0.7,0c5.2,0,7.7-3.9,7.5-11.9c-0.1-3.1-0.7-5.5-1.9-7.4c-1.2-1.9-3-2.8-5.6-2.8L349.6,167.8z"/>
			<path id="XMLID_00000183242572019596066480000008823344497687602077_" class="st1" d="M372.5,186.1c3.4,2.6,6.5,3.9,9.5,3.9
				c1.5,0,2.8-0.4,3.8-1.2c1.1-0.8,1.6-1.8,1.5-3c0-0.9-0.4-1.8-1.2-2.5c-0.8-0.7-2.3-1.5-4.4-2.5c-3.1-1.3-5.4-2.7-7-4.2
				c-1.6-1.5-2.5-3.5-2.6-5.9c-0.1-3,1.1-5.5,3.6-7.6c2.5-2.1,5.8-3.1,9.9-3.1c2.8,0,5.8,0.6,8.9,1.9l0.2,8.6
				c-2.8-2.2-5.4-3.3-7.9-3.3c-1.2,0-2.3,0.3-3.2,0.9c-0.9,0.6-1.3,1.4-1.3,2.3c0,0.9,0.4,1.6,1.2,2.2c0.7,0.6,2.1,1.3,4.1,2
				c3.3,1.2,5.7,2.6,7.4,4.2c1.7,1.6,2.6,3.7,2.7,6.4c0.1,3.4-1.3,6.2-4.1,8.6c-2.8,2.4-6.3,3.5-10.4,3.5c-3.2,0-6.7-0.8-10.4-2.5
				L372.5,186.1z"/>
		</g>
		<path id="XMLID_00000127022551824428504740000012049263935035210936_" class="st1" d="M213.2,116.2c14.6-14.3,25.4-34.1,28.9-53.3
			c4.6-25.2-4.7-41.8-27.3-46c-38.3-7-74.3,33.3-81.7,73.7c-2.6,14.4-1.1,25.7,4.9,33.7c2.3,2.6,7.4,7.7,15.5,10.7
			c9.3,3.5,17.4,2.4,20.9,1.7c9.5-1.2,18.7-5.1,27.1-10.9c31.1,27.8,15,59.9,15,59.9C245.6,147.4,233.4,127,213.2,116.2z
			 M169.1,124.7c-12.8-0.4-14.9-14.7-11.8-32.1c5.1-28,30.5-67.2,49.5-63.8c12,2.2,15.1,13.8,12.4,28.7c-2.7,14.5-11.7,36.8-24,51.7
			c-17.1-4.8-33.4-5.2-33.4-5.2c10.6,3.7,19.4,7.9,26.6,12.3C182.5,121.6,175.9,124.9,169.1,124.7z"/>
	</g>
</g>
</svg>
