<?xml version="1.0" encoding="utf-8"?>
<!-- Generator: Adobe Illustrator 26.3.1, SVG Export Plug-In . SVG Version: 6.00 Build 0)  -->
<svg version="1.1" id="Layer_1" xmlns="http://www.w3.org/2000/svg" xmlns:xlink="http://www.w3.org/1999/xlink" x="0px" y="0px"
	 viewBox="0 0 400 135" style="enable-background:new 0 0 400 135;" xml:space="preserve">
<style type="text/css">
	.st0{fill:#247CE1;}
	.st1{fill:#25408F;}
</style>
<g>
	<path class="st0" d="M1.1,63.1c0-35.8,88.6-63,197.8-60.7c51.6,1.1,98.6,8.5,133.8,19.8c6.4,2.1,4.6,2.7-2.4,0.9
		c-31.8-7.9-74.6-12.3-127-13.4C89.7,7.4,10.7,39.3,10.7,72.8C10.7,82,1.1,75.6,1.1,63.1"/>
	<path class="st0" d="M398.7,72.8c0,35.8-88.6,63-197.8,60.7c-51.6-1.1-98.6-8.5-133.8-19.8c-6.4-2.1-4.6-2.7,2.4-0.9
		c31.8,7.9,74.6,12.3,127,13.4c113.6,2.3,192.6-29.6,192.6-63C389.2,53.9,398.7,60.2,398.7,72.8"/>
	<path class="st1" d="M284.6,47.4c0-2.3,2.3-4.1,5.2-4.1c2.9,0,5.2,1.9,5.2,4.1c0,2.3-2.3,4.1-5.2,4.1
		C287,51.5,284.6,49.7,284.6,47.4"/>
	<path class="st1" d="M59.1,45.8h-9.3v31.5h21.8c4,0,7.1-2.2,8.1-4.4l-20.6,0V45.8z"/>
	<path class="st1" d="M204.6,45.8h-35.3v4.3h12.5v27.2h9.3V50.2h5.6C200.6,50.3,203.9,47.7,204.6,45.8"/>
	<path class="st1" d="M259.4,45.8h-9.3v31.5h21.8c4,0,7.1-2.2,8.1-4.4l-20.6,0V45.8z"/>
	<path class="st1" d="M96,66.2l6.6-10.2l6.8,10.2H96z M102.4,45.8L80.7,77.4h2.7c4.5-0.1,6.8-2.3,7.7-3.7l2.1-3.3h18.9l2.1,3.2
		c2,3.1,5.7,3.8,7.8,3.8h4.6l-21-31.5H102.4z"/>
	<path class="st1" d="M214.3,66.2l6.6-10.2l6.8,10.2H214.3z M220.7,45.8L199,77.4h2.7c4.5-0.1,6.8-2.3,7.7-3.7l2.1-3.3h18.9l2.1,3.2
		c2,3.1,5.7,3.8,7.8,3.8h4.6l-21-31.5H220.7z"/>
	<path class="st1" d="M151.8,48.8C160,49,163.5,52,165,53.2l2.1-1.7c-4.6-5.2-12.6-6.6-17.1-6.7c-17-0.4-23.9,9.2-24,16.3
		c-0.2,10.6,9.2,16.8,21.5,17.1c14.8,0.3,18.9-6.9,19.5-7.8c0,0-1.8-0.6-2.6-0.8c-1.2,1.2-5.2,4.9-13.1,4.7
		c-11-0.2-15.7-7.1-15.6-13.3C135.7,55,141.4,48.6,151.8,48.8"/>
	<path class="st1" d="M313.2,53.7c0.1-3.5,4.2-5.2,10.8-4.9c4.1,0.2,7.9,1.3,10.7,3.6l1.8-1.9c-2.3-2.6-7.3-5.3-14.5-5.6
		c-9.4-0.4-17.9,2.9-17.9,9.6c0,12.8,24.2,6.3,24.2,14.7c0,3.8-4.9,5.4-10.8,5.3c-6.6-0.2-11.7-3-12.5-6.2c-0.7-0.1-2.6-0.1-3-0.1
		c0,4.1,4.3,9.6,16.5,10c14.4,0.6,19.2-5.5,19.2-9.7C337.6,55.1,313,61.2,313.2,53.7"/>
	<polygon class="st1" points="285.2,77.4 294.5,77.4 294.5,53.1 285.2,53.1 	"/>
	<path class="st1" d="M251.5,102.3c-0.1,0.4-0.2,0.7-0.2,1.1c-1.3,0.7-3,1-5,1c-1.4,0-2.7-0.2-3.8-0.6c-1.1-0.4-2.1-1-2.9-1.7
		c-0.8-0.8-1.4-1.7-1.8-2.7c-0.4-1-0.6-2.2-0.6-3.4c0-1.8,0.3-3.3,0.8-4.5c0.5-1.2,1.2-2.2,2.1-3c0.9-0.8,1.9-1.3,3.1-1.7
		c1.2-0.4,2.4-0.5,3.7-0.5c0.4,0,0.9,0,1.4,0.1c0.5,0.1,0.9,0.2,1.4,0.3c0.4,0.1,0.9,0.2,1.3,0.4c0.4,0.2,0.7,0.3,1,0.5
		c-0.2,0.4-0.3,0.9-0.4,1.3c-0.1,0.4-0.2,0.9-0.2,1.3h-0.3c-0.6-0.8-1.3-1.4-1.9-1.7c-0.7-0.3-1.4-0.5-2.3-0.5c-0.7,0-1.3,0.2-2,0.5
		c-0.7,0.3-1.3,0.8-1.8,1.4c-0.5,0.6-1,1.4-1.3,2.4c-0.3,1-0.5,2.1-0.5,3.5c0,1.3,0.2,2.4,0.5,3.3c0.3,0.9,0.8,1.7,1.3,2.3
		c0.5,0.6,1.2,1,1.9,1.3c0.7,0.3,1.4,0.4,2.1,0.4c0.4,0,0.8,0,1.2-0.1c0.4-0.1,0.8-0.2,1.2-0.4c0.4-0.2,0.8-0.4,1.1-0.6
		c0.3-0.2,0.7-0.5,0.9-0.8l0.3,0.2C251.8,101.6,251.6,102,251.5,102.3"/>
	<path class="st1" d="M259.1,91.4c-0.4,1-0.8,2-1.2,3c-0.4,1-0.7,2-1.1,3h4.5c-0.4-1-0.7-2-1.1-3C259.8,93.5,259.4,92.5,259.1,91.4
		 M267.8,104.1c-0.4,0-0.8-0.1-1.1-0.1h-1h-1c-0.4,0-0.7,0-1,0.1c-0.3-0.8-0.5-1.7-0.8-2.5c-0.3-0.9-0.6-1.7-0.9-2.6
		c-0.5,0-1.1,0-1.6,0c-0.5,0-1.1,0-1.6,0c-0.4,0-0.9,0-1.3,0c-0.4,0-0.9,0-1.3,0c-0.3,0.9-0.6,1.7-0.9,2.6c-0.3,0.9-0.5,1.7-0.8,2.5
		c-0.2,0-0.4-0.1-0.6-0.1h-0.6h-0.6c-0.2,0-0.4,0-0.6,0.1c0.2-0.4,0.5-1.1,0.8-1.8c0.3-0.8,0.7-1.7,1.1-2.6c0.4-1,0.8-2,1.3-3.2
		c0.5-1.1,0.9-2.3,1.4-3.4c0.5-1.2,0.9-2.3,1.3-3.4c0.4-1.1,0.8-2.2,1.2-3.1c0.2,0,0.3,0.1,0.5,0.1c0.1,0,0.3,0,0.5,0
		c0.2,0,0.3,0,0.5,0c0.1,0,0.3-0.1,0.5-0.1c0.5,1.4,1.1,3,1.7,4.6c0.6,1.6,1.2,3.3,1.8,4.8c0.6,1.6,1.2,3.1,1.8,4.5
		C266.8,101.9,267.3,103.1,267.8,104.1"/>
	<path class="st1" d="M270.5,88.8c0-0.8-0.1-1.5-0.1-2.1c0.5,0.1,0.8,0.1,1.1,0.1c0.3,0,0.6,0,1.1-0.1c1.8,2.1,3.6,4.1,5.3,6.1
		c1.7,2,3.5,4,5.4,6.1v-2.2v-2.5c0-0.8,0-1.7,0-2.5c0-0.8,0-1.5,0-2.2c0-0.7,0-1.3-0.1-1.8c0-0.5-0.1-0.8-0.1-1
		c0.5,0.1,0.8,0.1,1.1,0.1c0.3,0,0.6,0,1.1-0.1c-0.1,1.5-0.1,2.9-0.2,4.2c0,1.2-0.1,2.4-0.1,3.5c0,1.1-0.1,2.2-0.1,3.3
		c0,1.1,0,2.2,0,3.4v3.1c-0.3,0-0.7-0.1-1-0.1c-0.4,0-0.7,0-1,0.1c-3.4-4.1-7-8.2-10.7-12.3c0,0.5,0,1,0,1.5c0,0.5,0,1,0,1.5v2.9
		c0,1,0,1.9,0,2.6c0,0.7,0,1.3,0,1.8c0,0.5,0,0.9,0,1.2c0,0.3,0,0.6,0,0.8c-0.2,0-0.4-0.1-0.6-0.1h-0.6c-0.4,0-0.8,0-1.1,0.1
		c0-0.1,0.1-0.6,0.1-1.5c0-0.8,0.1-1.8,0.2-3c0.1-1.2,0.1-2.5,0.1-3.9c0-1.4,0.1-2.7,0.1-4C270.5,90.6,270.5,89.6,270.5,88.8"/>
	<path class="st1" d="M294.1,91.4c-0.4,1-0.8,2-1.2,3c-0.4,1-0.7,2-1.1,3h4.5c-0.4-1-0.7-2-1.1-3C294.9,93.5,294.5,92.5,294.1,91.4
		 M302.9,104.1c-0.4,0-0.8-0.1-1.1-0.1h-1h-1c-0.4,0-0.7,0-1,0.1c-0.3-0.8-0.5-1.7-0.8-2.5c-0.3-0.9-0.6-1.7-0.9-2.6
		c-0.5,0-1.1,0-1.6,0c-0.5,0-1,0-1.6,0c-0.4,0-0.8,0-1.3,0c-0.4,0-0.8,0-1.3,0c-0.3,0.9-0.6,1.7-0.9,2.6c-0.3,0.9-0.5,1.7-0.8,2.5
		c-0.2,0-0.4-0.1-0.6-0.1h-0.6h-0.6c-0.2,0-0.4,0-0.6,0.1c0.2-0.4,0.5-1.1,0.8-1.8c0.3-0.8,0.7-1.7,1.1-2.6c0.4-1,0.8-2,1.3-3.2
		c0.5-1.1,0.9-2.3,1.4-3.4c0.5-1.2,0.9-2.3,1.3-3.4c0.4-1.1,0.8-2.2,1.2-3.1c0.2,0,0.3,0.1,0.5,0.1c0.1,0,0.3,0,0.5,0
		c0.2,0,0.3,0,0.5,0c0.1,0,0.3-0.1,0.5-0.1c0.5,1.4,1.1,3,1.7,4.6c0.6,1.6,1.2,3.3,1.8,4.8c0.6,1.6,1.2,3.1,1.8,4.5
		C301.9,101.9,302.4,103.1,302.9,104.1"/>
	<path class="st1" d="M309,99v1.5c0,0.5,0,0.9,0,1.3c0,0.4,0,0.7,0,0.8c0.2,0,0.5,0,0.9,0c0.3,0,0.8,0,1.3,0c1.9,0,3.3-0.6,4.4-2
		c1.1-1.3,1.6-3.3,1.6-5.9c0-1-0.1-2-0.4-2.8c-0.3-0.8-0.6-1.5-1.1-2.1c-0.5-0.6-1.1-1-1.8-1.3c-0.7-0.3-1.5-0.5-2.3-0.5
		c-0.6,0-1.1,0-1.4,0c-0.4,0-0.7,0.1-1.1,0.1c0,0.1,0,0.4,0,0.8c0,0.4,0,0.9,0,1.4v1.5v1.3v4.5V99z M305.3,90c0-1.1-0.1-2.2-0.2-3.3
		c0.3,0,0.6,0.1,0.9,0.1c0.3,0,0.7,0,1.1,0c0.5,0,1.1,0,1.8-0.1c0.7,0,1.6-0.1,2.6-0.1c1.4,0,2.7,0.1,3.8,0.4c1.2,0.3,2.2,0.7,3,1.3
		c0.8,0.6,1.5,1.5,1.9,2.5c0.5,1.1,0.7,2.4,0.7,4c0,1.4-0.2,2.7-0.7,3.8c-0.5,1.1-1.1,2.1-1.8,2.9c-0.8,0.8-1.7,1.4-2.7,1.8
		c-1,0.4-2.1,0.6-3.3,0.6c-1.2,0-2.3,0-3.1,0c-0.9,0-1.6,0-2.3,0h-1.1c-0.3,0-0.6,0-0.9,0.1c0.1-1.1,0.1-2.1,0.2-3.2
		c0-1.1,0-2.3,0-3.8v-3.5C305.4,92.3,305.4,91,305.3,90"/>
	<path class="st1" d="M328.3,91.4c-0.4,1-0.8,2-1.2,3c-0.4,1-0.7,2-1.1,3h4.5c-0.4-1-0.7-2-1.1-3C329.1,93.5,328.7,92.5,328.3,91.4
		 M337,104.1c-0.4,0-0.8-0.1-1.1-0.1h-1h-1c-0.4,0-0.7,0-1,0.1c-0.3-0.8-0.5-1.7-0.8-2.5c-0.3-0.9-0.6-1.7-0.9-2.6
		c-0.5,0-1.1,0-1.6,0c-0.5,0-1,0-1.6,0c-0.4,0-0.9,0-1.3,0c-0.4,0-0.9,0-1.3,0c-0.3,0.9-0.6,1.7-0.9,2.6c-0.3,0.9-0.5,1.7-0.8,2.5
		c-0.2,0-0.4-0.1-0.6-0.1h-0.6H322c-0.2,0-0.4,0-0.6,0.1c0.2-0.4,0.5-1.1,0.8-1.8c0.3-0.8,0.7-1.7,1.1-2.6c0.4-1,0.8-2,1.3-3.2
		c0.5-1.1,0.9-2.3,1.4-3.4c0.5-1.2,0.9-2.3,1.3-3.4c0.4-1.1,0.8-2.2,1.2-3.1c0.2,0,0.3,0.1,0.5,0.1c0.1,0,0.3,0,0.5,0
		c0.2,0,0.3,0,0.5,0c0.1,0,0.3-0.1,0.5-0.1c0.5,1.4,1.1,3,1.7,4.6c0.6,1.6,1.2,3.3,1.8,4.8c0.6,1.6,1.2,3.1,1.8,4.5
		C336,101.9,336.6,103.1,337,104.1"/>
</g>
</svg>
