<?xml version="1.0" encoding="UTF-8"?>
<svg id="Layer_1" data-name="Layer 1" xmlns="http://www.w3.org/2000/svg" version="1.1" viewBox="0 0 235 83">
  <defs>
    <style>
      .cls-1 {
        fill: #25408f;
      }

      .cls-1, .cls-2 {
        stroke-width: 0px;
      }

      .cls-2 {
        fill: #247ce1;
      }
    </style>
  </defs>
  <path class="cls-2" d="M1.2,39.1C1.2,18.2,53,2.3,116.7,3.7c30.1.6,57.6,5,78.1,11.6,3.7,1.2,2.7,1.6-1.4.5-18.6-4.6-43.6-7.2-74.2-7.8C53,6.6,6.8,25.2,6.8,44.8s-5.6,1.6-5.6-5.7"/>
  <path class="cls-2" d="M233.4,44.8c0,20.9-51.7,36.8-115.5,35.5-30.1-.6-57.6-5-78.1-11.6-3.7-1.2-2.7-1.6,1.4-.5,18.6,4.6,43.6,7.2,74.2,7.8,66.4,1.3,112.5-17.3,112.5-36.8,0-5.4,5.6-1.8,5.6,5.6"/>
  <path class="cls-1" d="M166.8,30c0-1.3,1.3-2.4,3-2.4s3,1.1,3,2.4-1.3,2.4-3,2.4-3-1.1-3-2.4"/>
  <path class="cls-1" d="M35.1,29h-5.4v18.4h12.7c2.3,0,4.1-1.3,4.7-2.6h-12v-15.8Z"/>
  <path class="cls-1" d="M120.1,29h-20.6v2.5h7.3v15.9h5.4v-15.8h3.3c2.3,0,4.2-1.5,4.6-2.6"/>
  <path class="cls-1" d="M152.1,29h-5.4v18.4h12.7c2.3,0,4.1-1.3,4.7-2.6h-12v-15.8Z"/>
  <path class="cls-1" d="M56.6,41l3.9-6,4,6h-7.8ZM60.4,29l-12.7,18.5h1.6c2.6,0,4-1.3,4.5-2.2l1.2-1.9h11l1.2,1.9c1.2,1.8,3.3,2.2,4.6,2.2h2.7l-12.3-18.4h-1.9Z"/>
  <path class="cls-1" d="M125.7,41l3.9-6,4,6h-7.8ZM129.5,29l-12.7,18.5h1.6c2.6,0,4-1.3,4.5-2.2l1.2-1.9h11l1.2,1.9c1.2,1.8,3.3,2.2,4.6,2.2h2.7l-12.3-18.4h-1.9Z"/>
  <path class="cls-1" d="M89.2,30.8c4.8.1,6.8,1.9,7.7,2.6l1.2-1c-2.7-3-7.4-3.9-10-3.9-9.9-.2-14,5.4-14,9.5-.1,6.2,5.4,9.8,12.6,10,8.6.2,11-4,11.4-4.6,0,0-1.1-.4-1.5-.5-.7.7-3,2.9-7.7,2.7-6.4-.1-9.2-4.1-9.1-7.8,0-3.5,3.3-7.2,9.4-7.1"/>
  <path class="cls-1" d="M183.5,33.7c0-2,2.5-3,6.3-2.9,2.4.1,4.6.8,6.2,2.1l1.1-1.1c-1.3-1.5-4.3-3.1-8.5-3.3-5.5-.2-10.5,1.7-10.5,5.6,0,7.5,14.1,3.7,14.1,8.6s-2.9,3.2-6.3,3.1c-3.9-.1-6.8-1.8-7.3-3.6-.4,0-1.5,0-1.8,0,0,2.4,2.5,5.6,9.6,5.8,8.4.4,11.2-3.2,11.2-5.7,0-7.8-14.4-4.3-14.3-8.6"/>
  <polygon class="cls-1" points="167.1 47.5 172.6 47.5 172.6 33.3 167.1 33.3 167.1 47.5"/>
  <path class="cls-1" d="M147.5,62c0,.2-.1.4-.1.6-.8.4-1.8.6-2.9.6s-1.6-.1-2.2-.4-1.2-.6-1.7-1c-.5-.5-.8-1-1.1-1.6-.2-.6-.4-1.3-.4-2,0-1.1.2-1.9.5-2.6s.7-1.3,1.2-1.8c.5-.5,1.1-.8,1.8-1,.7-.2,1.4-.3,2.2-.3s.5,0,.8,0,.5.1.8.2c.2,0,.5.1.8.2s.4.2.6.3c-.1.2-.2.5-.2.8,0,.2-.1.5-.1.8h-.2c-.4-.5-.8-.8-1.1-1-.4-.2-.8-.3-1.3-.3s-.8.1-1.2.3-.8.5-1.1.8-.6.8-.8,1.4-.3,1.2-.3,2,.1,1.4.3,1.9.5,1,.8,1.3c.3.4.7.6,1.1.8s.8.2,1.2.2.5,0,.7,0,.5-.1.7-.2c.2-.1.5-.2.6-.4s.4-.3.5-.5h.2c0,.2-.1.5-.2.6"/>
  <path class="cls-1" d="M151.9,55.7c-.2.6-.5,1.2-.7,1.8-.2.6-.4,1.2-.6,1.8h2.6c-.2-.6-.4-1.2-.6-1.8-.2-.5-.5-1.1-.6-1.8M157,63.1c-.2,0-.5,0-.6,0h-1.2c-.2,0-.4,0-.6,0-.2-.5-.3-1-.5-1.5-.2-.5-.4-1-.5-1.5h-3.4c-.2.5-.4,1-.5,1.5-.2.5-.3,1-.5,1.5-.1,0-.2,0-.4,0h-.7c-.1,0-.2,0-.4,0,.1-.2.3-.6.5-1.1.2-.5.4-1,.6-1.5.2-.6.5-1.2.8-1.9.3-.6.5-1.3.8-2,.3-.7.5-1.3.8-2s.5-1.3.7-1.8c.1,0,.2,0,.3,0h.6c0,0,.2,0,.3,0,.3.8.6,1.8,1,2.7s.7,1.9,1.1,2.8c.4.9.7,1.8,1.1,2.6.2.8.5,1.5.8,2.1"/>
  <path class="cls-1" d="M158.6,54.2c0-.5,0-.9,0-1.2.3,0,.5,0,.6,0s.4,0,.6,0c1.1,1.2,2.1,2.4,3.1,3.6,1,1.2,2,2.3,3.2,3.6v-5.5c0-.4,0-.8,0-1.1,0-.3,0-.5,0-.6.3,0,.5,0,.6,0s.4,0,.6,0c0,.9,0,1.7-.1,2.5,0,.7,0,1.4,0,2s0,1.3,0,1.9v3.8c-.2,0-.4,0-.6,0s-.4,0-.6,0c-2-2.4-4.1-4.8-6.2-7.2v7.2c-.1,0-.2,0-.4,0h-.4c-.2,0-.5,0-.6,0,0,0,0-.4,0-.9s0-1.1.1-1.8,0-1.5,0-2.3,0-1.6,0-2.3c0-.7,0-1.3,0-1.8"/>
  <path class="cls-1" d="M172.3,55.7c-.2.6-.5,1.2-.7,1.8-.2.6-.4,1.2-.6,1.8h2.6c-.2-.6-.4-1.2-.6-1.8-.2-.5-.4-1.1-.6-1.8M177.5,63.1c-.2,0-.5,0-.6,0h-1.2c-.2,0-.4,0-.6,0-.2-.5-.3-1-.5-1.5-.2-.5-.4-1-.5-1.5h-3.4c-.2.5-.4,1-.5,1.5s-.3,1-.5,1.5c-.1,0-.2,0-.4,0h-.7c-.1,0-.2,0-.4,0,.1-.2.3-.6.5-1.1.2-.5.4-1,.6-1.5.2-.6.5-1.2.8-1.9.3-.6.5-1.3.8-2,.3-.7.5-1.3.8-2s.5-1.3.7-1.8c.1,0,.2,0,.3,0h.6c0,0,.2,0,.3,0,.3.8.6,1.8,1,2.7s.7,1.9,1.1,2.8c.4.9.7,1.8,1.1,2.6.2.8.5,1.5.8,2.1"/>
  <path class="cls-1" d="M181,60.1v2.1h1.3c1.1,0,1.9-.4,2.6-1.2.6-.8.9-1.9.9-3.4s0-1.2-.2-1.6-.4-.9-.6-1.2-.6-.6-1.1-.8c-.4-.2-.9-.3-1.3-.3h-.8c-.2,0-.4,0-.6,0v6.4h0ZM178.9,54.9c0-.6,0-1.3-.1-1.9.2,0,.4,0,.5,0h.6c.3,0,.6,0,1.1,0,.4,0,.9,0,1.5,0s1.6,0,2.2.2c.7.2,1.3.4,1.8.8.5.4.9.9,1.1,1.5.3.6.4,1.4.4,2.3s-.1,1.6-.4,2.2c-.3.6-.6,1.2-1.1,1.7-.5.5-1,.8-1.6,1.1s-1.2.4-1.9.4h-3.8c-.2,0-.4,0-.5,0,0-.6,0-1.2.1-1.9v-4.3c.1-.7.1-1.5,0-2"/>
  <path class="cls-1" d="M192.3,55.7c-.2.6-.5,1.2-.7,1.8-.2.6-.4,1.2-.6,1.8h2.6c-.2-.6-.4-1.2-.6-1.8-.2-.5-.4-1.1-.6-1.8M197.4,63.1c-.2,0-.5,0-.6,0h-1.2c-.2,0-.4,0-.6,0-.2-.5-.3-1-.5-1.5-.2-.5-.4-1-.5-1.5h-3.4c-.2.5-.4,1-.5,1.5s-.3,1-.5,1.5c-.1,0-.2,0-.4,0h-.6c-.1,0-.2,0-.4,0,.1-.2.3-.6.5-1.1.2-.5.4-1,.6-1.5.2-.6.5-1.2.8-1.9.3-.6.5-1.3.8-2,.3-.7.5-1.3.8-2s.5-1.3.7-1.8c.1,0,.2,0,.3,0h.6c0,0,.2,0,.3,0,.3.8.6,1.8,1,2.7s.7,1.9,1.1,2.8c.4.9.7,1.8,1.1,2.6.1.8.5,1.5.7,2.1"/>
</svg>