<?xml version="1.0" encoding="UTF-8"?>
<svg id="Layer_1" data-name="Layer 1" xmlns="http://www.w3.org/2000/svg" version="1.1" viewBox="0 0 112 120">
  <defs>
    <style>
      .cls-1 {
        fill: #00589d;
      }

      .cls-1, .cls-2, .cls-3 {
        stroke-width: 0px;
      }

      .cls-2 {
        fill: #f32735;
      }

      .cls-3 {
        fill: #fff;
      }
    </style>
  </defs>
  <path class="cls-1" d="M91.7,60.3c-30.1,8.7-60.2-8.7-90.2,0v54.7c30.1-8.7,60.2,8.7,90.2,0v-54.7"/>
  <path class="cls-2" d="M81.7,26.5c-3.5-.8-7.1,0-10.4,1.1,0-.5-.2-1.3-.2-1.8-2.2,0-3.7,1.1-5.6,2.7-.2-.5-.5-1-.6-1.5-2.2,1.4-4.1,7.6-6,6.2-1.7-1.2,5.6-6.7,5.3-11.6-1,.2-1.7.2-2.5,0,1.1-3,1.3-6.3.6-8.4-1.8,1.1-3.7,2.1-5.9,3.2.4-3.8-.3-7.2-1.5-9.4-.9,1.1-2.1,2.5-3.2,3.4-.5-3.6-2.3-7-5.1-9.3-1.1,2.5-1.6,5.4-1.5,8.2-.6-1-1.9-1.7-3.4-1.8.6,2.3,1.2,4.3,1.8,6.2-.9-1.1-2.7-1.9-4.4-2,1.1,2.6.6,5.8,2.7,7.8-.8-.2-1.9-.4-2.6-.6-.7,5.3,6,11.2,4.1,12.3-2.2,1.4-2.4-6.7-8.9-8.6,0,.6-.1,1.4-.2,2.1-2.2-2.4-6.3-3.4-9.2-4.4.1.7.2,1.6.5,2.7-1.7-1.3-4.8-1.1-8.4-2,.8,3,2.6,6.7,6.2,8.2-1,.2-2.6.8-3.6.9,2.6,2.1,3,3.2,6.4,4.4-1.5.5-2.9.9-4.6,1.3,3.4,8.2,12,4.7,14.4,9.5-4.8-.6-8.5,1.1-11.3,5.1,2.9,1.2,8.7,1.8,11.4,1.1-.2.6-.4,1-.9,1.8,3.5.2,8.7-1.1,11.5-2.2-.2.4-.4.8-.7,1.2-.7,1.1-1.2,1.4-2,1.5-.5.1-.5,2.8.4,2.8,1.9-.1,3.4-3,3.9-5.3,1.9,1.7,5.4,3.6,7.5,4.4.1-1.1.2-2.6.2-2.6,1.4,1.2,9,3.1,12.2,1.9-.8-2.5-3.5-5.7-7.6-6.5,3.6-2.2,8,1.3,13.2-3.5-.9-.4-2.2-1.1-2.9-1.4,2.7-1.1,5.3-4.1,6.1-6.3-1.2.2-3,.4-4.1,0,4.7-3.5,7.3-5.9,9.3-10.8"/>
  <polyline class="cls-3" points="25.2 89.5 21.4 89.5 21.4 104.4 30.6 104.4 30.6 101.1 25.2 101.1 25.2 89.5"/>
  <polyline class="cls-3" points="36.8 98.6 41.8 98.6 41.8 95.2 36.8 95.2 36.8 92.8 42.4 92.8 42.4 89.5 33 89.5 33 104.4 42.4 104.4 42.4 101.1 36.8 101.1 36.8 98.6"/>
  <polyline class="cls-3" points="62.1 104.4 65.8 104.4 65.8 98.6 70.9 98.6 70.9 95.2 65.8 95.2 65.8 92.8 71.4 92.8 71.4 89.5 62.1 89.5 62.1 104.4"/>
  <path class="cls-3" d="M51.3,89.5l-6.9,14.6v.4h4l.8-1.9h6l.8,1.9h4v-.4l-6.9-14.6h-1.8M50.5,99.6l1.8-4.1,1.8,4.1h-3.7Z"/>
  <polyline class="cls-3" points="22.5 85.9 26.2 85.9 26.2 70.9 25 70.9 18.9 77.5 12.8 70.9 11.6 70.9 11.6 85.9 15.4 85.9 15.4 78.8 18.7 82.2 19.1 82.2 22.5 78.8 22.5 85.9"/>
  <path class="cls-3" d="M35.1,70.9l-6.9,14.5v.4h4l.8-1.9h6l.8,1.9h4v-.4l-6.9-14.5h-1.9M34.2,81l1.8-4.1,1.8,4.1h-3.7Z"/>
  <path class="cls-3" d="M49.6,81.9h3.1c2.8,0,5.1-2.2,5.1-5.1v-.9c0-2.8-2.2-5.1-5.1-5.1h-6.9v15h3.7v-4M49.6,74.3h2.5c1,0,1.8.8,1.8,1.8v.8c0,1-.8,1.8-1.8,1.8h-2.5v-4.4Z"/>
  <polyline class="cls-3" points="69.4 82.5 63.9 82.5 63.9 70.9 60.2 70.9 60.2 85.9 69.4 85.9 69.4 82.5"/>
  <polyline class="cls-3" points="75.5 80 80.6 80 80.6 76.7 75.5 76.7 75.5 74.3 81.2 74.3 81.2 70.9 71.8 70.9 71.8 85.9 81.2 85.9 81.2 82.5 75.5 82.5 75.5 80"/>
  <path class="cls-1" d="M97.7,111.8v.5h-.9v2.5h-.6v-2.5h-.9v-.5h2.5M100.1,111.8h.9v3.1h-.6v-2.5l-.6,2.6h-.6l-.6-2.6v2.5h-.6v-3.1h.9l.5,2.4.6-2.4ZM102.6,111.7h.5l-1.2,3.2h-.5l1.2-3.2ZM105.5,111.8h.9v3.1h-.6v-2.5l-.6,2.6h-.6l-.6-2.6v2.5h-.6v-3.1h.9l.5,2.4.6-2.4ZM107.2,112.1c.2-.2.6-.4.9-.4.5,0,.9.2,1.1.5.1.2.2.4.2.6h-.6c0-.1-.1-.2-.2-.4-.1-.1-.3-.2-.5-.2s-.4.1-.5.3-.2.5-.2.8,0,.6.2.8c.1.2.3.2.5.2s.4,0,.5-.2c0,0,.1-.2.2-.4h.6c0,.4-.2.6-.4.8s-.5.3-.9.3-.8-.1-1.1-.4c-.2-.3-.4-.6-.4-1.2,0-.6,0-1.1.4-1.3M97.7,111.8v.5h-.9v2.5h-.6v-2.5h-.9v-.5h2.5ZM100.1,111.8h.9v3.1h-.6v-2.5l-.6,2.6h-.6l-.6-2.6v2.5h-.6v-3.1h.9l.5,2.4.6-2.4ZM102.6,111.7h.5l-1.2,3.2h-.5l1.2-3.2ZM105.5,111.8h.9v3.1h-.6v-2.5l-.6,2.6h-.6l-.6-2.6v2.5h-.6v-3.1h.9l.5,2.4.6-2.4ZM107.2,112.1c.2-.2.6-.4.9-.4.5,0,.9.2,1.1.5.1.2.2.4.2.6h-.6c0-.1-.1-.2-.2-.4-.1-.1-.3-.2-.5-.2s-.4.1-.5.3-.2.5-.2.8,0,.6.2.8c.1.2.3.2.5.2s.4,0,.5-.2c0,0,.1-.2.2-.4h.6c0,.4-.2.6-.4.8s-.5.3-.9.3-.8-.1-1.1-.4c-.2-.3-.4-.6-.4-1.2,0-.6,0-1.1.4-1.3"/>
</svg>