<?xml version="1.0" encoding="UTF-8"?>
<svg id="Layer_1" data-name="Layer 1" xmlns="http://www.w3.org/2000/svg" version="1.1" viewBox="0 0 128 137">
  <defs>
    <style>
      .cls-1 {
        fill: #00589d;
      }

      .cls-1, .cls-2, .cls-3 {
        stroke-width: 0px;
      }

      .cls-2 {
        fill: #f32735;
      }

      .cls-3 {
        fill: #fff;
      }
    </style>
  </defs>
  <path class="cls-1" d="M105.5,69.5c-34.5,10-69-10-103.5,0v62.7c34.5-10,69,10,103.5,0v-62.7"/>
  <path class="cls-2" d="M93.9,30.8c-4-.9-8.1,0-11.9,1.2,0-.5-.2-1.5-.3-2.1-2.6,0-4.2,1.2-6.4,3.1-.2-.5-.5-1.2-.7-1.8-2.5,1.6-4.7,8.7-6.8,7.1-1.9-1.4,6.4-7.7,6-13.3-1.2.3-2,.2-2.8,0,1.3-3.4,1.5-7.3.7-9.6-2,1.2-4.3,2.4-6.8,3.7.5-4.3-.3-8.3-1.8-10.8-1.1,1.3-2.4,2.9-3.7,3.9-.5-4.1-2.6-8.1-5.9-10.7-1.3,2.9-1.8,6.2-1.7,9.4-.7-1.2-2.2-1.9-3.9-2.1.7,2.6,1.4,4.9,2,7.1-1-1.3-3.1-2.2-5-2.3,1.2,3,.7,6.7,3,8.9-.9-.2-2.2-.5-3-.7-.8,6.1,6.8,12.8,4.7,14.1-2.6,1.6-2.8-7.7-10.2-9.9,0,.7-.1,1.6-.3,2.4-2.6-2.8-7.3-3.9-10.6-5.1.1.8.3,1.8.5,3-1.9-1.5-5.6-1.2-9.6-2.3.9,3.5,3,7.7,7.1,9.4-1.2.2-3,.9-4.1,1,3,2.4,3.5,3.7,7.3,5.1-1.8.5-3.3,1-5.3,1.5,3.9,9.4,13.8,5.4,16.5,10.9-5.6-.7-9.8,1.3-13,5.8,3.3,1.4,10,2,13.1,1.2-.2.7-.5,1.2-1.1,2.1,4,.3,10-1.2,13.2-2.5-.2.4-.5.9-.8,1.4-.8,1.3-1.4,1.6-2.3,1.8-.6.1-.5,3.3.4,3.2,2.2-.1,3.9-3.5,4.5-6.1,2.2,1.9,6.2,4.1,8.6,5.1.1-1.2.2-3,.2-3,1.6,1.4,10.3,3.5,14,2.2-.9-2.9-4.1-6.6-8.7-7.5,4.1-2.6,9.1,1.5,15.2-4-1-.4-2.6-1.2-3.3-1.6,3-1.3,6.1-4.7,7-7.2-1.4.3-3.4.4-4.7,0,5.4-4.1,8.3-6.8,10.7-12.3"/>
  <polyline class="cls-3" points="29.2 102.9 24.8 102.9 24.8 120.1 35.4 120.1 35.4 116.3 29.2 116.3 29.2 102.9"/>
  <polyline class="cls-3" points="42.5 113.4 48.3 113.4 48.3 109.6 42.5 109.6 42.5 106.8 49 106.8 49 102.9 38.2 102.9 38.2 120.1 49 120.1 49 116.3 42.5 116.3 42.5 113.4"/>
  <polyline class="cls-3" points="71.5 120.1 75.8 120.1 75.8 113.4 81.6 113.4 81.6 109.6 75.8 109.6 75.8 106.8 82.2 106.8 82.2 102.9 71.5 102.9 71.5 120.1"/>
  <path class="cls-3" d="M59.2,102.9l-7.9,16.7v.5h4.6l.9-2.2h6.9l.9,2.2h4.6v-.5l-7.9-16.7h-2.1M58.2,114.5l2.1-4.7,2.1,4.7h-4.2Z"/>
  <polyline class="cls-3" points="26.1 98.8 30.4 98.8 30.4 81.7 29 81.7 22 89.2 15 81.7 13.7 81.7 13.7 98.8 17.9 98.8 17.9 90.7 21.7 94.7 22.3 94.7 26.1 90.7 26.1 98.8"/>
  <path class="cls-3" d="M40.6,81.7l-7.9,16.7v.5h4.6l.9-2.2h6.9l.9,2.2h4.6v-.5l-7.9-16.7h-2.2M39.5,93.2l2.1-4.7,2.1,4.7h-4.2Z"/>
  <path class="cls-3" d="M57.2,94.3h3.6c3.2,0,5.8-2.6,5.8-5.8v-1c0-3.2-2.6-5.8-5.8-5.8h-7.9v17.2h4.3v-4.5M57.2,85.5h2.8c1.2,0,2.1.9,2.1,2.1v.9c0,1.2-.9,2.1-2.1,2.1h-2.8v-5.1Z"/>
  <polyline class="cls-3" points="79.9 95 73.6 95 73.6 81.7 69.3 81.7 69.3 98.8 79.9 98.8 79.9 95"/>
  <polyline class="cls-3" points="86.9 92.1 92.7 92.1 92.7 88.3 86.9 88.3 86.9 85.5 93.4 85.5 93.4 81.7 82.6 81.7 82.6 98.8 93.4 98.8 93.4 95 86.9 95 86.9 92.1"/>
  <path class="cls-1" d="M112.3,128.6v.6h-1.1v2.9h-.7v-2.9h-1.1v-.6h2.9M115.1,128.6h1.1v3.5h-.7v-2.9l-.7,3h-.7l-.7-3v2.9h-.7v-3.5h1.1l.6,2.8.7-2.8ZM117.9,128.4h.5l-1.4,3.7h-.5l1.4-3.7ZM121.3,128.6h1.1v3.5h-.7v-2.9l-.7,3h-.7l-.7-3v2.9h-.7v-3.5h1.1l.6,2.8.7-2.8ZM123.3,129c.3-.3.7-.4,1.1-.4.6,0,1,.2,1.3.6.1.2.2.4.3.7h-.7c0-.1-.1-.3-.2-.4-.1-.1-.3-.2-.6-.2s-.5.1-.6.3-.2.5-.2.9,0,.7.3.9c.1.2.3.3.6.3s.5,0,.6-.3c0,0,.1-.2.2-.4h.7c0,.4-.2.7-.5.9s-.6.3-1,.3-.9-.1-1.2-.5c-.3-.3-.4-.7-.4-1.4,0-.7,0-1.2.4-1.5M112.3,128.6v.6h-1.1v2.9h-.7v-2.9h-1.1v-.6h2.9ZM115.1,128.6h1.1v3.5h-.7v-2.9l-.7,3h-.7l-.7-3v2.9h-.7v-3.5h1.1l.6,2.8.7-2.8ZM117.9,128.4h.5l-1.4,3.7h-.5l1.4-3.7ZM121.3,128.6h1.1v3.5h-.7v-2.9l-.7,3h-.7l-.7-3v2.9h-.7v-3.5h1.1l.6,2.8.7-2.8ZM123.3,129c.3-.3.7-.4,1.1-.4.6,0,1,.2,1.3.6.1.2.2.4.3.7h-.7c0-.1-.1-.3-.2-.4-.1-.1-.3-.2-.6-.2s-.5.1-.6.3-.2.5-.2.9,0,.7.3.9c.1.2.3.3.6.3s.5,0,.6-.3c0,0,.1-.2.2-.4h.7c0,.4-.2.7-.5.9s-.6.3-1,.3-.9-.1-1.2-.5c-.3-.3-.4-.7-.4-1.4,0-.7,0-1.2.4-1.5"/>
</svg>