<?xml version="1.0" encoding="utf-8"?>
<!-- Generator: Adobe Illustrator 26.3.1, SVG Export Plug-In . SVG Version: 6.00 Build 0)  -->
<svg version="1.1" id="Layer_1" xmlns="http://www.w3.org/2000/svg" xmlns:xlink="http://www.w3.org/1999/xlink" x="0px" y="0px"
	 viewBox="0 0 400 88" style="enable-background:new 0 0 400 88;" xml:space="preserve">
<style type="text/css">
	.st0{fill:#D81E05;}
</style>
<g>
	<path class="st0" d="M352.2,87.5c-3.3,0-6.3-0.3-9.2-0.8c-1.7-0.3-3.3-0.7-4.9-1.2c-4.2-1.3-7.8-3.3-10.8-5.9c-3-2.5-5.4-5.6-7-9.2
		c-1.6-3.6-2.5-7.7-2.5-12.2c0-2.1,0.2-4.2,0.6-6.4c1-5.8,3-11,5.9-15.4c2.8-4.4,6.5-8.2,10.7-11.1c8.3-6,18.8-9,29.1-9h0h0.1
		c5.1,0,10.5,0.8,15.5,2.7c2.6,1,5.1,2.2,7.4,3.8c3.3,2.3,6.1,5.2,8,8.9c2,3.7,3.1,8.1,3.1,13.4c0,2.2-0.2,4.5-0.6,6.9
		c-1.1,6.8-3.6,12.5-6.8,17.1c-3.3,4.6-7.3,8.2-11.7,11c-8.8,5.5-18.9,7.6-26.7,7.6L352.2,87.5L352.2,87.5z M350.8,37.4
		c-1.5,1.6-2.7,3.5-3.7,5.9c-1,2.4-1.8,5.2-2.4,8.4c-0.4,2.4-0.6,4.5-0.6,6.4v0c0,4.8,1.3,8,3.2,10c0.8,0.8,1.8,1.4,2.8,1.9
		l-0.6,1.5l0.6-1.5c1.4,0.6,3.1,0.9,4.8,0.9h0h0.1c2.1,0,4.1-0.5,5.9-1.3c1.8-0.8,3.4-2.1,4.7-3.8c1.4-1.7,2.6-3.7,3.5-6.1
		c1-2.4,1.7-5.2,2.2-8.3c0.4-2.2,0.6-4.2,0.6-6.1c0-1.9-0.2-3.7-0.6-5.2c-0.4-1.5-1-2.9-1.9-4c-1.1-1.4-2.7-2.4-4.7-3
		c-1-0.3-2.1-0.4-3.3-0.4c0,0-0.1,0-0.1,0h0h0h0C357.3,32.8,353.6,34.3,350.8,37.4"/>
	<path class="st0" d="M265.9,18.4h25.6c0,0-1.1,5.8-1.5,8.1l0,0.2l0.1-0.1c3-3.1,6.8-5.1,10-6.5c3.2-1.4,5.9-2,6.9-2.3
		c1.2-0.3,2.6-0.5,4.1-0.6c1.5-0.1,3-0.2,4.5-0.2c1.4,0,2.8,0.1,3.9,0.2l1.9,0.2l-4.6,22.8h-1.4h-0.1l-0.1,0c-1.2-0.2-2.6-0.2-4-0.2
		c-2,0-4,0.1-5.8,0.4c-1.8,0.2-3.5,0.6-4.7,1c-2.8,1-5.1,2-7,3.1c-1.9,1.1-3.5,2.4-4.7,3.8c-1.3,1.4-2.2,3-3,4.7
		c-0.8,1.8-1.4,3.7-1.9,5.9c-1.7,7.3-5.3,26.7-5.3,26.7l-25.4,0L265.9,18.4z"/>
	<path class="st0" d="M213,80.6c-2.5-2-4.6-4.3-6.1-7c-1.5-2.8-2.4-6.1-2.4-9.8c0-1.7,0.2-3.6,0.6-5.6l5.3-23.8h-9.4l2.9-16h9.2
		l2.1-11.2l25.5-6.8l-3.5,18H254l-2.9,16h-16.2L230.3,55c-0.2,1-0.3,2.1-0.3,3.1c0,1.4,0.2,2.8,0.6,4.1c1.9,6.6,7.7,7.1,13.6,6.4
		l-3,17c0,0-4.5,1-10.5,1l0,0C224.6,86.8,218,84.6,213,80.6"/>
	<path class="st0" d="M147.6,86.9c-0.9-0.1-1.7-0.3-2.6-0.4c-2.2-0.4-4.4-1-6.4-1.7c-9.7-3.5-17.9-14.1-17.9-27.6v0
		c0-1.5,0.1-3.1,0.3-4.7c0.7-5.2,2-10.1,4-14.4c2-4.4,4.7-8.2,8.1-11.4c3.4-3.2,7.6-5.8,12.7-7.5c5-1.8,10.9-2.7,17.7-2.7
		c0.5,0,1.1,0,1.6,0c3.4,0.1,6.8,0.7,10.1,1.8c0.2,0.1,0.5,0.2,0.7,0.2c3.5,1.3,6.8,3.2,9.7,5.6c2.9,2.5,5.3,5.5,7,9
		c1.7,3.6,2.7,7.7,2.7,12.4c0,2.8-0.4,5.8-1.1,9l-0.3,1.3h-1.4h-0.1L144,55.4l0,0.1c0,0.3,0,0.5,0,0.8c0,3.8,1.8,7.7,5.1,10.6
		c1.9,1.7,4.3,3.1,7.1,4c2,0.6,4.2,1,6.6,1c0.7,0,1.3,0,2-0.1c6.6-0.5,13.3-1.3,20.7-4.3l3.4-1.4l-6,16.7l-0.6,0.3
		c-5.7,2.7-15.1,4.5-24.6,4.5l-0.1,0C154.1,87.6,150.8,87.3,147.6,86.9 M173,42.3L173,42.3c0.1-0.8,0.2-1.6,0.2-2.3V40
		c0-3-1-5.5-2.7-7.2c-1.2-1.2-2.8-1.9-4.7-2.3c-0.9-0.2-1.8-0.3-2.8-0.3h-0.1c0,0-0.1,0-0.1,0c-7.2,0-13,4.5-15.6,12l0,0.1H173z"/>
	<path class="st0" d="M40.6,85.6l9.6-43.5c0.1-0.4,0.1-0.9,0.1-1.2v0c0-1.4-0.6-2.7-1.5-3.5c-0.4-0.4-0.8-0.7-1.3-0.9
		c-0.7-0.3-1.6-0.5-2.5-0.5h0c-3.7,0-7.1,2.7-7.9,6.2l-9.8,43.6l-25.5,0l8.9-41.6c0.8-3.7,1.9-7.4,3.4-10.8c1.5-3.4,3.5-6.5,6.1-9.1
		c2.5-2.6,5.7-4.8,9.5-6.3c3.9-1.5,8.4-2.3,13.9-2.3c1.1,0,2.2,0,3.3,0.1c1.4,0.1,2.7,0.2,3.9,0.5c6.3,1.2,11.2,4.3,14.8,8.6l0,0
		l0,0c3.3-2.6,7.2-4.8,11.4-6.4c4.2-1.6,8.6-2.6,12.8-2.7h0.5c3.3,0,6.2,0.3,8.8,0.9c0.9,0.2,1.7,0.4,2.5,0.7c3.1,1,5.6,2.5,7.6,4.3
		c1.9,1.8,3.3,4,4.3,6.4c0.9,2.5,1.3,5.2,1.3,8.1c0,2.5-0.3,5.2-0.9,8l-8.9,41.6H79.5l8.9-43.3c0.1-0.4,0.1-0.8,0.1-1.2l0,0
		c0-1.4-0.6-2.6-1.5-3.5c-0.3-0.3-0.7-0.5-1.1-0.8c-0.8-0.4-1.7-0.6-2.8-0.6h0c-3.7,0-7.1,2.7-7.9,6.2l-8.6,43.3L40.6,85.6z"/>
</g>
</svg>
