<?xml version="1.0" encoding="UTF-8"?>
<svg id="Layer_1" data-name="Layer 1" xmlns="http://www.w3.org/2000/svg" version="1.1" viewBox="0 0 173 137">
  <defs>
    <style>
      .cls-1 {
        fill: #64523e;
        stroke-width: 0px;
      }
    </style>
  </defs>
  <path class="cls-1" d="M127.1,19.4c2-.9,5.7-2.4,7.9-3.1v-2.1c-4.3,1.6-11.8,4.7-16.9,7.5.1.2,1,1.4,1.1,1.6,2.2-.9,4.1-1.5,5.9-1.5s4.5,0,7.8-.8v-1.6c-1.9.3-3.9.7-5.2.7s-1,0-1-.3c0-.2.1-.3.4-.4"/>
  <path class="cls-1" d="M77,40.1c1.5-.7,3.9-1,5.1-1s2.2.1,3.2.3c1.2.2,2.5.3,4,.3,3.2,0,6.4-1.7,6.9-2-.4-.3-.9-.8-1.2-1.2-1,.4-3.4,1.3-5.7,1.3s-2.1,0-3.2-.3c-1.3-.2-2.6-.3-3.7-.3-1.8,0-4,.2-6.2,1.7l1,1.3Z"/>
  <path class="cls-1" d="M77.2,23.4c-.3-.2-.7-.3-1-.3-.7,0-1,.4-1.1.9,0,.2,0,.4,0,.6,0,.6.3,1,.7,1s1.9-.9,1.9-1.6-.1-.4-.4-.6"/>
  <path class="cls-1" d="M103.5,42.7c-.5-.3-1.2-.7-1.5-1-1.8.8-3.5,2.3-5,3.9-3.4,3.6-3.1,5.7-6.7,7.1-.9.3-2,.7-3.4,1-.8-2.6-3-5.2-5.2-5.2s-3.4.8-5.4,1.7c-2.4,1-4.7,2.3-5.4,2.7l1,1.3c.7-.4,2.8-1.4,4.9-2.3,1.8-.8,3.4-1.4,4.5-1.4,1.8,0,2.9,2,3.6,3.6-2.3.6-6.1.7-7.3.7s-.7,0-.9.3c-.2.2-.3.4-.4.8v.6c-.1,0,1.1,0,1.1,0,6.4,0,12.5-1,16.4-3.4.6.2,1,.3,1.7.3,2.2,0,4.5-1.2,6-2.4.5-.4.7-.7.7-1.1s0-.3,0-.5v-.7c-2.1,1.7-3.9,2.9-6,2.9s-.7,0-.9,0c2-3.4,3.9-6.4,8.4-8.8"/>
  <path class="cls-1" d="M123.9,46l.8.6c.1,0,.2.1.3.1.2,0,.3-.2.3-.3s0-.2-.1-.3c-2.5-2.3-5.2-5.1-7.8-7.8-2-2.1-4-4.4-5.8-6.6-.1-.2-.2-.2-.3-.2-.2,0-.3.1-.3.3,0,.3.2.5.6,1.3,1.3,2.2,2.9,4.4,4.9,6.5,2.1,2.3,4.7,4.4,7.4,6.4"/>
  <path class="cls-1" d="M74,38.7l-1-1.3c-3.8,1.5-8.1,3.9-8.1,6.3s1,2.5,3.4,2.5c3.4,0,7-1.7,9.9-3.3l-.4-.6c-.3-.3-.4-.4-.8-.4s-.4,0-.6.2c-2.5,1.2-5.2,2.4-7.7,2.4s-1.8-.4-1.8-1c0-1.7,4.7-3.8,7.1-4.7"/>
  <path class="cls-1" d="M89.9,46.6c-1.5,0-1.3-2.5-1.4-4.5-5.1.5-8.4,2-11.9,3.9l.4,1.6c3.2-1.9,6.3-3,9.6-3.4,0,1.9.8,4.4,3,4.4s5.1-3.6,8.4-7.8l.9-1.1c-.4-.3-1-.7-1.3-1-3.4,4.4-6.3,7.8-7.6,7.8"/>
  <polygon class="cls-1" points="90.3 29.1 83 29.1 82.2 30.7 91 30.7 90.3 29.1"/>
  <path class="cls-1" d="M82.9,16.2c1.8-.4,3.1-.7,4.8-.7s2.6.3,3.1,1.3c.9,1.8.9,7.2,2.4,11.3,1.4,3.8,4.8,7.6,8.7,10.4,0,0,0,0,.2,0,.2,0,.3-.1.3-.3s0-.2-.1-.3c-3.2-3.2-5.9-6.8-7.3-10.7-1.4-3.8-1.2-9.2-2.4-11.6-.8-1.6-2.5-2-4.1-2s-2.4.3-3,.4l1.4-2.4h-2.4c.5-.9,1-1.7,1.3-2.2.2-.4.3-.9.6-1.7.9-2.3,2.9-3.7,5.4-3.7s5.1,2.1,7,4.2c.9,1,2.3,3,3.9,4.5,1.1,1,3.3,2.2,6.5,5.6,1.9,2,4.1,4.5,6.4,7.9,8.3,12.1,13.8,22.9,16.8,31.2h0c-8.7-5.9-16.3-11.5-22.3-18.4-4.3-4.9-8.1-10.6-11.3-17.8-.2-.5-.4-.9-.6-1.4,0-.2-.2-.3-.3-.3s-.3.1-.3.3,0,.6.3,1.4c1.7,7.5,6.5,14.2,11.7,19.8,5.1,5.6,10.9,10.3,15.7,13.8l3.7,10.6c0,.3.2.5.2.8s0,.3-.2.4c0,0-.3.2-.6.2h-1.1c-.5,0-.7,0-.8-.2s-.3-.3-.4-.6c-.3-1-2.3-6.6-2.7-7.7,0-.2-.2-.3-.3-.3s-.3.1-.3.3,0,.3.1.8c.5,2.5,1.1,5.4,1.3,6.5,0,.5.2,1,.2,1.3s0,.5-.3.7l-1.1,1.2c-.3.3-.4.3-.7.3s-.5-.2-.6-.7c-1.3-6.1-3.3-13.7-3.8-15.8-.1-.5-.2-.7-.5-.7s-.3.2-.3.4,0,.3,0,.5c.3,2.2,1.6,10.1,2.9,17.2.3,1.2.7,1.9,1.8,1.9s1-.2,1.4-.6c.7-.7.9-.9,1.7-1.7.6-.6,1-.8,2-.8h2.5c.6,0,.9-.2,1.2-.4.3-.3.4-.6.4-1.1s-.1-1-.3-1.5c-.7-1.7-2.7-7.7-3.4-9.4h0c2.1,1.6,5.3,3.7,6.7,3.7s.7-.2.7-.9c0-3.2-5.3-16.2-17.3-34.1-6.4-9.5-12-12.8-13.6-14.3-1.7-1.7-3-3.6-3.9-4.5-1.9-2-4.3-4.6-8.3-4.6s-6.4,2.5-7.2,4.7c-.3.6-.4,1.4-.6,1.7-.4.6-2.1,3.5-2.8,4.7h3.2l-1.5,2.9Z"/>
  <path class="cls-1" d="M118.6,11.3h.3v.4c0,2,1,3.4,3.4,3.4s3.9-.7,6.1-1.5c1.9-.7,3.6-1.3,4.4-1.5v-2c-1,.3-2.9,1-5,1.7-2.1.7-4.2,1.4-5.4,1.4s-1.7-.7-1.7-1.8c0-2.2,1.3-5.3,2.2-7.1h-2.1c-1.1,2.1-5.4,8.8-7.7,11.6l1.3,1.4c1.3-1.4,2.6-3.7,4.1-6.1"/>
  <path class="cls-1" d="M133.2,76.7c-.3,0-.6,0-1,0l-13.7,1.3c-.4,0-.6.2-.7.3-.2.2-.2.4-.2.7v.9c0,.3,0,.5.2.7.2.2.4.3.7.3h14.8c.3,0,.7,0,.8-.3.2-.2.3-.5.3-.9v-1.6c0-.6-.1-.9-.3-1.1-.2-.2-.5-.3-.8-.3"/>
  <path class="cls-1" d="M55.3,64.4c-1.1.7-2.6,1-3.8,1s-.8,0-1,.3c-.2.2-.3.5-.3,1v.6h.4c2.3,0,4.4-.3,6.8-2.2l7.6-6c1.1,1.2,3.8,3,7.1,3s3-.4,4.7-.9c1.3-.3,2.6-.6,5.4-.6h8.1c4.1,0,6.1-.9,8.3-2.1,4.8-2.7,8.8-7.2,11.1-12.5-.6-.4-1.2-.7-1.7-1-2.6,5.4-6.5,9.4-10.5,11.7-1.9,1.1-3.6,1.8-7.4,1.8h-8c-2.9,0-4.7.4-6.1.7-1.5.4-2.5.8-4,.8-2.3,0-4.4-1.1-5.4-2.2l1.9-1.5-1-1.3c-.6.4-7.3,5.4-8.7,6.5h0c0-.4,0-.7,0-1,0-3.8-1.7-4.7-4.4-5.7l-1.8,1c3.7,1.2,4.6,2.2,4.6,4.9,0,2.2-.7,3-1.9,3.7"/>
  <path class="cls-1" d="M53.8,45.1v.7c.2.3.3.6.6.7.3.2.7.2,1.5.2,2,0,3.4-.3,4.2-.4,2.1,3.1,5,4.4,7.8,4.4s4.8-.9,7.1-2.1l-.4-1.6c-2.3,1.3-4.6,2.1-6.7,2.1s-4.4-1-6.1-3.6c-.7-1.1-1.3-2.5-2-3.7-.8-1.4-1.7-2.2-3.3-2.2s-2.8.6-4.3,1.2v.3c.2.5.4.9.9.9s.4,0,.6-.1c.8-.3,1.4-.5,2.3-.5,1.3,0,1.9.7,2.8,2.6l.3.7c-.9.3-3,.5-4.6.5h-.8Z"/>
  <path class="cls-1" d="M89.8,7.2c-1.1,0-1.4,1.1-1.4,1.7s.2,1,.8,1,1.1-.3,1.6-.7c.5-.4.8-.7.8-1s-.3-.6-.7-.7c-.3-.2-.7-.3-1-.3"/>
  <path class="cls-1" d="M114.3,102.2c.2-.3.3-.6.3-1v-22.5c0-.4-.1-.8-.3-1-.3-.3-.6-.5-1.1-.5h-2c-.5,0-.9.2-1.1.5-.2.3-.3.6-.3,1v22.5c0,.4.1.8.3,1,.3.3.6.5,1.1.5h2c.5,0,.9-.2,1.1-.5"/>
  <path class="cls-1" d="M39.2,102.7h1.6c.7,0,1-.2,1.3-.6.3-.3.4-.6.4-1.2v-16h0s8.9,15.7,9.2,16.3c.5.8,1.3,1.4,2.5,1.4h2.7c.7,0,1-.2,1.3-.6.3-.3.4-.6.4-1.2v-20h35.9c.3,0,.7,0,.8-.3.2-.2.3-.5.3-.9v-1.5c0-.4,0-.7-.3-.9-.2-.2-.5-.3-.8-.3h-39.2c-.7,0-1,.2-1.3.6-.3.3-.4.6-.4,1.2v15.6h0s-8.5-15.2-9-15.9c-.3-.5-.6-.8-1-1.1s-.9-.4-1.7-.4h-2.8c-.7,0-1,.2-1.3.6-.3.3-.4.6-.4,1.2v22.1c0,.6.1.9.4,1.2.3.4.7.6,1.3.6"/>
  <path class="cls-1" d="M65.6,91.1c.2-2.1,1.8-3.7,4.3-3.7s4.1,1.6,4.3,3.7h-8.6ZM78.7,94.4c.3-.3.4-.7.4-1.4,0-2.3-.7-4.6-2.2-6.4-1.5-1.8-3.8-3-7.1-3-6,0-9.3,4.7-9.3,9.6s3.6,9.8,9.4,9.8,5.7-1.1,7.3-3c.7-.8,1.3-2,1.3-2.7s0-.4-.2-.6c-.1-.2-.3-.3-.7-.3h-2.8c-.6,0-.9.2-1.2.6-.8,1.2-2,1.8-3.7,1.8-2.6,0-4.3-2-4.4-4.1h12c.5,0,.9,0,1.1-.3"/>
  <path class="cls-1" d="M47.4,9.9c-1-.7-2-1.3-3.3-1.9,0,0-.2,0-.2,0-.2,0-.3.1-.3.3s0,.2.2.3c1.5,1.3,4.4,3.7,5.3,4.4l.7-.8c-.8-.9-1.6-1.7-2.4-2.3"/>
  <path class="cls-1" d="M38.1,61.8c1.3,0,1.4-.8,1.4-1.5v-1.7c0-1.4,0-2.7,2.4-3.7.9-.4,5.5-2.3,8.9-3.7,1-.4,1.9-.8,3-.8s2.5.5,4.1,1.5c1.4.8,2.9,2,4,3.2l1.5-1.1c-1.3-1.5-3-2.8-4.7-3.8s-3.3-1.7-4.6-1.7-1,0-1.4.2c-.5.1-.9.3-1.4.3s-1.2-.2-2-1c-.3-.3-2.1-2.4-2.5-3-.2-.3-.5-.9-.5-1.6s0-.7.2-1c1.6,1.2,3.6,2,6,2.3l-.3-1.7c-3.4-.9-7.1-4-7.1-5.9s0-.7.3-1c1.3,1.2,4.5,2.5,6.2,2.5s1.7-.3,2.4-.6c.7-.3,1.4-.6,2.3-.6,2.2,0,4.9,1,7.3,2.1.1,0,.3,0,.4,0,.4,0,.7-.2.9-.5l.3-.6c-2.6-1.5-6.8-3.2-9-3.2s-1.7.3-2.4.5c-.8.3-1.4.7-2.1.7-1.7,0-6.2-1.7-6.2-3.4s7.1-2.7,7.8-2.7l.7-1.6c-5.1,0-11.3,1.8-11.3,4.2s.4,1,.4,1.7c0,.9-.4,1.4-.4,2.4s.4,1.4.8,2.1c.5.7,1,1.2,1,1.8s-.3,1-.3,2.1c0,2.3,1.3,3.7,3.9,6.5l.5.6c-2.1.8-6.1,2.5-7,3-3.2,1.3-4,3-4,5.6s0,2.1,0,3.1h.5Z"/>
  <path class="cls-1" d="M125.7,87.4c2.4,0,4.1,1.6,4.3,3.7h-8.6c.2-2.1,1.8-3.7,4.3-3.7M134.1,96.8c-.1-.2-.3-.3-.7-.3h-2.8c-.6,0-.9.2-1.2.6-.8,1.2-2,1.8-3.7,1.8-2.6,0-4.3-2-4.4-4.1h12c.5,0,.9-.1,1.2-.4.3-.3.4-.7.4-1.4,0-2.3-.7-4.6-2.2-6.4-1.5-1.8-3.8-3-7.1-3-6,0-9.3,4.7-9.3,9.6s3.6,9.8,9.4,9.8,5.7-1.1,7.3-3c.7-.8,1.3-2,1.3-2.7,0-.2,0-.4-.2-.5"/>
  <path class="cls-1" d="M77,19.9c-.5-.1-1-.2-1.8-.2-1.3,0-2.8.5-3.8,1.5-1.8,1.7-1.9,3.6-2,5.3-.2,2.2-.6,2.8-1.8,4.4-1,1.3-2.3,3-3.4,4.9.3.2,1.4.7,1.8,1,1.2-1.8,2.8-4,3.9-5.7,1-1.5,1.4-2.2,1.4-4.2,0-.3,0-.7,0-1,0-1,.3-2.1,1.3-3.1.7-.7,1.8-1.1,2.9-1.1s1.7.3,2.5.3,1.1-.2,1.5-.3h.3c0-.1-.8,1.7-.8,1.7l1.9.7c-1.2.7-3.8,3.9-3.8,7.7s.2,2.6.5,3.7c0,.1,0,.3.3.3s.3,0,.3-.3v-.4c0-1.1.1-3,.6-4.6.8-2.7,2.9-5.3,4.9-6.6l-3-1.3,1.3-3.1-1.4.3c-.8.2-1.5.3-2.2.3-.4,0-1,0-1.6-.3"/>
  <path class="cls-1" d="M91.7,91.7l-3.9-1c-1.6-.4-2.4-.7-2.4-1.7s.9-1.7,2.9-1.7,2.2.3,2.9,1c.6.6.5.9.9,1.1s.6.1,1,.1h2c.3,0,.5,0,.7-.3.1-.2.2-.4.2-.8,0-.9-.6-2-1.6-2.9-1.4-1.2-3.5-2-6.1-2-4.7,0-7.8,2.2-7.8,5.8s.5,2.3,1.2,3.1c.9,1,2.1,1.6,4,2l3.9,1c1.1.3,2,.6,2,1.6,0,1.5-1.6,2-3.2,2s-1.7-.2-2.4-.5c-.5-.3-.9-.6-1.2-1-.3-.4-.3-.7-.7-.9-.3-.1-.5-.2-.9-.2h-2.1c-.5,0-.7.1-.8.3-.2.2-.2.5-.2.7,0,.7.3,1.6.8,2.3,1.3,1.7,4,3.2,7.5,3.2s8.2-1.4,8.2-6.1-.3-2.2-1-3c-.9-1-2-1.8-4-2.3"/>
  <path class="cls-1" d="M100.8,101c1,1,2.4,1.7,4.7,1.7h1.5c.3,0,.7,0,.8-.3.2-.2.3-.5.3-.9v-1.5c0-.4-.1-.7-.3-.9-.2-.2-.5-.3-.8-.3h-.2c-.9,0-1.6-.3-2-.7-.5-.5-.8-1.2-.8-2.2v-8.2h3.1c.3,0,.7,0,.8-.3.2-.2.3-.5.3-.9v-1.2c0-.4,0-.7-.3-.9-.2-.2-.5-.3-.8-.3h-3.1v-5.6c0-.4-.1-.8-.3-1-.3-.3-.6-.5-1.1-.5h-2c-.5,0-.9.2-1.1.5-.2.3-.3.6-.3,1v5.6h-1c-.3,0-.7,0-.8.3-.2.2-.3.5-.3.9v1.2c0,.4,0,.7.3.9.2.2.5.3.8.3h1v8.6c0,2.2.6,3.6,1.7,4.7"/>
  <path class="cls-1" d="M60.4,23c-2.4,2.9-3.7,5.2-5.8,10.4.3,0,.8,0,1.4,0h.9l.3-.6c1.2-2.5,2.8-6,5-8.6l.8-.9c2.3-2.7,3.7-4.3,4.6-8,.3-1.3.6-2.5,1.4-3.3.8-.7,1.8-1.1,2.8-1.1s1.5.2,2.4.6c.8.3,1.1.4,2,.4s.5,0,.7,0l-1.2,1.6,1.6,1.1c-2,.6-3.1,2.6-3.5,3.5,0,.2,0,.3,0,.4s0,.3.3.3.4-.2.7-.5c1-1.2,1.8-2,5.5-3.2l-2.6-2,2-2.9h-1.8c-1.2,0-2,0-3-.5-1.4-.7-2.1-.9-3.3-.9s-2.9.5-4,1.6c-1.3,1.2-1.7,2.8-2.1,4.5-.3,1.3-.8,2.8-1.7,4.2-.8,1.3-1.4,1.8-3.3,4"/>
  <path class="cls-1" d="M52.5,16.8c.9,1.3,2.4,3.9,3.9,7.3.3-.4,1-1.5,1.3-1.8-1.3-2.7-3.5-5.2-4.4-6.3l-.8.8Z"/>
  <path class="cls-1" d="M72.8,14.5c.5-.3.9-.7.9-1.1s0-.4-.3-.6c-.3-.3-.8-.5-1.1-.5-.9,0-1.3.8-1.3,1.6s.3.9.8.9.6-.2,1-.3"/>
  <path class="cls-1" d="M43.6,22.1c0,.1,0,.3.3.3s.2,0,.4-.1l6.3-2.1-.3-1c-2.6.4-4.4,1.1-6.5,2.7-.1.1-.2.2-.2.3"/>
  <path class="cls-1" d="M45.5,16.5c-4.2,0-6,2-6,3.4-1.3.5-2,1.9-2,3.2,0,2.6,1.9,4.4,4.4,4.4s1.7-.3,2.3-.8c.4.2,1,.3,1.6.3,1.2,0,2.5-.4,3.4-1.8h.4c1.5,0,2.8-1,3.5-2.3.2-.3.3-.6.3-.8s0-.3-.3-.3c-.3,0-.3.2-.7.6-1,.9-2.4,1.2-4,1.2-.7,1.1-1.7,1.7-2.7,1.7s-1.4-.2-2-.6c-.5.6-1.1.8-1.7.8-1.3,0-2.3-1-2.3-2.3s.6-1.8,1.5-2.1c.2-1.7,2-2.9,4.3-2.9s.6,0,.9,0c.3-.6,1.2-1.1,2.4-1.3.3,0,.4,0,.6-.1s.2-.2.2-.3,0-.3-.2-.3c-.1,0-.3,0-.6-.2-1.1-.2-2.4-.9-3-2.5-2.6,0-4.5-2.1-4.5-4.4v-.2c-.9-.3-1.4-1.2-1.4-2.1s1-2.3,2.3-2.3,1.4.4,1.9,1c.3,0,.8-.1,1.2-.1,1.9,0,4,1.2,4.4,3.6,2.5.2,3,2.3,3.2,3.2,0,.4.2.8.4.8s.4-.3.5-.8c.2-.9.5-1.6,1.2-2.1,0-2.3,1.7-4.2,4.1-4.2.3-.8,1.1-1.3,2.1-1.3s2.3,1,2.3,2.3-.3,1.4-.9,1.9c.1.4.2.8.2,1.2,0,1.4-.9,2.4-2.4,3-.2.9-.6,1.7-1.2,2.3-1,1-2.1,1-2.1,1.4s.2.3.6.3c1.9,0,3.8-1,4-2.8,1.8-.6,2.9-2.4,2.9-3.9s0-.7-.2-1c.5-.5,1.1-1.3,1.1-2.5s-.5-2.1-1.3-3c-.7-.7-1.7-1.2-2.9-1.2-1.7,0-2.8.9-3.5,1.8-1.9,0-4.3,2.1-4.3,5.1h-.5c-.2-1-1.2-1.7-2.1-1.8-.7-2.2-2.4-4-5.1-4s-.7,0-1,0c-.8-.7-1.7-1.2-2.9-1.2-2.4,0-4.3,1.9-4.3,4.3s.7,2.5,2,3.4v.3c0,1.9,2,4.8,5.1,4.8,0,.5.6,1.1,1.3,1.3v.3h-.3Z"/>
  <path class="cls-1" d="M59.8,8.2c0-.1-.1-.3-.3-.3s-.3,0-.4.2c-.7.6-1.2,1.1-1.9,1.8-.9,1-1.6,2.3-2.2,3.7l.9.6c.7-1,2.7-4.2,3.7-5.8.1,0,.1-.2.1-.3"/>
  <path class="cls-1" d="M5.3,121.5c.7-.5,1.6-.7,2.6-.7,1.7,0,3,.7,3.9,2.2l.9-.7c-.6-.8-1.2-1.5-2-1.9-.8-.4-1.7-.7-2.7-.7s-2.3.3-3.3.9c-1,.6-1.7,1.4-2.2,2.5-.5,1-.8,2.3-.8,3.6s.3,2.5.8,3.6c.6,1,1.3,1.9,2.4,2.5,1,.6,2.1.9,3.4.9s3-.4,4.4-1.2v-5.8h-4.8v1h3.7v4.2c-.9.5-2,.8-3.1.8s-2-.3-2.8-.7c-.8-.5-1.4-1.2-1.9-2.1s-.7-2-.7-3.1.2-2.2.6-3c.4-.9,1-1.6,1.7-2"/>
  <path class="cls-1" d="M22.4,130.8c-.3.6-.7,1.1-1.1,1.4-.5.3-1,.5-1.7.5s-1.2-.2-1.7-.5c-.5-.3-.9-.8-1.1-1.4-.3-.6-.4-1.3-.4-2.1s.1-1.4.4-2c.3-.6.7-1,1.1-1.4.5-.3,1-.5,1.7-.5s1.2.2,1.7.5c.5.3.9.8,1.1,1.4.3.6.4,1.3.4,2,0,.7,0,1.4-.4,2M21.9,124.4c-.7-.4-1.4-.6-2.3-.6s-1.7.2-2.3.6-1.2,1-1.6,1.7c-.4.7-.6,1.6-.6,2.6s.2,1.8.6,2.6c.3.7.9,1.3,1.6,1.7.7.4,1.4.6,2.3.6s1.7-.2,2.3-.6c.7-.4,1.2-1,1.6-1.7.3-.7.6-1.6.6-2.6s-.2-1.8-.6-2.6-.9-1.3-1.6-1.7"/>
  <path class="cls-1" d="M32.9,130.8c-.3.6-.7,1.1-1.1,1.4-.5.3-1,.5-1.7.5s-1.2-.2-1.7-.5c-.5-.3-.9-.8-1.1-1.4-.3-.6-.4-1.3-.4-2.1s.1-1.4.4-2c.3-.6.7-1,1.1-1.4.5-.3,1-.5,1.7-.5s1.2.2,1.7.5c.5.3.9.8,1.1,1.4.3.6.4,1.3.4,2s-.1,1.4-.4,2M32.4,124.4c-.7-.4-1.4-.6-2.3-.6s-1.7.2-2.3.6c-.7.4-1.2,1-1.6,1.7-.4.7-.6,1.6-.6,2.6s.2,1.8.6,2.6c.3.7.9,1.3,1.6,1.7.7.4,1.4.6,2.3.6s1.7-.2,2.3-.6c.7-.4,1.2-1,1.6-1.7.3-.7.6-1.6.6-2.6s-.2-1.8-.6-2.6-.9-1.3-1.6-1.7"/>
  <path class="cls-1" d="M43.3,130.8c-.3.6-.7,1-1.1,1.4-.5.3-1,.5-1.7.5-1,0-1.7-.3-2.3-1.1-.6-.7-.8-1.7-.8-2.9s.3-2.2.9-2.9,1.3-1,2.3-1,1.2.2,1.7.5c.5.3.8.8,1.1,1.4.3.6.4,1.3.4,2,0,.8-.1,1.5-.4,2M43.7,125.8c-.3-.6-.8-1.1-1.3-1.4-.6-.3-1.3-.5-2-.5s-1.5.2-2.1.6-1.1,1-1.4,1.7c-.3.7-.5,1.6-.5,2.6s.2,1.8.5,2.6c.3.7.8,1.3,1.5,1.7.7.4,1.3.6,2.2.6s1.4-.2,2-.5c.6-.3,1-.8,1.3-1.4v1.8h1.1v-13.5h-1.1v5.8h0Z"/>
  <path class="cls-1" d="M54,120.4c-.5.5-.7,1.1-.7,2v1.6h-1.6v1h1.6v8.4h1.1v-8.4h2.4v-1h-2.4v-1.5c0-.6.2-1,.4-1.3.3-.3.7-.5,1.3-.5s.7,0,1,.2v-1c-.3-.1-.7-.2-1.2-.2-.8,0-1.5.3-2,.7"/>
  <path class="cls-1" d="M65.3,130.8c-.3.6-.7,1.1-1.1,1.4-.5.3-1,.5-1.7.5s-1.2-.2-1.7-.5c-.5-.3-.9-.8-1.1-1.4-.3-.6-.4-1.3-.4-2.1s.1-1.4.4-2c.3-.6.7-1,1.1-1.4.5-.3,1-.5,1.7-.5s1.2.2,1.7.5c.5.3.9.8,1.1,1.4.3.6.4,1.3.4,2s-.1,1.4-.4,2M64.8,124.4c-.7-.4-1.4-.6-2.3-.6s-1.7.2-2.3.6-1.2,1-1.6,1.7c-.4.7-.6,1.6-.6,2.6s.2,1.8.6,2.6c.3.7.9,1.3,1.6,1.7.7.4,1.4.6,2.3.6s1.7-.2,2.3-.6c.7-.4,1.2-1,1.6-1.7.3-.7.6-1.6.6-2.6s-.2-1.8-.6-2.6-.9-1.3-1.6-1.7"/>
  <path class="cls-1" d="M75.8,130.8c-.3.6-.7,1.1-1.1,1.4-.5.3-1,.5-1.7.5s-1.2-.2-1.7-.5c-.5-.3-.9-.8-1.1-1.4-.3-.6-.4-1.3-.4-2.1s.1-1.4.4-2c.3-.6.7-1,1.1-1.4.5-.3,1-.5,1.7-.5s1.2.2,1.7.5c.5.3.9.8,1.1,1.4.3.6.4,1.3.4,2,0,.7-.1,1.4-.4,2M75.3,124.4c-.7-.4-1.4-.6-2.3-.6s-1.7.2-2.3.6-1.2,1-1.6,1.7c-.4.7-.6,1.6-.6,2.6s.2,1.8.6,2.6c.3.7.9,1.3,1.6,1.7.7.4,1.4.6,2.3.6s1.7-.2,2.3-.6c.7-.4,1.2-1,1.6-1.7.3-.7.6-1.6.6-2.6s-.2-1.8-.6-2.6-.9-1.3-1.6-1.7"/>
  <path class="cls-1" d="M86.2,130.8c-.3.6-.7,1-1.1,1.4-.5.3-1,.5-1.7.5-1,0-1.7-.3-2.3-1.1-.6-.7-.8-1.7-.8-2.9s.3-2.2.9-2.9,1.3-1,2.3-1,1.2.2,1.7.5c.5.3.8.8,1.1,1.4.3.6.4,1.3.4,2s-.1,1.5-.4,2M86.6,125.8c-.3-.6-.8-1.1-1.3-1.4-.6-.3-1.3-.5-2-.5s-1.5.2-2.1.6-1.1,1-1.4,1.7c-.3.7-.5,1.6-.5,2.6s.2,1.8.5,2.6c.3.7.8,1.3,1.5,1.7.7.4,1.3.6,2.2.6s1.4-.2,2-.5c.6-.3,1-.8,1.3-1.4v1.8h1.1v-13.5h-1.1v5.8h0Z"/>
  <polygon class="cls-1" points="89.9 135.7 90.9 135.7 92.3 131.6 90.8 131.6 89.9 135.7"/>
  <path class="cls-1" d="M102.8,121.5c.7-.5,1.6-.7,2.6-.7,1.7,0,3,.7,3.9,2.2l.9-.7c-.6-.8-1.2-1.5-2-1.9s-1.7-.7-2.7-.7-2.3.3-3.3.9c-1,.6-1.7,1.4-2.2,2.5s-.8,2.3-.8,3.6.3,2.5.8,3.6c.6,1,1.3,1.9,2.4,2.5,1,.6,2.1.9,3.4.9s3-.4,4.4-1.2v-5.8h-4.9v1h3.7v4.2c-.9.5-2,.8-3.1.8s-2-.3-2.8-.7c-.8-.5-1.4-1.2-1.9-2.1-.5-.9-.7-2-.7-3.1s.2-2.2.6-3c.4-.9,1-1.6,1.8-2"/>
  <path class="cls-1" d="M119.9,130.8c-.3.6-.7,1.1-1.1,1.4-.5.3-1,.5-1.7.5s-1.2-.2-1.7-.5c-.5-.3-.9-.8-1.1-1.4-.3-.6-.4-1.3-.4-2.1s.1-1.4.4-2c.3-.6.7-1,1.1-1.4.5-.3,1-.5,1.7-.5s1.2.2,1.7.5c.5.3.9.8,1.1,1.4.3.6.4,1.3.4,2s-.1,1.4-.4,2M119.4,124.4c-.7-.4-1.4-.6-2.3-.6s-1.7.2-2.3.6-1.2,1-1.6,1.7-.6,1.6-.6,2.6.2,1.8.6,2.6c.3.7.9,1.3,1.6,1.7.7.4,1.4.6,2.3.6s1.7-.2,2.3-.6c.7-.4,1.2-1,1.6-1.7.3-.7.6-1.6.6-2.6s-.2-1.8-.6-2.6-.9-1.3-1.6-1.7"/>
  <path class="cls-1" d="M130.4,130.8c-.3.6-.7,1.1-1.1,1.4-.5.3-1,.5-1.7.5s-1.2-.2-1.7-.5c-.5-.3-.9-.8-1.1-1.4-.3-.6-.4-1.3-.4-2.1s.1-1.4.4-2c.3-.6.7-1,1.1-1.4.5-.3,1-.5,1.7-.5s1.2.2,1.7.5c.5.3.9.8,1.1,1.4.3.6.4,1.3.4,2,0,.7-.1,1.4-.4,2M129.9,124.4c-.7-.4-1.4-.6-2.3-.6s-1.7.2-2.3.6-1.2,1-1.6,1.7-.6,1.6-.6,2.6.2,1.8.6,2.6c.3.7.9,1.3,1.6,1.7.7.4,1.4.6,2.3.6s1.7-.2,2.3-.6c.7-.4,1.2-1,1.6-1.7.3-.7.6-1.6.6-2.6s-.2-1.8-.6-2.6c-.4-.7-.9-1.3-1.6-1.7"/>
  <path class="cls-1" d="M140.8,130.8c-.3.6-.7,1-1.1,1.4-.5.3-1,.5-1.7.5-1,0-1.7-.3-2.3-1.1-.6-.7-.8-1.7-.8-2.9s.3-2.2.9-2.9,1.3-1,2.3-1,1.2.2,1.7.5c.5.3.8.8,1.1,1.4.3.6.4,1.3.4,2s-.1,1.5-.4,2M141.2,125.8c-.3-.6-.8-1.1-1.3-1.4-.6-.3-1.3-.5-2-.5s-1.5.2-2.1.6-1.1,1-1.4,1.7c-.3.7-.5,1.6-.5,2.6s.2,1.8.5,2.6c.3.7.8,1.3,1.5,1.7.7.4,1.3.6,2.2.6s1.4-.2,2-.5c.6-.3,1-.8,1.3-1.4v1.8h1.1v-13.5h-1.1v5.8h0Z"/>
  <polygon class="cls-1" points="150.4 126.7 150.4 133.4 151.5 133.4 151.5 126.7 151.5 119.9 150.4 119.9 150.4 126.7"/>
  <path class="cls-1" d="M155.1,120.5c-.2,0-.4,0-.6.2s-.2.3-.2.6,0,.4.2.6.3.2.6.2.4,0,.6-.2c.2-.2.3-.3.3-.6s0-.4-.3-.6c-.1-.2-.3-.2-.6-.2"/>
  <polygon class="cls-1" points="154.5 128.7 154.5 133.4 155.7 133.4 155.7 128.7 155.7 124 154.5 124 154.5 128.7"/>
  <path class="cls-1" d="M159.8,120.4c-.5.5-.7,1.1-.7,2v1.6h-1.6v1h1.6v8.4h1.1v-8.4h2.4v-1h-2.4v-1.5c0-.6.1-1,.4-1.3s.7-.5,1.3-.5.7,0,1,.2v-1c-.3-.1-.7-.2-1.2-.2-.8,0-1.5.3-2,.7"/>
  <path class="cls-1" d="M164.3,127.8c.1-1,.4-1.7,1-2.3s1.2-.8,2.1-.8,1.6.3,2,.8c.5.5.7,1.3.8,2.3h-5.9ZM171.4,128.3c0-1.4-.3-2.5-1.1-3.3-.7-.8-1.7-1.2-2.9-1.2s-1.6.2-2.3.6-1.2,1-1.5,1.7c-.3.7-.5,1.6-.5,2.6s.2,1.8.6,2.6c.4.7.9,1.3,1.6,1.7.7.4,1.5.6,2.4.6s1.5-.2,2.1-.5,1.2-.8,1.6-1.3l-.8-.7c-.4.5-.8.9-1.3,1.1-.5.3-1,.4-1.7.4-1,0-1.8-.3-2.4-1s-.9-1.6-.9-2.8h7.1c0,0,0-.3,0-.4"/>
</svg>