<?xml version="1.0" encoding="utf-8"?>
<!-- Generator: Adobe Illustrator 26.3.1, SVG Export Plug-In . SVG Version: 6.00 Build 0)  -->
<svg version="1.1" id="Layer_1" xmlns="http://www.w3.org/2000/svg" xmlns:xlink="http://www.w3.org/1999/xlink" x="0px" y="0px"
	 viewBox="0 0 395 306" style="enable-background:new 0 0 395 306;" xml:space="preserve">
<style type="text/css">
	.st0{fill:#64523E;}
</style>
<g>
	<path class="st0" d="M290.6,39.7c4.7-2,13.2-5.4,18.1-7.2v-4.8c-9.8,3.6-27.1,10.8-38.9,17.2c0.3,0.4,2.4,3.3,2.6,3.6
		c5-2.1,9.4-3.4,13.5-3.4c5.6,0,10.3,0,18-1.8v-3.6c-4.3,0.8-9,1.7-12,1.7c-1.8,0-2.3-0.2-2.3-0.8C289.7,40.2,289.9,39.9,290.6,39.7
		"/>
	<path class="st0" d="M175.7,87.1c3.4-1.6,8.9-2.4,11.6-2.4c2.5,0,5.1,0.3,7.4,0.6c2.7,0.4,5.8,0.8,9.1,0.8c7.4,0,14.7-3.9,15.8-4.7
		c-0.9-0.8-2.1-1.9-2.7-2.7c-2.4,1-7.8,3-13.2,3c-2.7,0-4.9-0.2-7.4-0.6c-3.1-0.4-6-0.8-8.5-0.8c-4.1,0-9.3,0.4-14.3,3.9L175.7,87.1
		z"/>
	<path class="st0" d="M176.1,48.8c-0.7-0.5-1.5-0.7-2.3-0.7c-1.7,0-2.3,1-2.6,2c-0.2,0.5-0.2,0.9-0.2,1.3c0,1.4,0.6,2.4,1.7,2.4
		c1.4,0,4.3-2,4.3-3.7C177,49.7,176.7,49.2,176.1,48.8"/>
	<path class="st0" d="M236.6,93.2c-1.1-0.7-2.7-1.7-3.5-2.2c-4.1,1.8-8.1,5.3-11.5,8.9c-7.9,8.2-7.2,13-15.5,16.2
		c-2.1,0.8-4.7,1.7-7.9,2.4c-1.9-6-6.8-11.9-11.9-11.9c-3.6,0-7.7,1.9-12.4,3.9c-5.6,2.4-10.7,5.3-12.3,6.3l2.2,2.9
		c1.7-0.9,6.4-3.3,11.2-5.3c4.1-1.8,7.9-3.2,10.4-3.2c4.1,0,6.7,4.6,8.2,8.3c-5.3,1.3-14.1,1.6-16.7,1.6c-1.2,0-1.7,0.2-2.1,0.6
		c-0.4,0.4-0.7,1-0.9,1.9l-0.3,1.3h2.8c14.8,0,28.7-2.3,37.7-7.8c1.3,0.4,2.4,0.6,3.8,0.6c5.1,0,10.4-2.8,13.7-5.4
		c1.2-0.9,1.5-1.7,1.5-2.6c0-0.4,0-0.8-0.1-1.2l-0.2-1.5c-4.7,3.8-8.7,6.6-13.6,6.6c-0.9,0-1.5-0.1-2-0.2
		C221.9,105.5,226.2,98.7,236.6,93.2"/>
	<path class="st0" d="M283.4,100.8l1.9,1.3c0.3,0.2,0.5,0.3,0.7,0.3c0.4,0,0.7-0.4,0.7-0.7c0-0.2-0.1-0.4-0.3-0.6
		c-5.8-5.3-12-11.7-17.8-17.8c-4.5-4.9-9.2-10-13.3-15.2c-0.3-0.4-0.5-0.5-0.8-0.5c-0.5,0-0.7,0.3-0.7,0.7c0,0.6,0.4,1.2,1.4,2.9
		c3,5.1,6.7,10.2,11.3,15C271.4,91.5,277.2,96.4,283.4,100.8"/>
	<path class="st0" d="M168.8,84l-2.3-3c-8.8,3.4-18.7,8.9-18.7,14.5c0,3.2,2.4,5.7,7.7,5.7c7.8,0,16.1-3.9,22.8-7.6l-0.9-1.3
		c-0.6-0.8-1-1-1.8-1c-0.5,0-1,0.2-1.4,0.4c-5.7,2.8-11.9,5.6-17.7,5.6c-3.3,0-4.1-1-4.1-2.4C152.3,90.9,163.3,86.2,168.8,84"/>
	<path class="st0" d="M205.3,102.2c-3.4,0-3-5.7-3.3-10.3c-11.8,1.1-19.3,4.7-27.4,9l0.9,3.6c7.4-4.4,14.5-6.9,22-7.7
		c0.1,4.3,1.9,10.2,6.9,10.2c5.3,0,11.7-8.3,19.3-18l2-2.6c-1-0.8-2.2-1.5-2.9-2.2C215.1,94.2,208.4,102.2,205.3,102.2"/>
	<polygon class="st0" points="206.2,61.9 189.4,61.9 187.5,65.5 207.7,65.5 	"/>
	<path class="st0" d="M189.2,32.3c4.1-0.9,7.1-1.6,11.1-1.6c3.5,0,6,0.8,7.1,3c2.1,4.1,2.1,16.5,5.5,25.9c3.2,8.8,11.1,17.4,20,24
		c0.1,0.1,0.2,0.1,0.4,0.1c0.4,0,0.7-0.3,0.7-0.6c0-0.2-0.1-0.4-0.3-0.6c-7.4-7.4-13.5-15.6-16.7-24.6c-3.2-8.8-2.7-21.1-5.5-26.6
		c-1.9-3.6-5.8-4.6-9.4-4.6c-2.9,0-5.6,0.6-6.9,0.9l3.2-5.4H193c1.1-2,2.3-3.9,2.9-5c0.5-0.9,0.7-2.1,1.3-3.8
		c2.1-5.2,6.6-8.4,12.5-8.4c7.4,0,11.8,4.8,16.1,9.6c2,2.2,5.2,6.8,9,10.3c2.6,2.4,7.5,5,15,12.8c4.3,4.5,9.4,10.3,14.7,18.2
		c19.1,27.9,31.6,52.5,38.6,71.7l-0.1,0.1c-20-13.6-37.4-26.4-51.3-42.3c-9.9-11.3-18.5-24.3-26-40.9c-0.5-1.1-0.9-2.1-1.4-3.2
		c-0.2-0.4-0.4-0.6-0.7-0.6c-0.4,0-0.7,0.3-0.7,0.7c0,0.4,0.2,1.4,0.6,3.3c4,17.2,15,32.7,26.8,45.5c11.8,12.8,25.1,23.7,36,31.7
		l8.5,24.4c0.2,0.6,0.4,1.2,0.4,1.8c0,0.4-0.1,0.8-0.4,1c-0.2,0.2-0.6,0.4-1.3,0.4h-2.6c-1.1,0-1.5-0.2-1.9-0.5
		c-0.4-0.3-0.7-0.8-0.9-1.3c-0.8-2.3-5.3-15.1-6.1-17.7c-0.2-0.5-0.4-0.6-0.7-0.6c-0.4,0-0.7,0.3-0.7,0.7c0,0.3,0.1,0.7,0.3,1.8
		c1.1,5.8,2.5,12.4,3,14.9c0.2,1.1,0.5,2.2,0.5,3c0,0.7-0.2,1.1-0.7,1.7l-2.6,2.7c-0.6,0.6-1,0.8-1.5,0.8c-0.6,0-1.1-0.4-1.4-1.5
		c-3-14-7.5-31.4-8.7-36.2c-0.3-1.1-0.5-1.7-1.1-1.7c-0.6,0-0.7,0.4-0.7,0.9c0,0.4,0.1,0.8,0.1,1.1c0.7,5,3.6,23.1,6.7,39.6
		c0.6,2.8,1.6,4.4,4.1,4.4c1.1,0,2.2-0.4,3.2-1.4c1.6-1.6,2.1-2.1,4-3.9c1.4-1.3,2.3-1.9,4.7-1.9h5.8c1.4,0,2.1-0.4,2.8-1
		c0.6-0.6,1-1.4,1-2.6c0-1.2-0.3-2.2-0.7-3.4c-1.5-4-6.3-17.7-7.7-21.5l0.1-0.1c4.9,3.8,12.1,8.5,15.3,8.5c1,0,1.6-0.4,1.6-2
		c0-7.3-12.1-37.2-39.7-78.3c-14.7-21.9-27.6-29.3-31.2-32.8c-4-3.8-7-8.2-9-10.3c-4.3-4.7-9.9-10.5-19-10.5
		c-8.8,0-14.7,5.8-16.6,10.7c-0.6,1.4-1,3.2-1.4,3.8c-0.9,1.4-4.8,8.1-6.4,10.7h7.3L189.2,32.3z"/>
	<path class="st0" d="M271.2,21.1h0.6c0,0.3,0,0.6,0,0.9c0,4.5,2.3,7.8,7.9,7.8c3.5,0,8.9-1.7,14.1-3.5c4.3-1.5,8.2-3,10.1-3.5v-4.7
		c-2.2,0.7-6.7,2.4-11.4,4c-4.9,1.7-9.7,3.2-12.5,3.2c-3.1,0-3.9-1.7-3.9-4.1c0-5,3.1-12.1,5.1-16.2h-4.8
		c-2.5,4.8-12.3,20.3-17.6,26.7l3,3.3C264.7,31.8,267.8,26.4,271.2,21.1"/>
	<path class="st0" d="M304.8,171.3c-0.6,0-1.3,0.1-2.3,0.2l-31.5,3.1c-0.9,0.1-1.3,0.4-1.7,0.7c-0.4,0.4-0.5,0.9-0.5,1.6v2.1
		c0,0.8,0.2,1.1,0.4,1.5c0.4,0.4,0.9,0.6,1.6,0.6h34c0.8,0,1.5-0.2,1.9-0.6c0.5-0.5,0.7-1.1,0.7-2.1v-3.7c0-1.4-0.3-2.1-0.7-2.6
		C306.3,171.6,305.6,171.3,304.8,171.3"/>
	<path class="st0" d="M125.8,143c-2.6,1.5-5.9,2.2-8.8,2.2c-1.2,0-1.8,0.2-2.2,0.7c-0.5,0.5-0.7,1.2-0.7,2.2v1.4h1
		c5.3,0,10.2-0.8,15.6-5.1l17.5-13.7c2.5,2.8,8.8,6.8,16.2,6.8c4.2,0,6.9-1,10.7-2c3-0.8,5.9-1.4,12.3-1.4h18.5
		c9.5,0,14.1-2,19.1-4.8c11-6.2,20.3-16.6,25.6-28.6c-1.4-0.9-2.7-1.7-3.8-2.4c-5.9,12.5-14.9,21.6-24.2,26.8
		c-4.4,2.5-8.3,4.1-16.9,4.1h-18.4c-6.6,0-10.7,0.9-14,1.7c-3.5,0.9-5.7,1.8-9.2,1.8c-5.2,0-10-2.6-12.4-5l4.3-3.4l-2.2-2.9
		c-1.3,0.9-16.7,12.3-19.9,14.9l-0.2-0.1c0.1-0.8,0.1-1.5,0.1-2.2c0-8.7-4-10.8-10.1-13.2l-4.1,2.4c8.4,2.8,10.5,5.1,10.5,11.3
		C130.2,139.5,128.4,141.5,125.8,143"/>
	<path class="st0" d="M122.4,98.7l0.3,1.7c0.1,0.7,0.4,1.3,1,1.6c0.7,0.4,1.7,0.4,3.5,0.4c4.5,0,7.8-0.6,9.7-1
		c4.9,7.2,11.5,10,18,10c5.5,0,11.1-2,16.4-4.9l-1-3.6c-5.2,2.9-10.6,4.9-15.4,4.9c-5.3,0-10.1-2.3-14-8.3c-1.7-2.5-3-5.7-4.5-8.5
		c-1.9-3.3-3.9-5.1-7.5-5.1c-3.3,0-6.5,1.3-9.9,2.8l0.2,0.8c0.3,1.2,0.7,2.1,1.9,2.1c0.5,0,1-0.2,1.3-0.3c1.9-0.6,3.3-1.1,5.2-1.1
		c3,0,4.4,1.7,6.4,6l0.8,1.6c-2.1,0.7-6.9,1.1-10.5,1.1H122.4z"/>
	<path class="st0" d="M205.1,11.7c-2.6,0-3.3,2.5-3.3,3.9c0,1.1,0.4,2.4,1.8,2.4c1.1,0,2.6-0.8,3.7-1.7c1.1-0.9,1.8-1.6,1.8-2.3
		c0-0.7-0.6-1.3-1.6-1.7C206.8,11.9,206,11.7,205.1,11.7"/>
	<path class="st0" d="M261.2,229.8c0.5-0.6,0.8-1.3,0.8-2.4v-51.7c0-1-0.3-1.8-0.8-2.4c-0.6-0.7-1.4-1.1-2.6-1.1h-4.7
		c-1.2,0-2.1,0.4-2.6,1.1c-0.5,0.6-0.8,1.3-0.8,2.4v51.7c0,1,0.3,1.8,0.8,2.4c0.6,0.7,1.4,1.1,2.6,1.1h4.7
		C259.8,230.9,260.6,230.5,261.2,229.8"/>
	<path class="st0" d="M88.8,230.9h3.7c1.5,0,2.4-0.5,3.1-1.3c0.6-0.7,0.9-1.4,0.9-2.7v-36.7h0.2c0,0,20.4,36.1,21.2,37.4
		c1.1,1.9,3.1,3.3,5.8,3.3h6.3c1.5,0,2.4-0.5,3.1-1.3c0.6-0.7,0.9-1.4,0.9-2.7V181h82.5c0.8,0,1.5-0.2,1.9-0.6
		c0.5-0.5,0.7-1.1,0.7-2.1v-3.5c0-0.9-0.2-1.6-0.7-2.1c-0.5-0.4-1.1-0.6-1.9-0.6h-90c-1.5,0-2.4,0.5-3.1,1.3
		c-0.6,0.7-0.9,1.4-0.9,2.7v35.9h-0.2c0,0-19.6-35-20.6-36.6c-0.7-1.1-1.4-1.9-2.4-2.5c-1-0.6-2-0.9-4-0.9h-6.5
		c-1.5,0-2.4,0.5-3.1,1.3c-0.6,0.7-0.9,1.4-0.9,2.7v50.8c0,1.3,0.3,2.1,0.9,2.7C86.3,230.4,87.3,230.9,88.8,230.9"/>
	<path class="st0" d="M149.5,204.4c0.5-4.9,4.2-8.5,9.9-8.5c5.5,0,9.4,3.6,9.9,8.5H149.5z M179.6,211.9c0.7-0.6,1-1.5,1-3.2
		c0-5.2-1.6-10.5-5-14.7c-3.5-4.1-8.8-6.9-16.2-6.9c-13.7,0-21.4,10.7-21.4,22c0,12,8.3,22.6,21.5,22.6c6.6,0,13.1-2.5,16.8-6.9
		c1.6-1.9,2.9-4.5,2.9-6.2c0-0.6-0.1-1-0.4-1.4c-0.3-0.4-0.8-0.6-1.6-0.6h-6.4c-1.3,0-2.1,0.5-2.8,1.4c-1.9,2.7-4.5,4.1-8.5,4.1
		c-5.9,0-9.8-4.5-10-9.4h27.5C178.1,212.8,179,212.5,179.6,211.9"/>
	<path class="st0" d="M107.7,17.7c-2.2-1.7-4.7-3.1-7.6-4.3c-0.2-0.1-0.4-0.1-0.5-0.1c-0.4,0-0.6,0.3-0.6,0.6c0,0.2,0.1,0.4,0.4,0.8
		c3.4,2.9,10.1,8.5,12.1,10.2l1.7-1.9C111.3,20.9,109.5,19.1,107.7,17.7"/>
	<path class="st0" d="M86.4,137c3,0,3.3-1.8,3.3-3.5c0-1.1,0-2.4,0-3.9c0-3.3,0.2-6.2,5.4-8.6c2.1-0.9,12.6-5.2,20.4-8.5
		c2.3-1,4.4-1.8,6.8-1.8c2.6,0,5.7,1.1,9.5,3.4c3.2,1.9,6.6,4.5,9.2,7.4l3.4-2.6c-2.9-3.4-6.9-6.4-10.9-8.8c-4-2.4-7.5-3.8-10.5-3.8
		c-1.3,0-2.4,0.2-3.3,0.5c-1.1,0.3-2.1,0.6-3.3,0.6c-1.5,0-2.7-0.4-4.5-2.4c-0.7-0.7-4.9-5.6-5.8-7c-0.4-0.7-1.2-2-1.2-3.6
		c0-0.7,0.1-1.5,0.5-2.2c3.7,2.8,8.2,4.6,13.7,5.3l-0.7-3.8c-7.9-2.1-16.4-9.1-16.4-13.6c0-0.9,0.2-1.6,0.6-2.4
		c3.1,2.8,10.3,5.8,14.2,5.8c2.1,0,3.9-0.7,5.5-1.4c1.6-0.6,3.2-1.3,5.3-1.3c5.1,0,11.3,2.4,16.8,4.8c0.3,0.1,0.7,0.2,1,0.2
		c0.9,0,1.5-0.4,2-1.2l0.7-1.3c-6-3.5-15.7-7.3-20.7-7.3c-2.3,0-3.9,0.6-5.5,1.2c-1.8,0.7-3.3,1.5-4.9,1.5c-4,0-14.2-3.9-14.2-7.8
		c0-4.5,16.3-6.2,18-6.2l1.6-3.7c-11.8,0-25.9,4.1-25.9,9.6c0,1.6,0.9,2.4,0.9,3.8c0,2-0.9,3.3-0.9,5.5c0,1.5,0.9,3.3,1.9,4.9
		c1.1,1.7,2.4,2.8,2.4,4.2c0,1.1-0.7,2.3-0.7,4.8c0,5.3,3,8.6,9,14.9l1.2,1.3c-4.9,1.9-14,5.8-16.1,6.8c-7.4,3.1-9.2,6.8-9.2,12.8
		c0,2.3,0,4.9,0.2,7.2H86.4z"/>
	<path class="st0" d="M287.4,195.9c5.5,0,9.4,3.6,9.9,8.5h-19.7C278,199.5,281.8,195.9,287.4,195.9 M306.7,217.3
		c-0.3-0.4-0.8-0.6-1.6-0.6h-6.4c-1.3,0-2.1,0.5-2.8,1.4c-1.9,2.7-4.5,4.1-8.5,4.1c-5.9,0-9.8-4.5-10-9.4H305c1.2,0,2.1-0.3,2.7-0.9
		c0.7-0.6,1-1.5,1-3.2c0-5.2-1.6-10.5-5-14.7c-3.5-4.1-8.8-7-16.3-7c-13.7,0-21.4,10.7-21.4,22c0,12,8.3,22.6,21.5,22.6
		c6.6,0,13.1-2.5,16.8-6.9c1.6-1.9,2.9-4.5,2.9-6.2C307.1,218.1,307,217.6,306.7,217.3"/>
	<path class="st0" d="M175.7,40.7c-1.1-0.3-2.4-0.5-4.1-0.5c-3.1,0-6.5,1.2-8.8,3.4c-4.2,4-4.4,8.3-4.7,12.1
		c-0.4,5.1-1.3,6.4-4.1,10.1c-2.3,3-5.3,7-7.7,11.3c0.8,0.4,3.2,1.7,4.1,2.2c2.7-4.1,6.5-9.2,9-13c2.2-3.5,3.2-5,3.3-9.6
		c0-0.8,0-1.5,0.1-2.3c0.2-2.4,0.8-4.9,3.1-7.1c1.7-1.7,4.1-2.6,6.6-2.6c2.4,0,3.8,0.7,5.8,0.7c1.5,0,2.5-0.4,3.5-0.7l0.8-0.3
		l-1.8,4.3l4.3,1.7c-2.7,1.7-8.7,9-8.7,17.7c0,3.1,0.5,6,1.1,8.6c0.1,0.3,0.2,0.6,0.7,0.6c0.4,0,0.7-0.2,0.7-0.7l0-0.9
		c0.1-2.6,0.3-6.8,1.4-10.6c1.8-6.3,6.6-12.2,11.3-15.1l-6.8-3l2.9-7.1l-3.2,0.7c-1.9,0.4-3.4,0.7-5.1,0.7
		C178.4,41.2,177.2,41.1,175.7,40.7"/>
	<path class="st0" d="M209.5,205.7l-9-2.3c-3.7-0.9-5.4-1.6-5.4-3.9c0-2.2,2-4,6.6-4c2.7,0,5.1,0.6,6.7,2.3c1.3,1.4,1.1,2.1,2.1,2.6
		c0.6,0.3,1.3,0.3,2.4,0.3h4.5c0.7,0,1.2-0.1,1.6-0.6c0.3-0.4,0.5-0.9,0.5-1.8c0-2.1-1.3-4.7-3.7-6.7c-3.2-2.7-8.1-4.5-14.1-4.5
		c-10.8,0-17.9,5.1-17.9,13.3c0,2.9,1.1,5.3,2.8,7.1c2,2.2,4.9,3.7,9.1,4.7l9,2.3c2.5,0.6,4.7,1.4,4.7,3.6c0,3.4-3.6,4.5-7.3,4.5
		c-1.9,0-3.8-0.4-5.4-1.1c-1.1-0.6-2.1-1.3-2.7-2.4c-0.6-0.9-0.8-1.6-1.7-2.1c-0.6-0.3-1.2-0.4-2.1-0.4h-4.9c-1.1,0-1.6,0.3-1.9,0.8
		c-0.4,0.4-0.5,1.1-0.5,1.7c0,1.6,0.6,3.6,1.9,5.3c3,4,9.3,7.3,17.3,7.3c7.9,0,18.8-3.3,18.8-13.9c0-2.7-0.8-5.1-2.2-6.9
		C216.7,208.5,214,206.8,209.5,205.7"/>
	<path class="st0" d="M230.2,227.1c2.4,2.3,5.4,3.8,10.8,3.8h3.4c0.8,0,1.5-0.2,1.9-0.6c0.5-0.5,0.8-1.1,0.8-2.1v-3.4
		c0-0.9-0.3-1.6-0.8-2.1c-0.5-0.4-1.1-0.6-1.9-0.6h-0.5c-2.1,0-3.6-0.6-4.6-1.5c-1.2-1.1-1.8-2.8-1.8-5v-18.9h7.2
		c0.8,0,1.5-0.2,1.9-0.6c0.5-0.5,0.8-1.1,0.8-2.1v-2.7c0-0.9-0.2-1.6-0.8-2.1c-0.5-0.4-1.1-0.6-1.9-0.6h-7.1v-12.9
		c0-1-0.3-1.8-0.8-2.4c-0.6-0.7-1.4-1.1-2.6-1.1h-4.5c-1.2,0-2.1,0.4-2.6,1.1c-0.5,0.6-0.8,1.3-0.8,2.4v12.9h-2.2
		c-0.8,0-1.5,0.2-1.9,0.6c-0.5,0.5-0.7,1.1-0.7,2.1v2.7c0,0.9,0.2,1.6,0.7,2.1c0.5,0.4,1.1,0.6,1.9,0.6h2.2v19.7
		C226.3,221.4,227.7,224.6,230.2,227.1"/>
	<path class="st0" d="M137.5,47.8c-5.6,6.6-8.5,11.9-13.3,23.8c0.8-0.1,1.9-0.2,3.2-0.2c0.6,0,1.1,0,2,0l0.6-1.3
		c2.7-5.8,6.4-13.7,11.5-19.8l1.8-2.1c5.3-6.2,8.6-9.9,10.6-18.3c0.7-3,1.3-5.7,3.3-7.6c1.8-1.7,4.1-2.5,6.4-2.5
		c2,0,3.4,0.5,5.6,1.4c1.9,0.8,2.6,1,4.7,1c0.7,0,1.2,0,1.7-0.1l-2.8,3.7l3.7,2.6c-4.7,1.4-7.2,5.9-8,8c-0.2,0.4-0.2,0.7-0.2,1
		c0,0.3,0.2,0.6,0.6,0.6c0.5,0,0.9-0.4,1.6-1.2c2.3-2.8,4.1-4.7,12.6-7.3l-6-4.5l4.5-6.6h-4.2c-2.7,0-4.5,0-6.8-1.1
		c-3.2-1.5-4.8-2.1-7.6-2.1c-3.4,0-6.6,1.2-9.1,3.6c-3,2.7-3.9,6.4-4.9,10.3c-0.8,3.1-1.8,6.5-4,9.6
		C143.1,41.6,141.7,42.9,137.5,47.8"/>
	<path class="st0" d="M119.4,33.6c2.1,3,5.6,8.9,8.9,16.7c0.6-1,2.4-3.4,3.1-4.1c-3-6.2-8-12-10.2-14.4L119.4,33.6z"/>
	<path class="st0" d="M166.1,28.4c1.1-0.6,2-1.5,2-2.5c0-0.4-0.2-0.9-0.6-1.3c-0.7-0.7-1.8-1.1-2.6-1.1c-2,0-3,1.9-3,3.6
		c0,1.3,0.6,2.1,1.9,2.1C164.4,29.2,165.2,28.8,166.1,28.4"/>
	<path class="st0" d="M98.9,45.9c0,0.3,0.2,0.6,0.6,0.6c0.3,0,0.5-0.1,1-0.3l14.5-4.9l-0.7-2.4c-5.9,1-10.1,2.5-15,6.3
		C99,45.5,98.9,45.6,98.9,45.9"/>
	<path class="st0" d="M103.3,33c-9.7,0-13.8,4.7-13.8,7.8c-2.9,1.2-4.7,4.4-4.7,7.3c0,5.9,4.3,10.1,10,10.1c1.9,0,3.8-0.8,5.2-1.8
		c1,0.4,2.2,0.6,3.6,0.6c2.7,0,5.8-0.9,7.9-4.1c0.3,0,0.6,0,0.9,0c3.5,0,6.5-2.3,8.1-5.3c0.4-0.7,0.6-1.3,0.6-1.8
		c0-0.4-0.2-0.8-0.6-0.8c-0.6,0-0.6,0.5-1.6,1.4c-2.2,2-5.6,2.8-9.1,2.8c-1.7,2.5-3.8,3.8-6.2,3.8c-1.8,0-3.2-0.5-4.6-1.4
		c-1.1,1.3-2.6,1.8-3.9,1.8c-3.1,0-5.3-2.2-5.3-5.3c0-2.2,1.4-4.2,3.4-4.9c0.4-3.9,4.5-6.6,9.8-6.6c0.7,0,1.3,0,2.1,0.1
		c0.8-1.3,2.7-2.6,5.4-3c0.6-0.1,1-0.1,1.3-0.3c0.3-0.2,0.5-0.5,0.5-0.8c0-0.3-0.1-0.6-0.4-0.8c-0.3-0.2-0.7-0.2-1.3-0.4
		c-2.5-0.5-5.4-2-6.9-5.8c-6,0-10.3-4.8-10.3-10.1v-0.4c-2-0.8-3.3-2.7-3.3-4.9c0-3,2.3-5.3,5.3-5.3c1.8,0,3.3,0.9,4.3,2.2
		c0.8-0.2,1.8-0.3,2.7-0.3c4.4,0,9.2,2.8,10.1,8.3c5.7,0.5,7,5.3,7.4,7.3c0.2,1,0.4,1.9,1,1.9c0.7,0,0.9-0.8,1.1-1.9
		c0.4-2,1.2-3.6,2.7-4.9c0-5.2,3.9-9.6,9.4-9.6c0.8-1.8,2.6-3.1,4.8-3.1c3,0,5.3,2.3,5.3,5.3c0,1.8-0.8,3.3-2.1,4.3
		c0.3,1,0.5,1.9,0.5,2.8c0,3.3-2,5.6-5.6,6.9c-0.5,2-1.3,3.8-2.8,5.2c-2.4,2.3-4.8,2.3-4.8,3.2c0,0.5,0.4,0.8,1.3,0.8
		c4.4,0,8.7-2.4,9.2-6.5c4.2-1.4,6.7-5.6,6.7-9c0-0.9-0.1-1.6-0.4-2.3c1.1-1.1,2.5-3,2.5-5.8c0-2.4-1.1-4.9-3-6.8
		c-1.7-1.6-4-2.7-6.7-2.7c-3.9,0-6.5,2.1-8,4.2c-4.3,0-9.9,4.8-9.9,11.6H120c-0.4-2.4-2.8-3.9-4.9-4.1c-1.7-5-5.4-9.2-11.6-9.2
		c-0.7,0-1.6,0-2.3,0.2c-1.8-1.7-3.8-2.7-6.6-2.7c-5.4,0-9.8,4.3-9.8,9.8c0,3.4,1.5,5.7,4.5,7.8c0,0,0,0.4,0,0.6
		c0,4.3,4.7,11.1,11.8,11.1c0,1.1,1.4,2.6,2.9,2.9V33H103.3z"/>
	<path class="st0" d="M136.1,13.9c0-0.3-0.3-0.6-0.7-0.6c-0.4,0-0.6,0.2-0.9,0.5c-1.5,1.3-2.8,2.6-4.3,4.2c-2,2.3-3.7,5.3-5.1,8.5
		l2.1,1.3c1.5-2.2,6.2-9.6,8.6-13.3C136.1,14.3,136.1,14.1,136.1,13.9"/>
	<path class="st0" d="M11,274.1c1.7-1.1,3.7-1.7,6-1.7c3.8,0,6.8,1.7,8.9,5.1l2.1-1.6c-1.3-1.9-2.8-3.4-4.7-4.4
		c-1.9-1-4-1.5-6.3-1.5c-2.8,0-5.3,0.7-7.5,2c-2.2,1.4-3.9,3.3-5.1,5.7c-1.2,2.4-1.8,5.2-1.8,8.3c0,3.1,0.6,5.8,1.9,8.2
		c1.3,2.4,3.1,4.3,5.4,5.7c2.3,1.4,4.9,2,7.9,2c3.6,0,7-0.9,10.1-2.8v-13.4H16.8v2.3h8.4v9.7c-2.1,1.2-4.5,1.8-7.2,1.8
		c-2.4,0-4.6-0.6-6.4-1.7c-1.9-1.2-3.3-2.8-4.4-4.9c-1.1-2.1-1.6-4.5-1.6-7.1c0-2.6,0.5-5,1.4-7C8,276.8,9.3,275.2,11,274.1"/>
	<path class="st0" d="M50.2,295.4c-0.6,1.4-1.5,2.5-2.6,3.2c-1.1,0.8-2.4,1.2-3.9,1.2s-2.7-0.4-3.8-1.1c-1.1-0.8-2-1.8-2.6-3.2
		c-0.6-1.4-0.9-3-0.9-4.8c0-1.8,0.3-3.3,0.9-4.7c0.6-1.4,1.5-2.4,2.6-3.2c1.1-0.8,2.4-1.1,3.8-1.1s2.7,0.4,3.9,1.1
		c1.1,0.7,2,1.8,2.6,3.2c0.6,1.4,0.9,2.9,0.9,4.7C51.2,292.4,50.9,294,50.2,295.4 M49.1,280.8c-1.5-0.9-3.3-1.4-5.3-1.4
		s-3.8,0.5-5.3,1.4c-1.5,0.9-2.7,2.3-3.6,4c-0.9,1.7-1.3,3.7-1.3,5.9c0,2.2,0.4,4.2,1.3,5.9c0.8,1.7,2,3,3.6,4
		c1.5,0.9,3.3,1.4,5.3,1.4c2,0,3.8-0.5,5.3-1.4c1.5-1,2.7-2.3,3.6-4c0.8-1.7,1.3-3.7,1.3-5.9c0-2.2-0.4-4.2-1.3-5.9
		C51.8,283.1,50.7,281.7,49.1,280.8"/>
	<path class="st0" d="M74.4,295.4c-0.6,1.4-1.5,2.5-2.6,3.2c-1.1,0.8-2.4,1.2-3.9,1.2c-1.5,0-2.7-0.4-3.8-1.1
		c-1.1-0.8-2-1.8-2.6-3.2c-0.6-1.4-0.9-3-0.9-4.8c0-1.8,0.3-3.3,0.9-4.7c0.6-1.4,1.5-2.4,2.6-3.2c1.1-0.8,2.4-1.1,3.8-1.1
		c1.5,0,2.7,0.4,3.9,1.1c1.1,0.7,2,1.8,2.6,3.2c0.6,1.4,0.9,2.9,0.9,4.7C75.3,292.4,75,294,74.4,295.4 M73.3,280.8
		c-1.5-0.9-3.3-1.4-5.3-1.4c-2,0-3.8,0.5-5.3,1.4c-1.5,0.9-2.7,2.3-3.6,4c-0.9,1.7-1.3,3.7-1.3,5.9c0,2.2,0.4,4.2,1.3,5.9
		c0.8,1.7,2,3,3.6,4c1.5,0.9,3.3,1.4,5.3,1.4c2,0,3.8-0.5,5.3-1.4c1.5-1,2.7-2.3,3.6-4c0.8-1.7,1.3-3.7,1.3-5.9
		c0-2.2-0.4-4.2-1.3-5.9C76,283.1,74.8,281.7,73.3,280.8"/>
	<path class="st0" d="M98.3,295.4c-0.6,1.4-1.5,2.4-2.6,3.2c-1.1,0.8-2.4,1.1-3.8,1.1c-2.2,0-3.9-0.8-5.2-2.5
		c-1.3-1.6-1.9-3.9-1.9-6.6c0-2.8,0.7-5,2-6.6c1.3-1.6,3-2.4,5.2-2.4c1.5,0,2.7,0.4,3.8,1.2c1.1,0.8,1.9,1.8,2.5,3.2
		c0.6,1.4,0.9,2.9,0.9,4.7C99.2,292.5,98.9,294.1,98.3,295.4 M99.2,283.9c-0.7-1.4-1.8-2.5-3.1-3.3c-1.4-0.8-2.9-1.2-4.6-1.2
		c-1.8,0-3.5,0.5-4.9,1.4c-1.4,0.9-2.6,2.3-3.3,3.9c-0.8,1.7-1.2,3.6-1.2,5.9c0,2.2,0.4,4.2,1.2,5.9c0.8,1.7,1.9,3.1,3.4,4
		c1.5,1,3.1,1.4,5,1.4c1.7,0,3.2-0.4,4.6-1.2c1.4-0.8,2.4-1.9,3.1-3.3l0.3,4.1h2.3v-30.9h-2.6V283.9z"/>
	<path class="st0" d="M122.9,271.7c-1.1,1.1-1.6,2.6-1.6,4.6v3.6h-3.7v2.2h3.7v19.3h2.6v-19.3h5.4v-2.2h-5.4v-3.5c0-1.3,0.4-2.3,1-3
		c0.7-0.7,1.7-1.1,2.9-1.1c0.7,0,1.5,0.1,2.3,0.4v-2.3c-0.8-0.3-1.7-0.4-2.7-0.4C125.5,270,124,270.6,122.9,271.7"/>
	<path class="st0" d="M148.8,295.4c-0.6,1.4-1.5,2.5-2.6,3.2c-1.1,0.8-2.4,1.2-3.9,1.2c-1.5,0-2.7-0.4-3.8-1.1
		c-1.1-0.8-2-1.8-2.6-3.2c-0.6-1.4-0.9-3-0.9-4.8c0-1.8,0.3-3.3,0.9-4.7c0.6-1.4,1.5-2.4,2.6-3.2c1.1-0.8,2.4-1.1,3.8-1.1
		c1.4,0,2.7,0.4,3.9,1.1c1.1,0.7,2,1.8,2.6,3.2c0.6,1.4,0.9,2.9,0.9,4.7C149.7,292.4,149.4,294,148.8,295.4 M147.6,280.8
		c-1.5-0.9-3.3-1.4-5.3-1.4c-2,0-3.8,0.5-5.3,1.4c-1.5,0.9-2.7,2.3-3.6,4c-0.9,1.7-1.3,3.7-1.3,5.9c0,2.2,0.4,4.2,1.3,5.9
		c0.8,1.7,2,3,3.6,4c1.5,0.9,3.3,1.4,5.3,1.4c2,0,3.8-0.5,5.3-1.4c1.5-1,2.7-2.3,3.6-4c0.8-1.7,1.3-3.7,1.3-5.9
		c0-2.2-0.4-4.2-1.3-5.9C150.3,283.1,149.2,281.7,147.6,280.8"/>
	<path class="st0" d="M172.9,295.4c-0.6,1.4-1.5,2.5-2.6,3.2c-1.1,0.8-2.4,1.2-3.9,1.2s-2.7-0.4-3.8-1.1c-1.1-0.8-2-1.8-2.6-3.2
		c-0.6-1.4-0.9-3-0.9-4.8c0-1.8,0.3-3.3,0.9-4.7c0.6-1.4,1.5-2.4,2.6-3.2c1.1-0.8,2.4-1.1,3.8-1.1s2.7,0.4,3.9,1.1
		c1.1,0.7,2,1.8,2.6,3.2c0.6,1.4,0.9,2.9,0.9,4.7C173.8,292.4,173.5,294,172.9,295.4 M171.8,280.8c-1.5-0.9-3.3-1.4-5.3-1.4
		c-2,0-3.8,0.5-5.3,1.4c-1.5,0.9-2.7,2.3-3.6,4c-0.9,1.7-1.3,3.7-1.3,5.9c0,2.2,0.4,4.2,1.3,5.9c0.8,1.7,2,3,3.6,4
		c1.5,0.9,3.3,1.4,5.3,1.4c2,0,3.8-0.5,5.3-1.4c1.5-1,2.7-2.3,3.6-4c0.8-1.7,1.3-3.7,1.3-5.9c0-2.2-0.4-4.2-1.3-5.9
		C174.5,283.1,173.3,281.7,171.8,280.8"/>
	<path class="st0" d="M196.8,295.4c-0.6,1.4-1.5,2.4-2.6,3.2c-1.1,0.8-2.4,1.1-3.8,1.1c-2.2,0-3.9-0.8-5.2-2.5
		c-1.3-1.6-1.9-3.9-1.9-6.6c0-2.8,0.7-5,2-6.6c1.3-1.6,3-2.4,5.2-2.4c1.5,0,2.7,0.4,3.8,1.2c1.1,0.8,1.9,1.8,2.5,3.2
		c0.6,1.4,0.9,2.9,0.9,4.7C197.7,292.5,197.4,294.1,196.8,295.4 M197.7,283.9c-0.7-1.4-1.8-2.5-3.1-3.3c-1.4-0.8-2.9-1.2-4.6-1.2
		c-1.8,0-3.5,0.5-4.9,1.4c-1.4,0.9-2.6,2.3-3.3,3.9c-0.8,1.7-1.2,3.6-1.2,5.9c0,2.2,0.4,4.2,1.2,5.9c0.8,1.7,1.9,3.1,3.4,4
		c1.5,1,3.1,1.4,5,1.4c1.7,0,3.2-0.4,4.6-1.2c1.4-0.8,2.4-1.9,3.1-3.3l0.3,4.1h2.3v-30.9h-2.6V283.9z"/>
	<polygon class="st0" points="205.2,306.8 207.5,306.8 210.8,297.3 207.3,297.3 	"/>
	<path class="st0" d="M234.9,274.1c1.7-1.1,3.7-1.7,6-1.7c3.8,0,6.8,1.7,8.9,5.1l2.1-1.6c-1.3-1.9-2.8-3.4-4.7-4.4
		c-1.9-1-4-1.5-6.3-1.5c-2.8,0-5.3,0.7-7.5,2c-2.2,1.4-3.9,3.3-5.1,5.7c-1.2,2.4-1.8,5.2-1.8,8.3c0,3.1,0.6,5.8,1.9,8.2
		c1.3,2.4,3.1,4.3,5.4,5.7c2.3,1.4,4.9,2,7.9,2c3.6,0,7-0.9,10.1-2.8v-13.4h-11.2v2.3h8.4v9.7c-2.1,1.2-4.5,1.8-7.2,1.8
		c-2.4,0-4.6-0.6-6.4-1.7c-1.9-1.2-3.3-2.8-4.4-4.9c-1.1-2.1-1.6-4.5-1.6-7.1c0-2.6,0.5-5,1.4-7
		C231.8,276.8,233.2,275.2,234.9,274.1"/>
	<path class="st0" d="M274.1,295.4c-0.6,1.4-1.5,2.5-2.6,3.2c-1.1,0.8-2.4,1.2-3.9,1.2c-1.5,0-2.7-0.4-3.8-1.1
		c-1.1-0.8-2-1.8-2.6-3.2c-0.6-1.4-0.9-3-0.9-4.8c0-1.8,0.3-3.3,0.9-4.7c0.6-1.4,1.5-2.4,2.6-3.2c1.1-0.8,2.4-1.1,3.8-1.1
		c1.5,0,2.7,0.4,3.9,1.1c1.1,0.7,2,1.8,2.6,3.2c0.6,1.4,0.9,2.9,0.9,4.7C275,292.4,274.7,294,274.1,295.4 M273,280.8
		c-1.5-0.9-3.3-1.4-5.3-1.4c-2,0-3.8,0.5-5.3,1.4c-1.5,0.9-2.7,2.3-3.6,4c-0.9,1.7-1.3,3.7-1.3,5.9c0,2.2,0.4,4.2,1.3,5.9
		c0.8,1.7,2,3,3.6,4c1.5,0.9,3.3,1.4,5.3,1.4c2,0,3.8-0.5,5.3-1.4c1.5-1,2.7-2.3,3.6-4c0.8-1.7,1.3-3.7,1.3-5.9
		c0-2.2-0.4-4.2-1.3-5.9C275.7,283.1,274.5,281.7,273,280.8"/>
	<path class="st0" d="M298.3,295.4c-0.6,1.4-1.5,2.5-2.6,3.2c-1.1,0.8-2.4,1.2-3.9,1.2s-2.7-0.4-3.8-1.1c-1.1-0.8-2-1.8-2.6-3.2
		c-0.6-1.4-0.9-3-0.9-4.8c0-1.8,0.3-3.3,0.9-4.7c0.6-1.4,1.5-2.4,2.6-3.2c1.1-0.8,2.4-1.1,3.8-1.1s2.7,0.4,3.9,1.1
		c1.1,0.7,2,1.8,2.6,3.2c0.6,1.4,0.9,2.9,0.9,4.7C299.2,292.4,298.9,294,298.3,295.4 M297.2,280.8c-1.5-0.9-3.3-1.4-5.3-1.4
		c-2,0-3.8,0.5-5.3,1.4c-1.5,0.9-2.7,2.3-3.6,4c-0.9,1.7-1.3,3.7-1.3,5.9c0,2.2,0.4,4.2,1.3,5.9c0.8,1.7,2,3,3.6,4
		c1.5,0.9,3.3,1.4,5.3,1.4c2,0,3.8-0.5,5.3-1.4c1.5-1,2.7-2.3,3.6-4c0.8-1.7,1.3-3.7,1.3-5.9c0-2.2-0.4-4.2-1.3-5.9
		C299.9,283.1,298.7,281.7,297.2,280.8"/>
	<path class="st0" d="M322.2,295.4c-0.6,1.4-1.5,2.4-2.6,3.2c-1.1,0.8-2.4,1.1-3.8,1.1c-2.2,0-3.9-0.8-5.2-2.5
		c-1.3-1.6-1.9-3.9-1.9-6.6c0-2.8,0.7-5,2-6.6c1.3-1.6,3-2.4,5.2-2.4c1.5,0,2.7,0.4,3.8,1.2c1.1,0.8,1.9,1.8,2.5,3.2
		c0.6,1.4,0.9,2.9,0.9,4.7C323.1,292.5,322.8,294.1,322.2,295.4 M323.1,283.9c-0.7-1.4-1.8-2.5-3.1-3.3c-1.4-0.8-2.9-1.2-4.6-1.2
		c-1.8,0-3.5,0.5-4.9,1.4c-1.4,0.9-2.6,2.3-3.3,3.9c-0.8,1.7-1.2,3.6-1.2,5.9c0,2.2,0.4,4.2,1.2,5.9c0.8,1.7,1.9,3.1,3.4,4
		c1.5,1,3.1,1.4,5,1.4c1.7,0,3.2-0.4,4.6-1.2c1.4-0.8,2.4-1.9,3.1-3.3l0.3,4.1h2.3v-30.9h-2.6V283.9z"/>
	<polygon class="st0" points="344.2,286 344.2,301.4 346.8,301.4 346.8,286 346.8,270.5 344.2,270.5 	"/>
	<path class="st0" d="M354.9,271.9c-0.5,0-1,0.2-1.3,0.5c-0.3,0.3-0.5,0.8-0.5,1.3c0,0.5,0.2,0.9,0.5,1.3c0.3,0.4,0.8,0.5,1.3,0.5
		c0.5,0,1-0.2,1.4-0.5c0.4-0.4,0.6-0.8,0.6-1.3c0-0.5-0.2-1-0.6-1.3C356,272,355.5,271.9,354.9,271.9"/>
	<polygon class="st0" points="353.7,290.7 353.7,301.4 356.3,301.4 356.3,290.7 356.3,279.9 353.7,279.9 	"/>
	<path class="st0" d="M365.8,271.7c-1.1,1.1-1.6,2.6-1.6,4.6v3.6h-3.7v2.2h3.7v19.3h2.6v-19.3h5.4v-2.2h-5.4v-3.5c0-1.3,0.3-2.3,1-3
		c0.7-0.7,1.7-1.1,2.9-1.1c0.7,0,1.5,0.1,2.3,0.4v-2.3c-0.8-0.3-1.7-0.4-2.7-0.4C368.4,270,366.9,270.6,365.8,271.7"/>
	<path class="st0" d="M376.2,288.6c0.3-2.2,1-4,2.3-5.2s2.8-1.8,4.8-1.8c2,0,3.6,0.6,4.7,1.9c1.1,1.2,1.7,3,1.8,5.2H376.2z
		 M392.4,289.8c0-3.2-0.8-5.7-2.5-7.6c-1.6-1.9-3.8-2.8-6.6-2.8c-2,0-3.7,0.5-5.2,1.4c-1.5,0.9-2.7,2.2-3.5,3.9
		c-0.8,1.7-1.2,3.6-1.2,5.9c0,2.2,0.4,4.2,1.3,5.9c0.9,1.7,2.1,3.1,3.6,4c1.6,1,3.4,1.4,5.4,1.4c1.8,0,3.4-0.4,4.9-1.1
		c1.5-0.7,2.7-1.8,3.7-3.1l-1.8-1.5c-0.9,1.2-1.9,2-3,2.6c-1.2,0.6-2.4,0.9-3.8,0.9c-2.3,0-4.1-0.8-5.5-2.4
		c-1.4-1.6-2.1-3.7-2.1-6.5h16.3C392.4,290.6,392.4,290.2,392.4,289.8"/>
</g>
</svg>
