<?xml version="1.0" encoding="UTF-8"?>
<svg id="Layer_1" data-name="Layer 1" xmlns="http://www.w3.org/2000/svg" xmlns:xlink="http://www.w3.org/1999/xlink" version="1.1" viewBox="0 0 129 143">
  <defs>
    <style>
      .cls-1 {
        clip-path: url(#clippath);
      }

      .cls-2 {
        fill: none;
      }

      .cls-2, .cls-3 {
        stroke-width: 0px;
      }

      .cls-3 {
        fill: #0067b1;
      }

      .cls-4 {
        clip-path: url(#clippath-1);
      }

      .cls-5 {
        clip-path: url(#clippath-4);
      }

      .cls-6 {
        clip-path: url(#clippath-3);
      }

      .cls-7 {
        clip-path: url(#clippath-2);
      }

      .cls-8 {
        clip-path: url(#clippath-7);
      }

      .cls-9 {
        clip-path: url(#clippath-8);
      }

      .cls-10 {
        clip-path: url(#clippath-6);
      }

      .cls-11 {
        clip-path: url(#clippath-5);
      }

      .cls-12 {
        clip-path: url(#clippath-9);
      }

      .cls-13 {
        clip-path: url(#clippath-20);
      }

      .cls-14 {
        clip-path: url(#clippath-21);
      }

      .cls-15 {
        clip-path: url(#clippath-24);
      }

      .cls-16 {
        clip-path: url(#clippath-23);
      }

      .cls-17 {
        clip-path: url(#clippath-22);
      }

      .cls-18 {
        clip-path: url(#clippath-14);
      }

      .cls-19 {
        clip-path: url(#clippath-13);
      }

      .cls-20 {
        clip-path: url(#clippath-12);
      }

      .cls-21 {
        clip-path: url(#clippath-10);
      }

      .cls-22 {
        clip-path: url(#clippath-15);
      }

      .cls-23 {
        clip-path: url(#clippath-17);
      }

      .cls-24 {
        clip-path: url(#clippath-16);
      }

      .cls-25 {
        clip-path: url(#clippath-19);
      }

      .cls-26 {
        clip-path: url(#clippath-11);
      }

      .cls-27 {
        clip-path: url(#clippath-18);
      }
    </style>
    <clipPath id="clippath">
      <rect class="cls-2" x="1" y="1.8" width="126.9" height="140.3"/>
    </clipPath>
    <clipPath id="clippath-1">
      <rect class="cls-2" x="1" y="1.8" width="126.9" height="140.3"/>
    </clipPath>
    <clipPath id="clippath-2">
      <rect class="cls-2" x="1" y="1.8" width="126.9" height="140.3"/>
    </clipPath>
    <clipPath id="clippath-3">
      <rect class="cls-2" x="1" y="1.8" width="126.9" height="140.3"/>
    </clipPath>
    <clipPath id="clippath-4">
      <rect class="cls-2" x="1" y="1.8" width="126.9" height="140.3"/>
    </clipPath>
    <clipPath id="clippath-5">
      <rect class="cls-2" x="1" y="1.8" width="126.9" height="140.3"/>
    </clipPath>
    <clipPath id="clippath-6">
      <rect class="cls-2" x="1" y="1.8" width="126.9" height="140.3"/>
    </clipPath>
    <clipPath id="clippath-7">
      <rect class="cls-2" x="1" y="1.8" width="126.9" height="140.3"/>
    </clipPath>
    <clipPath id="clippath-8">
      <rect class="cls-2" x="1" y="1.8" width="126.9" height="140.3"/>
    </clipPath>
    <clipPath id="clippath-9">
      <rect class="cls-2" x="1" y="1.8" width="126.9" height="140.3"/>
    </clipPath>
    <clipPath id="clippath-10">
      <rect class="cls-2" x="1" y="1.8" width="126.9" height="140.3"/>
    </clipPath>
    <clipPath id="clippath-11">
      <rect class="cls-2" x="1" y="1.8" width="126.9" height="140.3"/>
    </clipPath>
    <clipPath id="clippath-12">
      <rect class="cls-2" x="1" y="1.8" width="126.9" height="140.3"/>
    </clipPath>
    <clipPath id="clippath-13">
      <rect class="cls-2" x="1" y="1.8" width="126.9" height="140.3"/>
    </clipPath>
    <clipPath id="clippath-14">
      <rect class="cls-2" x="1" y="1.8" width="126.9" height="140.3"/>
    </clipPath>
    <clipPath id="clippath-15">
      <rect class="cls-2" x="1" y="1.8" width="126.9" height="140.3"/>
    </clipPath>
    <clipPath id="clippath-16">
      <rect class="cls-2" x="1" y="1.8" width="126.9" height="140.3"/>
    </clipPath>
    <clipPath id="clippath-17">
      <rect class="cls-2" x="1" y="1.8" width="126.9" height="140.3"/>
    </clipPath>
    <clipPath id="clippath-18">
      <rect class="cls-2" x="1" y="1.8" width="126.9" height="140.3"/>
    </clipPath>
    <clipPath id="clippath-19">
      <rect class="cls-2" x="1" y="1.8" width="126.9" height="140.3"/>
    </clipPath>
    <clipPath id="clippath-20">
      <rect class="cls-2" x="1" y="1.8" width="126.9" height="140.3"/>
    </clipPath>
    <clipPath id="clippath-21">
      <rect class="cls-2" x="1" y="1.8" width="126.9" height="140.3"/>
    </clipPath>
    <clipPath id="clippath-22">
      <rect class="cls-2" x="1" y="1.8" width="126.9" height="140.3"/>
    </clipPath>
    <clipPath id="clippath-23">
      <rect class="cls-2" x="1" y="1.8" width="126.9" height="140.3"/>
    </clipPath>
    <clipPath id="clippath-24">
      <rect class="cls-2" x="1" y="1.8" width="126.9" height="140.3"/>
    </clipPath>
  </defs>
  <g class="cls-1">
    <path class="cls-3" d="M52,138.6c1.1,0,3-.3,4.4-2.7-.8-1.9-1.4-5.7-1.5-7.1-.5-7.1,2.3-13.7,5.3-13.9,2.2-.1,3.9,1.9,4.1,5.3.6,8.8-2.4,12.4-3.9,15.7.3,1.2,2.3,3.3,4.3,3.3s1.6-.4,1.8-.6c-.1-.5-.3-1.2-.3-2.1,0-5.1,3.3-9.4,6.1-9.4s3.5,3,3.5,5-1.9,4.2-4.9,6.1c.5.5,1.4.9,2.3.9,4.2,0,6.3-5,7.9-9.6.3-.9.8-2.1,1.8-2.1,1.7,0,2.4,11.5,5.4,11.5s2.3-2.6,2.3-4.5-.5-1.6-.5-3.7,1.2-4.3,3-4.3,1.4,1,1.4,2.3c0,4.6-3.4,13.3-8.3,13.3s-3.4-6.4-4.7-6.4-3.5,6.4-10.7,6.4-2.4-.6-3.4-1.7c-1.7,1.2-3.2,1.7-4.9,1.7-2.7,0-3.9-2.8-5-2.8s-2.8,2.8-7.2,2.8-4.1-4.6-5.3-4.6-2.8,4.6-4.6,4.6c-3,0-3.7-8.1-6.4-8.1s-8.8,8.2-10.6,8.1c-.7,0-1-.6-1-1.4,0-1,1-3.7,1.3-5,.6-2.2,1.2-4.6,1.4-5.4.3-.8,1.1-1.3,1.7-1.3.3,0,.5.6.5,1.2.4,1.8.9,3.7,1.4,3.7,1,0,4.4-6.4,6.4-6.4s2.7,10.2,5.9,10.2,1.9-1.3,2.6-2.9c0-2.7.8-6.6,3-6.6s2.3,3.4,1.2,6.4c.1,3.5,2.5,4.4,4,4.4M110.2,129.9c-.9,3.7-3.7,9.2-7.7,9.2s-2.6-.4-2.6-1.3,6.4-1.2,6.4-6.1-1.7-4.4-4.2-4.4-6.4,3.5-6.4,8.5,2.8,5.9,5.5,5.9c4.8,0,7.7-3.9,9.2-7.2.7,2.2,1.2,7.2,3,7.2s1.2-.4,2.1-2.3c2.2-4.9,4.3-10.4,7.2-10.4s.5,1.9,3,1.9,2.1-1,2.1-2.2c0-1.7-1.5-3-3.9-3-6.8,0-8.3,10.2-9.4,10.2-1.8,0-1.2-8.2-2.6-8.2-1.1,0-1.7,1.3-1.8,2M62,122.2c-.1-2.1-.6-3-1.7-2.9-1.4,0-2.1,4.6-1.8,9.4.2,3.2.6,3.6,1.1,3.5.7,0,2.6-5.5,2.4-10.1M50.1,117.9c0-1.2-1-1.9-2.3-1.9s-2.7,1.4-2.6,3.3c0,1.2.8,2.2,2.2,2.2,1.7,0,2.8-1.9,2.6-3.5M72.7,132.8c0-1.2-.6-2.3-1.4-2.3s-2.2.7-2.2,3,.6,2.7,1,3c2.1-.6,2.6-2.4,2.6-3.8M101.2,130.3c1.5,0,1.9,1.8,1.6,2.9-.4,1.1-1.7,2.3-3.7,2.7-.5-1.1-.7-5.6,2.1-5.6M17.3,125.2c-.2-.7-.8-2.2-1-3.2-.4-2.4.9-4.1,2.1-4.4,1.3-.4,1.8.3,2.3,1.8.6,2.3.7,5.4.5,9.7-.3,5.9-3.3,13.2-10.7,13-6.4-.1-9.2-4.3-9.5-10.6-.1-3,0-5.9,1.3-10.2.6-2.3,1.2-3,3.3-3.5,1.6-.3,1.4,1.4,1.1,3.4-.8,4.4-1.2,6.4-.9,11.4.3,5.2,2.7,7.3,5.3,7.3,3.9,0,5.7-3.2,6.4-7.9.6-3.8.2-5.6-.2-6.8"/>
  </g>
  <g>
    <g class="cls-4">
      <path class="cls-3" d="M103.2,30.5c.5,3.7,6.1,8.6,7.5,8.5,1,0,1.4-4.8,1.4-8.5s.1-3.8-1-4.2c-1.7,3.6-6.4,4.3-7.9,4.2M103.5,28.9c4,0,7.7-3.2,7.7-6.1s-.6-2.4-2.2-2.6c.3.3.4.6.4,1.2,0,2.1-3.2,4.4-6.8,4.4s-1.7.9-1.7,1.4c0,1.2,1.1,1.6,2.6,1.6M102.7,24.5c-.6,0-1.3,0-1.7-.8-.3-.7-.2-1.8-.9-2.3.6.2,1.4.2,1.9.2,1.7,0,3.4-1.2,4.7-1.2s1.1.6,1.1,1c0,1.7-3.4,3.1-5.1,3.1"/>
    </g>
    <g class="cls-7">
      <path class="cls-3" d="M16.3,54.8c1.3,0,1-8.1,3.2-8.1s.6.5.6,1.1c0,1.8-.9,4.4-.9,5.9s.2,1,.6,1c1,0,2.6-8.8,4.1-8.8s.7.5.7,1c0,1.9-2.3,7.2-2.3,8.7s0,.5.3.5c1,0,2.9-4.2,3.5-6.3s.8-1.7,1.2-1.7.7.5.7,1.3c0,2.1-1.9,7-3.6,10.3s-3.4,6.2-3.4,8.3.2,2.1,1.7,3.4c-2.4-.2-3.5-.4-4.4-2.3-4.1,8.2,7.6,7.4,3.5,14.7-.7-1.3-6.6-2.7-6.6-10.3s5.8-10.4,5.8-13.2-.2-1-.7-1.4c-1.3-1-1.3-1.9-2.3-1.9s-1.6,1.7-.7,3.2c.3.5.6.8.6,1.3,0,1-1.7,4-2.9,4s-2.1-3-2.1-7.8,1-8.6,2.2-8.6.5.2.5.6-.2,1.5-.2,3.2c.2,1.9.6,2.1,1,2.1"/>
    </g>
    <g class="cls-6">
      <path class="cls-3" d="M26.1,66c1.6,0,3-1.2,3-3.9v-3.9c0-1.5.1-3.2,1.1-4.4-.1.5-.1,1-.1,1.5,0,3.3,1.9,5.6,1.9,8.8s-.3,1.9-1.3,1.9-.8-.8-1-.8-.4.5-.4,1c0,.8.6,2.1,2.2,2.1s2.5-1.3,2.5-2.7c0-3.5-2.7-7.3-2.7-11.1s.5-2.7.8-3.5c0,7.7,6.5,13.3,6.5,16.5s-.6,1.3-1.4,1.3-1.3-.7-1.3-1.2,0-.3-.2-.3c-.2,0-1,.8-1,1.8s1,2.8,3,2.8,3.4-1.9,3.4-3.5c0-4.1-7.9-10.2-7.9-16.8s.2-3,1-4.3c-5.1,3.3-6.7,7.7-6.7,11.5s-.1,5-1.8,5-1.1-.8-1.4-.8-.3.7-.3.9c.1,1.5,1.2,2.3,2.2,2.3"/>
    </g>
    <g class="cls-5">
      <path class="cls-3" d="M93.1,27.5c1.7,0,3-.8,3-1.2s-.2-.3-.7-.3-1.5,0-3.4-.3c-1.6-.3-2.8-.9-3.3-.9s-.2,0-.2.2c0,1,1.8,2.5,4.6,2.5M84.6,22.6c.5-.3,2.7.2,5.5-1.2.3-.2.7-.3,1-.3,1.4,0,1,1.5,2.3,1.5s2.2-.8,3-.8c1.2,0,2.8,3.6,2.8,5.3s-3,3.2-6.4,3.2c-5.2,0-8.2-4.4-8.2-7.3-.1-.3,0-.3,0-.4"/>
    </g>
    <g class="cls-11">
      <path class="cls-3" d="M27,80.6c-1.3.3-3.3,2.3-3.3,5.5s4.1,9.6,10.8,9.6,7-3.9,7-6.6c0-5.8-3.5-9.9-8.3-9.9s-4.8,1.9-4.8,4.6,1.9,6.4,6.5,6.4,3.4-1.5,3.4-3.3-1.5-4.1-3.9-4.1-1.2.5-1.2,1.2,1.3,1.9,2.8,1.9.7,0,.8-.2c0,.1.1.3.1.5,0,.9-.8,1.4-2.2,1.4-1.9,0-3.9-1.5-3.9-3.8s1.2-2.4,3-2.4c3.4,0,5.5,3,5.5,6.1s-1.5,4.3-4.6,4.3c-6.3.1-9.3-5.4-7.9-11.1"/>
    </g>
    <g class="cls-10">
      <path class="cls-3" d="M68.1,95.6c0,.8.7,1.5,1.5,1.5s1.5-.7,1.5-1.5-.7-1.5-1.5-1.5-1.5.6-1.5,1.5M71,103.2c1.9,0,1.7-.2,2.3-.2s.6.3.6.6c0,.8-1.9,1.9-5.3,1.9s-3.2-1-3.5-2.2c-1.9,1.2-4.8,2.3-7.8,2.3-7.9,0-9.9-3.4-12.4-4.6-1.9-.8-4.8.8-8.8-3.7.6.1,1.3.2,1.9.2,3.5,0,5.4-1.7,5.4-4.5s0-.7,0-1c1,.5,3.5,2.3,4.1,5.5,0,.4,1.7.7,2.7.7s3.2-.6,3.4-2.8c4.6-.4,7.8-3.1,8.4-6.6,1.7.6,3.5,2.1,4,2.8.6-.2,1.4-.3,2.3-.3s2.6.2,4.3.7c0-.5.2-1.1,1-1.1,1.2,0,.8,1.3,1.2,2,.2.4,1.2.6,1.2,1.4s-.6,1-1,1-.3,0-.5,0c-.8.3-.8,5.8-4.1,5.8s-4.6-1.9-5.5-4.4c-.3-.7-.8-1.2-1.4-1.2s-1,.1-1.7,1c-2.1,2.3-5.5,4.3-9.9,4.3s-2.3-.1-2.6-.1-.2,0-.2,0c0,.3,1.3,1.3,4.2,1.3,6.8,0,8.4-3.8,9.5-3.8s.6,0,.9.6c1.7,3.5,5.2,4.3,7.3,4.3"/>
    </g>
    <g class="cls-8">
      <path class="cls-3" d="M94.5,78.7c-.8,0-5.3,6-8.2,6s-1.3-1.3-1.3-2.3.3-1,1.5-1.2c6.6-1.5,5.2-6.5,10.8-6.5s6.6,2.1,6.6,7-7.3,11.4-8.3,11.4-1.9-1.3-1.9-2.1.1-.6.9-1c3.7-1.5,5.8-4.8,5.8-6.6s-.2-.8-.7-.8-3.4,6.4-6.6,6.4-4.4-1.9-4.4-2.9c0-1.5,6.3-4.4,6.3-6.6,0-.9-.3-.9-.6-.9M98.6,76.3c-.6,0-1.1.5-1.1,1.5s.9,1.9,1.4,2.1c.3.2.7.3,1.1.3,1.1,0,2-.3,2-1.2,0-1.3-1.7-2.7-3.4-2.7"/>
    </g>
    <g class="cls-9">
      <path class="cls-3" d="M26.5,31.6c0,.8.7,1.5,1.5,1.5s1.5-.7,1.5-1.5-.7-1.5-1.5-1.5-1.5.7-1.5,1.5M24.5,28.1c0,.8.7,1.5,1.5,1.5s1.5-.7,1.5-1.5-.7-1.5-1.5-1.5c-.8,0-1.5.7-1.5,1.5M23.1,38.7c-.9.2-2.8,1.3-2.8,3.2s1,2.3,2.4,2.3,1.2-.2,1.5-.4c-1-1-1.4-2.2-1.4-3.4,0-.8,0-1.4.3-1.8M13.6,39.2c0,.2,0,.4,0,.6,0,1.8,1,2.8,2.3,2.8s2.1-.6,3.1-1.9c-.5,0-1,.1-1.4.1-1.4,0-2.9-.5-3.9-1.7M12.3,42.6c0,3,.9,4.3,2.4,4.3s2.9-.9,4.8-2.6c-1.5.3-2.7.6-3.7.6-1.4,0-2.4-.5-3.6-2.3M22.3,27.2c.2-.6.3-1.4.3-2.3,0-1.9-.8-4.7-3.5-4.7s-2.6,1.2-2.6,2.6c0,3,3,4.3,5.7,4.3M19,36.9c-1.3,0-2.7-1.5-2.7-3s.6-1.7,1-1.7.2.1.3.4c.2,1.9,1.4,3,2.6,3.5l.2.2c0,.3-.7.6-1.4.6M22.6,32.2c.3.4,1,.8,1,1,0,.6-.3,1.2-1,1.2-1.4,0-2.4-2.1-2.4-3.2s.5-.8,1-.8.4,0,.6.2c.3.2.3,1,.8,1.5M13.5,37c0,.1-.1.3-.1.5,0,.3.4.7.7.7s.5,0,.6,0c1,0,1.9.6,3.5.6s1.9-.3,3.2-1c2.8-1.4,3.9-4.8,3.9-5.4s-.6-.6-1.1-1.3c-.5-.7-.3-1.3-.6-1.5-.1-.2-.6-.3-1.4-.3-.2,0-.6,0-.8,0-1.3,0-2.8.2-4.4,1.2-3.3,2.2-2.8,5.7-3.4,6.6M26.3,35.4c-.8,1-1.7,2.7-1.7,4.4s1.3,3.8,3.2,3.8,2.8-1.6,2.8-3.3c0-2.6-2.3-4.4-4.3-5M18.1,28.1s-1.1.8-2.5.8-3-1.2-3-3,.6-2.4,2.1-3c0,.2,0,.5,0,.6,0,2.1,1.2,3.8,3.5,4.5"/>
    </g>
    <g class="cls-12">
      <path class="cls-3" d="M86.1,40.8c0,.9.7,1.6,1.6,1.6s1.6-.7,1.6-1.6-.7-1.6-1.6-1.6-1.6.7-1.6,1.6M86.3,45.7c0,1,.8,1.8,1.8,1.8s1.8-.8,1.8-1.8-.8-1.8-1.8-1.8c-1,0-1.8.8-1.8,1.8M80.7,49c0,1.5,1.2,2.7,2.7,2.7s2.7-1.2,2.7-2.7-1.2-2.7-2.7-2.7-2.7,1.2-2.7,2.7M82.1,43.6c0,.8.7,1.5,1.5,1.5s1.5-.7,1.5-1.5-.7-1.5-1.5-1.5c-.8,0-1.5.6-1.5,1.5M77,46.6c0,.8.7,1.5,1.5,1.5s1.5-.7,1.5-1.5-.7-1.5-1.5-1.5-1.5.7-1.5,1.5M81,37.6c0,1.4,1.1,2.4,2.4,2.4s2.4-1.1,2.4-2.4-1.1-2.4-2.4-2.4c-1.4,0-2.4,1.1-2.4,2.4M83.9,32.8c0,.8.6,1.4,1.5,1.4s1.5-.6,1.5-1.4-.7-1.5-1.5-1.5-1.5.7-1.5,1.5M77,36.6c0,.8.6,1.5,1.4,1.5s1.5-.6,1.5-1.5-.6-1.5-1.5-1.5-1.4.6-1.4,1.5M76.7,41.6c0,1.3,1,2.3,2.3,2.3s2.3-1,2.3-2.3-1-2.3-2.3-2.3-2.3,1-2.3,2.3M71.9,44.1c0,1.2,1,2.2,2.2,2.2s2.2-1,2.2-2.2-1-2.2-2.2-2.2-2.2,1-2.2,2.2M73.2,38.6c0,.8.7,1.5,1.5,1.5s1.5-.7,1.5-1.5-.7-1.5-1.5-1.5-1.5.7-1.5,1.5M86.7,50.5c0-.8.7-1.4,1.4-1.4s1.5.6,1.5,1.4-.7,1.5-1.5,1.5c-.6,0-1.4-.6-1.4-1.5"/>
    </g>
    <g class="cls-21">
      <path class="cls-3" d="M87.7,94.9c.2,0,.5.1.5.8s-.4,1.9-1.8,2.8c-1,.6-2.3,1.2-4.2,1.2.3-1,.6-1.9.6-2.8s0-.6,0-.9h.5c3,0,4.3-1.2,4.5-1.2M88.1,91.1c.3-.3.4-.7.4-1.1v-.9c0-1.1-1.7-1.8-4-1.8s-4.3,1.3-4.3,1.8v1.8c0,.7,1.7,1.5,3.8,1.5,1.6,0,3.2-.5,4.1-1.3M90.1,91.6c-1,.8-3.4,2.5-7.3,2.5s-3-.6-3.3-.6c-.4,0-.8.4-1.2.9-1,1-2.1,3.1-2.1,5.3s1.2,3.1,3.4,3.1c7.2,0,12.6-4.5,12.6-8.2s-1.2-3-2.1-3"/>
    </g>
    <g class="cls-26">
      <path class="cls-3" d="M91.4,59.1c0,1,.3,2.1,1.3,2.1s1.5-1.2,1.5-2.6-.3-2.7-.3-3.4.1-.4.3-.4c.6,0,1.1,1.6,1.7,1.6s1.7-1.3,2.2-1.3l.2.2c0,.6-.9,1.9-.9,2.3s2.3.5,2.3.9c0,.6-2.3.6-3.5,1-1,.5-1.7,1-1.7,1.8s.8,1,1.9,1c2.6,0,4.4-1.4,5-1.4l.2.2c0,.4-1.3,1.7-1.3,2.3s2.4,1.4,2.3,1.8c0,.1-.2.2-.5.2-.5,0-1-.1-1.5-.1s-.6,0-.7.2c-.3.3,0,2.3-.5,2.3s-1.8-4.6-4.8-4.6-.7.3-.7,1c0,1.5,1.5,3.3,3,4.2.6.5,1.7.8,1.7,1.1,0,.5-2.4,0-2.4.8s.3,1.7.3,2.3,0,.5-.3.5c-.5,0-1.5-2.1-2.1-2.1s-1.5,1.3-1.9,1.3l-.2-.2c0-.9,1.4-2.9,1.4-4.8s-.1-3-1.2-3-1.9,1.4-2.4,3c-.3.8,0,4.1-.7,4.1s-.5-2.2-1.2-2.2-1.8,1-2.3,1h-.2c0-.6,1.1-2.1,1.1-2.4,0-.6-2.6-.6-2.6-1.1s1-.5,1.9-.6c1.9-.3,4.8-1.8,4.8-3.8s-2.2-3.2-3.5-4.1c-.7-.5-1.5-.8-1.5-1.2s1-.3,1.3-.3c.6,0,1.2,0,1.2-.5s0-1,0-1.5,0-.7.2-.7c.6,0,1.4,1.9,1.8,1.9.6,0,1.5-1.5,2.1-1.5s.3.1.3.5c0,1.4-.8,3-.8,4.4M73,47.7c.5,3.3,4.8,1.6,4.8,5.6s-.2,1.4-.2,2.2,0,1.5.7,1.5.8-.5.8-1-.2-1.4-.2-1.8c0-1.4,1-1.7,1.5-1.7,1.5,0,2.6,1.5,4.8,1.5-.5,2.4-5.6,1.8-5.6,4.5s1.4,1.7,2.3,1.7,1-.1,1-.8,0-.8,0-1,.1-.3.3-.3c.8,0,5,3.2,5,4.1s-4.4,1.8-5.7,1.8-.5-.3-.5-.5.6-1.1.6-1.5-.6-.6-2.1-.6-1.3,0-1.3.7c0,1,1.7,2.3,1.7,3.3s-.5,1.2-1.7,1.2-2.6-.8-2.6-2.2,1.1-2.2,1.1-2.8-.1-.5-.6-.5c-1.4,0-1.8,3.8-6.9,4.2.8-.7,1.5-1.5,1.5-3.2s-.2-1.5-.2-2.3.6-1.7,1.3-1.7c1.4,0,2.1,2,3,2s1-.5,1-1.2c0-3-5.7-2.5-5.7-6.6.2-1.2.6-2.6,1.6-4.5"/>
    </g>
    <g class="cls-20">
      <path class="cls-3" d="M80.4,72.8c0,.6.4,1,1,1s1-.6,1-1.2c0-.8-.7-1.9-1.4-1.9s-.2.5-.3,1c-.2.5-.3.9-.3,1.2M78.3,67.7c4.1.8,6.3,3.8,6.3,6.7s-1.2,3.8-3.4,3.8-3.4-1.4-3.4-3.5,1.3-3.3,1.3-5c0-.7-.2-1.4-.7-2M73.2,74.3c.4.4.5.8.5,1.2,0,.6-.3,1.2-.3,1.9s.7,1.7,1.7,1.7,1.8-.8,1.8-1.9c0-1.5-1.5-2.9-3.7-2.9M86,71.8c.3.5.4.8.4,1.2,0,1-.7,2.1-.7,3.2s1,2.3,2.4,2.3,2.7-1.3,2.7-2.8c-.1-2-2-3.7-4.8-3.9M74.1,69.7c1.8.2,2.2.8,2.2,1.4,0,.8-.8,1.1-1.5,1.1s-1.2-.1-1.8-.1-1.7.2-2.4,1c.5,0,1.2.5,1.2,1.2,0,2.3-6.2.4-6.2,6.1s3.2,6.4,7.9,6.4,4.1-.8,4.1-1.7-1.3-.2-1.3-.8.5-.8.5-1.2-.2-.6-.5-.6c-.7,0-2,1.1-4.7,1.1s-4.1-1.2-4.1-2.8.2-.6.4-.6.6.2.8.2.3-.2.3-.6,0-1.6.7-1.6,2.1,2.7,7.4,2.7,5.2-.3,6.4-1.5c0,4.3-3.4,9.9-10.3,9.9s-11.1-5.8-11.1-11.2,4.8-11.3,11.4-11.3,3.2.6,3.2,1.3c0,1.2-2.4.5-2.6,1.7"/>
    </g>
    <g class="cls-19">
      <path class="cls-3" d="M49.1,25.6c2.6,0,3.7,2.2,3.7,4.7s-.3,2.7-.8,2.7-.5-.9-.5-1.7c0-1-.3-1.3-.6-1.3-.6,0-1,1.5-1,3s.2,1.9.8,1.9.7-.2,1-.5c-.2,1.8-1.5,3.3-3.3,3.3-3.4,0-4.7-4-5.1-6.3-2.1,2.2-3.9,3.7-7.3,3.7s-4.6-2.3-4.6-4.5.2-2.3,1-2.3.1,3.2,2,3.2,1.3-.4,1.8-1.7c.3-.8.5-1.5.5-2.3s-.2-1.7-1-1.7-1.5.5-1.7.8c1-2.8,3.2-4.2,5.7-4.2s4.7,2.7,4.7,5.7,0,.9-.1,1.3c1.4-2.1,3.1-3.7,5.1-3.7M46.2,30.2c0-.6-.2-.8-.3-.8-.4,0-.8.5-1.4,1.5,0,1.4.3,2,.7,2,.4,0,1-1.3,1-2.6M40.9,31.8c.5,0,1-.5,1.9-1.5,0-.5,0-1,0-1.5s-.3-1.6-.8-1.6c-1.2,0-1.7,3.1-1.7,3.9,0,.4.3.8.5.8M47.1,35.2c1,0,2.1-3.7,2.1-6.1s0-1-.3-1c-.8,0-2.2,3.8-2.2,5.9,0,.8.3,1.2.5,1.2M37.7,33.1c1.3,0,2.8-7.1,2.8-8.3s-.1-.6-.4-.6c-1.2,0-2.8,6.8-2.8,8.3,0,.3,0,.6.4.6"/>
    </g>
    <g class="cls-18">
      <path class="cls-3" d="M41.9,36c-1.7,0-1.7,2-1.7,6.1-1.2-2.7-3.3-5.5-5.7-5.5s-2.3,1-2.3,3,0,1,.1,1.3c.2-.6.8-1,1.5-1,1.7,0,3.7,1.3,5,3-1.5-.3-3-.6-4.2-.6s-1.5,0-2.1.3c-1.1.5-2.6,2.2-2.6,4.7s0,.8.1,1.3c1.4-3,5-4.4,7.3-4.4s.8,0,1,0c-1.2,1-1.5,3-1.5,4.3,0,.6-.3.6-.7.6,0,1.3,1,3.2,1,4.1s-.2.6-.4.7c0,1.7,1.7,3,1.7,4s0,.5-.2.6c.1.7,2,1.9,2.2,2.4.3.7.6.8.8.8.6,0,1.7-.8,1.7-1.5s-.2-.5-.3-.6c-.7-.6-1.1-1.7-1.4-2.4-.3,0-.6-.1-.7-.6-.2-.8-.2-2.3-.5-3.2-.5-.1-.7-.3-.7-1.4s.3-2.4.3-3.2c-.2,0-.6-.2-.6-.6,0-1.2,1.2-2.2,1.5-3.8,2.2,1.6,2.8,3.3,2.8,4.8s-.1,1.5-.3,2.2c1.6-.8,4.1-2,4.1-4.4s-.6-3-5-3.6c1.4-.5,3-.8,4.4-.8,2.4,0,3.9.8,4.2,2.5.5-.8.9-1.7.9-2.4,0-1.9-1.5-3.2-3.5-3.2s-4.4,1.2-6.7,2.7c1-2.1,1.7-3.3,3-3.3s.4,0,.6,0c-.4-1.5-2.1-3.2-3.1-3.2"/>
    </g>
    <g class="cls-22">
      <path class="cls-3" d="M106.9,63.9c1.9,0,3.5,2.5,3.5,5.4s-1.5,6.5-4.1,8.8c0-5.2-6.4-3.5-6.4-7.3s1.2-2.7,2.6-2.7,2.2.3,2.9,1c-.7-.6-1-1.5-1-2.4,0-1.5.9-2.8,2.6-2.8"/>
    </g>
    <g class="cls-24">
      <path class="cls-3" d="M78.3,24.3c-.3-.5-1.4-.8-2-.8-1.7,0-2.8,1.2-3.1,2.3-.2-.4-.3-.8-.3-1.3,0-1.7,1.2-3.8,4-3.8s3.4,1.3,3.8,1.3.8-.4,1.1-.4.5.6.5,1.1c0,1.5-.7,4.2-2.4,5.2-.3-.6-1-1.4-1.9-1.9-.3-.1-.4-.3-.4-.6,0-.4.3-.9.8-1.2M72.5,27.2c1,1,1.9,1.4,3,1.4s1-.1,1.2-.1c.3,0,.6.2.6.5,0,.5-.4,1.1-.8,1.5.5.2,1,.3,1.5.3,2.2,0,4.7-1.4,4.7-4.8.5.6.7,1.9.7,2.4,0,4.2-3.1,5.8-5.9,5.8s-2.8-.6-3-.6c-.7,0-.7,1.5-1.2,1.4-.9-.2-1.7-2.1-1.7-4.2,0-1.3.4-2.6,1-3.5"/>
    </g>
    <g class="cls-23">
      <path class="cls-3" d="M39.5,2.6c0-.2-1.2-.5-2.7-.5-2.5,0-2.2,2.1-4.1,2.1s-1.5-2.2-4.1-2.2-3,.3-3,.6,1.8.3,1.8,1.5-3.9,1.7-3.9,2.6.3.4.7.4c.8,0,2.2-.4,3.2-.4s1,.1,1,.6c0,1-2.1,2.7-2.1,3.5s.2.3.4.3c.8,0,2.1-1.9,3.3-1.9,2.1,0,.7,4.4,1.8,4.4s.7-4.3,2.3-4.3,2.3,3,3.3,3,.5-.2.5-.5c0-.8-1.2-2.4-1.2-3.5s.5-1,1-1c.9,0,2.1.6,2.7.6s.5,0,.5-.3c0-1-3.4-1.9-3.4-3.2,0-1.2,1.9-1.2,1.9-1.8M48.5,6.6c0,.7,2.4,2.2,3.5,2.2s.8-.9.8-1.8-.5-1.2-1.5-1.2c-1.3,0-2.9.3-2.9.8M52.5,14.2c0-2.3-6.3-6.5-6.3-8.3,0-.2,0-.3.2-.5,1-1.2,5.5-1.9,5.5-3s-1-.5-1.4-.5c-3.5,0-8.8,1.3-8.8,2.6s4.7,4.5,4.7,6.1-.3.6-.7.6c-1.3,0-4.2-1.5-5.5-1.5s-.8.5-.8,1c0,1.9,2.2,5.4,2.2,6.4s0,.3-.2.3c-.7,0-3.9-3.9-5.2-3.9s-.5.6-.5,1.4v1.3c0,.9,0,1.4-.5,1.4-1,0-1.5-2.8-2.4-2.8s-1.2,5-2.2,5-.2-5.5-1.2-5.5-2.6,3.7-3.4,3.7-.4-.3-.4-.6c0-1.1.6-3,.6-4s-.2-.8-.6-.8c-1.2,0-3.8,1.9-4.8,1.9s-.3,0-.3-.2c0-1,4.2-3.9,4.2-5.2s-5.8-.5-5.8-1.9,4.1-2.5,4.1-3.8-4.9-1.6-6.8-1.6-3.5.3-3.5,1c0,1,5.2,1.3,5.2,2.2s-5.4,3.2-5.4,4.4,7.5,0,7.5,1.3-6.6,7-6.6,8.9.3.6.7.6c2,0,7.2-3.8,8.6-3.8s.6.6.6,1.2c0,1-.3,2.6-.3,3.7s.2,1.5,1,1.5c1.4,0,2.8-2.4,3.7-2.4s.5,7.2,2.3,7.2,2.3-7.7,3.2-7.7,1.8,2.3,2.8,2.3.6-3.9,1.9-3.9,5.2,4.6,7,4.6.7-.5.7-1c0-2.1-2.8-6.7-2.8-8.2s.1-.5.6-.5c1.5,0,5.9,2.1,8,2.1.8,0,1.3-.4,1.3-.9M17.3,12c0,.8-3,3.4-3.9,3.4s-.5-.5-.5-.9c0-.8.3-1.9.8-2.2.5-.5,1.7-.7,2.6-.7.5,0,1.1.1,1.1.5M45.6,16c0,1.4,4.8,7.9,5.7,7.9s1.4-1.4,1.4-2.5,0-.6-.2-.8c-.7-1-5.6-4.8-6.7-4.8l-.2.3Z"/>
    </g>
    <g class="cls-27">
      <path class="cls-3" d="M107.7,4.2c0,.6.5,1,1,1s1-.5,1-1-.5-1-1-1-1,.5-1,1M101.3,12.8c0-2.8-6.6-3.4-6.6-4.1s3.7-1.4,5.5-1.4c-2.9-3.7-7-3.3-7-3.9s3.1-1.2,5.9-1.2,4.6.6,4.6,2.3-.8,2.1-.8,3.6.5,1.5,1.5,1.5,1.5-1.3,1.5-2.6-.2-1.9-.2-2.5c0-1.6,1.1-2.7,2.7-2.7s1.6.6,3.5.6c-1,.6-1.4,1.7-1.4,2.3,0,1.6,1,2.7,1,6.1,0,6.1-5.7,8.3-12.7,8.3s-3.9-.2-6-.5c-.3,0-.4-.1-.4-.3,0-.5,2.8-.8,2.8-3.2s-.3-1.9-.3-2.3.2-.3.3-.3c.6,0,1.7,2.3,3.9,2.3.6,0,2-.1,2-1.9M107.9,8.9c0,3.4-2.5,6.1-7,6.8.5,0,1,0,1.4,0,5.3,0,7.2-2.4,7.2-4.4s-.6-2.2-1.6-2.5"/>
    </g>
    <g class="cls-25">
      <path class="cls-3" d="M105.2,58.7c.6-1.9,1.4-3.3,2.6-5.4-1.3-.6-4.6-2.1-4.6-4.3s3.3-4.8,4-4.8.4.3.4.8c0,1.4-.7,3.6-.7,4.8s.7,2.1,1.3,2.1,2.4-2.3,2.4-4.6c0-4.1-3.5-5.3-4.7-5.3s-3,1.7-7.4,1.7c-8.3,0-10.2-8.2-10.2-11.8s0-.2,0-.2c.2,0,1,1,3.6,1s2.6-.3,4.6-.3c4.6,0,6.7,3.2,9.5,7.3,1.7,1,5.9,2.8,5.9,7.7s-4.6,6.7-5.7,11.3c1.8-.2,2.8-3.4,4.6-3.4s1.4.7,1.4,1.9-1,4.3-2.8,5.8c0-.2,0-.3,0-.6,0-1-.5-2.6-1.7-2.6-1.9,0-2.6,2.1-3.6,3.8-1.1-3.9-2.6-7.5-5.3-9.7-2.7-2.2-7.4-1-7.4-5s.7-2.6.7-3.9,0-.8-.3-1.1c3.7,1.4,2.4,3.9,4.7,6.4,1.4,1.6,5.4,3.2,7.7,9.9,0-.2,0-.7,0-1,0-5.7-7.5-11.3-8.2-13.7,4.4.5,5.2,1.5,7.3,7.3.4,1,1.7,4.1,1.7,5.5M104.2,39.9c0-.8-2.1-.9-2.3-3.2,0-.3-.2-1-.6-1-.7,0-.2,2.1-1,2.1-1.8,0-2.3-3.5-3-3.5s-.3.1-.3.6,0,.7,0,1.2-.1.8-.6.8c-1,0-1.9-2.4-2.8-2.4s-.4.1-.4.3c0,.5.8,1.3.8,1.7,0,1-2.5.5-2.5,1.2s.3.5.8.5c.8,0,2.1-.3,2.8-.3s1,0,1,.6-1.4,1.2-1.4,1.7.2.3.5.3c1,0,2.9-1.8,4.2-1.8s.8.1.8.5c0,.5-1.3,1.4-1.3,2.1s.1.5.3.5c.7,0,1.6-1.8,3-1.8s1.2.2,1.6.2c.3,0,.4-.1.4-.3"/>
    </g>
    <g class="cls-13">
      <path class="cls-3" d="M75.5,16.8c.6,0,.7,1.5.8,2.4,0,.5.2.5.3.5.5,0,1.2-1.8,1.7-1.8s2.7,2.1,6,2.1c4.7,0,9.1-3.3,9.1-9.1s-3.9-8.9-9.4-8.9-4.4,1.3-5.5,1.3c-.6,0-1.5-1.5-2-1.5s-.4.4-.4,1,0,1.8-.5,1.8c-1,0-4.5-2.7-4.5-1.7s2.4,3.6,2.4,4.3-2.3,1.4-2.3,1.8c0,.8,2.5,1,2.5,2.1s-2.6,1.9-2.6,2.7,2.6.2,2.6,1-1.9,3.5-1.9,4.3,0,.2.2.2c.7,0,2.9-2.6,3.5-2.6M76.6,10.5c0-.5-1.5-1.2-1.5-1.7h.2c.5-.1,1.2,0,1.7,0s.6-2.2,1-2.2.7,2.1,1.2,2.1,1.4-.6,1.8-.6h.2c0,.4-1,1.4-1,1.7s2.2.8,2.2,1c0,.4-2.2.3-2.2.7s.8,1.4.8,1.7h-.1c-.3.1-1.5-.5-1.9-.5s-1.1,1.5-1.4,1.5-.2-.2-.2-.3v-1.5c0-.2-.1-.3-.3-.3-.5,0-1.4,0-1.6,0s-.3,0-.3-.1c-.2-.2,1.4-1.3,1.4-1.5M84.1,17.8c-2.7,0-4.4-1.4-4.4-2.1s.2-.6.6-.6c.8,0,2.7,1.3,3.3,1.3s.3,0,.3-.3c0-.7-.6-1.9-.6-2.4s.1-.3.3-.3c1,0,2.6.5,3.4.5s.3-.2.3-.3c0-.8-2.5-2.5-2.5-3s3.1-1.2,3.1-1.9-4.3-.3-4.3-1,.8-1.5.8-1.9-.2-.3-.5-.3-2.2.7-3,.7-.8,0-.8-.6c0-.9,1.5-1.9,3.9-1.9,3.8,0,6.1,2.6,6.1,7,0,5.7-3.8,7.1-5.9,7.1"/>
    </g>
    <g class="cls-14">
      <path class="cls-3" d="M58,84.6c0,.3-.1.7-.5,1.1-.5-.8-1.6-1.2-2.2-1.2-3.9,0-2.4,5.7-6.7,5.7s-1.9-.2-2.6-.2-.5.1-.5.3c0,1,1.4,3.5,5.4,3.5s7.8-2.4,7.8-5.4-.1-1-.3-1.5c.2-.2.6-.4.9-.4.6,0,1,.7,1.5.7s1.1-.5,1.1-1.1-.3-.8-.7-1.1c.3-.2.6-.6.6-1,0-.6-.5-1.3-1.2-1.3s-.6.1-.8.4c0-.7-.5-1.4-1.2-1.4s-1,.5-1,1c-.1.6.3,1.2.3,1.8"/>
    </g>
    <g class="cls-17">
      <path class="cls-3" d="M47.6,86.1c-1.2,0-2.9-1.2-2.9-1.9s.6-.9,1-.9c1,0,2.7,1.2,2.7,2.2s-.2.6-.8.6M36.8,77.5c3.1.8,4.6,2.4,5,4.4.3,1.9.7,3.4,1.4,4.2,1,1,2.8,2.1,4.5,2.1s2.5-.5,2.5-1.7-1.9-4.5-4.7-4.5-.6,0-1,0-.8,0-1.2-.3c-.6-.6-.8-3.4-1.9-5.2-1.3-1.9-2.7-2.4-4.6-2.4s-2.8.7-2.8,1.8c0,.6.4,1,2.8,1.7"/>
    </g>
    <g class="cls-16">
      <path class="cls-3" d="M56.2,72.7c0-1.7-3.6-1.8-3.6-4.4s.5-1.8,1.3-3c.3,2,1.2,3,2.9,3.7,3.4,1.3,3.9,3.2,3.9,5.3,0,3.5-2.4,7.8-8.7,7.8s-8.6-4.4-8.6-8.3.3-2.2,1-2.2.8.5,1.2,1c1.7,1.7,3.6,2.2,6.4,2.2,2.4,0,4.3-1,4.3-2.1M56.3,75.5c-1.3.6-1.9.5-1.9,1.9s-.1,1.2-.1,1.5,0,.7.6.7c1.4,0,3.5-2.3,3.5-4.4s-.3-.8-.6-.8-.6.6-1.5,1.1M44,56c0-2.4,5.9-3.8,5.9-6.8s-.2-1.4-.6-2.1c2.1,1.1,3.5,3,3.5,4.6,0,2.7-2.8,3.9-2.8,5.5s3,2.3,3,4.6-2.8,4.3-2.8,6.8,1.4,3.5,3.5,3.9c-.7.2-1.3.3-1.9.3-3.9,0-7.9-3.2-7.9-7s.8-3.5,2.1-4.8c1,1,2.2,1.5,2.8,1.5s.9-.3.9-.8c0-1.4-5.7-2.7-5.7-5.8"/>
    </g>
    <g class="cls-15">
      <path class="cls-3" d="M21.6,75.1c.2,1.3,1.4,2.3,2.8,2.2.5,0,1-.2,1.3-.4.3,1.2,1.4,2.1,2.8,1.8,1.4-.2,2.4-1.3,2.3-2.7,0-.4-.1-.6-.2-.9,0,0,.2,0,.3,0,1.4-.3,2.3-1.4,2.2-2.7-.2-1.4-1.4-2.4-2.7-2.3-.5,0-1,.3-1.3.5-.3-1.2-1.4-2.2-3-1.9-1.4.2-2.2,1.4-2.1,2.8,0,.3,0,.5.2.8,0,0-.2,0-.4,0-1.1.1-2.3,1.3-2.2,2.8M28.9,73.6c0,.8-.5,1.5-1.3,1.6s-1.5-.5-1.6-1.3.5-1.5,1.3-1.6c.8-.1,1.5.5,1.6,1.3"/>
    </g>
  </g>
</svg>