<?xml version="1.0" encoding="utf-8"?>
<!-- Generator: Adobe Illustrator 26.3.1, SVG Export Plug-In . SVG Version: 6.00 Build 0)  -->
<svg version="1.1" id="Layer_1" xmlns="http://www.w3.org/2000/svg" xmlns:xlink="http://www.w3.org/1999/xlink" x="0px" y="0px"
	 viewBox="0 0 300 330" style="enable-background:new 0 0 300 330;" xml:space="preserve">
<style type="text/css">
	.st0{clip-path:url(#SVGID_00000114781833737300601720000011905498199807395722_);fill:#0067B1;}
	.st1{clip-path:url(#SVGID_00000097478476742802287060000001041337776178639786_);fill:#0067B1;}
</style>
<g>
	<g>
		<defs>
			<rect id="SVGID_1_" x="0.7" width="298.3" height="330"/>
		</defs>
		<clipPath id="SVGID_00000017482701347977157500000009855537031841758631_">
			<use xlink:href="#SVGID_1_"  style="overflow:visible;"/>
		</clipPath>
		<path style="clip-path:url(#SVGID_00000017482701347977157500000009855537031841758631_);fill:#0067B1;" d="M120.5,321.8
			c2.6,0,7-0.8,10.4-6.4c-2-4.4-3.4-13.3-3.6-16.6c-1-16.6,5.4-32.2,12.4-32.6c5.1-0.3,9.2,4.5,9.7,12.4c1.3,20.7-5.6,29.3-9.1,36.8
			c0.6,2.9,5.5,7.8,10.1,7.8c1.7,0,3.8-0.9,4.3-1.5c-0.3-1.2-0.7-2.7-0.7-5c0-12,7.7-22.1,14.4-22.1c5.3,0,8.4,7,8.4,11.6
			c0,5.5-4.6,9.9-11.5,14.2c1.2,1.2,3.4,2.1,5.3,2.1c9.8,0,14.9-11.8,18.7-22.6c0.7-2.1,1.9-5,4.3-5c4.1,0,5.8,27,12.7,27
			c2.9,0,5.3-6,5.3-10.6c0-3.4-1.2-3.8-1.2-8.7c0-5.5,2.9-10.1,6.9-10.1c2.4,0,3.3,2.4,3.3,5.3c0,10.9-7.9,31.3-19.5,31.3
			c-8.7,0-8.1-15.1-11.1-15.1c-3.4,0-8.2,15.2-25.2,15.2c-2.8,0-5.7-1.4-8-4.1c-4.1,2.7-7.5,3.9-11.5,3.9c-6.3,0-9.1-6.5-11.6-6.5
			c-3.1,0-6.5,6.7-16.8,6.7c-8.2,0-9.6-10.9-12.5-10.9c-2.6,0-6.5,10.9-10.8,10.9c-7.2,0-8.7-19-15.1-19c-5,0-20.6,19.3-24.9,18.9
			c-1.7-0.2-2.4-1.5-2.2-3.2c0.2-2.4,2.3-8.7,3.1-11.7c1.4-5.2,2.7-10.9,3.4-12.7c0.7-1.8,2.6-3.1,4.1-3c0.8,0.1,1,1.5,1.2,2.7
			c0.9,4.2,2.1,8.6,3.4,8.6c2.4,0,10.3-15.2,15-15.2c5.7,0,6.3,24,14,24c2.6,0,4.5-3.1,6.2-6.8c0.2-6.3,1.9-15.4,7-15.4
			c3.6,0,5.3,8,2.7,15.1C111.4,319.7,116.9,321.8,120.5,321.8 M257.4,301.3c-2.1,8.8-8.6,21.7-18.1,21.7c-2.2,0-6.2-0.9-6.2-3.1
			c0-2.4,15.1-2.7,15.1-14.2c0-4.3-3.9-10.3-9.8-10.3c-7.7,0-15.2,8.4-15.2,20c0,10.4,6.5,13.9,13,13.9c11.3,0,18.1-9.3,21.7-17
			c1.7,5.1,2.7,17,7,17c1.7,0,2.9-0.9,5-5.5c5.1-11.5,10.1-24.6,16.9-24.6c2.6,0,1,4.6,7.2,4.6c2.9,0,5-2.4,5-5.1c0-3.9-3.6-7-9.1-7
			c-16.1,0-19.5,24.1-22.1,24.1c-4.3,0-2.9-19.3-6-19.3C259.1,296.5,257.8,299.7,257.4,301.3 M143.9,283.2c-0.3-4.8-1.5-6.9-4-6.8
			c-3.4,0.2-5,10.9-4.3,22.2c0.4,7.4,1.5,8.5,2.6,8.4C140,307,144.6,293.8,143.9,283.2 M116.1,273.2c-0.2-2.7-2.4-4.6-5.3-4.6
			c-3.2,0-6.3,3.4-6,7.7c0.2,2.8,1.9,5.1,5.1,5.1C113.7,281.4,116.4,277.1,116.1,273.2 M169.3,308.1c0-2.9-1.5-5.3-3.4-5.3
			c-1.6,0-5.1,1.7-5.1,7.2c0,4.3,1.5,6.3,2.2,7.2C167.9,315.6,169.3,311.5,169.3,308.1 M236.2,302.3c3.6,0,4.6,4.3,3.8,6.8
			c-0.9,2.6-3.9,5.5-8.7,6.3C230.2,312.9,229.7,302.3,236.2,302.3 M39.1,290.1c-0.5-1.6-1.9-5.1-2.3-7.6c-0.9-5.7,2.1-9.5,4.9-10.3
			c3.1-0.9,4.3,0.7,5.5,4.3c1.5,5.5,1.7,12.7,1.2,22.9c-0.7,14-7.7,31-25.1,30.6c-15.1-0.3-21.7-10.1-22.4-25c-0.3-7,0.2-14,3.1-24
			c1.5-5.3,2.9-7.2,7.7-8.2c3.8-0.7,3.4,3.2,2.6,7.9c-1.9,10.3-2.7,15.2-2.1,26.9c0.7,12.3,6.3,17.1,12.5,17.1
			c9.2,0.2,13.4-7.5,15.1-18.7C41,297.1,40,292.9,39.1,290.1"/>
	</g>
	<g>
		<defs>
			<rect id="SVGID_00000139976330774292729900000010479420260295545221_" x="0.7" y="0" width="298.3" height="330"/>
		</defs>
		<clipPath id="SVGID_00000049936089469998509280000017368808840302244276_">
			<use xlink:href="#SVGID_00000139976330774292729900000010479420260295545221_"  style="overflow:visible;"/>
		</clipPath>
		<path style="clip-path:url(#SVGID_00000049936089469998509280000017368808840302244276_);fill:#0067B1;" d="M241,67.5
			c1.2,8.6,14.3,20.2,17.8,20c2.4-0.2,3.3-11.3,3.3-20c0-5,0.3-8.9-2.4-9.8C255.5,66.1,244.6,67.8,241,67.5 M241.7,63.7
			c9.4,0,18.1-7.5,18.1-14.2c0-3.1-1.5-5.6-5.2-6.1c0.6,0.8,0.9,1.5,0.9,2.9c0,5-7.6,10.5-15.9,10.5c-3,0-3.9,2.1-3.9,3.2
			C235.7,62.6,238.2,63.7,241.7,63.7 M239.7,53.4c-1.3,0-3.1,0-4.1-2c-0.8-1.6-0.5-4.3-2.1-5.5c1.5,0.5,3.2,0.5,4.5,0.5
			c4.1,0,8-2.8,11-2.8c2,0,2.6,1.3,2.6,2.5C251.6,50.1,243.6,53.4,239.7,53.4"/>
		<path style="clip-path:url(#SVGID_00000049936089469998509280000017368808840302244276_);fill:#0067B1;" d="M36.6,124.6
			c3.1,0,2.4-18.9,7.4-18.9c1.2,0,1.5,1.2,1.5,2.6c0,4.3-2.1,10.5-2.1,14c0,1.7,0.5,2.3,1.3,2.3c2.2,0,6-20.8,9.7-20.8
			c1.2,0,1.7,1.2,1.7,2.4c0,4.4-5.5,16.9-5.5,20.4c0,0.5,0.2,1,0.6,1c2.3,0,6.8-9.8,8.3-14.7c0.8-2.5,1.9-3.9,2.9-3.9
			c0.9,0,1.7,1,1.7,3.1c0,4.9-4.5,16.4-8.5,24.2c-3.1,6-7.9,14.6-7.9,19.4c0,2.5,0.4,5,4,8.1c-5.8-0.4-8.2-0.9-10.4-5.4
			c-9.7,19.3,17.9,17.4,8.4,34.6c-1.7-3.1-15.4-6.3-15.4-24.2c0-15.5,13.6-24.6,13.6-31.1c0-1.3-0.4-2.4-1.6-3.4
			c-3-2.5-3.1-4.6-5.4-4.6c-1.7,0-3.8,4-1.6,7.5c0.7,1.2,1.4,1.9,1.4,3c0,2.5-4,9.4-6.8,9.4s-5-7-5-18.3c0-10,2.3-20.1,5.1-20.1
			c0.8,0,1.1,0.5,1.1,1.3c0,1.2-0.4,3.5-0.4,7.5C34.8,124.2,35.8,124.6,36.6,124.6"/>
		<path style="clip-path:url(#SVGID_00000049936089469998509280000017368808840302244276_);fill:#0067B1;" d="M59.7,151.2
			c3.8,0,7-2.8,7-9.1v-9.3c0-3.5,0.3-7.5,2.6-10.4c-0.3,1.2-0.3,2.5-0.3,3.6c0,7.8,4.4,13.2,4.4,20.7c0,2.8-0.8,4.4-3,4.4
			c-2.1,0-1.9-1.9-2.4-1.9c-0.4,0-0.9,1.2-0.9,2.5c0,1.9,1.4,4.9,5.2,4.9c3.3,0,5.9-3,5.9-6.4c0-8.2-6.4-17.3-6.4-26
			c0-3.8,1-6.4,1.8-8.4c0,18.1,15.3,31.2,15.3,38.8c0,1.7-1.3,3.1-3.2,3.1c-2.1,0-3.1-1.6-3.1-2.9c0-0.6-0.1-0.8-0.4-0.8
			c-0.5,0-2.2,1.8-2.2,4.2c0,3,2.4,6.6,7,6.6c5.2,0,8-4.4,8-8.3c0-9.5-18.6-24-18.6-39.4c0-2.6,0.4-6.9,2.4-10.2
			c-12,7.7-15.7,18-15.7,27c0,7.8-0.3,11.7-4.3,11.7c-2.1,0-2.6-1.9-3.4-1.9c-0.5,0-0.8,1.6-0.8,2.1
			C54.8,149.3,57.3,151.2,59.7,151.2"/>
		<path style="clip-path:url(#SVGID_00000049936089469998509280000017368808840302244276_);fill:#0067B1;" d="M217.1,60.5
			c4,0,7-1.8,7-2.9c0-0.4-0.5-0.6-1.7-0.6c-1.2,0-3.5-0.1-8-0.8c-3.8-0.6-6.7-2.1-7.8-2.1c-0.4,0-0.5,0.2-0.5,0.5
			C206,56.9,210.4,60.5,217.1,60.5 M197.3,48.9c1.2-0.8,6.3,0.5,12.9-2.8c0.8-0.4,1.6-0.6,2.4-0.6c3.2,0,2.4,3.6,5.3,3.6
			c2.3,0,5.2-1.9,6.9-1.9c2.7,0,6.6,8.5,6.6,12.5c0,4.6-7,7.4-15.2,7.4c-12.1,0-19.3-10.5-19.3-17.3
			C196.8,49.3,197.1,49.1,197.3,48.9"/>
		<path style="clip-path:url(#SVGID_00000049936089469998509280000017368808840302244276_);fill:#0067B1;" d="M61.7,185.4
			c-3,0.7-7.8,5.4-7.8,12.9c0,8.9,9.5,22.6,25.3,22.6c13.3,0,16.5-9.2,16.5-15.4c0-13.7-8.4-23.3-19.4-23.3c-6,0-11.4,4.4-11.4,10.8
			c0,6,4.5,15,15.3,15c5.1,0,8.1-3.6,8.1-7.8c0-4.1-3.7-9.7-9.2-9.7c-1.6,0-2.8,1.1-2.8,2.8c0,2.2,3,4.4,6.7,4.4
			c0.9,0,1.6-0.2,2-0.4c0.2,0.3,0.3,0.7,0.3,1.1c0,2.1-2,3.4-5.1,3.4c-4.6,0-9.1-3.5-9.1-8.9c0-3.3,2.8-5.6,6.9-5.6
			c8.1,0,12.9,7.2,12.9,14.4c0,6.4-3.5,10.2-10.8,10.2C65.6,211.8,58.5,198.7,61.7,185.4"/>
		<path style="clip-path:url(#SVGID_00000049936089469998509280000017368808840302244276_);fill:#0067B1;" d="M158.3,220.5
			c0,2,1.6,3.6,3.6,3.6s3.6-1.6,3.6-3.6c0-2-1.6-3.6-3.6-3.6S158.3,218.5,158.3,220.5 M165.3,238.6c4.4,0,4.1-0.4,5.5-0.4
			c1.4,0,1.4,0.8,1.4,1.4c0,2-4.5,4.5-12.4,4.5c-4.6,0-7.5-2.5-8.3-5.2c-4.5,2.9-11.4,5.5-18.3,5.5c-18.6,0-23.3-8.1-29.2-10.7
			c-4.5-2-11.3,1.9-20.8-8.7c1.3,0.3,3,0.4,4.4,0.4c8.3,0,12.8-4.1,12.8-10.6c0-0.8-0.1-1.7-0.2-2.5c2.5,1,8.4,5.3,9.7,13.1
			c0.2,0.9,3.9,1.7,6.3,1.7c3.3,0,7.5-1.4,8.1-6.7c10.9-0.9,18.3-7.3,19.8-15.5c3.9,1.3,8.4,4.8,9.4,6.6c1.5-0.5,3.4-0.8,5.4-0.8
			c2.9,0,6.2,0.5,10.1,1.7c0.2-1.2,0.4-2.6,2.2-2.6c2.7,0,2,3,2.9,4.7c0.5,0.9,2.7,1.5,2.7,3.3c0,1.7-1.5,2.4-2.4,2.4
			c-0.4,0-0.8-0.1-1.1-0.2c-1.8,0.6-1.9,13.7-9.5,13.7c-5.6,0-10.8-4.6-13.1-10.4c-0.6-1.7-2-2.8-3.3-2.8c-1.4,0-2.3,0.3-4,2.2
			c-4.9,5.3-13.1,10-23.2,10c-3.1,0-5.5-0.3-6.2-0.3c-0.4,0-0.4,0.1-0.4,0.2c0,0.6,3.1,3.1,9.8,3.1c16,0,19.9-9,22.4-9
			c0.4,0,1.4,0,2.1,1.5C152.1,236.7,160.2,238.6,165.3,238.6"/>
		<path style="clip-path:url(#SVGID_00000049936089469998509280000017368808840302244276_);fill:#0067B1;" d="M220.4,180.8
			c-1.9,0-12.5,14.1-19.2,14.1c-1.6,0-3-3.1-3-5.4c0-1.3,0.8-2.2,3.7-2.8c15.6-3.5,12.2-15.3,25.5-15.3c7.4,0,15.5,5,15.5,16.3
			c0,12-17.1,26.9-19.6,26.9c-2.1,0-4.4-3-4.4-5c0-0.6,0.3-1.5,2.1-2.2c8.7-3.5,13.7-11.4,13.7-15.5c0-0.9-0.5-1.8-1.6-1.8
			c-1.5,0-8.1,15.1-15.5,15.1c-5.1,0-10.3-4.6-10.3-6.8c0-3.6,14.7-10.4,14.7-15.4C222,180.9,221.1,180.8,220.4,180.8 M230.2,175.2
			c-1.3,0-2.6,1-2.6,3.5c0,2.7,2.1,4.4,3.3,5c0.6,0.4,1.6,0.7,2.6,0.7c2.6,0,4.7-0.7,4.7-2.9C238.2,178.6,234.1,175.2,230.2,175.2"
			/>
		<path style="clip-path:url(#SVGID_00000049936089469998509280000017368808840302244276_);fill:#0067B1;" d="M60.6,70
			c0,2,1.6,3.6,3.6,3.6c2,0,3.6-1.6,3.6-3.6c0-2-1.6-3.6-3.6-3.6C62.2,66.4,60.6,68,60.6,70 M55.8,61.8c0,2,1.6,3.6,3.6,3.6
			c2,0,3.6-1.6,3.6-3.6c0-2-1.6-3.6-3.6-3.6C57.5,58.2,55.8,59.8,55.8,61.8 M52.6,86.7c-2.1,0.5-6.5,3.1-6.5,7.6
			c0,3.3,2.5,5.4,5.7,5.4c1.6,0,2.8-0.4,3.5-0.9c-2.5-2.4-3.4-5.2-3.4-7.9C51.9,89,52.2,87.8,52.6,86.7 M30.3,88
			c-0.1,0.5-0.1,0.9-0.1,1.4c0,4.3,2.3,6.6,5.3,6.6c2.3,0,4.9-1.4,7.3-4.4c-1,0.2-2.2,0.3-3.3,0.3C36.1,91.9,32.5,91,30.3,88
			 M27.1,96.1c0,6.9,2.1,10.2,5.8,10.2c2.9,0,6.8-2.1,11.4-6.1c-3.5,0.8-6.3,1.4-8.7,1.4C32.4,101.5,29.9,100.3,27.1,96.1
			 M50.7,59.8c0.5-1.5,0.8-3.3,0.8-5.3c0-4.4-2-11-8.2-11c-3.5,0-6.1,2.8-6.1,6.2C37.2,56.8,44.4,59.8,50.7,59.8 M42.9,82.6
			c-3,0-6.3-3.7-6.3-7.1c0-1.8,1.4-4.1,2.4-4.1c0.4,0,0.5,0.3,0.6,0.9c0.5,4.5,3.4,7,6.2,8.3l0.5,0.4C46.3,81.7,44.6,82.6,42.9,82.6
			 M51.3,71.6c0.6,0.9,2.4,1.9,2.4,2.5c0,1.3-0.7,2.9-2.2,2.9c-3.2,0-5.7-4.8-5.7-7.5c0-1.7,1-1.9,2.4-1.9c0.6,0,0.9,0.1,1.4,0.4
			C50.3,68.4,50.3,70.2,51.3,71.6 M30,82.8c-0.2,0.3-0.3,0.6-0.3,1c0,0.8,0.9,1.7,1.7,1.7c0.7,0,1.2-0.2,1.5-0.2
			c2.2,0,4.6,1.5,8.2,1.5c2.1,0,4.5-0.6,7.6-2.2c6.5-3.3,9.1-11.3,9.1-12.7c0-1.7-1.4-1.5-2.6-3.1c-1.2-1.6-0.7-3-1.5-3.7
			c-0.4-0.4-1.7-0.5-3.4-0.6c-0.5-0.1-1.3-0.1-2-0.1c-3,0-6.5,0.4-10.5,2.9C30.1,72.4,31.2,80.7,30,82.8 M60.1,79.2
			c-2,2.4-4.1,6.4-4.1,10.4c0,4.9,3,9,7.6,9c4.4,0,6.5-3.8,6.5-7.7C70.2,84.8,64.7,80.5,60.1,79.2 M40.7,61.8c0,0-2.6,2-5.9,2
			c-3.9,0-7-2.9-7-7c0-2.8,1.4-5.7,4.8-7.2c-0.1,0.5-0.1,1-0.1,1.5C32.5,56.3,35.4,60.2,40.7,61.8"/>
		<path style="clip-path:url(#SVGID_00000049936089469998509280000017368808840302244276_);fill:#0067B1;" d="M200.8,91.9
			c0,2.1,1.7,3.8,3.8,3.8c2.1,0,3.8-1.7,3.8-3.8c0-2.1-1.7-3.8-3.8-3.8C202.5,88.1,200.8,89.8,200.8,91.9 M201.1,103.3
			c0,2.4,1.9,4.3,4.3,4.3c2.4,0,4.3-1.9,4.3-4.3c0-2.4-1.9-4.3-4.3-4.3C203,99.1,201.1,101,201.1,103.3 M188,111.1
			c0,3.5,2.8,6.3,6.3,6.3c3.5,0,6.3-2.8,6.3-6.3c0-3.4-2.8-6.3-6.3-6.3C190.8,104.8,188,107.6,188,111.1 M191.3,98.3
			c0,2,1.6,3.6,3.6,3.6c2,0,3.6-1.6,3.6-3.6c0-2-1.6-3.6-3.6-3.6C193,94.6,191.3,96.3,191.3,98.3 M179.4,105.5c0,2,1.6,3.6,3.6,3.6
			c2,0,3.6-1.6,3.6-3.6c0-2-1.6-3.6-3.6-3.6C181.1,101.9,179.4,103.5,179.4,105.5 M188.8,84.3c0,3.2,2.6,5.8,5.8,5.8
			c3.2,0,5.8-2.6,5.8-5.8c0-3.2-2.6-5.8-5.8-5.8C191.4,78.5,188.8,81.1,188.8,84.3 M195.6,73.1c0,1.9,1.5,3.4,3.5,3.4
			s3.5-1.5,3.5-3.4c0-1.9-1.6-3.5-3.5-3.5S195.6,71.2,195.6,73.1 M179.2,81.8c0,1.9,1.5,3.5,3.4,3.5c1.9,0,3.5-1.5,3.5-3.5
			c0-1.9-1.5-3.5-3.5-3.5C180.7,78.4,179.2,79.9,179.2,81.8 M178.7,93.6c0,3.1,2.5,5.5,5.5,5.5c3.1,0,5.5-2.4,5.5-5.5
			c0-3.1-2.5-5.5-5.5-5.5C181.2,88.1,178.7,90.5,178.7,93.6 M167.3,99.4c0,2.8,2.4,5.2,5.2,5.2c2.8,0,5.2-2.4,5.2-5.2
			c0-2.8-2.4-5.2-5.2-5.2C169.6,94.3,167.3,96.6,167.3,99.4 M170.4,86.6c0,2,1.6,3.6,3.6,3.6c2,0,3.6-1.6,3.6-3.6
			c0-2-1.6-3.6-3.6-3.6C172,83,170.4,84.6,170.4,86.6 M202.2,114.6c0-1.8,1.6-3.4,3.4-3.4c2,0,3.5,1.5,3.5,3.4
			c0,2.1-1.6,3.5-3.5,3.5C203.9,118.1,202.2,116.7,202.2,114.6"/>
		<path style="clip-path:url(#SVGID_00000049936089469998509280000017368808840302244276_);fill:#0067B1;" d="M204.6,219
			c0.5,0,1,0.3,1,1.9c0,2-0.9,4.6-4.2,6.7c-2.3,1.5-5.4,2.8-9.9,2.9c0.7-2.2,1.3-4.4,1.3-6.6c0-0.7-0.1-1.3-0.2-2.1h1.2
			C201,221.9,204.1,219,204.6,219 M205.3,210.1c0.7-0.6,0.9-1.6,0.9-2.6v-2.1c0-2.6-4-4.2-9.4-4.2c-6.6,0-10.2,3-10.2,4.3v4.2
			c0,1.7,4,3.5,8.9,3.5C199.4,213.1,203,212.1,205.3,210.1 M210,211.1c-2.4,1.8-7.9,5.9-17.1,5.9c-4.9,0-7.1-1.5-7.8-1.5
			c-0.9,0-1.9,0.9-2.9,2.1c-2.2,2.5-5,7.3-5,12.4c0,3.6,2.8,7.3,8.1,7.3c17,0,29.7-10.6,29.7-19.2C215,213.1,212.1,211.1,210,211.1"
			/>
		<path style="clip-path:url(#SVGID_00000049936089469998509280000017368808840302244276_);fill:#0067B1;" d="M213.2,134.7
			c0,2.3,0.7,4.9,3,4.9c1.9,0,3.5-2.9,3.5-6.1c0-3.6-0.6-6.4-0.6-7.9c0-0.6,0.3-0.9,0.6-0.9c1.4,0.1,2.6,3.8,4.1,3.8
			c1.6,0,4.1-3,5.1-3l0.4,0.4c0,1.4-2.1,4.4-2.1,5.5c0,1,5.3,1.2,5.3,2.1c0,1.4-5.5,1.4-8.2,2.5c-2.5,1.1-4.1,2.4-4.1,4.3
			c0,1.8,1.8,2.2,4.4,2.2c6.1,0,10.3-3.3,11.7-3.3l0.5,0.5c0,0.9-3.1,3.9-3.1,5.3c0,1.5,5.6,3.4,5.5,4.3c-0.1,0.3-0.5,0.4-1.1,0.4
			c-1,0-2.5-0.3-3.7-0.3c-0.7,0-1.4,0.1-1.6,0.4c-0.6,0.7,0.2,5.5-1.1,5.5c-1.2,0-4.3-10.7-11.3-10.7c-1,0-1.7,0.8-1.7,2.2
			c0,3.6,3.5,7.8,6.9,9.8c1.5,1,4.1,2,4.1,2.6c0,1.1-5.8,0.1-5.8,1.9c0,1.6,0.7,4.1,0.7,5.5c0,0.5-0.1,1-0.6,1c-1.1,0-3.7-5-5-5
			c-1.1,0-3.5,3-4.5,3l-0.5-0.5c0-2.1,3.4-6.8,3.4-11.4c0-2.2-0.3-6.9-2.9-6.9c-2.2,0-4.6,3.4-5.7,6.9c-0.6,2-0.2,9.7-1.6,9.7
			c-1.4,0-1-5.2-2.8-5.2c-1.3,0-4.3,2.4-5.3,2.4l-0.4-0.3c0-1.1,2.6-4.6,2.6-5.4c0-1.4-6-1.5-6-2.6c0-0.6,2.4-1.1,4.5-1.5
			c4.6-0.8,11.4-4.2,11.4-8.9c0-5.3-5.1-7.5-8.4-9.7c-1.7-1.1-3.6-2-3.6-2.7c0-0.7,2.2-0.7,3.1-0.7c1.4,0,2.7-0.1,2.7-1.2
			c0-0.8-0.2-2.5-0.2-3.7c0-0.9,0.1-1.6,0.5-1.6c1.4,0,3.3,4.5,4.2,4.5c1.5,0,3.5-3.6,4.8-3.6c0.4,0,0.6,0.3,0.6,1.1
			C214.9,127.6,213.2,131.4,213.2,134.7 M169.9,108.1c1,7.7,11.4,3.8,11.4,13.2c0,1.4-0.4,3.4-0.4,5.1c0,2,0.2,3.7,1.7,3.7
			c1.5,0,1.9-1.1,1.9-2.5s-0.4-3.3-0.4-4.3c0-3.2,2.3-3.9,3.6-3.9c3.5,0,6.1,3.5,11.3,3.5c-1.2,5.8-13.2,4.3-13.2,10.6
			c0,3.2,3.2,3.9,5.3,3.9c1.9,0,2.5-0.3,2.5-1.9c0-0.9-0.2-1.9-0.2-2.5c0-0.4,0.3-0.7,0.7-0.7c2,0,11.8,7.4,11.8,9.7
			c0,2.1-10.3,4.2-13.3,4.2c-0.9,0-1.1-0.6-1.1-1c0-0.6,1.5-2.6,1.5-3.6c0-0.8-1.4-1.4-5-1.4c-1.7,0-3,0.2-3,1.6c0,2.4,4,5.4,4,7.7
			c0,1.8-1.1,2.9-4,2.9c-2.5,0-6.2-1.9-6.2-5.1c0-2.5,2.6-5.1,2.6-6.6c0-0.5-0.3-1.2-1.4-1.2c-3.4,0-4.3,8.9-16.2,9.9
			c1.9-1.7,3.5-3.6,3.5-7.5c0-1.9-0.4-3.5-0.4-5.5c0-2.7,1.3-4.1,3.1-4.1c3.4,0,5,4.7,7.2,4.7c1.2,0,2.5-1.1,2.5-2.7
			c0-6.9-13.3-5.9-13.3-15.6C166.5,115.9,167.4,112.6,169.9,108.1"/>
		<path style="clip-path:url(#SVGID_00000049936089469998509280000017368808840302244276_);fill:#0067B1;" d="M187.2,167.1
			c0,1.3,0.9,2.3,2.2,2.3c1.5,0,2.4-1.3,2.4-2.7c0-1.9-1.7-4.5-3.4-4.5c-0.7,0-0.5,1.1-0.6,2.3C187.6,165.3,187.2,166.4,187.2,167.1
			 M182.4,155c9.5,1.8,14.7,9,14.7,15.7c0,4.6-2.9,8.9-8,8.9c-4.6,0-8-3.2-8-8.3c0-3.8,3-7.8,3-11.7
			C184.2,158.1,183.7,156.6,182.4,155 M170.4,170.5c0.9,0.9,1.2,1.8,1.2,2.7c0,1.4-0.6,2.8-0.6,4.4c0,2.2,1.6,4.1,4,4.1
			c2.6,0,4.3-2,4.3-4.4C179.2,173.8,175.6,170.5,170.4,170.5 M200.4,164.6c0.6,1,0.9,2,0.9,2.9c0,2.5-1.7,4.9-1.7,7.5
			c0,3,2.3,5.4,5.7,5.4c3.7,0,6.3-3,6.3-6.5C211.6,169.2,207.2,165.1,200.4,164.6 M172.5,159.8c4.2,0.5,5.2,2,5.2,3.2
			c0,2-1.8,2.6-3.5,2.6c-1.3,0-2.7-0.3-4.3-0.3c-2,0-4,0.5-5.6,2.4c1.2,0.2,2.9,1,2.9,2.8c0,5.3-14.6,0.9-14.6,14.4
			c0,7.2,7.4,15,18.7,15c5.8,0,9.5-1.9,9.5-4.1c0-1.7-3.1-0.5-3.1-2c0-0.6,1.1-1.8,1.1-2.8c0-0.4-0.4-1.3-1.1-1.3
			c-1.6,0-4.7,2.6-11,2.6c-4.9,0-9.7-2.8-9.7-6.6c0-0.8,0.4-1.3,0.9-1.3s1.3,0.4,1.9,0.4c0.5,0,0.6-0.4,0.6-1.4c0-1,0-3.8,1.7-3.8
			c1.7,0,5,6.4,17.5,6.4c4.2,0,12.3-0.8,15.2-3.5c-0.1,10-7.9,23.2-24.3,23.2c-17,0-26.1-13.6-26.1-26.2c0-13.9,11.3-26.5,26.9-26.5
			c4,0,7.4,1.4,7.4,3.1C178.9,158.5,173,157,172.5,159.8"/>
		<path style="clip-path:url(#SVGID_00000049936089469998509280000017368808840302244276_);fill:#0067B1;" d="M113.8,56.1
			c6,0,8.7,5.2,8.7,11c0,2.5-0.7,6.3-1.9,6.3c-1.2,0-1-2.1-1.2-4c-0.2-2.4-0.6-3-1.5-3c-1.5,0-2.5,3.6-2.5,7c0,2.1,0.4,4.4,2,4.4
			c0.9,0,1.7-0.5,2.3-1c-0.4,4.2-3.5,7.8-7.8,7.8c-8,0-11-9.4-11.9-14.8c-4.8,5.1-9.3,8.8-17.3,8.8c-7.4,0-10.8-5.4-10.8-10.6
			c0-1.5,0.5-5.5,2.5-5.5c2.3,0,0.3,7.4,4.7,7.4c1.1,0,3.1-0.9,4.2-3.9c0.6-1.8,1-3.7,1-5.4c0-2.5-0.5-4-2.4-4
			c-1.6,0-3.5,1.2-4.1,1.8c2.2-6.5,7.5-9.9,13.3-9.9c7.2,0,11,6.4,11,13.4c0,1-0.1,2.1-0.3,3.1C104.9,60,109.1,56.1,113.8,56.1
			 M106.8,66.8c0-1.5-0.4-1.9-0.7-1.9c-0.9,0-1.9,1.1-3.4,3.5c0.2,3.3,0.7,4.7,1.6,4.7C105.3,73.2,106.8,70,106.8,66.8 M94.3,70.6
			c1,0,2.3-1.1,4.6-3.7c0.2-1.2,0.2-2.3,0.2-3.6c0-1.8-0.7-3.8-1.8-3.8c-2.7,0-4.1,7.3-4.1,9.2C93.3,69.7,93.8,70.6,94.3,70.6
			 M109.1,78.6c2.3,0,4.8-8.7,4.8-14.2c0-1.2-0.2-2.5-0.7-2.5c-1.9,0-5.1,9-5.1,13.9C108.1,77.8,108.6,78.6,109.1,78.6 M86.9,73.7
			c3.1,0,6.6-16.7,6.6-19.5c0-0.7-0.3-1.3-0.9-1.3c-2.8,0-6.7,15.9-6.7,19.4C85.9,72.9,86.1,73.7,86.9,73.7"/>
		<path style="clip-path:url(#SVGID_00000049936089469998509280000017368808840302244276_);fill:#0067B1;" d="M96.8,80.5
			c-3.9,0-4.1,4.7-4.1,14.3c-2.9-6.3-7.7-13-13.3-13c-3.8,0-5.3,2.5-5.3,7c0,0.9,0.1,2.3,0.3,3.1c0.4-1.5,1.9-2.2,3.7-2.2
			c3.9,0,8.6,3,11.7,7.1c-3.5-0.6-7-1.3-9.9-1.3c-1.8,0-3.5,0.2-4.8,0.8c-2.6,1.2-6.2,5.1-6.2,11c0,0.9,0.1,1.9,0.3,3
			c3.2-7.1,11.6-10.3,17.1-10.3c1.1,0,1.9,0.1,2.5,0.2c-2.8,2.5-3.5,7-3.6,10c-0.1,1.5-0.6,1.5-1.6,1.5c0,3,2.4,7.4,2.4,9.7
			c0,0.8-0.5,1.5-0.9,1.7c0,4,4,6.9,4,9.4c0,0.6-0.2,1.2-0.5,1.5c0.3,1.6,4.7,4.4,5.2,5.8c0.7,1.7,1.5,2,1.9,2c1.5,0,4-1.8,4-3.5
			c0-0.5-0.5-1.2-0.8-1.5c-1.7-1.3-2.6-4-3.4-5.8c-0.6,0-1.5-0.3-1.7-1.3c-0.5-1.9-0.5-5.4-1.2-7.5c-1.2-0.3-1.7-0.7-1.7-3.2
			c0-1.2,0.7-5.8,0.7-7.4c-0.5,0-1.3-0.4-1.3-1.5c0-2.9,2.9-5.2,3.7-8.9c5.2,3.8,6.5,7.7,6.5,11.2c0,1.8-0.3,3.5-0.6,5.2
			c3.8-1.9,9.5-4.7,9.5-10.4c0-3.4-1.5-7.1-11.8-8.5c3.2-1.2,7.2-1.8,10.5-1.8c5.8,0,9.2,1.8,9.9,5.9c1.2-1.8,2.1-3.9,2.1-5.8
			c0-4.5-3.7-7.4-8.4-7.4c-5.5,0-10.4,2.9-15.7,6.4c2.4-4.9,4-7.8,6.9-7.8c0.5,0,0.9,0.1,1.4,0.2C103.1,84.5,99,80.5,96.8,80.5"/>
		<path style="clip-path:url(#SVGID_00000049936089469998509280000017368808840302244276_);fill:#0067B1;" d="M249.8,146
			c4.5,0,8.2,5.9,8.2,12.8c0,7.4-3.5,15.3-9.6,20.8c-0.1-12.3-15.1-8.3-15.1-17.2c0-3.8,2.7-6.4,6-6.4c2.9,0,5.2,0.8,6.8,2.5
			c-1.6-1.5-2.5-3.7-2.5-5.8C243.6,149.2,245.8,146,249.8,146"/>
		<path style="clip-path:url(#SVGID_00000049936089469998509280000017368808840302244276_);fill:#0067B1;" d="M182.4,53.1
			c-0.7-1.2-3.4-1.8-4.7-1.8c-4,0-6.7,2.8-7.3,5.4c-0.4-0.9-0.6-2-0.6-3.1c0-4,2.7-8.9,9.4-8.9c5.8,0,8.1,3.1,8.9,3.1
			c0.9,0,1.8-0.9,2.6-0.9c1,0,1,1.5,1,2.6c0,3.6-1.6,9.9-5.7,12.2c-0.7-1.5-2.2-3.3-4.5-4.4c-0.6-0.3-0.9-0.8-0.9-1.4
			C180.4,54.9,181.4,53.7,182.4,53.1 M168.7,59.8c2.4,2.3,4.4,3.3,7,3.3c1,0,2.2-0.3,2.8-0.3c0.8,0,1.4,0.4,1.4,1c0,1-0.9,2.6-2,3.5
			c1.1,0.5,2.3,0.6,3.5,0.6c5.2,0,11.1-3.3,11.1-11.4c1.1,1.4,1.7,4.4,1.7,5.8c0,9.9-7.3,13.7-14,13.7c-4.4,0-6.5-1.5-7.1-1.5
			c-1.7,0-1.6,3.5-2.8,3.4c-2.1-0.4-4-5-4-9.9C166.4,65.1,167.1,62,168.7,59.8"/>
		<path style="clip-path:url(#SVGID_00000049936089469998509280000017368808840302244276_);fill:#0067B1;" d="M91,2
			c0-0.5-2.7-1.1-6.4-1.1c-5.9,0-5.1,4.9-9.6,4.9c-4.7,0-3.5-5.1-9.5-5.1c-3.6,0-7,0.6-7,1.5c0,1.1,4.3,0.6,4.3,3.6
			c0,3.2-9.2,4.1-9.2,6c0,0.6,0.7,0.9,1.6,0.9c2,0,5.2-0.9,7.5-0.9c1.3,0,2.5,0.3,2.5,1.4c0,2.3-4.9,6.4-4.9,8.2
			c0,0.5,0.4,0.7,0.9,0.7c1.8,0,4.9-4.6,7.8-4.6c4.8,0,1.6,10.3,4.3,10.3c2.7,0,1.6-10.1,5.5-10.1c3.2,0,5.5,7,7.7,7
			c0.5,0,1-0.5,1-1.1c0-1.9-2.7-5.8-2.7-8.3c0-1.5,1.1-2.3,2.5-2.3c2.1,0,4.9,1.3,6.4,1.3c0.5,0,1.1-0.2,1.1-0.8
			c0-2.2-8.1-4.5-8.1-7.4C86.5,3.3,91,3.3,91,2 M112.3,11.3c0,1.6,5.7,5.2,8.4,5.2c1.5,0,2-2.1,2-4.3c0-2.7-1.2-2.8-3.5-2.8
			C116.1,9.4,112.3,10.2,112.3,11.3 M121.8,29.2c0-5.4-14.7-15.3-14.9-19.6c0-0.4,0.2-0.8,0.5-1.1c2.5-2.7,13-4.6,13-6.9
			c0-1.2-2.2-1.2-3.3-1.2c-8.4,0-20.8,3.1-20.8,6.1c0,3.1,11.1,10.6,11.1,14.4c0,1-0.6,1.4-1.6,1.4c-3.1,0-9.8-3.7-13-3.7
			c-1.5,0-2,1-2,2.5c0,4.4,5.2,12.6,5.2,15.1c0,0.3-0.1,0.6-0.5,0.6c-1.6,0-9.3-9.1-12.1-9.1c-1,0-1.1,1.4-1.1,3.4v3.1
			c0,2.1-0.1,3.4-1.1,3.4c-2.4,0-3.5-6.6-5.7-6.6c-2.4,0-2.8,11.8-5.1,11.8c-2.6,0-0.4-13-2.9-13c-2.8,0-6,8.6-8,8.6
			c-0.7,0-0.9-0.7-0.9-1.4c0-2.6,1.5-6.9,1.5-9.4c0-1.3-0.4-2-1.5-2c-2.8,0-9,4.5-11.3,4.5c-0.4,0-0.8-0.2-0.8-0.5
			c0-2.2,9.9-9.1,9.9-12.2c0-3-13.6-1-13.6-4.5c0-2.9,9.7-5.9,9.7-8.9c0-2.6-11.5-3.8-16-3.8c-5.4,0-8.3,0.6-8.3,2.2
			c0,2.4,12.2,3.1,12.2,5.2c0,2-12.6,7.4-12.6,10.4c0,2.7,17.8,0.2,17.8,3c0,3.1-15.5,16.4-15.5,20.9c0,1,0.7,1.5,1.7,1.5
			c4.7,0,17-9,20.3-9c1.2,0,1.3,1.4,1.3,2.7c0,2.4-0.8,6-0.8,8.6c0,2.1,0.5,3.5,2.4,3.5c3.4,0,6.5-5.7,8.7-5.7
			c2.9,0,1.2,16.8,5.5,16.8c3.7,0,5.3-18.2,7.6-18.2c2.4,0,4.3,5.3,6.5,5.3c2.7,0,1.5-9.2,4.4-9.2c3.2,0,12.3,10.9,16.3,10.9
			c1.3,0,1.7-1,1.7-2.3c0-4.8-6.7-15.7-6.7-19.2c0-0.9,0.3-1.2,1.3-1.2c3.5,0,13.9,4.9,18.8,4.9C120.8,31.3,121.8,30.4,121.8,29.2
			 M38.9,24c0,1.8-6.9,7.9-9.3,7.9c-0.9,0-1.2-1.1-1.2-2.1c0-1.8,0.8-4.4,1.8-5.2c1.2-1.1,3.9-1.6,6-1.6C37.4,23,38.9,23.2,38.9,24
			 M105.6,33.3c0,3.2,11.4,18.7,13.5,18.7c1.8,0,3.2-3.2,3.2-5.9c0-0.7-0.2-1.4-0.5-2c-1.6-2.3-13.2-11.4-15.7-11.4L105.6,33.3z"/>
		<path style="clip-path:url(#SVGID_00000049936089469998509280000017368808840302244276_);fill:#0067B1;" d="M251.4,5.8
			c0,1.3,1,2.3,2.3,2.3c1.3,0,2.3-1,2.3-2.3s-1-2.3-2.3-2.3C252.4,3.5,251.4,4.5,251.4,5.8 M236.6,25.9c0-6.5-15.4-8.1-15.4-9.5
			c0-1.2,8.6-3.2,13.1-3.3c-6.8-8.7-16.5-7.8-16.5-9.3c0-0.9,7.3-2.7,14-2.7c5.6,0,10.9,1.3,10.9,5.5c0,2.4-1.9,4.8-1.9,8.5
			c0,2,1,3.7,3.6,3.7c2.8,0,3.5-3,3.5-6.2c0-2.6-0.5-4.6-0.5-5.9c0-3.8,2.6-6.3,6.3-6.3c3.1,0,3.8,1.4,8.4,1.4
			c-2.5,1.5-3.4,4.1-3.4,5.4c0,3.8,2.5,6.4,2.5,14.3c0,14.3-13.4,19.4-29.9,19.4c-4.5,0-9.3-0.4-14.1-1.1c-0.7-0.1-0.9-0.3-0.9-0.7
			c0-1.2,6.5-1.8,6.5-7.6c0-2.3-0.7-4.5-0.7-5.3c0-0.5,0.4-0.7,0.7-0.7c1.4,0,4.1,5.3,9.2,5.3C233.3,30.5,236.6,30.1,236.6,25.9
			 M252,16.7c0,8.1-5.9,14.3-16.5,16c1.2,0.1,2.3,0.1,3.4,0.1c12.4,0,17-5.6,17-10.3C255.8,19.8,254.3,17.4,252,16.7"/>
		<path style="clip-path:url(#SVGID_00000049936089469998509280000017368808840302244276_);fill:#0067B1;" d="M245.7,133.8
			c1.5-4.5,3.3-7.7,6.2-12.6c-3-1.5-10.9-4.8-10.9-10.2c0-6.3,7.8-11.2,9.4-11.2c0.7,0,0.9,0.6,0.9,1.8c0,3.3-1.6,8.5-1.6,11.4
			c0,2.5,1.6,5,3.1,5c1.5,0,5.8-5.4,5.8-10.8c0-9.6-8.4-12.5-11.1-12.5c-2.5,0-6.9,4-17.4,4c-19.5,0-24-19.3-24-27.8
			c0-0.4,0.1-0.4,0.2-0.4c0.4,0,2.4,2.4,8.5,2.4c3.2,0,6.1-0.8,10.7-0.8c10.9,0,15.7,7.5,22.4,17.2c4.1,2.5,13.8,6.6,13.8,18.2
			c0,10.2-10.8,15.8-13.4,26.7c4.2-0.5,6.6-7.9,10.9-7.9c2.2,0,3.2,1.7,3.2,4.5c0,4-2.3,10-6.6,13.7c0.1-0.4,0.1-0.8,0.1-1.4
			c0-2.5-1-6.2-3.9-6.2c-4.5,0-6,4.9-8.5,9c-2.6-9.3-6.2-17.6-12.5-22.7c-6.4-5.2-17.5-2.4-17.5-11.8c0-2.6,1.6-6.2,1.6-9.1
			c0-1-0.2-1.9-0.7-2.6c8.7,3.3,5.6,9.1,11,15.1c3.3,3.8,12.6,7.5,18,23.2c0.1-0.4,0.2-1.6,0.2-2.4c0-13.4-17.8-26.6-19.3-32.1
			c10.3,1.2,12.2,3.7,17.1,17.3C242.5,123.3,245.7,130.3,245.7,133.8 M243.4,89.7c0-1.9-4.8-2.1-5.3-7.4c-0.1-0.8-0.4-2.3-1.4-2.3
			c-1.6,0-0.4,5-2.2,5c-4.2,0-5.5-8.2-7.1-8.2c-0.4,0-0.8,0.3-0.8,1.4c0,1,0.2,1.6,0.2,2.8c0,1.2-0.3,2-1.4,2
			c-2.5,0-4.6-5.7-6.7-5.7c-0.5,0-0.9,0.3-0.9,0.7c0,1.1,1.8,3.1,1.8,4.1c0,2.2-5.9,1-5.9,2.8c0,0.8,0.8,1.1,1.9,1.1
			c1.9,0,4.9-0.8,6.5-0.8c0.9,0,2.3,0.2,2.3,1.4c0,1.3-3.3,2.9-3.3,4.1c0,0.5,0.5,0.8,1,0.8c2.5,0,6.8-4.3,9.9-4.3
			c0.5,0,1.9,0.3,1.9,1.1c0,1.2-3.1,3.3-3.1,5c0,0.5,0.3,1,0.8,1c1.6,0,3.8-4.3,6.9-4.3c1.2,0,2.9,0.5,3.8,0.5
			C243.1,90.5,243.4,90,243.4,89.7"/>
		<path style="clip-path:url(#SVGID_00000049936089469998509280000017368808840302244276_);fill:#0067B1;" d="M175.7,35.3
			c1.5,0,1.7,3.5,2,5.6c0.2,1.1,0.4,1.2,0.8,1.2c1.1,0,2.8-4.2,4-4.2c1.7,0,6.4,4.8,14.1,4.8c11,0,21.3-7.7,21.3-21.3
			c0-13.2-9.3-20.9-22.1-20.9c-6.1,0-10.5,3-12.9,3c-1.4,0.1-3.6-3.5-4.7-3.5c-0.5,0-0.9,0.9-0.9,2.4c0,1,0,4.2-1.1,4.2
			c-2.2,0-10.6-6.3-10.6-4c0,2.1,5.6,8.5,5.6,10.1c0,1.6-5.5,3.2-5.5,4.3c0,2,5.9,2.4,5.9,4.9c0,2.5-6.2,4.5-6.2,6.4
			c0,1.5,6.2,0.5,6.2,2.4c0,1.9-4.5,8.3-4.5,10.1c0,0.5,0.1,0.5,0.5,0.5C169.3,41.2,174.4,35.3,175.7,35.3 M178.4,20.4
			c0-1-3.5-2.9-3.5-4l0.4-0.3c1,0,2.7,0.4,4.1,0.4c1.2,0,1.4-5.1,2.3-5.1c0.6,0,1.7,4.8,2.7,4.8c1.2,0,3.4-1.4,4.3-1.4l0.4,0.3
			c0,0.6-2.3,3.1-2.3,3.8c0,0.8,5.1,1.8,5.1,2.5c0,0.9-5.2,0.8-5.2,1.6c0,0.6,1.9,3.2,1.9,4l-0.3,0.3c-0.7,0-3.5-1.3-4.4-1.3
			c-1,0-2.6,3.7-3.4,3.7c-0.3,0-0.5-0.4-0.5-0.8l-0.2-3.6c0-0.4-0.2-0.7-0.6-0.7c-1.1,0-3.2-0.1-3.8-0.1c-0.5,0-0.6-0.1-0.6-0.3
			C174.7,23.6,178.4,21.1,178.4,20.4 M196.1,37.7c-6.4,0-10.5-3.2-10.5-4.8c0-0.8,0.5-1.4,1.3-1.4c2,0,6.4,3.1,7.8,3.1
			c0.4,0,0.6-0.2,0.6-0.7c0-1.6-1.5-4.4-1.5-5.7c0-0.4,0.3-0.6,0.8-0.6c2.5,0,6.1,1,8,1c0.6,0,0.8-0.4,0.8-0.7c0-2-5.9-5.9-5.9-7.1
			c0-1.1,7.3-2.7,7.3-4.4c0-1.8-10-0.6-10-2.3c0-1.3,1.9-3.5,1.9-4.5c0-0.5-0.4-0.6-1-0.6c-0.8,0-5.2,1.7-7,1.7c-0.9,0-2-0.2-2-1.5
			c0-2.1,3.5-4.4,9.1-4.4c9,0,14.3,6.2,14.3,16.5C210.1,34.4,201,37.7,196.1,37.7"/>
		<path style="clip-path:url(#SVGID_00000049936089469998509280000017368808840302244276_);fill:#0067B1;" d="M134.6,194.8
			c0,0.8-0.3,1.7-1,2.6c-1-1.8-3.8-2.7-5.1-2.7c-9.3,0-5.8,13.5-15.8,13.5c-4.2,0-4.5-0.5-6.1-0.5c-0.6,0-1,0.3-1,0.8
			c0,2.4,3.4,8.2,12.7,8.2c9.4,0,18.4-5.7,18.4-12.8c0-1.2-0.3-2.4-0.8-3.7c0.4-0.5,1.3-0.9,2.1-0.9c1.4,0,2.3,1.6,3.6,1.6
			c1.5,0,2.6-1.1,2.6-2.6c0-1.2-0.6-2-1.7-2.6c0.7-0.5,1.3-1.5,1.3-2.4c0-1.5-1.1-3-2.9-3c-0.8,0-1.4,0.3-2,0.9
			c-0.2-1.6-1.1-3.2-2.8-3.2c-1.4,0-2.4,1-2.4,2.5C133.6,192.1,134.6,193.2,134.6,194.8"/>
		<path style="clip-path:url(#SVGID_00000049936089469998509280000017368808840302244276_);fill:#0067B1;" d="M110.1,198.3
			c-2.7,0-6.8-2.9-6.8-4.6c0-1.4,1.3-2.1,2.3-2.1c2.3,0,6.4,2.8,6.4,5.2C112,197.4,111.5,198.3,110.1,198.3 M84.8,177.9
			c7.3,1.8,10.9,5.7,11.6,10.3c0.7,4.4,1.6,8.1,3.4,9.9c2.3,2.5,6.7,4.8,10.6,4.8c3.3,0,5.9-1.1,5.9-4.1c0-3.3-4.4-10.6-11-10.6
			c-0.6,0-1.4,0.1-2.4,0.1c-0.8,0-2-0.2-2.7-0.8c-1.4-1.3-1.9-8.1-4.6-12.2c-3-4.5-6.3-5.8-10.7-5.8c-3.2,0-6.7,1.7-6.7,4.3
			C78.2,175.4,79,176.5,84.8,177.9"/>
		<path style="clip-path:url(#SVGID_00000049936089469998509280000017368808840302244276_);fill:#0067B1;" d="M130.4,166.8
			c0-4.1-8.5-4.2-8.5-10.4c0-1.5,1-4.2,3-7c0.8,4.7,2.7,7.2,6.8,8.7c8.1,3,9.2,7.5,9.2,12.4c0,8.2-5.7,18.3-20.4,18.3
			c-11.8,0-20.3-10.5-20.3-19.4c0-2.5,0.6-5.2,2.2-5.2c1.4,0,1.8,1.1,2.9,2.2c4.1,4.1,8.5,5.2,15,5.2
			C126.1,171.6,130.4,169.3,130.4,166.8 M130.8,173.4c-3.1,1.4-4.4,1.2-4.4,4.4c0,1.2-0.3,2.7-0.3,3.5c0,1.1,0.2,1.7,1.5,1.7
			c3.3,0,8.4-5.5,8.4-10.3c0-1.3-0.7-1.8-1.5-1.8C133.8,170.9,132.9,172.4,130.8,173.4 M101.8,127.5c0-5.8,13.8-8.9,13.8-16.1
			c0-1.2-0.5-3.3-1.3-4.8c4.8,2.6,8.3,7.1,8.3,10.7c0,6.3-6.5,9.2-6.5,13.1c0,4.5,7,5.3,7,10.9c0,4.6-6.6,10-6.6,16
			c0,4.6,3.3,8.4,8.3,9.1c-1.6,0.4-3.1,0.6-4.6,0.6c-9.2,0-18.6-7.5-18.6-16.5c0-4.4,1.9-8.3,4.8-11.2c2.5,2.2,5.1,3.6,6.7,3.6
			c1.5,0,2.1-0.7,2.1-1.8C115.1,137.8,101.8,134.7,101.8,127.5"/>
		<path style="clip-path:url(#SVGID_00000049936089469998509280000017368808840302244276_);fill:#0067B1;" d="M49.1,172.4
			c0.4,3.1,3.3,5.5,6.5,5.1c1.2-0.1,2.3-0.5,3-0.9c0.7,2.9,3.2,4.8,6.5,4.3c3.3-0.4,5.6-3.1,5.3-6.4c-0.1-0.9-0.3-1.5-0.5-2.1
			c0,0,0.4,0,0.8-0.1c3.3-0.6,5.5-3.2,5.2-6.4c-0.4-3.3-3.3-5.7-6.3-5.3c-1.2,0.1-2.3,0.6-3,1.2c-0.8-2.7-3.4-5.1-6.9-4.5
			c-3.2,0.5-5.2,3.2-4.9,6.6c0.1,0.6,0.2,1.2,0.5,1.8c0,0-0.5,0.1-0.9,0.1C51.6,166.2,48.7,168.8,49.1,172.4 M66.1,168.8
			c0.2,1.9-1.1,3.6-3,3.8c-1.9,0.2-3.6-1.1-3.8-3c-0.2-1.9,1.1-3.6,3-3.8C64.2,165.5,65.9,166.9,66.1,168.8"/>
	</g>
</g>
</svg>
