<?xml version="1.0" encoding="utf-8"?>
<!-- Generator: Adobe Illustrator 26.3.1, SVG Export Plug-In . SVG Version: 6.00 Build 0)  -->
<svg version="1.1" id="Layer_1" xmlns="http://www.w3.org/2000/svg" xmlns:xlink="http://www.w3.org/1999/xlink" x="0px" y="0px"
	 viewBox="0 0 399 65" style="enable-background:new 0 0 399 65;" xml:space="preserve">
<style type="text/css">
	.st0{fill:#E84855;}
	.st1{fill:#3084C6;}
	.st2{fill:#FFEB62;}
	.st3{fill:#133356;}
	.st4{fill:#7AC143;}
</style>
<g>
	<circle class="st0" cx="6.7" cy="10.1" r="5.4"/>
	<circle class="st1" cx="39.5" cy="11.5" r="8.5"/>
	<circle class="st2" cx="21.6" cy="4.8" r="3.7"/>
	<path class="st3" d="M72.2,34.4c9.2,0,15.2,5.9,15.2,14.8c0,8.9-6.1,14.8-15.4,14.8c-9.3,0-15.2-5.8-15.2-14.8
		C56.8,40.3,62.9,34.4,72.2,34.4z M72.1,42.7c-3.6,0-6.1,2.6-6.1,6.4c0,3.9,2.5,6.5,6.1,6.5c3.5,0,6-2.7,6-6.4
		C78.2,45.4,75.7,42.7,72.1,42.7z"/>
	<path class="st3" d="M119.7,45.5v12.7c0,3.9-2,5.3-4.8,5.3h-1.1c-2.9,0-4.9-1.3-4.9-5.3V47.3c0-2.5-1.3-4.1-3.6-4.1
		c-1.9,0-3.4,0.9-4.2,2.2v12.7c0,4-2,5.3-4.8,5.3H95c-3,0-4.9-1.3-4.9-5.3V35.9c0-0.4,1.9-1.3,4.2-1.3c2.8,0,5.3,1.4,6.2,4.9
		c2-3,4.8-5.2,9.3-5.2C117,34.4,119.7,39.7,119.7,45.5z"/>
	<path class="st3" d="M122,49.1c0-9,5.1-14.7,12.8-14.7c3.5,0,6.5,1.5,8.1,3.9V24.4c0-0.4,2-1.3,4.2-1.3c3.1,0,6.7,1.6,6.7,8.3v26.7
		c0,3.9-2,5.3-4.8,5.3H148c-2.3,0-4-0.7-4.6-3c-0.1-0.5-0.2-1.1-0.3-1.6c-1.5,3.1-4.5,5.2-8.3,5.2C127.1,63.9,122,57.9,122,49.1z
		 M143,46c-0.9-1.9-2.6-3.1-5-3.1c-3.4,0-5.6,2.4-5.6,6.3c0,3.8,2.2,6.3,5.5,6.3c3,0,5.2-1.9,5.2-4.9V46z"/>
	<path class="st3" d="M169,34.6c8.5-1.5,15.4,3.3,16.8,11.3l0.1,0.5c0.2,1.6,0,2.7-1.7,3l-17.7,3.1c0.1,0.3,0.2,0.5,0.4,0.7
		c1.2,2.5,3.9,3.6,7.1,3c3.3-0.6,5.4-2.4,6-4.5c0-0.1,5.1-0.8,5.8,3.2c0.3,1.8-0.5,3.7-2.3,5.2c-1.9,1.5-4.7,2.7-8.6,3.4
		c-9.5,1.7-16.3-2.7-17.9-11.6C155.3,43.4,160.4,36.1,169,34.6z M170,41.5c-2.9,0.5-4.6,3-4.4,6l10.2-1.8
		C175.1,42.5,173,41,170,41.5z"/>
	<path class="st3" d="M211.8,40.2c0,4.4-3.5,5.9-3.6,5.7c-0.9-0.8-2.3-1.5-3.9-1.5c-3.2,0-4.8,2.3-4.8,6.9v6.7c0,4-2,5.3-4.8,5.3
		h-1.1c-3,0-4.9-1.3-4.9-5.3V35.9c0-0.4,1.9-1.3,4.1-1.3c2.1,0,4.4,0.7,5.6,3.4c0.3,0.5,0.5,1.1,0.6,1.8c0.9-3.2,3.4-5.4,6.8-5.4
		C209.4,34.4,211.8,36.7,211.8,40.2z"/>
	<path class="st3" d="M224.1,60.6c-0.6,2.1-2.3,2.8-4.3,2.8h-1.1c-3,0-5-1.3-5-5.3V24.4c0-0.4,2-1.3,4.2-1.3c3.1,0,6.7,1.6,6.7,8.3
		v6.9c1.8-2.5,4.7-4,8.2-4c7.7,0,12.8,5.6,12.8,14.7c0,8.8-5.1,14.8-12.8,14.8c-4,0-7-2.1-8.3-5.1L224.1,60.6z M229.8,42.9
		c-2.4,0-4.2,1.3-5.2,3.2v4.5c0.1,3,2.2,4.8,5.1,4.8c3.3,0,5.5-2.5,5.5-6.3C235.2,45.3,233.1,42.9,229.8,42.9z"/>
	<path class="st3" d="M271.4,40.2c0,4.4-3.5,5.9-3.6,5.7c-0.9-0.8-2.3-1.5-3.9-1.5c-3.2,0-4.8,2.3-4.8,6.9v6.7c0,4-2,5.3-4.8,5.3
		h-1.1c-3,0-4.9-1.3-4.9-5.3V35.9c0-0.4,1.9-1.3,4.1-1.3c2.1,0,4.4,0.7,5.6,3.4c0.3,0.5,0.5,1.1,0.6,1.8c0.9-3.2,3.4-5.4,6.8-5.4
		C269,34.4,271.4,36.7,271.4,40.2z"/>
	<path class="st3" d="M289.7,46.4h1.2c0-0.3-0.1-0.7-0.1-1c-0.3-2.3-1.8-3.4-4.3-3.4c-3.5,0-4.9,1.6-5.6,3.4c-0.1,0.2-7.2,1-7.2-3.9
		c0-1.5,0.5-2.8,1.5-3.9c1.9-2.2,5.9-3.4,12-3.4c10.1,0,14.5,4.1,14.5,12.2v15.8c0,0.6-2.2,1.3-4.3,1.3c-2.4,0-4.3-0.9-5.3-2.8
		c-0.3-0.6-0.6-1.2-0.7-1.9c-1.8,3-5.3,4.8-9.5,4.8c-5.7,0-9.3-3.2-9.3-8.1C272.6,49.6,278.8,46.5,289.7,46.4z M290.9,51l-1.5,0.1
		c-4.3,0.1-6.8,1-6.8,3.4c0,1.7,1.3,2.7,3.2,2.7c3,0,4.9-1.7,5.1-4.3V51z"/>
	<path class="st3" d="M334.7,45.5v12.7c0,3.9-2,5.3-4.8,5.3h-1.1c-2.9,0-4.9-1.3-4.9-5.3V47.3c0-2.5-1.3-4.1-3.6-4.1
		c-1.9,0-3.4,0.9-4.2,2.2v12.7c0,4-2,5.3-4.8,5.3h-1.1c-3,0-4.9-1.3-4.9-5.3V35.9c0-0.4,1.9-1.3,4.2-1.3c2.8,0,5.3,1.4,6.2,4.9
		c2-3,4.8-5.2,9.3-5.2C332.1,34.4,334.7,39.7,334.7,45.5z"/>
	<path class="st3" d="M337.1,49.1c0-9,5.1-14.7,12.8-14.7c3.5,0,6.5,1.5,8.1,3.9V24.4c0-0.4,2-1.3,4.2-1.3c3.1,0,6.7,1.6,6.7,8.3
		v26.7c0,3.9-2,5.3-4.8,5.3H363c-2.3,0-4-0.7-4.6-3c-0.1-0.5-0.2-1.1-0.3-1.6c-1.5,3.1-4.5,5.2-8.3,5.2
		C342.2,63.9,337.1,57.9,337.1,49.1z M358,46c-0.9-1.9-2.6-3.1-5-3.1c-3.4,0-5.6,2.4-5.6,6.3c0,3.8,2.2,6.3,5.5,6.3
		c3,0,5.2-1.9,5.2-4.9V46z"/>
	<path class="st3" d="M371.2,57.4c0-2.4,2.4-4.2,2.6-4c1.9,1.8,5.3,3.3,9.1,3.3c2.2,0,3.4-0.6,3.4-1.8c0-1.4-1.8-1.7-4.5-2.3
		c-3.5-0.7-9.9-1.9-9.9-8.8c0-5.7,4.5-9.3,12.4-9.3c6,0,9.8,1.4,11.2,3.8c0.5,0.8,0.7,1.6,0.7,2.6c0,2.6-2.7,4.4-2.9,4.3
		c-2-2-5.3-3.6-8.2-3.6c-2.1,0-3.3,0.7-3.3,1.9c0,1.3,1.9,1.5,4.8,2.2c3.6,0.8,10.3,2,10.3,8.8c0,5.9-4.5,9.4-13.2,9.4
		c-4.5,0-7.7-0.7-9.8-1.9C372.1,60.8,371.2,59.3,371.2,57.4z"/>
	<path class="st3" d="M45.5,35.6l-2.3,12.4l-3.8-14.3c-0.6-2.6-3.2-4.1-6.1-4.1c-3,0-5.6,1.3-6.2,4.1l-3.9,14.4l-5.5-24.3
		c-0.9-4.8-4-6.1-6.2-6.1c-4.9,0-7.2,3.4-7.1,3.9l11.1,37.5c1,3.4,3.1,4.3,6.6,4.3c3.5,0,5.9-1.1,6.8-4.4L33,43.9L37.3,59
		c1,3.4,3.3,4.4,6.7,4.4c3.5,0,5.8-1.1,6.7-4.3l6-21.2c0.1-0.4-0.3-0.9-0.7-0.7c-1,0.4-2.1,0.6-3.3,0.6c-2.4,0-4.6-1-6.3-2.5
		C46.1,35,45.6,35.2,45.5,35.6z"/>
	<path class="st3" d="M43.2,46.3"/>
	<circle class="st4" cx="52.7" cy="28.8" r="6.8"/>
</g>
</svg>
