<?xml version="1.0" encoding="UTF-8"?>
<svg id="Layer_1" data-name="Layer 1" xmlns="http://www.w3.org/2000/svg" version="1.1" viewBox="0 0 230 40">
  <defs>
    <style>
      .cls-1 {
        fill: #3084c6;
      }

      .cls-1, .cls-2, .cls-3, .cls-4, .cls-5 {
        stroke-width: 0px;
      }

      .cls-2 {
        fill: #ffeb62;
      }

      .cls-3 {
        fill: #133356;
      }

      .cls-4 {
        fill: #e84855;
      }

      .cls-5 {
        fill: #7ac143;
      }
    </style>
  </defs>
  <circle class="cls-4" cx="3.9" cy="7.1" r="3.1"/>
  <circle class="cls-1" cx="22.7" cy="7.9" r="4.9"/>
  <circle class="cls-2" cx="12.4" cy="4.1" r="2.1"/>
  <path class="cls-3" d="M41.6,21.1c5.3,0,8.8,3.4,8.8,8.5s-3.5,8.5-8.9,8.5-8.8-3.3-8.8-8.5c0-5.1,3.5-8.5,8.9-8.5ZM41.5,25.9c-2.1,0-3.5,1.5-3.5,3.7s1.4,3.7,3.5,3.7,3.5-1.6,3.5-3.7c0-2.2-1.4-3.7-3.5-3.7Z"/>
  <path class="cls-3" d="M68.9,27.5v7.3c0,2.2-1.2,3.1-2.8,3.1h-.6c-1.7,0-2.8-.7-2.8-3.1v-6.3c0-1.4-.7-2.4-2.1-2.4s-2,.5-2.4,1.3v7.3c0,2.3-1.2,3.1-2.8,3.1h-.7c-1.7,0-2.8-.7-2.8-3.1v-12.8c0-.2,1.1-.7,2.4-.7s3.1.8,3.6,2.8c1.2-1.7,2.8-3,5.4-3,4.1,0,5.7,3.1,5.7,6.4Z"/>
  <path class="cls-3" d="M70.2,29.6c0-5.2,2.9-8.5,7.4-8.5s3.7.9,4.7,2.2v-8c0-.2,1.2-.7,2.4-.7s3.9.9,3.9,4.8v15.4c0,2.2-1.2,3.1-2.8,3.1h-.6c-1.3,0-2.3-.4-2.6-1.7,0-.3-.1-.6-.2-.9-.9,1.8-2.6,3-4.8,3-4.4,0-7.4-3.5-7.4-8.6ZM82.3,27.8c-.5-1.1-1.5-1.8-2.9-1.8-2,0-3.2,1.4-3.2,3.6s1.3,3.6,3.2,3.6,3-1.1,3-2.8v-2.6h0Z"/>
  <path class="cls-3" d="M97.3,21.2c4.9-.9,8.9,1.9,9.7,6.5v.3c.2.9,0,1.6-.9,1.7l-10.2,1.8c0,.2.1.3.2.4.7,1.4,2.2,2.1,4.1,1.7,1.9-.3,3.1-1.4,3.5-2.6,0,0,2.9-.5,3.3,1.8.2,1-.3,2.1-1.3,3-1.1.9-2.7,1.6-5,2-5.5,1-9.4-1.6-10.3-6.7-1-4.9,2-9.1,6.9-10ZM97.9,25.2c-1.7.3-2.6,1.7-2.5,3.5l5.9-1c-.4-1.8-1.6-2.7-3.3-2.4Z"/>
  <path class="cls-3" d="M121.9,24.5c0,2.5-2,3.4-2.1,3.3-.5-.5-1.3-.9-2.2-.9-1.8,0-2.8,1.3-2.8,4v3.9c0,2.3-1.2,3.1-2.8,3.1h-.6c-1.7,0-2.8-.7-2.8-3.1v-12.7c0-.2,1.1-.7,2.4-.7s2.5.4,3.2,2c.2.3.3.6.3,1,.5-1.8,2-3.1,3.9-3.1s3.5,1.3,3.5,3.3Z"/>
  <path class="cls-3" d="M129,36.2c-.3,1.2-1.3,1.6-2.5,1.6h-.6c-1.7,0-2.9-.7-2.9-3.1V15.4c0-.2,1.2-.7,2.4-.7s3.9.9,3.9,4.8v4c1-1.4,2.7-2.3,4.7-2.3,4.4,0,7.4,3.2,7.4,8.5s-2.9,8.5-7.4,8.5-4-1.2-4.8-2.9l-.2,1.1ZM132.3,26c-1.4,0-2.4.7-3,1.8v2.6c0,1.7,1.3,2.8,2.9,2.8s3.2-1.4,3.2-3.6c0-2.2-1.2-3.6-3.1-3.6Z"/>
  <path class="cls-3" d="M156.2,24.5c0,2.5-2,3.4-2.1,3.3-.5-.5-1.3-.9-2.2-.9-1.8,0-2.8,1.3-2.8,4v3.9c0,2.3-1.2,3.1-2.8,3.1h-.6c-1.7,0-2.8-.7-2.8-3.1v-12.7c0-.2,1.1-.7,2.4-.7s2.5.4,3.2,2c.2.3.3.6.3,1,.5-1.8,2-3.1,3.9-3.1s3.5,1.3,3.5,3.3Z"/>
  <path class="cls-3" d="M166.8,28h.7c0-.2,0-.4,0-.6-.2-1.3-1-2-2.5-2s-2.8.9-3.2,2c0,.1-4.1.6-4.1-2.2s.3-1.6.9-2.2c1.1-1.3,3.4-2,6.9-2,5.8,0,8.3,2.4,8.3,7v9.1c0,.3-1.3.7-2.5.7s-2.5-.5-3.1-1.6c-.2-.3-.3-.7-.4-1.1-1,1.7-3.1,2.8-5.5,2.8s-5.4-1.8-5.4-4.7c0-3.4,3.6-5.2,9.8-5.2ZM167.5,30.7h-.9c-2.5.1-3.9.6-3.9,2s.7,1.6,1.8,1.6c1.7,0,2.8-1,2.9-2.5v-1.1h0Z"/>
  <path class="cls-3" d="M192.7,27.5v7.3c0,2.2-1.2,3.1-2.8,3.1h-.6c-1.7,0-2.8-.7-2.8-3.1v-6.3c0-1.4-.7-2.4-2.1-2.4s-2,.5-2.4,1.3v7.3c0,2.3-1.2,3.1-2.8,3.1h-.6c-1.7,0-2.8-.7-2.8-3.1v-12.8c0-.2,1.1-.7,2.4-.7s3.1.8,3.6,2.8c1.2-1.7,2.8-3,5.4-3,4.1,0,5.6,3.1,5.6,6.4Z"/>
  <path class="cls-3" d="M194.1,29.6c0-5.2,2.9-8.5,7.4-8.5s3.7.9,4.7,2.2v-8c0-.2,1.2-.7,2.4-.7s3.9.9,3.9,4.8v15.4c0,2.2-1.2,3.1-2.8,3.1h-.6c-1.3,0-2.3-.4-2.6-1.7,0-.3-.1-.6-.2-.9-.9,1.8-2.6,3-4.8,3-4.4,0-7.3-3.5-7.3-8.6ZM206.1,27.8c-.5-1.1-1.5-1.8-2.9-1.8-2,0-3.2,1.4-3.2,3.6s1.3,3.6,3.2,3.6,3-1.1,3-2.8v-2.6h0Z"/>
  <path class="cls-3" d="M213.7,34.4c0-1.4,1.4-2.4,1.5-2.3,1.1,1,3.1,1.9,5.2,1.9s2-.3,2-1-1-1-2.6-1.3c-2-.4-5.7-1.1-5.7-5.1s2.6-5.4,7.1-5.4,5.6.8,6.4,2.2c.3.5.4.9.4,1.5,0,1.5-1.6,2.5-1.7,2.5-1.2-1.2-3.1-2.1-4.7-2.1s-1.9.4-1.9,1.1,1.1.9,2.8,1.3c2.1.5,5.9,1.2,5.9,5.1s-2.6,5.4-7.6,5.4-4.4-.4-5.6-1.1c-1-.7-1.6-1.6-1.6-2.6Z"/>
  <path class="cls-3" d="M26.2,21.8l-1.3,7.1-2.2-8.2c-.3-1.5-1.8-2.4-3.5-2.4s-3.2.7-3.6,2.4l-2.2,8.3-3.2-14c-.5-2.8-2.3-3.5-3.6-3.5-2.8,0-4.1,2-4.1,2.2l6.4,21.6c.6,2,1.8,2.5,3.8,2.5s3.4-.6,3.9-2.5l2.4-8.7,2.5,8.7c.6,2,1.9,2.5,3.9,2.5s3.3-.6,3.9-2.5l3.5-12.2c0-.2-.2-.5-.4-.4-.6.2-1.2.3-1.9.3-1.4,0-2.6-.6-3.6-1.4-.2-.2-.5,0-.5.2Z"/>
  <path class="cls-3" d="M24.9,28"/>
  <circle class="cls-5" cx="30.3" cy="17.9" r="3.9"/>
</svg>