<?xml version="1.0" encoding="utf-8"?>
<!-- Generator: Adobe Illustrator 26.3.1, SVG Export Plug-In . SVG Version: 6.00 Build 0)  -->
<svg version="1.1" id="Layer_1" xmlns="http://www.w3.org/2000/svg" xmlns:xlink="http://www.w3.org/1999/xlink" x="0px" y="0px"
	 viewBox="0 0 442 85" style="enable-background:new 0 0 442 85;" xml:space="preserve">
<style type="text/css">
	.st0{fill:#231F20;}
	.st1{fill:#B11D23;}
</style>
<g>
	<g>
		<path class="st0" d="M125,83.4l1.5-12h3.5l3.8,7.8h0.2l3.8-7.8h3.5l1.5,12v1.5h-3.1l-0.8-9.1h-0.2L135,83h-2.5l-3.5-7.1h-0.2
			l-0.8,9.1H125L125,83.4z"/>
		<path class="st0" d="M145.3,83.4l5.2-12h4.1l5.2,12v1.5h-2.9l-1.1-2.6h-6.6l-1.1,2.6h-2.9L145.3,83.4z M154.8,79.7l-2.2-5.5
			l-2.2,5.5H154.8z"/>
		<path class="st0" d="M163.2,71.4h9.9c1.6-0.1,3.1,1.1,3.2,2.8c0,0.1,0,0.3,0,0.4v7.1c0.1,1.6-1.1,3.1-2.8,3.2c-0.1,0-0.3,0-0.4,0
			h-9.9V71.4z M171.9,82.2c0.9,0,1.3-0.4,1.3-1.3v-5.6c0-0.9-0.4-1.3-1.3-1.3h-5.7v8.1L171.9,82.2z"/>
		<path class="st0" d="M180.9,71.4h11.6v1.7l-1,1h-7.5v2.7h6.4v2.6h-6.4v2.8h8.5v2.7h-11.6V71.4z"/>
		<path class="st0" d="M203.5,71.4h11.4v1.7l-1,1h-7.3v3.3h6.2v2.7h-6.2v4.8h-3.1V71.4z"/>
		<path class="st0" d="M218.2,71.4h9.7c1.6-0.1,3.1,1.1,3.2,2.8c0,0.1,0,0.3,0,0.4v2.3c0,1.5-1.1,2.8-2.6,3l2.9,3.5v1.5h-2.8
			l-3.8-4.8h-3.6v4.8h-3.1V71.4z M226.8,77.4c0.9,0,1.3-0.4,1.3-1.3v-0.8c0-0.9-0.4-1.3-1.3-1.3h-5.5v3.3L226.8,77.4z"/>
		<path class="st0" d="M235.2,74.4c-0.1-1.6,1.1-3.1,2.8-3.2c0.1,0,0.3,0,0.4,0h6.9c1.6-0.1,3.1,1.1,3.2,2.8c0,0.1,0,0.3,0,0.4V82
			c0.1,1.6-1.1,3.1-2.8,3.2c-0.1,0-0.3,0-0.4,0h-6.9c-1.6,0.1-3.1-1.1-3.2-2.8c0-0.1,0-0.3,0-0.4V74.4z M244.2,82.4
			c0.9,0,1.3-0.4,1.3-1.3v-6c0-0.9-0.4-1.3-1.3-1.3h-4.6c-0.9,0-1.3,0.4-1.3,1.3v6c0,0.9,0.4,1.3,1.3,1.3L244.2,82.4z"/>
		<path class="st0" d="M252.3,83.4l1.5-12h3.5l3.8,7.8h0.2l3.8-7.8h3.5l1.5,12v1.5h-3.1l-0.8-9.1h-0.2l-3.5,7.1h-2.5l-3.5-7.1h-0.2
			l-0.8,9.1h-3.1L252.3,83.4z"/>
		<path class="st0" d="M279.4,73v-1.5h3l2.2,9.4h0.2l2.9-9.4h3.5l2.9,9.4h0.2l2.2-9.4h3V73l-3.3,12h-3.7l-3-9.5h-0.2l-3,9.5h-3.7
			L279.4,73z"/>
		<path class="st0" d="M303.3,71.4h3.1v5.3h6.9v-5.3h3.1v13.5h-3.1v-5.5h-6.9v5.5h-3.1V71.4z"/>
		<path class="st0" d="M319.4,83.4l5.2-12h4.1l5.2,12v1.5h-2.9l-1.1-2.6h-6.6l-1.1,2.6h-2.9L319.4,83.4z M328.8,79.7l-2.2-5.5
			l-2.2,5.5H328.8z"/>
		<path class="st0" d="M339.6,74.1h-5v-2.7h13.1v1.7l-1,1h-4.1v10.8h-3.1L339.6,74.1z"/>
		<path class="st0" d="M350.7,71.4h2.9v2.3l-1.3,2.7h-1.6V71.4z"/>
		<path class="st0" d="M357.2,82.2h8.4c0.8,0,1.1-0.3,1.1-1.1V81c0-0.7-0.3-0.9-1.1-1.1l-5.4-0.9c-1.9-0.3-3-1.4-3-3v-1.5
			c-0.1-1.6,1.1-3.1,2.8-3.2c0.1,0,0.3,0,0.4,0h9v1.7l-1,1h-7c-0.8,0-1.1,0.3-1.1,1.1v0.2c0,0.7,0.3,0.9,1.1,1.1l5.4,0.9
			c1.9,0.3,3,1.4,3,3v1.5c0.1,1.6-1.1,3.1-2.8,3.2c-0.1,0-0.3,0-0.4,0h-9.4V82.2z"/>
		<path class="st0" d="M381,71.4h9.7c1.6-0.1,3.1,1.1,3.2,2.8c0,0.1,0,0.3,0,0.4v2.3c0,1.5-1.1,2.8-2.6,3l2.9,3.5v1.5h-2.8l-3.8-4.8
			h-3.6v4.8H381L381,71.4z M389.6,77.4c0.9,0,1.3-0.4,1.3-1.3v-0.8c0-0.9-0.4-1.3-1.3-1.3h-5.5v3.3L389.6,77.4z"/>
		<path class="st0" d="M398.3,71.4h11.6v1.7l-1,1h-7.5v2.7h6.4v2.6h-6.4v2.8h8.5v2.7h-11.6V71.4z"/>
		<path class="st0" d="M412.7,83.4l5.2-12h4.1l5.2,12v1.5h-2.9l-1.1-2.6h-6.6l-1.1,2.6h-2.9V83.4z M422.1,79.7l-2.2-5.5l-2.2,5.5
			H422.1z"/>
		<path class="st0" d="M430.6,71.4h3.1v10.7h8.3v2.8h-11.4V71.4z"/>
	</g>
	<g>
		<path class="st1" d="M162.2,53.9c-1.1,0-2.1-0.8-2.3-1.9l-6-30.9c0-0.1-0.2-0.1-0.2,0l-6,30.9c-0.2,1.1-1.2,1.9-2.3,1.9h-8.2
			c-1.1,0-2.1-0.8-2.3-1.9l-9.9-50c-0.2-0.8,0.3-1.7,1.2-1.9c0.1,0,0.2,0,0.4,0h8.5c1.1,0,2,0.8,2.2,1.9l5.3,30c0,0.1,0.2,0.1,0.2,0
			l5.8-30c0.2-1.1,1.2-1.9,2.3-1.9h5.8c1.1,0,2.1,0.8,2.3,1.9l5.6,29.2c0,0.1,0.2,0.1,0.2,0l4.8-29.2c0.2-1.1,1.1-1.9,2.2-1.9h8.5
			c0.9,0,1.6,0.7,1.6,1.6c0,0.1,0,0.2,0,0.4l-9.9,50c-0.2,1.1-1.2,1.9-2.3,1.9L162.2,53.9z"/>
		<path class="st1" d="M190.5,53.9c-1.1,0-1.9-0.8-1.9-1.9c0,0,0,0,0,0v-50c0-1.1,0.8-1.9,1.9-1.9c0,0,0,0,0,0h8.1
			c1.1,0,1.9,0.8,1.9,1.9c0,0,0,0,0,0v50c0,1.1-0.8,1.9-1.9,1.9c0,0,0,0,0,0L190.5,53.9z"/>
		<path class="st1" d="M237.9,53.9c-1.2,0-2.2-0.7-2.7-1.8l-12.6-29.3c-0.1-0.2-0.2-0.1-0.2,0v29.2c0,1.1-0.8,1.9-1.9,1.9
			c0,0,0,0,0,0h-8.1c-1.1,0-1.9-0.8-1.9-1.9c0,0,0,0,0,0v-50c0-1.1,0.8-1.9,1.9-1.9c0,0,0,0,0,0h8.2c1.2,0,2.2,0.7,2.7,1.8L236,31.2
			c0.1,0.2,0.2,0.1,0.2,0V1.9c0-1.1,0.8-1.9,1.9-1.9c0,0,0,0,0,0h8.1c1.1,0,1.9,0.8,1.9,1.9c0,0,0,0,0,0v50c0,1.1-0.8,1.9-1.9,1.9
			c0,0,0,0,0,0L237.9,53.9z"/>
		<path class="st1" d="M285.5,53.9c-1.2,0-2.2-0.7-2.7-1.8l-12.6-29.3c-0.1-0.2-0.2-0.1-0.2,0v29.2c0,1.1-0.8,1.9-1.9,1.9
			c0,0,0,0,0,0H260c-1.1,0-1.9-0.8-1.9-1.9c0,0,0,0,0,0v-50c0-1.1,0.8-1.9,1.9-1.9c0,0,0,0,0,0h8.2c1.2,0,2.2,0.7,2.7,1.8l12.6,29.4
			c0.1,0.2,0.2,0.1,0.2,0V1.9c0-1.1,0.8-1.9,1.9-1.9c0,0,0,0,0,0h8.1c1.1,0,1.9,0.8,1.9,1.9c0,0,0,0,0,0v50c0,1.1-0.8,1.9-1.9,1.9
			c0,0,0,0,0,0L285.5,53.9z"/>
		<path class="st1" d="M307.6,53.9c-1.1,0-1.9-0.8-1.9-1.9c0,0,0,0,0,0v-50c0-1.1,0.8-1.9,1.9-1.9c0,0,0,0,0,0h8.1
			c1.1,0,1.9,0.8,1.9,1.9c0,0,0,0,0,0v50c0,1.1-0.8,1.9-1.9,1.9c0,0,0,0,0,0L307.6,53.9z"/>
		<path class="st1" d="M329.5,53.9c-1.1,0-1.9-0.8-1.9-1.9c0,0,0,0,0,0v-50c0-1.1,0.8-1.9,1.9-1.9c0,0,0,0,0,0h26.6
			c3.2,0,5.7,2.6,5.8,5.8v22.6c0,3.2-2.6,5.7-5.8,5.8h-16.2c-0.2,0-0.4,0.1-0.4,0.3c0,0,0,0,0,0v17.4c0,1.1-0.8,1.9-1.9,1.9
			c0,0,0,0,0,0L329.5,53.9z M339.9,10.7c-0.2,0-0.4,0.1-0.4,0.3c0,0,0,0,0,0v12c0,0.2,0.1,0.4,0.3,0.4c0,0,0,0,0,0H350
			c0.2,0,0.4-0.1,0.4-0.3c0,0,0,0,0,0v-12c0-0.2-0.1-0.4-0.3-0.4c0,0,0,0,0,0L339.9,10.7z"/>
		<path class="st1" d="M372.4,53.9c-1.1,0-1.9-0.8-1.9-1.9c0,0,0,0,0,0v-50c0-1.1,0.8-1.9,1.9-1.9c0,0,0,0,0,0h26.2
			c1.1,0,1.9,0.8,1.9,1.9c0,0,0,0,0,0v6.8c0,1.1-0.8,1.9-1.9,1.9c0,0,0,0,0,0h-15.8c-0.2,0-0.4,0.1-0.4,0.3c0,0,0,0,0,0v10.5
			c0,0.2,0.1,0.4,0.3,0.4c0,0,0,0,0,0h11.1c1.1,0,1.9,0.8,1.9,1.9c0,0,0,0,0,0v6.1c0,1.1-0.8,1.9-1.9,1.9c0,0,0,0,0,0h-11.1
			c-0.2,0-0.4,0.1-0.4,0.3c0,0,0,0,0,0v10.5c0,0.2,0.1,0.4,0.3,0.4c0,0,0,0,0,0h15.9c1.1,0,1.9,0.8,1.9,1.9c0,0,0,0,0,0v6.8
			c0,1.1-0.8,1.9-1.9,1.9c0,0,0,0,0,0L372.4,53.9z"/>
		<path class="st1" d="M414.1,53.9c-3.2,0-5.7-2.6-5.8-5.8V5.8c0-3.2,2.6-5.7,5.8-5.8h21.3c3.2,0,5.7,2.6,5.8,5.8v6.7
			c0,1.2-0.7,2.2-1.8,2.7l-8.4,3.5c-0.6,0.3-1.4,0-1.7-0.6c-0.1-0.2-0.1-0.4-0.1-0.5v-6.4c0-0.2-0.1-0.4-0.3-0.4c0,0,0,0,0,0h-8.2
			c-0.2,0-0.4,0.1-0.4,0.3c0,0,0,0,0,0v31.7c0,0.2,0.1,0.4,0.3,0.4c0,0,0,0,0,0h9.5c0.2,0,0.4-0.1,0.4-0.3c0,0,0,0,0,0v-7.9
			c0-0.2-0.1-0.4-0.3-0.4c0,0,0,0,0,0h-5.2c-0.7,0-1.3-0.6-1.3-1.3c0-0.2,0-0.3,0.1-0.4l3-7.2c0.4-1.1,1.5-1.8,2.6-1.8h10.8
			c1.1,0,1.9,0.8,1.9,1.9c0,0,0,0,0,0v22.4c0,3.2-2.6,5.7-5.8,5.8H414.1z"/>
	</g>
	<g>
		<path class="st0" d="M14.9,10L10,14.9c-0.9,0.9-0.9,2.3,0,3.2c0,0,0,0,0,0l16.3,16.3c0.9,0.9,2.3,0.9,3.2,0l11.3-11.3
			c0.9-0.9,2.3-0.9,3.2,0c0,0,0,0,0,0l11.3,11.3c0.9,0.9,2.3,0.9,3.2,0L75,18.1c0.9-0.9,0.9-2.3,0-3.2L70.1,10
			c-0.9-0.9-2.3-0.9-3.2,0l-9.6,9.6c-0.9,0.9-2.3,0.9-3.2,0c0,0,0,0,0,0l-5.1-5.1c-0.4-0.4-0.7-1-0.7-1.6V2.3C48.2,1,47.2,0,46,0h-7
			c-1.3,0-2.3,1-2.3,2.3v10.6c0,0.6-0.2,1.2-0.7,1.6L31,19.6c-0.9,0.9-2.3,0.9-3.2,0L18.1,10C17.3,9.1,15.8,9.1,14.9,10z"/>
		<path class="st0" d="M70.1,75L75,70c0.9-0.9,0.9-2.3,0-3.2L58.6,50.5c-0.9-0.9-2.3-0.9-3.2,0L44.1,61.8c-0.9,0.9-2.3,0.9-3.2,0
			c0,0,0,0,0,0L29.6,50.5c-0.9-0.9-2.3-0.9-3.2,0L10,66.8c-0.9,0.9-0.9,2.3,0,3.2c0,0,0,0,0,0l4.9,4.9c0.9,0.9,2.3,0.9,3.2,0
			c0,0,0,0,0,0l9.6-9.6c0.9-0.9,2.3-0.9,3.2,0c0,0,0,0,0,0l5.1,5.1c0.4,0.4,0.7,1,0.7,1.6v10.6c0,1.3,1,2.3,2.3,2.3h7
			c1.3,0,2.3-1,2.3-2.3V72c0-0.6,0.2-1.2,0.7-1.6l5.1-5.1c0.9-0.9,2.3-0.9,3.2,0c0,0,0,0,0,0l9.6,9.6C67.7,75.9,69.2,75.9,70.1,75z"
			/>
		<path class="st0" d="M2.3,36.7h80.4c1.3,0,2.3,1,2.3,2.3v7c0,1.3-1,2.3-2.3,2.3H2.3C1,48.2,0,47.2,0,46v-7C0,37.7,1,36.7,2.3,36.7
			z"/>
	</g>
	<rect x="104.2" y="0" class="st0" width="2.2" height="84.9"/>
</g>
</svg>
